<?xml version="1.0" encoding="UTF-8" standalone="no"?>
<!-- Created with Inkscape (http://www.inkscape.org/) -->

<svg
   xmlns:dc="http://purl.org/dc/elements/1.1/"
   xmlns:cc="http://creativecommons.org/ns#"
   xmlns:rdf="http://www.w3.org/1999/02/22-rdf-syntax-ns#"
   xmlns:svg="http://www.w3.org/2000/svg"
   xmlns="http://www.w3.org/2000/svg"
   xmlns:sodipodi="http://sodipodi.sourceforge.net/DTD/sodipodi-0.dtd"
   xmlns:inkscape="http://www.inkscape.org/namespaces/inkscape"
   id="svg19537"
   version="1.1"
   inkscape:version="0.91 r13725"
   xml:space="preserve"
   width="431.07602"
   height="179.16536"
   viewBox="0 0 431.07602 179.16536"
   sodipodi:docname="molenaar_overflow.svg"><metadata
     id="metadata19543"><rdf:RDF><cc:Work
         rdf:about=""><dc:format>image/svg+xml</dc:format><dc:type
           rdf:resource="http://purl.org/dc/dcmitype/StillImage" /><dc:title></dc:title></cc:Work></rdf:RDF></metadata><defs
     id="defs19541"><marker
       inkscape:stockid="Arrow1Lstart"
       orient="auto"
       refY="0"
       refX="0"
       id="Arrow1Lstart"
       style="overflow:visible"
       inkscape:isstock="true"><path
         id="path20903"
         d="M 0,0 5,-5 -12.5,0 5,5 0,0 Z"
         style="fill:#000000;fill-opacity:1;fill-rule:evenodd;stroke:#000000;stroke-width:1pt;stroke-opacity:1"
         transform="matrix(0.8,0,0,0.8,10,0)"
         inkscape:connector-curvature="0" /></marker><marker
       inkscape:stockid="Arrow1Lend"
       orient="auto"
       refY="0"
       refX="0"
       id="Arrow1Lend"
       style="overflow:visible"
       inkscape:isstock="true"><path
         id="path20906"
         d="M 0,0 5,-5 -12.5,0 5,5 0,0 Z"
         style="fill:#000000;fill-opacity:1;fill-rule:evenodd;stroke:#000000;stroke-width:1pt;stroke-opacity:1"
         transform="matrix(-0.8,0,0,-0.8,-10,0)"
         inkscape:connector-curvature="0" /></marker><clipPath
       clipPathUnits="userSpaceOnUse"
       id="clipPath19681"><path
         d="m 139.925,713.99 311.918,0 0,-260.844 -311.918,0 0,260.844 z"
         id="path19683"
         inkscape:connector-curvature="0" /></clipPath><clipPath
       clipPathUnits="userSpaceOnUse"
       id="clipPath19715"><path
         d="m 139.925,713.99 311.918,0 0,-260.844 -311.918,0 0,260.844 z"
         id="path19717"
         inkscape:connector-curvature="0" /></clipPath><clipPath
       clipPathUnits="userSpaceOnUse"
       id="clipPath19765"><path
         d="m 139.925,713.99 311.918,0 0,-260.844 -311.918,0 0,260.844 z"
         id="path19767"
         inkscape:connector-curvature="0" /></clipPath><clipPath
       clipPathUnits="userSpaceOnUse"
       id="clipPath19895"><path
         d="m 139.925,713.99 311.918,0 0,-260.844 -311.918,0 0,260.844 z"
         id="path19897"
         inkscape:connector-curvature="0" /></clipPath><clipPath
       clipPathUnits="userSpaceOnUse"
       id="clipPath19939"><path
         d="m 139.925,713.99 311.918,0 0,-260.844 -311.918,0 0,260.844 z"
         id="path19941"
         inkscape:connector-curvature="0" /></clipPath><clipPath
       clipPathUnits="userSpaceOnUse"
       id="clipPath20011"><path
         d="m 139.925,713.99 311.918,0 0,-260.844 -311.918,0 0,260.844 z"
         id="path20013"
         inkscape:connector-curvature="0" /></clipPath></defs><sodipodi:namedview
     pagecolor="#ffffff"
     bordercolor="#666666"
     borderopacity="1"
     objecttolerance="10"
     gridtolerance="10"
     guidetolerance="10"
     inkscape:pageopacity="0"
     inkscape:pageshadow="2"
     inkscape:window-width="1920"
     inkscape:window-height="981"
     id="namedview19539"
     showgrid="false"
     fit-margin-top="1"
     fit-margin-left="1"
     fit-margin-right="1"
     fit-margin-bottom="1"
     inkscape:zoom="1.1104155"
     inkscape:cx="95.635878"
     inkscape:cy="77.82897"
     inkscape:window-x="0"
     inkscape:window-y="41"
     inkscape:window-maximized="1"
     inkscape:current-layer="g19545" /><g
     id="g19545"
     inkscape:groupmode="layer"
     inkscape:label="msb200982"
     transform="matrix(1.25,0,0,-1.25,-176.06949,911.01849)"><g
       id="g21217"
       transform="matrix(1.1098196,0,0,1.1098196,-15.55656,-64.385307)"><path
         inkscape:connector-curvature="0"
         id="path19721"
         style="fill:none;stroke:#000000;stroke-width:0.5;stroke-linecap:butt;stroke-linejoin:miter;stroke-miterlimit:4;stroke-dasharray:none;stroke-opacity:1;marker-start:url(#Arrow1Lstart);marker-end:url(#Arrow1Lend)"
         d="m 349.205,692.641 0,-91.032 98.637,0" /><path
         inkscape:connector-curvature="0"
         id="path19723"
         style="fill:none;stroke:#00c8f0;stroke-width:1;stroke-linecap:butt;stroke-linejoin:miter;stroke-miterlimit:4;stroke-dasharray:none;stroke-opacity:1"
         d="m 350.186,679.664 c 23.019,0.032 30.051,-9.956 36.58,-22.839 6.397,-12.624 12.227,-32.995 19.605,-42.761 7.262,-9.61 17.766,-10.793 31.998,-11.601" /><path
         inkscape:connector-curvature="0"
         id="path19725"
         style="fill:none;stroke:#ff0000;stroke-width:1;stroke-linecap:butt;stroke-linejoin:miter;stroke-miterlimit:4;stroke-dasharray:none;stroke-opacity:1"
         d="m 350.186,602.463 c 23.019,-0.031 30.051,9.956 36.58,22.839 6.397,12.624 12.227,32.996 19.605,42.762 7.262,9.609 17.766,10.793 31.998,11.6" /><text
         id="text19727"
         style="font-variant:normal;font-weight:normal;font-size:7px;font-family:Helvetica;-inkscape-font-specification:Helvetica;writing-mode:lr-tb;fill:#000000;fill-opacity:1;fill-rule:nonzero;stroke:none"
         transform="matrix(0.99998571,0,0,-1,355.1758,691.4393)"><tspan
           id="tspan19729"
           sodipodi:role="line"
           y="0"
           x="0 4.6690001 6.6149998 8.5609999 10.115 13.615 15.169 19.061001 22.952999">Efficient</tspan><tspan
           id="tspan19731"
           sodipodi:role="line"
           y="8.3999996"
           x="0 3.5 7.3920002 9.3380003 13.23 17.122 21.014 22.568001 24.122 27.622">catabolism</tspan><tspan
           id="tspan19733"
           sodipodi:role="line"
           y="0"
           x="62.819401 64.765404 68.657402 72.5494 74.495399 76.441399 77.995399 81.495399 83.0494 86.941399 90.833397">Inefficient</tspan><tspan
           id="tspan19735"
           sodipodi:role="line"
           y="8.3999996"
           x="62.819401 66.319397 70.211403 72.157402 76.0494 79.941399 83.833397 85.387398 86.941399 90.441399">catabolism</tspan></text>
<text
         id="text19737"
         style="font-variant:normal;font-weight:normal;font-size:7px;font-family:Helvetica;-inkscape-font-specification:Helvetica;writing-mode:lr-tb;fill:#000000;fill-opacity:1;fill-rule:nonzero;stroke:none"
         transform="matrix(0,1,1,0,342.4168,607.7212)"><tspan
           id="tspan19739"
           sodipodi:role="line"
           y="0"
           x="0 4.277 6.6079998 10.5 14 15.946 17.5 21.392 25.284 27.23 31.122 33.068001 35.014 36.959999 40.852001 42.798 46.689999 48.243999 50.189999 52.136002 53.689999 57.582001">Fraction of total flux</tspan></text>
<text
         id="text19741"
         style="font-variant:normal;font-weight:normal;font-size:7px;font-family:Helvetica;-inkscape-font-specification:Helvetica;writing-mode:lr-tb;fill:#000000;fill-opacity:1;fill-rule:nonzero;stroke:none"
         transform="matrix(0.99998571,0,0,-1,327.8359,677.9739)"><tspan
           id="tspan19743"
           sodipodi:role="line"
           y="0"
           x="0 3.892 7.7839999 11.676">100%</tspan><tspan
           id="tspan19745"
           sodipodi:role="line"
           y="86.638298"
           x="52.280201 57.7262 60.057201 63.9492 69.003197 70.949203 74.841202 76.787903 79.118896 83.010902 84.956902">Growth rate</tspan></text>
<text
         id="text19747"
         style="font-variant:normal;font-weight:bold;font-size:9.99989986px;font-family:Helvetica;-inkscape-font-specification:Helvetica-Bold;writing-mode:lr-tb;fill:#000000;fill-opacity:1;fill-rule:nonzero;stroke:none"
         transform="matrix(0.99999,0,0,-1,141.3956,705.4094)"><tspan
           id="tspan19749"
           sodipodi:role="line"
           y="0"
           x="0 195.00905">AB</tspan></text>
<path
         inkscape:connector-curvature="0"
         id="path19751"
         style="fill:#2ca05a;fill-opacity:1;fill-rule:nonzero;stroke:none"
         d="m 230.688,657.924 c 0,-3.957 -9.454,-7.165 -21.118,-7.165 -11.663,0 -21.118,3.208 -21.118,7.165 0,3.956 9.455,7.163 21.118,7.163 11.664,0 21.118,-3.207 21.118,-7.163" /><path
         inkscape:connector-curvature="0"
         id="path19753"
         style="fill:none;stroke:#000000;stroke-width:0.5;stroke-linecap:round;stroke-linejoin:bevel;stroke-miterlimit:4;stroke-dasharray:none;stroke-opacity:1"
         d="m 230.688,657.924 c 0,-3.957 -9.454,-7.165 -21.118,-7.165 -11.663,0 -21.118,3.208 -21.118,7.165 0,3.956 9.455,7.163 21.118,7.163 11.664,0 21.118,-3.207 21.118,-7.163 z" /><text
         id="text19755"
         style="font-variant:normal;font-weight:normal;font-size:7px;font-family:Helvetica;-inkscape-font-specification:Helvetica;writing-mode:lr-tb;fill:#ffffff;fill-opacity:1;fill-rule:nonzero;stroke:none"
         transform="matrix(0.99998571,0,0,-1,190.1175,655.7041)"><tspan
           id="tspan19757"
           sodipodi:role="line"
           y="0"
           x="0 1.946 5.8379998 7.7839999 11.676 14.007 19.837999 23.73 27.622 29.176001 33.068001 35.014">Intermediate</tspan></text>
<path
         inkscape:connector-curvature="0"
         id="path19759"
         style="fill:#2ca05a;fill-opacity:1;fill-rule:nonzero;stroke:none"
         d="m 229.497,706.372 c 0,-4.076 -8.921,-7.379 -19.927,-7.379 -11.005,0 -19.927,3.303 -19.927,7.379 0,4.073 8.922,7.378 19.927,7.378 11.006,0 19.927,-3.305 19.927,-7.378" /><g
         id="g19761"><g
           clip-path="url(#clipPath19765)"
           id="g19763"><path
             inkscape:connector-curvature="0"
             id="path19769"
             style="fill:none;stroke:#000000;stroke-width:0.5;stroke-linecap:round;stroke-linejoin:bevel;stroke-miterlimit:4;stroke-dasharray:none;stroke-opacity:1"
             d="m 229.497,706.372 c 0,-4.076 -8.921,-7.379 -19.927,-7.379 -11.005,0 -19.927,3.303 -19.927,7.379 0,4.073 8.922,7.378 19.927,7.378 11.006,0 19.927,-3.305 19.927,-7.378 z" /></g></g><text
         id="text19771"
         style="font-variant:normal;font-weight:normal;font-size:7px;font-family:Helvetica;-inkscape-font-specification:Helvetica;writing-mode:lr-tb;fill:#ffffff;fill-opacity:1;fill-rule:nonzero;stroke:none"
         transform="matrix(0.99998571,0,0,-1,194.5901,704.152)"><tspan
           id="tspan19773"
           sodipodi:role="line"
           y="0"
           x="0 4.6690001 8.5609999 12.453 15.953 17.899 20.23 24.122 26.068001">Substrate</tspan></text>
<path
         inkscape:connector-curvature="0"
         id="path19775"
         style="fill:none;stroke:#00c8f0;stroke-width:1;stroke-linecap:round;stroke-linejoin:miter;stroke-miterlimit:4;stroke-dasharray:none;stroke-opacity:1"
         d="m 181.18,639.67 c 7.854,-1.211 17.549,-4.585 13.387,-12.961" /><path
         inkscape:connector-curvature="0"
         id="path19777"
         style="fill:none;stroke:#ff0000;stroke-width:1;stroke-linecap:round;stroke-linejoin:miter;stroke-miterlimit:4;stroke-dasharray:none;stroke-opacity:1"
         d="m 237.652,635.124 c -9.647,1.511 -14.936,1.635 -12.911,-6.313" /><text
         id="text19779"
         style="font-variant:normal;font-weight:normal;font-size:7px;font-family:Helvetica;-inkscape-font-specification:Helvetica;writing-mode:lr-tb;fill:#000000;fill-opacity:1;fill-rule:nonzero;stroke:none"
         transform="matrix(0.99998571,0,0,-1,158.4624,638.3633)"><tspan
           id="tspan19781"
           sodipodi:role="line"
           y="0"
           x="0 5.0539999 9.7229996 14.777">NADH</tspan><tspan
           id="tspan19783"
           sodipodi:role="line"
           y="35.7784"
           x="-9.6033001 -4.9342999 -0.6573">ATP</tspan><tspan
           id="tspan19785"
           sodipodi:role="line"
           y="5.4921999"
           x="81.103401 86.157402 90.826401 95.880402">NADH</tspan><tspan
           id="tspan19787"
           sodipodi:role="line"
           y="-36.133999"
           x="-17.0681 -12.0141 -7.3450999 -2.2911 2.7629001 4.7089 6.6535001 11.3225 15.5995">NADH, ATP</tspan></text>
<path
         inkscape:connector-curvature="0"
         id="path19789"
         style="fill:none;stroke:#000000;stroke-width:1;stroke-linecap:round;stroke-linejoin:miter;stroke-miterlimit:4;stroke-dasharray:none;stroke-opacity:1"
         d="m 267.1,658.142 c -20.014,-0.163 -19.542,10.227 -19.799,20.372" /><text
         id="text19791"
         style="font-variant:normal;font-weight:normal;font-size:7px;font-family:Helvetica;-inkscape-font-specification:Helvetica;writing-mode:lr-tb;fill:#000000;fill-opacity:1;fill-rule:nonzero;stroke:none"
         transform="matrix(0.99998571,0,0,-1,241.3934,681.9515)"><tspan
           id="tspan19793"
           sodipodi:role="line"
           y="0"
           x="0 4.6690001 8.9460001">ATP</tspan><tspan
           id="tspan19795"
           sodipodi:role="line"
           y="94.142998"
           x="-12.9493 -11.3953 -5.9492998 -2.4493001 1.4427 3.7737 5.7196999 7.2737002 11.1657 16.2197 17.773701 19.7197 23.6117 25.942699 29.8347 33.7267 37.618698 41.118698 43.064701">‘Overflow’ products</tspan><tspan
           id="tspan19797"
           sodipodi:role="line"
           y="26.082701"
           x="47.444599 52.113602 53.667599 57.559601 63.390598 67.2826 70.7826">Biomass</tspan></text>
<path
         inkscape:connector-curvature="0"
         id="path19799"
         style="fill:none;stroke:#000000;stroke-width:1;stroke-linecap:round;stroke-linejoin:miter;stroke-miterlimit:4;stroke-dasharray:none;stroke-opacity:1"
         d="m 210.109,697.056 0,-23.693" /><path
         inkscape:connector-curvature="0"
         id="path19801"
         style="fill:#000000;fill-opacity:1;fill-rule:nonzero;stroke:none"
         d="m 210.109,674.176 2.871,1.746 0.065,-0.097 -1.859,-4.683 c -0.359,-1.632 -0.718,-3.264 -1.077,-4.895 -0.359,1.631 -0.719,3.263 -1.078,4.895 l -1.859,4.683 0.049,0.097 2.888,-1.746" /><path
         inkscape:connector-curvature="0"
         id="path19803"
         style="fill:none;stroke:#00c8f0;stroke-width:1;stroke-linecap:round;stroke-linejoin:miter;stroke-miterlimit:4;stroke-dasharray:none;stroke-opacity:1"
         d="M 207.805,648.907 180.465,601.97" /><path
         inkscape:connector-curvature="0"
         id="path19805"
         style="fill:#00c8f0;fill-opacity:1;fill-rule:nonzero;stroke:none"
         d="m 180.874,602.672 3.36,0.063 0.008,-0.117 -3.964,-3.111 c -1.131,-1.228 -2.263,-2.458 -3.394,-3.687 0.511,1.591 1.022,3.181 1.533,4.772 l 0.749,4.982 0.092,0.06 1.616,-2.962" /><path
         inkscape:connector-curvature="0"
         id="path19807"
         style="fill:none;stroke:#ff0000;stroke-width:1;stroke-linecap:round;stroke-linejoin:miter;stroke-miterlimit:4;stroke-dasharray:none;stroke-opacity:1"
         d="m 213,648.89 27.254,-46.921" /><path
         inkscape:connector-curvature="0"
         id="path19809"
         style="fill:#ff0000;fill-opacity:1;fill-rule:nonzero;stroke:none"
         d="m 239.845,602.673 1.606,2.952 0.105,-0.052 0.744,-4.984 c 0.509,-1.591 1.019,-3.182 1.528,-4.773 -1.13,1.23 -2.26,2.461 -3.39,3.691 l -3.96,3.116 -0.006,0.108 3.373,-0.058" /><path
         inkscape:connector-curvature="0"
         id="path19811"
         style="fill:none;stroke:#000000;stroke-width:1;stroke-linecap:round;stroke-linejoin:miter;stroke-miterlimit:4;stroke-dasharray:none;stroke-opacity:1"
         d="m 233.089,658.088 47.906,0" /><path
         inkscape:connector-curvature="0"
         id="path19813"
         style="fill:#000000;fill-opacity:1;fill-rule:nonzero;stroke:none"
         d="m 280.182,658.088 -1.745,2.871 0.097,0.066 4.682,-1.86 c 1.632,-0.359 3.264,-0.718 4.896,-1.077 -1.632,-0.359 -3.264,-0.717 -4.896,-1.077 l -4.682,-1.86 -0.097,0.049 1.745,2.888" /><path
         inkscape:connector-curvature="0"
         id="path19815"
         style="fill:#0000d4;fill-opacity:1;fill-rule:nonzero;stroke:none"
         d="m 241.93,663.279 29.467,0 c 1.556,0 2.819,-1.263 2.819,-2.819 l 0,-5.074 c 0,-1.557 -1.263,-2.818 -2.819,-2.818 l -29.467,0 c -1.556,0 -2.818,1.261 -2.818,2.818 l 0,5.074 c 0,1.556 1.262,2.819 2.818,2.819" /><path
         inkscape:connector-curvature="0"
         id="path19817"
         style="fill:none;stroke:#000000;stroke-width:0.5;stroke-linecap:round;stroke-linejoin:bevel;stroke-miterlimit:4;stroke-dasharray:none;stroke-opacity:1"
         d="m 241.93,663.279 29.467,0 c 1.556,0 2.819,-1.263 2.819,-2.819 l 0,-5.074 c 0,-1.557 -1.263,-2.818 -2.819,-2.818 l -29.467,0 c -1.556,0 -2.818,1.261 -2.818,2.818 l 0,5.074 c 0,1.556 1.262,2.819 2.818,2.819 z" /><text
         id="text19819"
         style="font-variant:normal;font-weight:normal;font-size:7px;font-family:Helvetica;-inkscape-font-specification:Helvetica;writing-mode:lr-tb;fill:#ffffff;fill-opacity:1;fill-rule:nonzero;stroke:none"
         transform="matrix(0.99998571,0,0,-1,240.3264,655.7041)"><tspan
           id="tspan19821"
           sodipodi:role="line"
           y="0"
           x="0 4.6690001 8.5609999 12.453 16.344999 20.237 21.791 23.344999 26.844999">Anabolism</tspan></text>
<path
         inkscape:connector-curvature="0"
         id="path19823"
         style="fill:none;stroke:#00c8f0;stroke-width:1;stroke-linecap:butt;stroke-linejoin:miter;stroke-miterlimit:4;stroke-dasharray:none;stroke-opacity:1"
         d="m 191,618.58 c -4.007,-6.164 -9.614,-10.784 -20.034,-12.637" /><path
         inkscape:connector-curvature="0"
         id="path19825"
         style="fill:#00c8f0;fill-opacity:1;fill-rule:nonzero;stroke:none"
         d="m 171.767,606.085 2.221,-2.522 -0.084,-0.08 -4.937,1.012 c -1.668,0.067 -3.337,0.134 -5.007,0.203 1.544,0.638 3.087,1.278 4.631,1.917 l 4.285,2.65 0.104,-0.03 -1.213,-3.15" /><path
         inkscape:connector-curvature="0"
         id="path19827"
         style="fill:#0000d4;fill-opacity:1;fill-rule:nonzero;stroke:none"
         d="m 172.032,628.84 31.21,0 c 2.298,0 4.162,-1.863 4.162,-4.161 l 0,-7.489 c 0,-2.298 -1.864,-4.161 -4.162,-4.161 l -31.21,0 c -2.298,0 -4.161,1.863 -4.161,4.161 l 0,7.489 c 0,2.298 1.863,4.161 4.161,4.161" /><path
         inkscape:connector-curvature="0"
         id="path19829"
         style="fill:none;stroke:#000000;stroke-width:0.5;stroke-linecap:round;stroke-linejoin:bevel;stroke-miterlimit:4;stroke-dasharray:none;stroke-opacity:1"
         d="m 172.032,628.84 31.21,0 c 2.298,0 4.162,-1.863 4.162,-4.161 l 0,-7.489 c 0,-2.298 -1.864,-4.161 -4.162,-4.161 l -31.21,0 c -2.298,0 -4.161,1.863 -4.161,4.161 l 0,7.489 c 0,2.298 1.863,4.161 4.161,4.161 z" /><text
         id="text19831"
         style="font-variant:normal;font-weight:normal;font-size:7px;font-family:Helvetica;-inkscape-font-specification:Helvetica;writing-mode:lr-tb;fill:#ffffff;fill-opacity:1;fill-rule:nonzero;stroke:none"
         transform="matrix(0.99998571,0,0,-1,175.5473,622.5289)"><tspan
           id="tspan19833"
           sodipodi:role="line"
           y="0"
           x="0 4.6690001 6.6149998 8.5609999 10.115 13.615 15.169 19.061001 22.952999">Efficient</tspan><tspan
           id="tspan19835"
           sodipodi:role="line"
           y="6.8319998"
           x="-4.2357001 -0.73570001 3.1563001 5.1023002 8.9942999 12.8863 16.778299 18.3323 19.886299 23.386299">catabolism</tspan></text>
<path
         inkscape:connector-curvature="0"
         id="path19837"
         style="fill:#0000d4;fill-opacity:1;fill-rule:nonzero;stroke:none"
         d="m 217.581,628.84 31.209,0 c 2.299,0 4.161,-1.863 4.161,-4.161 l 0,-7.489 c 0,-2.298 -1.862,-4.161 -4.161,-4.161 l -31.209,0 c -2.299,0 -4.161,1.863 -4.161,4.161 l 0,7.489 c 0,2.298 1.862,4.161 4.161,4.161" /><path
         inkscape:connector-curvature="0"
         id="path19839"
         style="fill:none;stroke:#000000;stroke-width:0.5;stroke-linecap:round;stroke-linejoin:bevel;stroke-miterlimit:4;stroke-dasharray:none;stroke-opacity:1"
         d="m 217.581,628.84 31.209,0 c 2.299,0 4.161,-1.863 4.161,-4.161 l 0,-7.489 c 0,-2.298 -1.862,-4.161 -4.161,-4.161 l -31.209,0 c -2.299,0 -4.161,1.863 -4.161,4.161 l 0,7.489 c 0,2.298 1.862,4.161 4.161,4.161 z" /><text
         id="text19841"
         style="font-variant:normal;font-weight:normal;font-size:7px;font-family:Helvetica;-inkscape-font-specification:Helvetica;writing-mode:lr-tb;fill:#ffffff;fill-opacity:1;fill-rule:nonzero;stroke:none"
         transform="matrix(0.99998571,0,0,-1,218.6262,622.5289)"><tspan
           id="tspan19843"
           sodipodi:role="line"
           y="0"
           x="0 1.946 5.8379998 9.7299995 11.676 13.622 15.176 18.676001 20.23 24.122 28.014">Inefficient</tspan><tspan
           id="tspan19845"
           sodipodi:role="line"
           y="6.8319998"
           x="-1.7689 1.7311 5.6230998 7.5690999 11.4611 15.3531 19.2451 20.799101 22.3531 25.8531">catabolism</tspan></text>
<path
         inkscape:connector-curvature="0"
         id="path19847"
         style="fill:none;stroke:#000000;stroke-width:1;stroke-linecap:round;stroke-linejoin:miter;stroke-miterlimit:4;stroke-dasharray:none;stroke-opacity:1"
         d="m 210.248,688.267 c -0.189,-8.919 -2.657,-11.196 -22.773,-11.955" /><path
         inkscape:connector-curvature="0"
         id="path19849"
         style="fill:#000000;fill-opacity:1;fill-rule:nonzero;stroke:none"
         d="m 188.288,676.343 1.853,-2.804 -0.095,-0.069 -4.749,1.682 c -1.644,0.297 -3.288,0.594 -4.932,0.892 1.616,0.42 3.233,0.84 4.851,1.26 l 4.609,2.036 0.1,-0.046 -1.637,-2.951" /><path
         inkscape:connector-curvature="0"
         id="path19851"
         style="fill:#0000d4;fill-opacity:1;fill-rule:nonzero;stroke:none"
         d="m 194.837,693.263 29.466,0 c 1.557,0 2.819,-1.261 2.819,-2.818 l 0,-5.074 c 0,-1.556 -1.262,-2.818 -2.819,-2.818 l -29.466,0 c -1.557,0 -2.819,1.262 -2.819,2.818 l 0,5.074 c 0,1.557 1.262,2.818 2.819,2.818" /><path
         inkscape:connector-curvature="0"
         id="path19853"
         style="fill:none;stroke:#000000;stroke-width:0.5;stroke-linecap:round;stroke-linejoin:bevel;stroke-miterlimit:4;stroke-dasharray:none;stroke-opacity:1"
         d="m 194.837,693.263 29.466,0 c 1.557,0 2.819,-1.261 2.819,-2.818 l 0,-5.074 c 0,-1.556 -1.262,-2.818 -2.819,-2.818 l -29.466,0 c -1.557,0 -2.819,1.262 -2.819,2.818 l 0,5.074 c 0,1.557 1.262,2.818 2.819,2.818 z" /><text
         id="text19855"
         style="font-variant:normal;font-weight:normal;font-size:7px;font-family:Helvetica;-inkscape-font-specification:Helvetica;writing-mode:lr-tb;fill:#000000;fill-opacity:1;fill-rule:nonzero;stroke:none"
         transform="matrix(0.99998571,0,0,-1,193.8206,685.6888)"><tspan
           style="fill:#ffffff;fill-opacity:1"
           x="0 5.4460001 7 10.5 14 17.892 19.445999 22.945999 26.445999 28"
           y="0"
           id="tspan19857"
           sodipodi:role="line">Glycolysis</tspan><tspan
           id="tspan19859"
           sodipodi:role="line"
           y="97.386101"
           x="-32.062099 -27.008101">CO</tspan></text>
<text
         id="text19861"
         style="font-variant:normal;font-weight:normal;font-size:5px;font-family:Helvetica;-inkscape-font-specification:Helvetica;writing-mode:lr-tb;fill:#000000;fill-opacity:1;fill-rule:nonzero;stroke:none"
         transform="matrix(0.99998,0,0,-1,172.2592,586.3033)"><tspan
           id="tspan19863"
           y="0"
           x="0">2</tspan></text>
<text
         id="text19865"
         style="font-variant:normal;font-weight:normal;font-size:7px;font-family:Helvetica;-inkscape-font-specification:Helvetica;writing-mode:lr-tb;fill:#000000;fill-opacity:1;fill-rule:nonzero;stroke:none"
         transform="matrix(0.99998571,0,0,-1,175.039,588.3033)"><tspan
           id="tspan19867"
           sodipodi:role="line"
           y="0"
           x="0 1.946 3.892">, H</tspan></text>
<text
         id="text19869"
         style="font-variant:normal;font-weight:normal;font-size:5px;font-family:Helvetica;-inkscape-font-specification:Helvetica;writing-mode:lr-tb;fill:#000000;fill-opacity:1;fill-rule:nonzero;stroke:none"
         transform="matrix(0.99998,0,0,-1,183.9848,586.3033)"><tspan
           id="tspan19871"
           y="0"
           x="0">2</tspan></text>
<text
         id="text19873"
         style="font-variant:normal;font-weight:normal;font-size:7px;font-family:Helvetica;-inkscape-font-specification:Helvetica;writing-mode:lr-tb;fill:#000000;fill-opacity:1;fill-rule:nonzero;stroke:none"
         transform="matrix(0.99998571,0,0,-1,186.7649,588.3033)"><tspan
           id="tspan19875"
           y="0"
           x="0">O</tspan></text>
</g></g></svg>