<?xml version="1.0" encoding="utf-8" standalone="no"?>
<!DOCTYPE svg PUBLIC "-//W3C//DTD SVG 1.1//EN"
  "http://www.w3.org/Graphics/SVG/1.1/DTD/svg11.dtd">
<!-- Created with matplotlib (http://matplotlib.org/) -->
<svg height="145pt" version="1.1" viewBox="0 0 365 145" width="365pt" xmlns="http://www.w3.org/2000/svg" xmlns:xlink="http://www.w3.org/1999/xlink">
 <defs>
  <style type="text/css">
*{stroke-linecap:butt;stroke-linejoin:round;}
  </style>
 </defs>
 <g id="figure_1">
  <g id="patch_1">
   <path d="
M0 145.293
L365.472 145.293
L365.472 0
L0 0
z
" style="fill:#ffffff;"/>
  </g>
  <g id="patch_2">
   <path d="
M7.2 138.093
L176.256 138.093
L176.256 8.77289
L7.2 8.77289
z
" style="fill:#ffffff;"/>
  </g>
  <g id="pane3d_1">
   <g id="patch_3">
    <path d="
M151.945 91.2961
L67.7673 79.249
L66.4425 18.5126
L154.959 29.3143" style="fill:#ffffff;stroke:#ffffff;stroke-linejoin:miter;"/>
   </g>
  </g>
  <g id="pane3d_2">
   <g id="patch_4">
    <path d="
M32.954 114.134
L67.7673 79.249
L66.4425 18.5126
L29.5959 49.8796" style="fill:#ffffff;stroke:#ffffff;stroke-linejoin:miter;"/>
   </g>
  </g>
  <g id="pane3d_3">
   <g id="patch_5">
    <path d="
M123.392 128.348
L151.945 91.2961
L67.7673 79.249
L32.954 114.134" style="fill:#ffffff;stroke:#ffffff;stroke-linejoin:miter;"/>
   </g>
  </g>
  <g id="axis3d_1">
   <g id="line2d_1">
    <path d="
M151.945 91.2961
L123.392 128.348" style="fill:none;stroke:#000000;stroke-linecap:square;stroke-width:0.75;"/>
   </g>
   <g id="text_1">
    <!-- $\hat{p}$ -->
    <defs>
     <path d="
M23 40.2188
L24.4062 47
L18.0938 47
L4.59375 -17
L11 -17
L15.9062 6.59375
C17 4.6875 18 2.98438 19.7031 1.57812
C25 -2.73438 32.5938 -0.921875 37.7969 2.375
C47.5938 8.57812 53.2031 20.5469 52.7031 31.9219
C52.4062 38.1094 49.5938 45.3906 43.0938 47.3906
C35 49.5938 26.5938 43.7969 23 40.2188
M36.9062 42.375
C43.5 40.875 46.7031 33.4531 46.0938 27.25
C45.9062 25.1406 45.5938 23.1406 45 21.1406
C43.2031 15.2188 39.2969 9.71875 34 6.5
C31.5938 5 28.7969 4 25.9062 4
C21.5938 4 19 5.8125 17.5938 8.90625
C17.4062 9.60938 17 10.4219 17 11.1094
C17 12.2188 17.5 13.5156 17.7031 14.625
C18.7969 20.1406 21.2031 31.1562 21.2031 31.1562
L21.7969 34.0625
C22.2031 36.4688 23 37.0625 24.7031 38.5625
C27.9062 41.1719 31.7969 43.2812 36.9062 42.375" id="Computer_Modern_Bright_Math_Slanted-112"/>
     <path d="
M7.20312 55
C8.90625 55 10.5938 55 12.0938 55
C16.7031 58.7812 20.7031 63.0781 25.4062 66.75
L27 65.5312
C30.9062 61.9531 34.7031 58.375 38.7031 55
C40.2031 55 41.9062 55 43.5938 55
C39.7969 58.8438 35.7969 62.3906 32 66.1562
C30.5938 67.4531 29.2969 68.9844 27.5938 70
C25.9062 70 24.2031 70 22.7969 69.7969
C17.4062 65.1406 12.4062 59.8594 7.20312 55" id="Computer_Modern_Bright-94"/>
    </defs>
    <g transform="translate(155.929589125 128.652991992)rotate(-52.38133580559176)scale(0.12 -0.12)">
     <use transform="translate(10.753740854607722 9.12106942720925e-05)scale(0.9962640099626402)" xlink:href="#Computer_Modern_Bright-94"/>
     <use transform="scale(0.9962640099626402)" xlink:href="#Computer_Modern_Bright_Math_Slanted-112"/>
    </g>
   </g>
   <g id="Line3DCollection_1">
    <path d="
M124.012 127.543
L33.708 113.379
L30.3973 49.1974" style="fill:none;stroke:#e6e6e6;"/>
    <path d="
M129.855 119.961
L40.8191 106.253
L37.9481 42.7695" style="fill:none;stroke:#e6e6e6;"/>
    <path d="
M135.509 112.624
L47.7062 99.3515
L45.2484 36.5549" style="fill:none;stroke:#e6e6e6;"/>
    <path d="
M140.981 105.523
L54.3797 92.6643
L52.3104 30.5431" style="fill:none;stroke:#e6e6e6;"/>
    <path d="
M146.282 98.6441
L60.8494 86.1812
L59.1457 24.7243" style="fill:none;stroke:#e6e6e6;"/>
    <path d="
M151.419 91.9786
L67.1245 79.8932
L65.765 19.0894" style="fill:none;stroke:#e6e6e6;"/>
   </g>
   <g id="xtick_1">
    <g id="line2d_2">
     <path d="
M123.267 127.426
L125.503 127.777" style="fill:none;stroke:#000000;stroke-linecap:square;"/>
    </g>
    <g id="text_2">
     <!-- 0.0 -->
     <defs>
      <path d="
M14.7969 63.8594
C11.9062 61.8594 9.90625 59.1406 8.40625 56.0312
C4.79688 49 4.40625 40.7656 4.40625 31.8281
C4.40625 20.5781 6.40625 10.25 12 4.3125
C17.2969 -1.20312 25.7031 -2.60938 32.7969 0.296875
C37.2031 2.01562 40.4062 5.71875 42.4062 9.73438
C46 16.875 46.4062 25.4062 46.4062 34.2344
C46.4062 37.0469 46.2969 39.8594 46 42.6719
C45.2969 49.4062 43 56.8281 39.2969 60.9531
C33.2031 67.6875 22.2969 69.1875 14.7969 63.8594
M34.9062 58.1406
C39.5938 53.125 40 43.4844 40 34.3438
L40 28.9219
C40 24.2969 39.2031 18.2812 38.2031 14.8594
C36.7969 10.1406 34.5 6.73438 29.9062 4.625
C24.2969 2.60938 18.5 4.51562 15.2969 8.9375
C11 14.6562 10.7969 24.7969 10.7969 33.7344
C10.7969 42.1719 10.9062 51.5156 15 57.0312
C19.5 63.0625 29.2031 64.0625 34.9062 58.1406" id="Computer_Modern_Bright-48"/>
      <path d="
M9.90625 7.82812
L9.90625 0
L17.7031 0
L17.7031 7.82812
z
" id="Computer_Modern_Bright-46"/>
     </defs>
     <g transform="translate(129.477084485 132.394657458)rotate(-345.0)scale(0.08 -0.08)">
      <use transform="scale(0.9962640099626402)" xlink:href="#Computer_Modern_Bright-48"/>
      <use transform="translate(50.6432178160025 0.0)scale(0.9962640099626402)" xlink:href="#Computer_Modern_Bright-46"/>
      <use transform="translate(78.04034127393369 0.0)scale(0.9962640099626402)" xlink:href="#Computer_Modern_Bright-48"/>
     </g>
    </g>
   </g>
   <g id="xtick_2">
    <g id="line2d_3">
     <path d="
M129.121 119.848
L131.325 120.187" style="fill:none;stroke:#000000;stroke-linecap:square;"/>
    </g>
    <g id="text_3">
     <!-- 0.1 -->
     <defs>
      <path d="
M9.70312 60.0156
L9.70312 55
C15.2031 55 19 56 23.4062 57.9062
L23.4062 5.01562
L10.2969 5.01562
L10.2969 0
L43 0
L43 5.01562
L29.9062 5.01562
L29.9062 67
C27.5 67 27.9062 66.3594 26 64.875
C21.9062 61.7188 16.2031 60.0156 9.70312 60.0156" id="Computer_Modern_Bright-49"/>
     </defs>
     <g transform="translate(135.22886425 124.750651028)rotate(-345.0)scale(0.08 -0.08)">
      <use transform="scale(0.9962640099626402)" xlink:href="#Computer_Modern_Bright-48"/>
      <use transform="translate(50.6432178160025 0.0)scale(0.9962640099626402)" xlink:href="#Computer_Modern_Bright-46"/>
      <use transform="translate(78.04034127393369 0.0)scale(0.9962640099626402)" xlink:href="#Computer_Modern_Bright-49"/>
     </g>
    </g>
   </g>
   <g id="xtick_3">
    <g id="line2d_4">
     <path d="
M134.785 112.515
L136.957 112.843" style="fill:none;stroke:#000000;stroke-linecap:square;"/>
    </g>
    <g id="text_4">
     <!-- 0.2 -->
     <defs>
      <path d="
M7.29688 45.9688
C8.70312 51.5938 11.0938 57.9844 16.7969 60.5
C19.2031 61.5 21.7969 61.7031 24.4062 61.5
C29.2969 61.0938 34.0938 59.0938 37.0938 55.0938
C39.2969 52.0781 40.0938 48.375 39.7031 44.7812
C38.5 34.3438 28.2969 26.8438 21.7031 21.2344
C17.9062 18.0312 7.09375 7.8125 7.09375 7.8125
L5.40625 6.20312
C4.5 5.3125 4.40625 5.3125 4.40625 3.5
L4.40625 0
L46.4062 0
L46.4062 5.625
L10.2031 5.625
C13.4062 8.73438 26.7031 20.5156 28.5 21.9219
C34.2969 26.6562 40.7969 31.375 44.2969 38.2188
C48.2031 46.0625 46.5 55.9375 39.9062 61.7656
C35.9062 65.2969 30.4062 67 25.0938 67
C20.2031 67 15.2031 66 11.2969 62.9062
C8.29688 60.3906 5.79688 56.6875 4.40625 52.875
C4.09375 52.2812 3.59375 51.2812 3.70312 50.5781
C3.79688 49.9844 4.40625 49.4844 4.70312 49.0781
C5.5 48.0781 6.29688 46.875 7.29688 45.9688" id="Computer_Modern_Bright-50"/>
     </defs>
     <g transform="translate(140.794096413 117.35456283)rotate(-345.0)scale(0.08 -0.08)">
      <use transform="scale(0.9962640099626402)" xlink:href="#Computer_Modern_Bright-48"/>
      <use transform="translate(50.6432178160025 0.0)scale(0.9962640099626402)" xlink:href="#Computer_Modern_Bright-46"/>
      <use transform="translate(78.04034127393369 0.0)scale(0.9962640099626402)" xlink:href="#Computer_Modern_Bright-50"/>
     </g>
    </g>
   </g>
   <g id="xtick_4">
    <g id="line2d_5">
     <path d="
M140.268 105.417
L142.41 105.735" style="fill:none;stroke:#000000;stroke-linecap:square;"/>
    </g>
    <g id="text_5">
     <!-- 0.3 -->
     <defs>
      <path d="
M8.09375 50.7188
C8.90625 51.9219 9.5 53.2344 10.4062 54.4375
C12.5 57.25 15.4062 59.4531 18.7031 60.7656
C23.9062 62.875 31.5 62.875 35.5938 58.2188
C39.2031 54.0781 37.7031 47.6094 34.4062 43.7812
C31.4062 40.25 27.5 38.5312 21.7031 38.5312
C20 38.5312 18.4062 38.0312 16.7031 38.0312
L16.7031 33
L23.5938 33
C29.4062 33 33.2031 32.1094 36.4062 28.6875
C41.9062 22.8594 41.4062 12.5156 35.2969 7.20312
C32.2031 4.59375 27.9062 3.78125 23.9062 4.07812
C16.0938 4.6875 9.20312 8.8125 4.59375 15.2344
C4.09375 14.2344 4.09375 12.8281 3.90625 11.7188
C3.59375 10.1094 3.59375 10.1094 4.59375 8.8125
C7.5 4.89062 13.2031 1.28125 17.7031 -0.03125
C25.7031 -2.4375 35 -1.34375 41.2031 4.78125
C42.4062 6 43.5 7.29688 44.4062 8.70312
C48.0938 14.5312 48.2031 22.1562 44.0938 27.7812
C42.4062 30.0938 40.2031 31.9062 37.7031 33.3125
C36 34.3125 34 35.3125 32 35.5156
C37.7969 38.2344 43.2031 42.8281 44.2031 50.3594
C45.0938 57.375 41 61.6875 36.7969 64.1875
C30.2969 68 21.7969 68 15.0938 64.6719
C12 63.1719 9.20312 60.9688 7.09375 58.25
C6.70312 57.75 5.20312 56.0469 5.20312 55.2344
C5.20312 54.7344 5.59375 54.2344 5.90625 53.8281
z
" id="Computer_Modern_Bright-51"/>
     </defs>
     <g transform="translate(146.181711604 110.194524226)rotate(-345.0)scale(0.08 -0.08)">
      <use transform="scale(0.9962640099626402)" xlink:href="#Computer_Modern_Bright-48"/>
      <use transform="translate(50.6432178160025 0.0)scale(0.9962640099626402)" xlink:href="#Computer_Modern_Bright-46"/>
      <use transform="translate(78.04034127393369 0.0)scale(0.9962640099626402)" xlink:href="#Computer_Modern_Bright-51"/>
     </g>
    </g>
   </g>
   <g id="xtick_5">
    <g id="line2d_6">
     <path d="
M145.579 98.5414
L147.691 98.8495" style="fill:none;stroke:#000000;stroke-linecap:square;"/>
    </g>
    <g id="text_6">
     <!-- 0.4 -->
     <defs>
      <path d="
M2.09375 18
L31 18
L31 0
L37.2969 0
L37.2969 18
L48.7031 18
L48.7031 23.3281
L37.2969 23.3281
L37.2969 66.4688
L31.9062 66.4688
C30.0938 66.4688 29.5938 66.5781 28.7969 65.0625
C24.7969 58.5156 3.70312 25.7656 3 24.8594
C2.20312 23.4375 2.09375 23.5469 2.09375 21.4375
z

M31.2969 60.875
L31.2969 23.3281
L8.59375 23.3281
C9.29688 24.7344 10.2969 26.0312 11.2031 27.4375
C16.2031 35.1719 28.0938 53.5469 30.5938 59.2812
C30.9062 59.7812 31 60.375 31.2969 60.875" id="Computer_Modern_Bright-52"/>
     </defs>
     <g transform="translate(151.400079357 103.259412263)rotate(-345.0)scale(0.08 -0.08)">
      <use transform="scale(0.9962640099626402)" xlink:href="#Computer_Modern_Bright-48"/>
      <use transform="translate(50.6432178160025 0.0)scale(0.9962640099626402)" xlink:href="#Computer_Modern_Bright-46"/>
      <use transform="translate(78.04034127393369 0.0)scale(0.9962640099626402)" xlink:href="#Computer_Modern_Bright-52"/>
     </g>
    </g>
   </g>
   <g id="xtick_6">
    <g id="line2d_7">
     <path d="
M150.725 91.8791
L152.808 92.1777" style="fill:none;stroke:#000000;stroke-linecap:square;"/>
    </g>
    <g id="text_7">
     <!-- 0.5 -->
     <defs>
      <path d="
M8.40625 66.3281
L8.40625 30.4531
L12.2031 30.4531
C12.7031 30.4531 13.4062 30.3594 13.7969 30.5625
C14.2969 30.8594 14.5938 31.5625 14.9062 31.9688
C15.5938 32.8594 16.4062 33.5625 17.2031 34.2656
C20.7969 37.2812 27.7031 38.4844 32.2969 36.1719
C38.5938 33.1719 39.7969 25.2188 39.2969 19
C39 15.0625 37.7969 11.4531 35.5 9.14062
C30.2031 3.5 21.2969 3.5 14.7969 6.79688
C11.5938 8.40625 8.90625 10.9219 6.90625 13.9219
L6.79688 13.9219
C6.5 13.4219 4.20312 9.90625 4.20312 9.29688
C4.20312 8.89062 4.5 8.59375 4.70312 8.29688
C7.70312 4.78125 11.5938 2.0625 16.0938 0.5625
C25 -2.25 35 -0.046875 41.2969 7.1875
C48.7969 15.9219 47.7969 30.1562 39.0938 37.7656
C36.5 40.1875 32.9062 41.8906 28.5938 42.2812
C22.7969 43.0938 17.5938 40.2812 14.5 37.6719
L14.5 61
L42.9062 61
L42.9062 66.3281
z
" id="Computer_Modern_Bright-53"/>
     </defs>
     <g transform="translate(156.457051492 96.5387920211)rotate(-345.0)scale(0.08 -0.08)">
      <use transform="scale(0.9962640099626402)" xlink:href="#Computer_Modern_Bright-48"/>
      <use transform="translate(50.6432178160025 0.0)scale(0.9962640099626402)" xlink:href="#Computer_Modern_Bright-46"/>
      <use transform="translate(78.04034127393369 0.0)scale(0.9962640099626402)" xlink:href="#Computer_Modern_Bright-53"/>
     </g>
    </g>
   </g>
  </g>
  <g id="axis3d_2">
   <g id="line2d_8">
    <path d="
M32.954 114.134
L123.392 128.348" style="fill:none;stroke:#000000;stroke-linecap:square;stroke-width:0.75;"/>
   </g>
   <g id="text_8">
    <!-- $\hat{r}$ -->
    <defs>
     <path d="
M21.5938 34.5781
L21.5 34.5781
L24.0938 47.1094
L18.0938 47.1094
L8.09375 0
L12.5938 0
C13.5 0 14.5938 -0.296875 14.5938 1
C14.7969 1.60938 14.9062 2.29688 15 2.90625
L16.7031 10.625
C17.2969 13.5312 19.5938 24.8594 20.2031 26.9688
C21.2969 30.1719 23.2031 33.1719 25.5938 35.4844
C29.0938 38.8906 34.2969 42 40.0938 42
C40.5938 42 41.5938 42 41.9062 42.4062
C42.2969 42.8125 42.9062 46.5938 43.2031 47.9062
C36.5 47.9062 30.4062 44.5938 25.7969 39.9844
C24.5938 38.7812 22.2031 36.0781 21.5938 34.5781" id="Computer_Modern_Bright_Math_Slanted-114"/>
    </defs>
    <g transform="translate(67.7621204577 141.532113673)rotate(-351.0683121648845)scale(0.12 -0.12)">
     <use transform="translate(3.4433405247898508 9.121069427148195e-05)scale(0.9962640099626402)" xlink:href="#Computer_Modern_Bright-94"/>
     <use transform="scale(0.9962640099626402)" xlink:href="#Computer_Modern_Bright_Math_Slanted-114"/>
    </g>
   </g>
   <g id="Line3DCollection_2">
    <path d="
M153.135 29.0917
L150.213 91.0482
L121.527 128.055" style="fill:none;stroke:#e6e6e6;"/>
    <path d="
M135.741 26.9691
L133.69 88.6835
L103.741 125.259" style="fill:none;stroke:#e6e6e6;"/>
    <path d="
M118.55 24.8712
L117.35 86.3451
L86.1699 122.498" style="fill:none;stroke:#e6e6e6;"/>
    <path d="
M101.558 22.7978
L101.191 84.0325
L68.8099 119.769" style="fill:none;stroke:#e6e6e6;"/>
    <path d="
M84.763 20.7483
L85.2102 81.7454
L51.6572 117.074" style="fill:none;stroke:#e6e6e6;"/>
    <path d="
M68.1609 18.7223
L69.4039 79.4833
L34.708 114.41" style="fill:none;stroke:#e6e6e6;"/>
   </g>
   <g id="xtick_7">
    <g id="line2d_9">
     <path d="
M121.776 127.733
L121.027 128.699" style="fill:none;stroke:#000000;stroke-linecap:square;"/>
    </g>
    <g id="text_9">
     <!-- $0.0$ -->
     <defs>
      <path d="
M10.7031 7.8125
L10.7031 0
L18.5 0
L18.5 7.8125
z
" id="Computer_Modern_Bright_Math_Slanted-58"/>
     </defs>
     <g transform="translate(114.028553364 139.329091682)scale(0.08 -0.08)">
      <use transform="scale(0.9962640099626402)" xlink:href="#Computer_Modern_Bright-48"/>
      <use transform="translate(50.6432178160025 0.0)scale(0.9962640099626402)" xlink:href="#Computer_Modern_Bright_Math_Slanted-58"/>
      <use transform="translate(79.70066474353986 0.0)scale(0.9962640099626402)" xlink:href="#Computer_Modern_Bright-48"/>
     </g>
    </g>
   </g>
   <g id="xtick_8">
    <g id="line2d_10">
     <path d="
M104.001 124.941
L103.219 125.896" style="fill:none;stroke:#000000;stroke-linecap:square;"/>
    </g>
    <g id="text_10">
     <!-- $0.2$ -->
     <g transform="translate(96.2204040063 136.493616629)scale(0.08 -0.08)">
      <use transform="scale(0.9962640099626402)" xlink:href="#Computer_Modern_Bright-48"/>
      <use transform="translate(50.6432178160025 0.0)scale(0.9962640099626402)" xlink:href="#Computer_Modern_Bright_Math_Slanted-58"/>
      <use transform="translate(79.70066474353986 0.0)scale(0.9962640099626402)" xlink:href="#Computer_Modern_Bright-50"/>
     </g>
    </g>
   </g>
   <g id="xtick_9">
    <g id="line2d_11">
     <path d="
M86.4407 122.184
L85.6271 123.127" style="fill:none;stroke:#000000;stroke-linecap:square;"/>
    </g>
    <g id="text_11">
     <!-- $0.4$ -->
     <g transform="translate(78.6278000611 133.692461462)scale(0.08 -0.08)">
      <use transform="scale(0.9962640099626402)" xlink:href="#Computer_Modern_Bright-48"/>
      <use transform="translate(50.6432178160025 0.0)scale(0.9962640099626402)" xlink:href="#Computer_Modern_Bright_Math_Slanted-58"/>
      <use transform="translate(79.70066474353986 0.0)scale(0.9962640099626402)" xlink:href="#Computer_Modern_Bright-52"/>
     </g>
    </g>
   </g>
   <g id="xtick_10">
    <g id="line2d_12">
     <path d="
M69.091 119.459
L68.2465 120.391" style="fill:none;stroke:#000000;stroke-linecap:square;"/>
    </g>
    <g id="text_12">
     <!-- $0.6$ -->
     <defs>
      <path d="
M11.2969 32.625
L11.2031 32.625
C11.2031 41.7656 12.7969 52.4219 20.5938 58.25
C24.9062 61.375 30.7031 62.9688 38.2031 61.1719
C39.7969 60.7656 41.2969 60.1562 42.7969 59.7656
L42.7969 63.2812
C42.7969 63.6719 42.9062 64.375 42.5938 64.7812
C41.9062 65.6875 36.2969 66.5938 36.0938 66.5938
C27.4062 67.5938 21.7031 65.6875 16.4062 61.1719
C10 55.6406 6.29688 47.5156 5.09375 39.2812
C4 32.6562 4.90625 22 6.20312 16.7812
C8.29688 9.04688 12.2969 2.21875 19.7031 -0.390625
C24.0938 -2 29.5 -2 33.7031 0.015625
C37.0938 1.64062 39.9062 4.46875 42.0938 7.5
C45.5938 12.3438 46.5 18.2188 46.0938 24.1719
C45.9062 27.1094 45.5 30.0469 44.2969 32.7656
C42.4062 37.125 39.2031 41.6719 35.0938 43.6875
C33.2031 44.5 31.2031 44.5 29.2031 44.5
C23.9062 44.5 18.9062 42.1875 15.2031 38.3594
C13.5938 36.75 12 34.7188 11.2969 32.625
M24.4062 39.5156
C28.2031 39.8125 32.2031 39.2188 35.0938 36.5
C38.9062 32.8906 39.5938 27.7656 39.5938 22.8125
C39.5938 19.4688 39.7031 16.0156 38.7031 12.8594
C38.0938 11.2344 37.2969 9.82812 36.4062 8.5
C34.2031 5.5625 31.4062 4.125 26.7969 3.51562
C22.2969 3.51562 17.7969 5.3125 15.2031 9.125
C13.5938 11.3281 12.7969 14.0469 12.2969 16.6406
C11.7031 19.3438 11.2969 22.1406 11.5 24.8594
C12 31.9844 17 38.5156 24.4062 39.5156" id="Computer_Modern_Bright-54"/>
     </defs>
     <g transform="translate(61.2468517067 130.925006828)scale(0.08 -0.08)">
      <use transform="scale(0.9962640099626402)" xlink:href="#Computer_Modern_Bright-48"/>
      <use transform="translate(50.6432178160025 0.0)scale(0.9962640099626402)" xlink:href="#Computer_Modern_Bright_Math_Slanted-58"/>
      <use transform="translate(79.70066474353986 0.0)scale(0.9962640099626402)" xlink:href="#Computer_Modern_Bright-54"/>
     </g>
    </g>
   </g>
   <g id="xtick_11">
    <g id="line2d_13">
     <path d="
M51.9483 116.767
L51.0737 117.688" style="fill:none;stroke:#000000;stroke-linecap:square;"/>
    </g>
    <g id="text_13">
     <!-- $0.8$ -->
     <defs>
      <path d="
M18.7031 36
L18.7031 35.9062
C12.5 34.0938 7.29688 30.6875 4.79688 24.8438
C2.20312 18.7188 4 11.2812 8.40625 6.45312
C13.0938 1.42188 19.5 -1 26.2969 -1
C36.2969 -1 45.9062 6.40625 47.0938 16.7344
C47.2969 18.2656 47.2031 19.8906 47 21.4062
C45.2031 29.2188 39.5 33.875 32.0938 35.9062
C32.9062 36.2031 33.7969 36.4062 34.5938 36.7031
C38.7969 38.4219 42.2969 40.9219 44.5 44.9375
C47.7969 51.375 44.5938 58.9062 39.2031 63.0156
C33.7969 67.1406 26.5 68.2344 19.9062 66.8281
C12 65.125 4.5 58.4062 5 49.7656
C5.20312 46.75 6.5 44.2344 8 42.4375
C10.2969 39.625 14.7969 36.6094 18.7031 36
M23.7969 62.5
C28.2031 62.5 33.7031 62 36.9062 58.5781
C40.7031 54.4688 40.9062 47.0312 37.0938 42.8125
C34.7031 40.2031 31.2031 38.8906 27.7031 38.5938
C22.7969 38.1875 17.2031 39 13.7031 42.8125
C9.79688 47.125 10.0938 54.9688 14.2969 58.9844
C16.9062 61.3906 20.4062 62.1875 23.7969 62.5
M23.7031 33.5
C28.4062 33.5 33.5 32.3906 36.9062 28.9375
C38.2031 27.5312 39.2031 25.8125 39.7969 24.0156
C41.5 18.75 40.7031 12.0938 36.7969 8.04688
C34.0938 5.32812 30.4062 4.3125 26.7031 4.01562
C22.2031 4.01562 17 5.10938 13.7969 8.5625
C9.40625 13.3906 8.5 23.4062 13.7031 29.0625
C16.2969 31.7812 20 33.2031 23.7031 33.5" id="Computer_Modern_Bright-56"/>
     </defs>
     <g transform="translate(44.0737621585 128.190648192)scale(0.08 -0.08)">
      <use transform="scale(0.9962640099626402)" xlink:href="#Computer_Modern_Bright-48"/>
      <use transform="translate(50.6432178160025 0.0)scale(0.9962640099626402)" xlink:href="#Computer_Modern_Bright_Math_Slanted-58"/>
      <use transform="translate(79.70066474353986 0.0)scale(0.9962640099626402)" xlink:href="#Computer_Modern_Bright-56"/>
     </g>
    </g>
   </g>
   <g id="xtick_12">
    <g id="line2d_14">
     <path d="
M35.0089 114.107
L34.1049 115.017" style="fill:none;stroke:#000000;stroke-linecap:square;"/>
    </g>
    <g id="text_14">
     <!-- $1.0$ -->
     <g transform="translate(27.1048249036 125.488795389)scale(0.08 -0.08)">
      <use transform="scale(0.9962640099626402)" xlink:href="#Computer_Modern_Bright-49"/>
      <use transform="translate(50.6432178160025 0.0)scale(0.9962640099626402)" xlink:href="#Computer_Modern_Bright_Math_Slanted-58"/>
      <use transform="translate(79.70066474353986 0.0)scale(0.9962640099626402)" xlink:href="#Computer_Modern_Bright-48"/>
     </g>
    </g>
   </g>
  </g>
  <g id="axis3d_3">
   <g id="line2d_15">
    <path d="
M32.954 114.134
L29.5959 49.8796" style="fill:none;stroke:#000000;stroke-linecap:square;stroke-width:0.75;"/>
   </g>
   <g id="text_15">
    <!-- $\alpha$ -->
    <defs>
     <path d="
M43.2031 8.625
C44 5.29688 45.2031 1.54688 48.4062 -0.171875
C53.7031 -3.10938 62 0.640625 62.9062 6
L56.5 6
C56 4.57812 54.2969 3.57812 52.7969 3.98438
C50 4.78125 49.5 9.75 49.2969 12.2969
C49.0938 14.1094 48.7969 14.8281 49.7969 16.1406
C55.2031 22.9375 59.9062 33.9844 61.7031 43
L57.2031 43
C56.7031 43 55.7969 43.2031 55.4062 42.7969
C55 42.5 55 41.6875 54.9062 41.2812
C53.9062 36.7188 52.4062 32.5625 50.7031 28.5938
C50 27.1875 49.2031 25.7656 48.5938 24.25
C48.2969 25.875 48.4062 27.6875 48.2031 29.4062
C47.4062 36.9062 43.9062 43.375 38.2031 46.5156
C32.2031 49.6562 24.9062 48.2344 19.4062 44.7969
C10.4062 39.125 4.20312 28.5 4.20312 17.6094
C4.20312 11.4844 6.20312 5.15625 11.2969 1.48438
C16.0938 -2 23.0938 -2 30.2031 0.53125
C35.0938 2.25 39.2031 5.29688 43.2031 8.625
M32.0938 43.3125
C38.2031 41.8906 40.5938 35.4219 41.4062 29.8594
C42 26.7188 42.2031 20.2344 42.2969 17.7031
C42.2969 15.5781 42.5938 15.375 41.2031 13.9688
C36.4062 9.10938 30.9062 4.85938 22.5938 4.25
C20 4.04688 17.5938 4.65625 15.7969 5.67188
C9.20312 9.20312 10 17.9062 11.4062 24.7969
C12.7969 30.8594 15.5938 37.1406 20.9062 40.6875
C23.7031 42.6094 27.7031 44.125 32.0938 43.3125" id="Computer_Modern_Bright_Math_Slanted-11"/>
    </defs>
    <g transform="translate(14.7217199121 90.4528891146)rotate(-90.0)scale(0.12 -0.12)">
     <use transform="scale(0.9962640099626402)" xlink:href="#Computer_Modern_Bright_Math_Slanted-11"/>
    </g>
   </g>
   <g id="Line3DCollection_3">
    <path d="
M32.8902 112.915
L67.7421 78.0916
L152.002 90.1166" style="fill:none;stroke:#e6e6e6;"/>
    <path d="
M32.2716 101.078
L67.4972 66.8655
L152.559 78.6735" style="fill:none;stroke:#e6e6e6;"/>
    <path d="
M31.6404 88.9993
L67.2477 55.4282
L153.126 67.0087" style="fill:none;stroke:#e6e6e6;"/>
    <path d="
M30.996 76.6709
L66.9935 43.7736
L153.704 55.1155" style="fill:none;stroke:#e6e6e6;"/>
    <path d="
M30.3383 64.0852
L66.7344 31.8955
L154.294 42.9874" style="fill:none;stroke:#e6e6e6;"/>
    <path d="
M29.6666 51.2339
L66.4703 19.7874
L154.896 30.6171" style="fill:none;stroke:#e6e6e6;"/>
   </g>
   <g id="xtick_13">
    <g id="line2d_16">
     <path d="
M33.1925 112.613
L32.2844 113.52" style="fill:none;stroke:#000000;stroke-linecap:square;"/>
    </g>
    <g id="text_16">
     <!-- $0.0$ -->
     <g transform="translate(20.1734197708 119.799429903)scale(0.08 -0.08)">
      <use transform="scale(0.9962640099626402)" xlink:href="#Computer_Modern_Bright-48"/>
      <use transform="translate(50.6432178160025 0.0)scale(0.9962640099626402)" xlink:href="#Computer_Modern_Bright_Math_Slanted-58"/>
      <use transform="translate(79.70066474353986 0.0)scale(0.9962640099626402)" xlink:href="#Computer_Modern_Bright-48"/>
     </g>
    </g>
   </g>
   <g id="xtick_14">
    <g id="line2d_17">
     <path d="
M32.5774 100.781
L31.6588 101.673" style="fill:none;stroke:#000000;stroke-linecap:square;"/>
    </g>
    <g id="text_17">
     <!-- $0.2$ -->
     <g transform="translate(19.4813112444 107.940079119)scale(0.08 -0.08)">
      <use transform="scale(0.9962640099626402)" xlink:href="#Computer_Modern_Bright-48"/>
      <use transform="translate(50.6432178160025 0.0)scale(0.9962640099626402)" xlink:href="#Computer_Modern_Bright_Math_Slanted-58"/>
      <use transform="translate(79.70066474353986 0.0)scale(0.9962640099626402)" xlink:href="#Computer_Modern_Bright-50"/>
     </g>
    </g>
   </g>
   <g id="xtick_15">
    <g id="line2d_18">
     <path d="
M31.9497 88.7076
L31.0204 89.5838" style="fill:none;stroke:#000000;stroke-linecap:square;"/>
    </g>
    <g id="text_18">
     <!-- $0.4$ -->
     <g transform="translate(18.7750059455 95.8374651794)scale(0.08 -0.08)">
      <use transform="scale(0.9962640099626402)" xlink:href="#Computer_Modern_Bright-48"/>
      <use transform="translate(50.6432178160025 0.0)scale(0.9962640099626402)" xlink:href="#Computer_Modern_Bright_Math_Slanted-58"/>
      <use transform="translate(79.70066474353986 0.0)scale(0.9962640099626402)" xlink:href="#Computer_Modern_Bright-52"/>
     </g>
    </g>
   </g>
   <g id="xtick_16">
    <g id="line2d_19">
     <path d="
M31.309 76.3849
L30.3688 77.2442" style="fill:none;stroke:#000000;stroke-linecap:square;"/>
    </g>
    <g id="text_19">
     <!-- $0.6$ -->
     <g transform="translate(18.054062534 83.4840256748)scale(0.08 -0.08)">
      <use transform="scale(0.9962640099626402)" xlink:href="#Computer_Modern_Bright-48"/>
      <use transform="translate(50.6432178160025 0.0)scale(0.9962640099626402)" xlink:href="#Computer_Modern_Bright_Math_Slanted-58"/>
      <use transform="translate(79.70066474353986 0.0)scale(0.9962640099626402)" xlink:href="#Computer_Modern_Bright-54"/>
     </g>
    </g>
   </g>
   <g id="xtick_17">
    <g id="line2d_20">
     <path d="
M30.655 63.8051
L29.7035 64.6466" style="fill:none;stroke:#000000;stroke-linecap:square;"/>
    </g>
    <g id="text_20">
     <!-- $0.8$ -->
     <g transform="translate(17.3180211847 70.8718814524)scale(0.08 -0.08)">
      <use transform="scale(0.9962640099626402)" xlink:href="#Computer_Modern_Bright-48"/>
      <use transform="translate(50.6432178160025 0.0)scale(0.9962640099626402)" xlink:href="#Computer_Modern_Bright_Math_Slanted-58"/>
      <use transform="translate(79.70066474353986 0.0)scale(0.9962640099626402)" xlink:href="#Computer_Modern_Bright-56"/>
     </g>
    </g>
   </g>
   <g id="xtick_18">
    <g id="line2d_21">
     <path d="
M29.9872 50.96
L29.0242 51.7828" style="fill:none;stroke:#000000;stroke-linecap:square;"/>
    </g>
    <g id="text_21">
     <!-- $1.0$ -->
     <g transform="translate(16.5664026093 57.9928198583)scale(0.08 -0.08)">
      <use transform="scale(0.9962640099626402)" xlink:href="#Computer_Modern_Bright-49"/>
      <use transform="translate(50.6432178160025 0.0)scale(0.9962640099626402)" xlink:href="#Computer_Modern_Bright_Math_Slanted-58"/>
      <use transform="translate(79.70066474353986 0.0)scale(0.9962640099626402)" xlink:href="#Computer_Modern_Bright-48"/>
     </g>
    </g>
   </g>
  </g>
  <g id="axes_1">
   <g id="Line3DCollection_4">
    <path clip-path="url(#p21f5681124)" d="
M123.396 62.3017
L151.649 30.9003
L151.649 30.9003" style="fill:none;stroke:#000000;stroke-width:0.5;"/>
    <path clip-path="url(#p21f5681124)" d="
M117.468 124.414
L117.586 124.264
L118.987 61.4026
L147.321 30.3692
L147.321 30.3692" style="fill:none;stroke:#000000;stroke-width:0.5;"/>
    <path clip-path="url(#p21f5681124)" d="
M113.066 123.726
L113.544 123.13
L114.724 60.3723
L143.005 29.8397
L143.005 29.8397" style="fill:none;stroke:#000000;stroke-width:0.5;"/>
    <path clip-path="url(#p21f5681124)" d="
M108.677 123.041
L109.431 122.113
L110.388 59.4484
L138.702 29.3118
L138.702 29.3118" style="fill:none;stroke:#000000;stroke-width:0.5;"/>
    <path clip-path="url(#p21f5681124)" d="
M104.301 122.358
L105.336 121.1
L106.073 58.5288
L134.412 28.7853
L134.412 28.7853" style="fill:none;stroke:#000000;stroke-width:0.5;"/>
    <path clip-path="url(#p21f5681124)" d="
M99.9387 121.677
L101.26 120.091
L101.778 57.6135
L130.135 28.2605
L130.135 28.2605" style="fill:none;stroke:#000000;stroke-width:0.5;"/>
    <path clip-path="url(#p21f5681124)" d="
M95.5891 120.998
L97.2021 119.088
L97.5028 56.7025
L125.869 27.7371
L125.869 27.7371" style="fill:none;stroke:#000000;stroke-width:0.5;"/>
    <path clip-path="url(#p21f5681124)" d="
M91.2526 120.321
L93.1619 118.088
L93.2477 55.7957
L121.616 27.2153
L121.616 27.2153" style="fill:none;stroke:#000000;stroke-width:0.5;"/>
    <path clip-path="url(#p21f5681124)" d="
M86.929 119.645
L89.171 117.057
L89.0455 54.8603
L117.376 26.6949
L117.376 26.6949" style="fill:none;stroke:#000000;stroke-width:0.5;"/>
    <path clip-path="url(#p21f5681124)" d="
M82.6183 118.972
L85.1984 116.031
L84.8635 53.9294
L113.147 26.1761
L113.147 26.1761" style="fill:none;stroke:#000000;stroke-width:0.5;"/>
    <path clip-path="url(#p21f5681124)" d="
M78.3204 118.301
L81.2758 114.973
L80.7352 52.9704
L108.931 25.6588
L108.931 25.6588" style="fill:none;stroke:#000000;stroke-width:0.5;"/>
    <path clip-path="url(#p21f5681124)" d="
M74.0353 117.632
L77.4359 113.849
L76.6952 51.9513
L104.727 25.1429
L104.727 25.1429" style="fill:none;stroke:#000000;stroke-width:0.5;"/>
    <path clip-path="url(#p21f5681124)" d="
M69.763 116.965
L73.6476 112.695
L72.7105 50.9055
L100.536 24.6286
L100.536 24.6286" style="fill:none;stroke:#000000;stroke-width:0.5;"/>
    <path clip-path="url(#p21f5681124)" d="
M65.5033 116.3
L69.9439 111.476
L68.8162 49.8012
L96.3558 24.1157
L96.3558 24.1157" style="fill:none;stroke:#000000;stroke-width:0.5;"/>
    <path clip-path="url(#p21f5681124)" d="
M61.2561 115.637
L66.3914 110.123
L65.0825 48.5761
L92.188 23.6043
L92.188 23.6043" style="fill:none;stroke:#000000;stroke-width:0.5;"/>
    <path clip-path="url(#p21f5681124)" d="
M57.0216 114.976
L63.0579 108.569
L61.581 47.1691
L88.0322 23.0944
L88.0322 23.0944" style="fill:none;stroke:#000000;stroke-width:0.5;"/>
    <path clip-path="url(#p21f5681124)" d="
M52.7995 114.317
L59.9787 106.784
L58.3491 45.5533
L83.8884 22.5859
L83.8884 22.5859" style="fill:none;stroke:#000000;stroke-width:0.5;"/>
    <path clip-path="url(#p21f5681124)" d="
M48.5899 113.659
L57.4202 104.498
L55.6681 43.486
L79.7563 22.0789
L79.7563 22.0789" style="fill:none;stroke:#000000;stroke-width:0.5;"/>
    <path clip-path="url(#p21f5681124)" d="
M44.3926 113.004
L56.0084 101.088
L54.1989 40.4025
L75.6361 21.5734
L75.6361 21.5734" style="fill:none;stroke:#000000;stroke-width:0.5;"/>
    <path clip-path="url(#p21f5681124)" d="
M40.2077 112.351
L58.1225 94.1745
L56.4491 34.1607
L71.5276 21.0692
L71.5276 21.0692" style="fill:none;stroke:#000000;stroke-width:0.5;"/>
    <path clip-path="url(#p21f5681124)" d="
M36.1184 111.712
L68.7389 78.969
L68.7389 78.969" style="fill:none;stroke:#000000;stroke-width:0.5;"/>
    <path clip-path="url(#p21f5681124)" d="
M123.396 62.3017
L120.507 61.9128
L119.056 124.662
L118.968 124.648
L36.1184 111.712
L36.1184 111.712" style="fill:none;stroke:#000000;stroke-width:0.5;"/>
    <path clip-path="url(#p21f5681124)" d="
M124.926 60.6014
L98.4937 57.0606
L98.1793 119.322
L98.0927 119.309
L37.8742 109.95
L37.8742 109.95" style="fill:none;stroke:#000000;stroke-width:0.5;"/>
    <path clip-path="url(#p21f5681124)" d="
M126.442 58.9157
L78.1803 52.4816
L78.8908 114.278
L78.8058 114.264
L39.6161 108.201
L39.6161 108.201" style="fill:none;stroke:#000000;stroke-width:0.5;"/>
    <path clip-path="url(#p21f5681124)" d="
M127.946 57.2444
L66.0083 49.0267
L67.3195 110.467
L67.2355 110.454
L41.3442 106.467
L41.3442 106.467" style="fill:none;stroke:#000000;stroke-width:0.5;"/>
    <path clip-path="url(#p21f5681124)" d="
M129.437 55.5873
L59.4716 46.3488
L61.0978 107.511
L61.0145 107.498
L43.0588 104.746
L43.0588 104.746" style="fill:none;stroke:#000000;stroke-width:0.5;"/>
    <path clip-path="url(#p21f5681124)" d="
M130.915 53.9443
L56.1527 44.1192
L57.9332 105.049
L57.8505 105.036
L44.7599 103.038
L44.7599 103.038" style="fill:none;stroke:#000000;stroke-width:0.5;"/>
    <path clip-path="url(#p21f5681124)" d="
M132.381 52.3152
L54.6005 42.1417
L56.4482 102.863
L56.3659 102.851
L46.4478 101.344
L46.4478 101.344" style="fill:none;stroke:#000000;stroke-width:0.5;"/>
    <path clip-path="url(#p21f5681124)" d="
M133.834 50.6998
L54.0962 40.3192
L55.9599 100.848
L55.878 100.836
L48.1226 99.6628
L48.1226 99.6628" style="fill:none;stroke:#000000;stroke-width:0.5;"/>
    <path clip-path="url(#p21f5681124)" d="
M135.276 49.0979
L54.2815 38.6031
L56.128 98.9499
L56.0465 98.9376
L49.7845 97.9947
L49.7845 97.9947" style="fill:none;stroke:#000000;stroke-width:0.5;"/>
    <path clip-path="url(#p21f5681124)" d="
M136.705 47.5094
L54.8061 36.9467
L56.6193 97.1169
L56.5382 97.1047
L51.4336 96.3394
L51.4336 96.3394" style="fill:none;stroke:#000000;stroke-width:0.5;"/>
    <path clip-path="url(#p21f5681124)" d="
M138.122 45.934
L55.6655 35.3486
L57.4299 95.3476
L57.3491 95.3356
L53.07 94.6969
L53.07 94.6969" style="fill:none;stroke:#000000;stroke-width:0.5;"/>
    <path clip-path="url(#p21f5681124)" d="
M139.528 44.3717
L56.6867 33.786
L58.395 93.6169
L58.3144 93.6049
L54.6939 93.0669
L54.6939 93.0669" style="fill:none;stroke:#000000;stroke-width:0.5;"/>
    <path clip-path="url(#p21f5681124)" d="
M140.922 42.8222
L57.8677 32.258
L59.5128 91.9238
L59.4325 91.9119
L56.3054 91.4493
L56.3054 91.4493" style="fill:none;stroke:#000000;stroke-width:0.5;"/>
    <path clip-path="url(#p21f5681124)" d="
M142.305 41.2855
L59.1228 30.7534
L60.7017 90.2559
L60.6217 90.2442
L57.9047 89.8439
L57.9047 89.8439" style="fill:none;stroke:#000000;stroke-width:0.5;"/>
    <path clip-path="url(#p21f5681124)" d="
M143.676 39.7613
L60.4512 29.2717
L61.961 88.6129
L61.8813 88.6012
L59.492 88.2507
L59.492 88.2507" style="fill:none;stroke:#000000;stroke-width:0.5;"/>
    <path clip-path="url(#p21f5681124)" d="
M145.036 38.2495
L61.8521 27.8125
L63.29 86.9941
L63.2106 86.9825
L61.0673 86.6695
L61.0673 86.6695" style="fill:none;stroke:#000000;stroke-width:0.5;"/>
    <path clip-path="url(#p21f5681124)" d="
M146.385 36.75
L63.2418 26.365
L64.6088 85.3878
L64.5296 85.3763
L62.6308 85.1002
L62.6308 85.1002" style="fill:none;stroke:#000000;stroke-width:0.5;"/>
    <path clip-path="url(#p21f5681124)" d="
M147.724 35.2625
L64.6203 24.9292
L65.9175 83.7937
L65.8386 83.7823
L64.1826 83.5425
L64.1826 83.5425" style="fill:none;stroke:#000000;stroke-width:0.5;"/>
    <path clip-path="url(#p21f5681124)" d="
M149.051 33.787
L66.0703 23.515
L67.2949 82.2231
L67.2163 82.2118
L65.7228 81.9965
L65.7228 81.9965" style="fill:none;stroke:#000000;stroke-width:0.5;"/>
    <path clip-path="url(#p21f5681124)" d="
M150.368 32.3234
L67.591 22.1221
L68.7404 80.6756
L68.662 80.6644
L67.2516 80.4619
L67.2516 80.4619" style="fill:none;stroke:#000000;stroke-width:0.5;"/>
    <path clip-path="url(#p21f5681124)" d="
M151.649 30.9003
L68.9862 20.7574
L70.0667 79.1589
L69.9886 79.1477
L68.7389 78.969
L68.7389 78.969" style="fill:none;stroke:#000000;stroke-width:0.5;"/>
   </g>
   <g id="text_22">
    <!-- A -->
    <defs>
     <path d="
M2.09375 0.09375
L6.59375 0.09375
L8.40625 0.296875
C11.4062 6.79688 13.5 14.2031 16.2031 21
C26.0938 21 36.9062 21 46.2969 21
L47.0938 19.6875
C48.7969 14.5469 50.7969 9.59375 52.5938 4.54688
C53.0938 3.01562 53.5938 1.51562 54.4062 0.296875
C56.5938 0 59.2031 0 61.5938 0
C59.9062 4.90625 36.7031 67.2031 36 68.8906
C35.9062 69.2969 35.7031 69.8906 35.2031 70
C34.5938 70.0938 34 70 33.4062 70
L30.0938 70
C28.5938 70 28 70.1875 27.5938 68.6094
C27.2031 67.5938 2.09375 0.09375 2.09375 0.09375
M31.4062 63.1719
C35.5938 50.7188 40.0938 38.4688 44.5 26.2188
L18.2031 26.2188
L26.9062 50.1094
z
" id="Computer_Modern_Bright-65"/>
    </defs>
    <g transform="translate(15.0386412364 40.2607359594)scale(0.12 -0.12)">
     <use transform="scale(0.9962640099626402)" xlink:href="#Computer_Modern_Bright-65"/>
    </g>
   </g>
   <g id="text_23">
    <!-- On-off strategy -->
    <defs>
     <path d="
M10.5938 47.0156
L2 47.0156
L2 42
L10.5938 42
L10.5938 -0.5
L16.9062 -0.5
L16.9062 42
L29.2969 42
L29.2969 47.0156
L16.7969 47.0156
L16.7969 55.7812
C16.7969 57.1875 16.5 58.9219 17.0938 60.3281
C19.2031 64.75 26.2969 65.5625 32.0938 64.5625
C33.2969 64.3594 34.4062 63.9531 35.5938 63.75
L35.5938 69.3906
C28.7969 70.5 21.2969 70.5 15.7031 65.9219
C14.7969 65.125 14 64.3438 13.2969 63.3281
C11.2031 60.75 10.5938 57.875 10.5938 53.3906
z

M38.0938 -0.5
L44.4062 -0.5
L44.4062 42
L56.7969 42
L56.7969 47.0156
L44.2969 47.0156
L44.2969 55.7812
C44.2969 57.1875 44 58.9219 44.5938 60.3281
C46.7031 64.75 53.7969 65.5625 59.5938 64.5625
C60.7969 64.3594 61.9062 63.9531 63.0938 63.75
L63.0938 69.3906
C57.5938 70.0938 51.5 70.7969 46.2969 68.1875
C42.2031 65.9688 38.5938 62.25 38.0938 56.6094
C38 55.1875 38.0938 53.7812 38.0938 52.375
z
" id="Computer_Modern_Bright-11"/>
     <path d="
M3.09375 9.64062
C2.90625 8.23438 2.59375 6.9375 2.40625 5.53125
C2.20312 4.42188 1.90625 3.92188 2.90625 3.42188
C7 1.01562 11.9062 -0.296875 17.7031 -0.796875
C24.2031 -1.40625 32.4062 0.109375 35.5938 6.53125
C36.5 8.34375 37 10.3438 37.0938 12.3594
C37.5 19.5781 31.7969 24.2031 26.9062 25.9062
C21.4062 28.0156 13.9062 27.3125 10.0938 31.5312
C8.09375 33.8438 8 37.2656 9.90625 39.6719
C13.9062 45.2969 26.7969 42.875 31.9062 40.375
C32.7031 39.9688 33.4062 39.4688 34.2969 39.2656
L35.2031 44.6875
C30.5 46.7969 26.4062 48 19.9062 48
C14.2969 48 9.20312 46.7031 6 43.4844
C2.79688 40.1719 1.70312 34.6406 3.59375 30.4375
C5.40625 26.4062 9.20312 23.7969 13.2969 22.5
C19.2031 20.3906 25.9062 21.3906 29.7969 16.5781
C32 13.7656 31.5938 9.54688 29.0938 7.03125
C24.2969 2.60938 14.0938 4.21875 8.5 6.625
C6.59375 7.4375 4.90625 8.64062 3.09375 9.64062" id="Computer_Modern_Bright-115"/>
     <path d="
M10.7969 60.5
L10.7969 47.0156
L1.09375 47.0156
L1.09375 42
L10.7031 42
L10.7031 15.0156
C10.7031 10.5781 10.4062 5.23438 13.2969 1.51562
C15 -0.703125 17.2969 -1.29688 20.7969 -1
C23.7031 -1 26.5938 -0.390625 29.2969 0.65625
C30.2031 1.0625 33.5 2.51562 33.9062 3.23438
C34.0938 3.64062 32.7969 8.09375 32.7969 8.09375
L30.4062 6.26562
C27.2969 4.34375 21.0938 2.32812 18.5 5.96875
C16.2031 9.09375 16.7969 13.75 16.7969 17.375
L16.7969 42
L32.2969 42
L32.2969 47.0156
L16.7969 47.0156
L16.7969 60.5
z
" id="Computer_Modern_Bright-116"/>
     <path d="
M12.5938 37.2812
L12.5 37.2812
L12.5 47.3906
L6.40625 47.3906
L6.40625 0
L12.7969 0
L12.7969 21.9375
C12.7969 26.8438 12.5 31.875 14.7031 36.4688
C15.7969 38.7812 17.5 40.7812 19.7969 41.9844
C21.7031 42.8906 23.7031 42.8906 25.7969 42.6875
C28.7969 42.6875 31.7031 41.8906 33.5938 39.375
C35.4062 37.0625 35.5 34.0625 35.5 31.25
L35.5 0
L41.9062 0
L41.9062 26.8594
C41.9062 31.875 42.4062 37.375 40 41.8906
C38.0938 45.5 34.4062 47.2031 30.5 47.7031
C28.5 48 26.4062 48 24.4062 47.6094
C19.2031 46.5 14.4062 42.2969 12.5938 37.2812" id="Computer_Modern_Bright-110"/>
     <path d="
M0.40625 26.0156
L0.40625 21
L28.2969 21
L28.2969 26.0156
z
" id="Computer_Modern_Bright-45"/>
     <path d="
M35.4062 11.9844
L35.5 11.9844
L35.5 2.65625
C35.5 -0.15625 35.5 -2.85938 34.5938 -5.5625
C33.0938 -9.1875 30.5 -12.5 26.2031 -13.0938
C25 -13.2031 23.7031 -13.0938 22.5 -13
C16 -13 11.7031 -11.0469 6.5 -8.67188
L6.5 -12.4844
C6.5 -14.4062 6.79688 -14.5 8.70312 -15.1094
C13.7969 -17.2188 23 -19.3125 29.2969 -17.7188
C36.2969 -15.9062 41.4062 -9.28125 41.9062 -1.21875
C42 0.1875 41.9062 1.70312 41.9062 3.125
L41.9062 48
L35.5938 48
L35.5938 39.9844
C34.0938 42.4844 32.5 44.7969 29.9062 46.4062
C22.9062 50.625 13.4062 46 9.5 40.5781
C3.09375 32.6406 1.90625 20.3438 7 11.4844
C8 9.78125 9.20312 8.17188 10.5938 6.76562
C15.4062 2.04688 23.5938 -0.46875 29.5 3.75
C31.9062 5.35938 34.7031 9.07812 35.4062 11.9844
M25.5 43
C26.4062 43 27.4062 43 28.2969 42.7969
C31.9062 42.0938 33.9062 38.875 35.0938 35.6562
C35.7969 33.4531 35.5938 31.0469 35.5938 28.7344
C35.5938 23.7188 35.5 18.5 33.7969 13.7656
C32.5938 10.2656 30.0938 7.14062 26.2031 6.75
C24.9062 6.64062 23.5938 6.84375 22.2969 7.14062
C16.2031 8.54688 12 13.7656 10.7031 19.7969
C8.90625 28.5312 13.2031 39.1719 22 42.1875
C23.0938 42.5938 24.2969 42.8906 25.5 43" id="Computer_Modern_Bright-103"/>
     <path d="
M14.4062 60.0469
C2.5 46.5938 1.79688 24.9062 13.2031 10.9531
C17.2031 6.03125 22.5 2.10938 29.0938 0.09375
C39.5 -3.21875 49.7031 0.09375 56.2969 4.92188
C67.5938 13.1562 72.4062 27.7188 70.2969 41.2656
C68.0938 55.125 57.7969 67.4844 43.7969 70.2969
C31 72.9062 20.2969 66.875 14.4062 60.0469
M54.9062 58.9375
C61.7031 52.3125 64.2031 42.875 63.7031 33.5312
C63 20.1875 56.2031 9.34375 45.9062 5.51562
C36.2969 1.60938 26 5.625 20.0938 12.25
C15.5 17.375 12.5938 25 12.0938 33.5312
C11.5 43.875 14.7031 54.7344 23.4062 61.0469
C25 62.1562 26.7969 63.1562 28.5938 63.9688
C38.4062 67.875 49.2031 64.6719 54.9062 58.9375" id="Computer_Modern_Bright-79"/>
     <path d="
M12.5 34.75
L12.4062 34.75
L12.4062 47.3906
L6.40625 47.3906
L6.40625 0
L12.7031 0
L12.7031 22.8906
C12.7031 24.4062 12.7031 25.9062 12.9062 27.4062
C14.2969 35.9531 21.7031 42.2812 31.4062 42.2812
L31.4062 48
C25 48 19.0938 44.8906 15.2969 39.7656
C14.2031 38.2656 13 36.5469 12.5 34.75" id="Computer_Modern_Bright-114"/>
     <path d="
M7.90625 39.0156
C9.59375 39.8594 11 41.0938 12.7031 41.9219
C15.4062 43.1562 18.2031 44 21.2031 44
C22.5938 44.0938 24.2031 44.2969 25.5938 44
C28.0938 43.5938 30.2969 42.0781 31.7969 39.9531
C33.2969 37.5156 33.9062 35.3906 33.9062 31.4688
L33.9062 27.0156
C29.0938 27.0156 24.2969 26.6094 19.7031 25.3906
C13.9062 24.0781 7.59375 21.125 5.5 15.8438
C3.40625 10.7812 5.59375 4.07812 10.0938 1.03125
C12.2969 -0.5 14.9062 -0.5 17.5 -0.296875
C21.7031 0 25.9062 1.01562 29.5 3.25
C31.2031 4.25 32.9062 5.57812 33.9062 7.29688
L34 7.29688
L34 0.203125
L40.2969 0.203125
L40.2969 26.8906
C40.2969 29.8125 40.5938 32.9531 40 35.8906
C39.4062 39.9219 36.9062 43.2656 34 45.5938
C30.5938 48.2188 26.7031 49.1094 21.5 48.7188
C16.7031 48.7188 13 47.5 9.40625 45.7656
C8.90625 45.5625 7.90625 45.2344 7.59375 44.6406
C7.29688 44.2188 7.5 43.5156 7.5 43
C7.70312 41.6719 7.79688 40.3438 7.90625 39.0156
M33.9062 24
L33.9062 16.375
C33.9062 14.0625 34 11.9531 32.7031 9.95312
C31.5938 8.34375 30.0938 7.23438 28.5 6.4375
C22.7969 3.51562 14.0938 4.42188 11.5938 9.25
C9.59375 12.75 11.7031 16.875 14.5938 19.1875
C18.9062 22.5 27.2969 24 33.9062 24" id="Computer_Modern_Bright-97"/>
     <path d="
M10.7031 42.0781
C1.79688 33.2344 0.796875 17.875 8.5 7.9375
C9.59375 6.42188 10.9062 5.125 12.4062 4.01562
C16.0938 1 21.5 -1.20312 27.7969 -0.5
C37.7969 0.703125 44.7031 8.84375 46.7969 17.375
C49.5938 29.3281 43.7031 42.6719 32.7031 46.8906
C24.0938 50.4062 15.5 46.8906 10.7031 42.0781
M35.7031 39.3594
C40.5 35.0312 41.4062 28.1094 41 21.9844
C40.7031 17.2656 39.4062 12.3438 36.0938 8.82812
C30.7031 3 20.7031 3 14.9062 8.625
C11.9062 11.8438 10.0938 16.4531 9.79688 21.9844
C9.29688 30.1094 11.2969 38.75 19.2969 41.9688
C25.2031 44.5781 32 42.6719 35.7031 39.3594" id="Computer_Modern_Bright-111"/>
     <path d="
M0.703125 47.6562
C1.29688 45.75 5.40625 35.6094 5.5 35.3125
L17.4062 4.57812
L18.4062 2.07812
C19 0.671875 19.2031 0.46875 18.5938 -1.14062
L17.5 -4.04688
C16.5938 -6.46875 15.5938 -8.96875 13.7031 -10.4844
C10.2969 -13.2969 4.90625 -11.6875 0.796875 -10.7812
L1.29688 -16.5
C3.20312 -16.7969 5.09375 -17 7 -17
C11.2969 -17.5156 14.0938 -16.5 16.7031 -14.2969
C20 -11.4844 21.5938 -7.5625 23.0938 -3.54688
L26.2031 5.07812
L36.4062 32.9062
C38.0938 37.9219 40.2031 42.6406 41.7969 47.6562
L37.2969 47.6562
C36.7969 47.6562 36 47.8594 35.5938 47.4688
C35.4062 47.1562 35.2969 46.7656 35.2031 46.4531
L34.4062 44.3438
C33.4062 41.7344 32.5 39.2344 31.5938 36.6094
L25.7969 20.25
C24.2969 15.8281 22.5938 11.3125 21.7969 6.6875
C20.7031 11.3125 19.2031 15.7344 17.5938 20.1406
C16.2969 23.5625 8.5 44.5469 7.5 46.5625
C7.09375 47.6562 6.70312 47.6562 5.20312 47.6562
z
" id="Computer_Modern_Bright-121"/>
     <path d="
M41.7969 10.9375
C39.5 9.23438 38.7969 8.32812 35.9062 6.8125
C29.7969 3.5 22.5938 3.5 17.4062 7.17188
C12.4062 10.7656 9.5 16.6406 9.5 25
L42.5 25
C42.5 32.4219 40.7969 38.8594 36.5938 43.375
C32 47.8906 24.7969 49.2969 18.7031 47.3906
C16.4062 46.6875 14.2969 45.4844 12.4062 43.9688
C6.09375 38.8594 3.40625 30.7188 3.5 22.7812
C3.70312 12.3438 10.7969 1.90625 21.2969 -0.3125
C26.7969 -1.42188 32.5938 -0.203125 37.5 2.29688
C38.4062 2.79688 41.7031 4.60938 42.0938 5.51562
C42.4062 6.01562 41.7969 10.9375 41.7969 10.9375
M37.2031 28.9062
L10 28.9062
C11.2031 36.2344 17.2031 43.9688 25.2969 43.0625
C31.9062 42.4688 35.4062 37.75 36.7031 31.8281
C36.9062 30.8125 37 29.9219 37.2031 28.9062" id="Computer_Modern_Bright-101"/>
    </defs>
    <g transform="translate(59.0508414685 14.1184983801)scale(0.1 -0.1)">
     <use transform="scale(0.9962640099626402)" xlink:href="#Computer_Modern_Bright-79"/>
     <use transform="translate(75.54971165259185 0.0)scale(0.9962640099626402)" xlink:href="#Computer_Modern_Bright-110"/>
     <use transform="translate(123.70220863655823 0.0)scale(0.9962640099626402)" xlink:href="#Computer_Modern_Bright-45"/>
     <use transform="translate(156.9108822871264 0.0)scale(0.9962640099626402)" xlink:href="#Computer_Modern_Bright-111"/>
     <use transform="translate(207.55410010312892 0.0)scale(0.9962640099626402)" xlink:href="#Computer_Modern_Bright-11"/>
     <use transform="translate(296.7193793537905 0.0)scale(0.9962640099626402)" xlink:href="#Computer_Modern_Bright-115"/>
     <use transform="translate(335.1584086530978 0.0)scale(0.9962640099626402)" xlink:href="#Computer_Modern_Bright-116"/>
     <use transform="translate(371.27279659285495 0.0)scale(0.9962640099626402)" xlink:href="#Computer_Modern_Bright-114"/>
     <use transform="translate(403.23615543275224 0.0)scale(0.9962640099626402)" xlink:href="#Computer_Modern_Bright-97"/>
     <use transform="translate(449.7282377364182 0.0)scale(0.9962640099626402)" xlink:href="#Computer_Modern_Bright-116"/>
     <use transform="translate(485.8426256761753 0.0)scale(0.9962640099626402)" xlink:href="#Computer_Modern_Bright-101"/>
     <use transform="translate(530.6742932995409 0.0)scale(0.9962640099626402)" xlink:href="#Computer_Modern_Bright-103"/>
     <use transform="translate(578.8267902835072 0.0)scale(0.9962640099626402)" xlink:href="#Computer_Modern_Bright-121"/>
    </g>
   </g>
  </g>
  <g id="patch_6">
   <path d="
M189.216 138.093
L358.272 138.093
L358.272 8.77289
L189.216 8.77289
z
" style="fill:#ffffff;"/>
  </g>
  <g id="pane3d_4">
   <g id="patch_7">
    <path d="
M333.961 91.2961
L249.783 79.249
L248.458 18.5126
L336.975 29.3143" style="fill:#ffffff;stroke:#ffffff;stroke-linejoin:miter;"/>
   </g>
  </g>
  <g id="pane3d_5">
   <g id="patch_8">
    <path d="
M214.97 114.134
L249.783 79.249
L248.458 18.5126
L211.612 49.8796" style="fill:#ffffff;stroke:#ffffff;stroke-linejoin:miter;"/>
   </g>
  </g>
  <g id="pane3d_6">
   <g id="patch_9">
    <path d="
M305.408 128.348
L333.961 91.2961
L249.783 79.249
L214.97 114.134" style="fill:#ffffff;stroke:#ffffff;stroke-linejoin:miter;"/>
   </g>
  </g>
  <g id="axis3d_4">
   <g id="line2d_22">
    <path d="
M333.961 91.2961
L305.408 128.348" style="fill:none;stroke:#000000;stroke-linecap:square;stroke-width:0.75;"/>
   </g>
   <g id="text_24">
    <!-- amino acids [mM] -->
    <defs>
     <path d="
M10.5938 76
L10.5938 -22
L26.2969 -22
L26.2969 -16.9688
L16.7031 -16.9688
L16.7031 70.9844
L26.2969 70.9844
L26.2969 76
z
" id="Computer_Modern_Bright-91"/>
     <path d="
M8.40625 69.5938
L8.40625 0
L14.5938 0
L14.5938 63.2656
L14.7031 63.2656
C15.0938 61.5625 16.5 58.1406 16.9062 57.0312
L21.2969 45.9844
C25.5938 35.4531 38.5 4.10938 39.0938 2.51562
C39.4062 1.40625 39.9062 1.20312 41.2031 1.20312
L43.9062 1.20312
C44.2969 1.20312 44.7969 1.10938 45.2969 1.20312
C45.7969 1.3125 45.9062 1.8125 46.0938 2.20312
C46.4062 3.10938 46.7969 3.92188 47.2031 4.8125
C51.7969 16.0625 70 60.5469 70.7031 63.2656
L70.7969 63.2656
L70.7969 0
L77 0
L77 69.5938
C74 69.5938 70.4062 70.0938 67.7969 69.5938
L67.0938 68.0938
C58.9062 47.9844 50.5 28.1406 42.7031 7.625
C41 12.1719 39.2031 16.5781 37.4062 21.0156
C30.7031 37.0938 24.5 53.7031 17.5 69.5938
C15 70.2031 11.2969 69.5938 8.40625 69.5938" id="Computer_Modern_Bright-77"/>
     <path d="
M35.5938 69.6875
L35.5938 41.375
C33.7031 43.4844 31.7969 45.4844 29.2031 46.6875
C20.2969 50.4062 11.7031 45.5938 7.29688 37.6562
C2.20312 28.2188 2.79688 15.7656 8.90625 6.92188
C13.2031 0.796875 20.2969 -2.20312 27.7969 0.5
C30.7031 1.60938 34.2031 4.51562 35.4062 7.125
L35.5 7.125
L35.5 0
L41.9062 0
L41.9062 69.6875
z

M35.2031 37.4531
C35.7031 36.5469 35.5 35.3438 35.5 34.3438
L35.5 13.6562
C35.5 11.3438 35.4062 11.1406 34.0938 9.34375
C32.2969 6.625 29.5 4.71875 26.2031 4.42188
C21.4062 4.01562 16.5 6.32812 13.7031 10.25
C12.0938 12.5469 11.2031 15.3594 10.7031 18.1719
C10.5 19.2812 10.5 20.2812 10.4062 21.3906
C9.79688 28.0156 11.2031 35.8438 17 40.0625
C18 40.7656 19.0938 41.2656 20.2031 41.7656
C26 43.9844 32.4062 43.375 35.2031 37.4531" id="Computer_Modern_Bright-100"/>
     <path d="
M6.40625 70
L6.40625 63.6719
L12.7031 63.6719
L12.7031 70
z

M6.40625 47.3906
L6.40625 0
L12.7031 0
L12.7031 47.3906
z
" id="Computer_Modern_Bright-105"/>
     <path d="
M42.4062 11.25
C40.5 9.84375 38.7969 8.32812 36.7031 7.125
C32 4.625 24.7969 3.42188 19.4062 5.92188
C11.5938 9.9375 9.5 19.6875 10.5938 27.7188
C10.7969 29.3281 11.0938 30.9219 11.5938 32.4375
C13.7969 38.9688 19.2969 44.0781 28.2969 43.0781
C33.0938 42.6719 35.5 41.875 39.2969 39.7656
C40 39.3594 40.5938 38.8594 41.4062 38.6562
C41.5 39.8594 41.7969 41.1719 42 42.375
C42.2969 43.9844 42.2969 44.1875 40.7969 44.8906
C39.7031 45.3906 38.5938 45.9844 37.4062 46.3906
C32.7969 48.4062 25.2031 49 20 47.5
C12.9062 45.4844 7.59375 39.3594 5.29688 32.5312
C4.20312 29.4219 3.90625 26.1094 3.90625 22.7969
C4 12.25 11.2031 1.90625 21.7031 -0.203125
C27.5 -1.40625 34.2031 0.296875 38.2031 2.40625
C39.2031 2.90625 42.2031 4.71875 42.7031 5.625
C43 6.125 42.4062 11.25 42.4062 11.25" id="Computer_Modern_Bright-99"/>
     <path d="
M12.5938 37.3594
L12.5 37.3594
L12.5 47.3906
L6.40625 47.3906
L6.40625 0
L12.7969 0
L12.7969 22.0469
C12.7969 26.9531 12.5 31.875 14.7031 36.375
C16.5938 40.2812 19.9062 43.3906 25.7969 42.7812
C28.7969 42.7812 31.7969 41.9844 33.7031 39.4531
C35.5 37.1406 35.5938 34.1406 35.5938 31.3125
L35.5938 0
L42 0
L42 22.0469
C42 26.9531 41.7031 31.875 43.9062 36.375
C45.7969 40.2812 49.0938 43.3906 55 42.7812
C58 42.7812 61 41.9844 62.9062 39.4531
C64.7031 37.1406 64.7969 34.1406 64.7969 31.3125
L64.7969 0
L71.2031 0
L71.2031 26.5625
C71.2031 31.375 71.7969 36.7812 69.7031 41.1875
C67.5938 45.2969 64.2031 47.5 58.7031 47.5
C55.5 47.7969 52.2969 47.3125 49.4062 45.8438
C45.9062 43.9219 43.2969 40.75 41.7031 37.2656
C41 40.5781 40.2031 42.8281 38 45
C35.7031 47.0625 32.5938 48 29.5938 48
C22.2969 48.5938 17.7031 45.5625 14.5938 41
C13.7969 39.875 13 38.6719 12.5938 37.3594" id="Computer_Modern_Bright-109"/>
     <path d="
M1.5 76
L1.5 70.9844
L11.0938 70.9844
L11.0938 -16.9688
L1.5 -16.9688
L1.5 -22
L17.2031 -22
L17.2031 76
z
" id="Computer_Modern_Bright-93"/>
    </defs>
    <g transform="translate(314.569488237 153.659005797)rotate(-52.38133580559172)scale(0.1 -0.1)">
     <use transform="scale(0.9962640099626402)" xlink:href="#Computer_Modern_Bright-97"/>
     <use transform="translate(46.492082303665946 0.0)scale(0.9962640099626402)" xlink:href="#Computer_Modern_Bright-109"/>
     <use transform="translate(123.70220863655823 0.0)scale(0.9962640099626402)" xlink:href="#Computer_Modern_Bright-105"/>
     <use transform="translate(142.797167482293 0.0)scale(0.9962640099626402)" xlink:href="#Computer_Modern_Bright-110"/>
     <use transform="translate(190.94966446625935 0.0)scale(0.9962640099626402)" xlink:href="#Computer_Modern_Bright-111"/>
     <use transform="translate(273.05809391539543 0.0)scale(0.9962640099626402)" xlink:href="#Computer_Modern_Bright-97"/>
     <use transform="translate(319.55017621906137 0.0)scale(0.9962640099626402)" xlink:href="#Computer_Modern_Bright-99"/>
     <use transform="translate(364.38184384242686 0.0)scale(0.9962640099626402)" xlink:href="#Computer_Modern_Bright-105"/>
     <use transform="translate(383.4768026881616 0.0)scale(0.9962640099626402)" xlink:href="#Computer_Modern_Bright-100"/>
     <use transform="translate(431.629299672128 0.0)scale(0.9962640099626402)" xlink:href="#Computer_Modern_Bright-115"/>
     <use transform="translate(501.5335406045688 0.0)scale(0.9962640099626402)" xlink:href="#Computer_Modern_Bright-91"/>
     <use transform="translate(529.2074277124844 0.0)scale(0.9962640099626402)" xlink:href="#Computer_Modern_Bright-109"/>
     <use transform="translate(606.4175540453767 0.0)scale(0.9962640099626402)" xlink:href="#Computer_Modern_Bright-77"/>
     <use transform="translate(691.5148515333126 0.0)scale(0.9962640099626402)" xlink:href="#Computer_Modern_Bright-93"/>
    </g>
   </g>
   <g id="Line3DCollection_5">
    <path d="
M306.028 127.543
L215.724 113.379
L212.413 49.1974" style="fill:none;stroke:#e6e6e6;"/>
    <path d="
M311.871 119.961
L222.835 106.253
L219.964 42.7695" style="fill:none;stroke:#e6e6e6;"/>
    <path d="
M317.525 112.624
L229.722 99.3515
L227.264 36.5549" style="fill:none;stroke:#e6e6e6;"/>
    <path d="
M322.997 105.523
L236.396 92.6643
L234.326 30.5431" style="fill:none;stroke:#e6e6e6;"/>
    <path d="
M328.298 98.6441
L242.865 86.1812
L241.162 24.7243" style="fill:none;stroke:#e6e6e6;"/>
    <path d="
M333.435 91.9786
L249.141 79.8932
L247.781 19.0894" style="fill:none;stroke:#e6e6e6;"/>
   </g>
   <g id="xtick_19">
    <g id="line2d_23">
     <path d="
M305.283 127.426
L307.519 127.777" style="fill:none;stroke:#000000;stroke-linecap:square;"/>
    </g>
    <g id="text_25">
     <!-- 0 -->
     <g transform="translate(311.493084485 133.287114674)rotate(-345.0)scale(0.08 -0.08)">
      <use transform="scale(0.9962640099626402)" xlink:href="#Computer_Modern_Bright-48"/>
     </g>
    </g>
   </g>
   <g id="xtick_20">
    <g id="line2d_24">
     <path d="
M311.137 119.848
L313.341 120.187" style="fill:none;stroke:#000000;stroke-linecap:square;"/>
    </g>
    <g id="text_26">
     <!-- 2 -->
     <g transform="translate(317.24486425 125.643108243)rotate(-345.0)scale(0.08 -0.08)">
      <use transform="scale(0.9962640099626402)" xlink:href="#Computer_Modern_Bright-50"/>
     </g>
    </g>
   </g>
   <g id="xtick_21">
    <g id="line2d_25">
     <path d="
M316.801 112.515
L318.973 112.843" style="fill:none;stroke:#000000;stroke-linecap:square;"/>
    </g>
    <g id="text_27">
     <!-- 4 -->
     <g transform="translate(322.810096413 118.247020045)rotate(-345.0)scale(0.08 -0.08)">
      <use transform="scale(0.9962640099626402)" xlink:href="#Computer_Modern_Bright-52"/>
     </g>
    </g>
   </g>
   <g id="xtick_22">
    <g id="line2d_26">
     <path d="
M322.284 105.417
L324.426 105.735" style="fill:none;stroke:#000000;stroke-linecap:square;"/>
    </g>
    <g id="text_28">
     <!-- 6 -->
     <g transform="translate(328.197711604 111.086981441)rotate(-345.0)scale(0.08 -0.08)">
      <use transform="scale(0.9962640099626402)" xlink:href="#Computer_Modern_Bright-54"/>
     </g>
    </g>
   </g>
   <g id="xtick_23">
    <g id="line2d_27">
     <path d="
M327.595 98.5414
L329.707 98.8495" style="fill:none;stroke:#000000;stroke-linecap:square;"/>
    </g>
    <g id="text_29">
     <!-- 8 -->
     <g transform="translate(333.416079357 104.151869479)rotate(-345.0)scale(0.08 -0.08)">
      <use transform="scale(0.9962640099626402)" xlink:href="#Computer_Modern_Bright-56"/>
     </g>
    </g>
   </g>
   <g id="xtick_24">
    <g id="line2d_28">
     <path d="
M332.741 91.8791
L334.824 92.1777" style="fill:none;stroke:#000000;stroke-linecap:square;"/>
    </g>
    <g id="text_30">
     <!-- 10 -->
     <g transform="translate(338.473051492 96.8575267409)rotate(-345.0)scale(0.08 -0.08)">
      <use transform="scale(0.9962640099626402)" xlink:href="#Computer_Modern_Bright-49"/>
      <use transform="translate(50.6432178160025 0.0)scale(0.9962640099626402)" xlink:href="#Computer_Modern_Bright-48"/>
     </g>
    </g>
   </g>
  </g>
  <g id="axis3d_5">
   <g id="line2d_29">
    <path d="
M214.97 114.134
L305.408 128.348" style="fill:none;stroke:#000000;stroke-linecap:square;stroke-width:0.75;"/>
   </g>
   <g id="text_31">
    <!-- r-prot/total prot -->
    <defs>
     <path d="
M12.7031 40.5312
L12.7031 47.1562
L6.40625 47.1562
L6.40625 -17
L12.7969 -17
L12.7969 6.09375
C14.2031 4.07812 15.7969 2.28125 17.9062 1.07812
C25 -3.25 34 0.171875 38.9062 6.59375
C45.4062 14.9688 46.0938 27.5 41.5938 36.9844
C39 42.4375 34.0938 47.5 27.7969 48
C22.2969 48 18.0938 45.8125 15.0938 43.125
C14.2031 42.3281 13.5 41.4375 12.7031 40.5312
M21.9062 42.875
C26 43.1719 30 41.2656 32.7969 38.2656
C34.5 36.3438 35.7969 34.1406 36.5938 31.7344
C40.0938 22.2969 36.9062 9.23438 26.7969 5.32812
C21 3.10938 15.2969 5.125 13.0938 10.5469
C12.5938 11.5469 12.7969 12.8594 12.7969 13.9531
L12.7969 34.6406
C12.7969 36.9531 13 37.1562 14.5 38.8594
C16.2969 41.0625 19 42.5781 21.9062 42.875" id="Computer_Modern_Bright-112"/>
     <path d="
M6.40625 69.6875
L6.40625 0
L12.7031 0
L12.7031 69.6875
z
" id="Computer_Modern_Bright-108"/>
     <path d="
M43.2969 75.2188
C42.2031 74.9062 41.9062 74 41.5 73
C41.2031 72.0938 12.2969 -1.40625 12.2969 -1.40625
L5.90625 -17.5781
C5.40625 -18.875 4.40625 -20.6875 5.70312 -21.7969
C6.09375 -22.1875 6.70312 -22.2969 7.29688 -22.2969
C8.29688 -22.0938 8.70312 -21.2812 9.09375 -20.4844
C9.5 -19.375 39.5 56.8281 39.5 56.8281
L45.4062 71.7969
C45.5938 72.4062 45.9062 73 45.7969 73.6094
C45.5938 74.7031 44.4062 75.6094 43.2969 75.2188" id="Computer_Modern_Bright-47"/>
    </defs>
    <g transform="translate(218.529282051 136.088707472)rotate(-351.0683121648845)scale(0.1 -0.1)">
     <use transform="scale(0.9962640099626402)" xlink:href="#Computer_Modern_Bright-114"/>
     <use transform="translate(31.963358839897264 0.0)scale(0.9962640099626402)" xlink:href="#Computer_Modern_Bright-45"/>
     <use transform="translate(65.17203249046545 0.0)scale(0.9962640099626402)" xlink:href="#Computer_Modern_Bright-112"/>
     <use transform="translate(110.41879998346047 0.0)scale(0.9962640099626402)" xlink:href="#Computer_Modern_Bright-114"/>
     <use transform="translate(142.38215882335774 0.0)scale(0.9962640099626402)" xlink:href="#Computer_Modern_Bright-111"/>
     <use transform="translate(193.02537663936022 0.0)scale(0.9962640099626402)" xlink:href="#Computer_Modern_Bright-116"/>
     <use transform="translate(229.13976457911738 0.0)scale(0.9962640099626402)" xlink:href="#Computer_Modern_Bright-47"/>
     <use transform="translate(279.7829823951199 0.0)scale(0.9962640099626402)" xlink:href="#Computer_Modern_Bright-116"/>
     <use transform="translate(315.89737033487705 0.0)scale(0.9962640099626402)" xlink:href="#Computer_Modern_Bright-111"/>
     <use transform="translate(366.54058815087956 0.0)scale(0.9962640099626402)" xlink:href="#Computer_Modern_Bright-116"/>
     <use transform="translate(402.6549760906367 0.0)scale(0.9962640099626402)" xlink:href="#Computer_Modern_Bright-97"/>
     <use transform="translate(449.14705839430263 0.0)scale(0.9962640099626402)" xlink:href="#Computer_Modern_Bright-108"/>
     <use transform="translate(499.70722887317095 0.0)scale(0.9962640099626402)" xlink:href="#Computer_Modern_Bright-112"/>
     <use transform="translate(544.9539963661659 0.0)scale(0.9962640099626402)" xlink:href="#Computer_Modern_Bright-114"/>
     <use transform="translate(576.9173552060632 0.0)scale(0.9962640099626402)" xlink:href="#Computer_Modern_Bright-111"/>
     <use transform="translate(627.5605730220658 0.0)scale(0.9962640099626402)" xlink:href="#Computer_Modern_Bright-116"/>
    </g>
   </g>
   <g id="Line3DCollection_6">
    <path d="
M335.151 29.0917
L332.229 91.0482
L303.543 128.055" style="fill:none;stroke:#e6e6e6;"/>
    <path d="
M317.757 26.9691
L315.706 88.6835
L285.757 125.259" style="fill:none;stroke:#e6e6e6;"/>
    <path d="
M300.566 24.8712
L299.366 86.3451
L268.186 122.498" style="fill:none;stroke:#e6e6e6;"/>
    <path d="
M283.574 22.7978
L283.207 84.0325
L250.826 119.769" style="fill:none;stroke:#e6e6e6;"/>
    <path d="
M266.779 20.7483
L267.226 81.7454
L233.673 117.074" style="fill:none;stroke:#e6e6e6;"/>
    <path d="
M250.177 18.7223
L251.42 79.4833
L216.724 114.41" style="fill:none;stroke:#e6e6e6;"/>
   </g>
   <g id="xtick_25">
    <g id="line2d_30">
     <path d="
M303.792 127.733
L303.043 128.699" style="fill:none;stroke:#000000;stroke-linecap:square;"/>
    </g>
    <g id="text_32">
     <!-- $0.0$ -->
     <g transform="translate(296.044553364 139.329091682)scale(0.08 -0.08)">
      <use transform="scale(0.9962640099626402)" xlink:href="#Computer_Modern_Bright-48"/>
      <use transform="translate(50.6432178160025 0.0)scale(0.9962640099626402)" xlink:href="#Computer_Modern_Bright_Math_Slanted-58"/>
      <use transform="translate(79.70066474353986 0.0)scale(0.9962640099626402)" xlink:href="#Computer_Modern_Bright-48"/>
     </g>
    </g>
   </g>
   <g id="xtick_26">
    <g id="line2d_31">
     <path d="
M286.017 124.941
L285.235 125.896" style="fill:none;stroke:#000000;stroke-linecap:square;"/>
    </g>
    <g id="text_33">
     <!-- $0.2$ -->
     <g transform="translate(278.236404006 136.493616629)scale(0.08 -0.08)">
      <use transform="scale(0.9962640099626402)" xlink:href="#Computer_Modern_Bright-48"/>
      <use transform="translate(50.6432178160025 0.0)scale(0.9962640099626402)" xlink:href="#Computer_Modern_Bright_Math_Slanted-58"/>
      <use transform="translate(79.70066474353986 0.0)scale(0.9962640099626402)" xlink:href="#Computer_Modern_Bright-50"/>
     </g>
    </g>
   </g>
   <g id="xtick_27">
    <g id="line2d_32">
     <path d="
M268.457 122.184
L267.643 123.127" style="fill:none;stroke:#000000;stroke-linecap:square;"/>
    </g>
    <g id="text_34">
     <!-- $0.4$ -->
     <g transform="translate(260.643800061 133.692461462)scale(0.08 -0.08)">
      <use transform="scale(0.9962640099626402)" xlink:href="#Computer_Modern_Bright-48"/>
      <use transform="translate(50.6432178160025 0.0)scale(0.9962640099626402)" xlink:href="#Computer_Modern_Bright_Math_Slanted-58"/>
      <use transform="translate(79.70066474353986 0.0)scale(0.9962640099626402)" xlink:href="#Computer_Modern_Bright-52"/>
     </g>
    </g>
   </g>
   <g id="xtick_28">
    <g id="line2d_33">
     <path d="
M251.107 119.459
L250.263 120.391" style="fill:none;stroke:#000000;stroke-linecap:square;"/>
    </g>
    <g id="text_35">
     <!-- $0.6$ -->
     <g transform="translate(243.262851707 130.925006828)scale(0.08 -0.08)">
      <use transform="scale(0.9962640099626402)" xlink:href="#Computer_Modern_Bright-48"/>
      <use transform="translate(50.6432178160025 0.0)scale(0.9962640099626402)" xlink:href="#Computer_Modern_Bright_Math_Slanted-58"/>
      <use transform="translate(79.70066474353986 0.0)scale(0.9962640099626402)" xlink:href="#Computer_Modern_Bright-54"/>
     </g>
    </g>
   </g>
   <g id="xtick_29">
    <g id="line2d_34">
     <path d="
M233.964 116.767
L233.09 117.688" style="fill:none;stroke:#000000;stroke-linecap:square;"/>
    </g>
    <g id="text_36">
     <!-- $0.8$ -->
     <g transform="translate(226.089762159 128.190648192)scale(0.08 -0.08)">
      <use transform="scale(0.9962640099626402)" xlink:href="#Computer_Modern_Bright-48"/>
      <use transform="translate(50.6432178160025 0.0)scale(0.9962640099626402)" xlink:href="#Computer_Modern_Bright_Math_Slanted-58"/>
      <use transform="translate(79.70066474353986 0.0)scale(0.9962640099626402)" xlink:href="#Computer_Modern_Bright-56"/>
     </g>
    </g>
   </g>
   <g id="xtick_30">
    <g id="line2d_35">
     <path d="
M217.025 114.107
L216.121 115.017" style="fill:none;stroke:#000000;stroke-linecap:square;"/>
    </g>
    <g id="text_37">
     <!-- $1.0$ -->
     <g transform="translate(209.120824904 125.488795389)scale(0.08 -0.08)">
      <use transform="scale(0.9962640099626402)" xlink:href="#Computer_Modern_Bright-49"/>
      <use transform="translate(50.6432178160025 0.0)scale(0.9962640099626402)" xlink:href="#Computer_Modern_Bright_Math_Slanted-58"/>
      <use transform="translate(79.70066474353986 0.0)scale(0.9962640099626402)" xlink:href="#Computer_Modern_Bright-48"/>
     </g>
    </g>
   </g>
  </g>
  <g id="axis3d_6">
   <g id="line2d_36">
    <path d="
M214.97 114.134
L211.612 49.8796" style="fill:none;stroke:#000000;stroke-linecap:square;stroke-width:0.75;"/>
   </g>
   <g id="text_38">
    <!-- $\alpha$ -->
    <g transform="translate(196.737719912 90.4528891146)rotate(-90.0)scale(0.12 -0.12)">
     <use transform="scale(0.9962640099626402)" xlink:href="#Computer_Modern_Bright_Math_Slanted-11"/>
    </g>
   </g>
   <g id="Line3DCollection_7">
    <path d="
M214.906 112.915
L249.758 78.0916
L334.018 90.1166" style="fill:none;stroke:#e6e6e6;"/>
    <path d="
M214.288 101.078
L249.513 66.8655
L334.575 78.6735" style="fill:none;stroke:#e6e6e6;"/>
    <path d="
M213.656 88.9993
L249.264 55.4282
L335.142 67.0087" style="fill:none;stroke:#e6e6e6;"/>
    <path d="
M213.012 76.6709
L249.009 43.7736
L335.72 55.1155" style="fill:none;stroke:#e6e6e6;"/>
    <path d="
M212.354 64.0852
L248.75 31.8955
L336.31 42.9874" style="fill:none;stroke:#e6e6e6;"/>
    <path d="
M211.683 51.2339
L248.486 19.7874
L336.912 30.6171" style="fill:none;stroke:#e6e6e6;"/>
   </g>
   <g id="xtick_31">
    <g id="line2d_37">
     <path d="
M215.209 112.613
L214.3 113.52" style="fill:none;stroke:#000000;stroke-linecap:square;"/>
    </g>
    <g id="text_39">
     <!-- $0.0$ -->
     <g transform="translate(202.189419771 119.799429903)scale(0.08 -0.08)">
      <use transform="scale(0.9962640099626402)" xlink:href="#Computer_Modern_Bright-48"/>
      <use transform="translate(50.6432178160025 0.0)scale(0.9962640099626402)" xlink:href="#Computer_Modern_Bright_Math_Slanted-58"/>
      <use transform="translate(79.70066474353986 0.0)scale(0.9962640099626402)" xlink:href="#Computer_Modern_Bright-48"/>
     </g>
    </g>
   </g>
   <g id="xtick_32">
    <g id="line2d_38">
     <path d="
M214.593 100.781
L213.675 101.673" style="fill:none;stroke:#000000;stroke-linecap:square;"/>
    </g>
    <g id="text_40">
     <!-- $0.2$ -->
     <g transform="translate(201.497311244 107.940079119)scale(0.08 -0.08)">
      <use transform="scale(0.9962640099626402)" xlink:href="#Computer_Modern_Bright-48"/>
      <use transform="translate(50.6432178160025 0.0)scale(0.9962640099626402)" xlink:href="#Computer_Modern_Bright_Math_Slanted-58"/>
      <use transform="translate(79.70066474353986 0.0)scale(0.9962640099626402)" xlink:href="#Computer_Modern_Bright-50"/>
     </g>
    </g>
   </g>
   <g id="xtick_33">
    <g id="line2d_39">
     <path d="
M213.966 88.7076
L213.036 89.5838" style="fill:none;stroke:#000000;stroke-linecap:square;"/>
    </g>
    <g id="text_41">
     <!-- $0.4$ -->
     <g transform="translate(200.791005946 95.8374651794)scale(0.08 -0.08)">
      <use transform="scale(0.9962640099626402)" xlink:href="#Computer_Modern_Bright-48"/>
      <use transform="translate(50.6432178160025 0.0)scale(0.9962640099626402)" xlink:href="#Computer_Modern_Bright_Math_Slanted-58"/>
      <use transform="translate(79.70066474353986 0.0)scale(0.9962640099626402)" xlink:href="#Computer_Modern_Bright-52"/>
     </g>
    </g>
   </g>
   <g id="xtick_34">
    <g id="line2d_40">
     <path d="
M213.325 76.3849
L212.385 77.2442" style="fill:none;stroke:#000000;stroke-linecap:square;"/>
    </g>
    <g id="text_42">
     <!-- $0.6$ -->
     <g transform="translate(200.070062534 83.4840256748)scale(0.08 -0.08)">
      <use transform="scale(0.9962640099626402)" xlink:href="#Computer_Modern_Bright-48"/>
      <use transform="translate(50.6432178160025 0.0)scale(0.9962640099626402)" xlink:href="#Computer_Modern_Bright_Math_Slanted-58"/>
      <use transform="translate(79.70066474353986 0.0)scale(0.9962640099626402)" xlink:href="#Computer_Modern_Bright-54"/>
     </g>
    </g>
   </g>
   <g id="xtick_35">
    <g id="line2d_41">
     <path d="
M212.671 63.8051
L211.72 64.6466" style="fill:none;stroke:#000000;stroke-linecap:square;"/>
    </g>
    <g id="text_43">
     <!-- $0.8$ -->
     <g transform="translate(199.334021185 70.8718814524)scale(0.08 -0.08)">
      <use transform="scale(0.9962640099626402)" xlink:href="#Computer_Modern_Bright-48"/>
      <use transform="translate(50.6432178160025 0.0)scale(0.9962640099626402)" xlink:href="#Computer_Modern_Bright_Math_Slanted-58"/>
      <use transform="translate(79.70066474353986 0.0)scale(0.9962640099626402)" xlink:href="#Computer_Modern_Bright-56"/>
     </g>
    </g>
   </g>
   <g id="xtick_36">
    <g id="line2d_42">
     <path d="
M212.003 50.96
L211.04 51.7828" style="fill:none;stroke:#000000;stroke-linecap:square;"/>
    </g>
    <g id="text_44">
     <!-- $1.0$ -->
     <g transform="translate(198.582402609 57.9928198583)scale(0.08 -0.08)">
      <use transform="scale(0.9962640099626402)" xlink:href="#Computer_Modern_Bright-49"/>
      <use transform="translate(50.6432178160025 0.0)scale(0.9962640099626402)" xlink:href="#Computer_Modern_Bright_Math_Slanted-58"/>
      <use transform="translate(79.70066474353986 0.0)scale(0.9962640099626402)" xlink:href="#Computer_Modern_Bright-48"/>
     </g>
    </g>
   </g>
  </g>
  <g id="axes_2">
   <g id="Line3DCollection_8">
    <path clip-path="url(#p05703ff145)" d="
M304.698 66.68
L304.808 63.2775
L304.903 63.1616
L317.546 49.0975
L333.651 31.1836
L333.651 31.1836" style="fill:none;stroke:#000000;stroke-width:0.5;"/>
    <path clip-path="url(#p05703ff145)" d="
M299.31 103.375
L299.811 85.7267
L300.434 63.7618
L300.668 62.9218
L301.179 62.1598
L302.911 60.1651
L314.487 47.4229
L329.303 31.1569
L329.303 31.1569" style="fill:none;stroke:#000000;stroke-width:0.5;"/>
    <path clip-path="url(#p05703ff145)" d="
M294.631 114.471
L294.928 109.149
L295.247 98.8456
L296.138 65.2749
L296.416 63.6511
L296.808 62.6616
L297.514 61.5677
L299.005 59.7499
L303.244 55.0301
L321.89 34.7516
L324.959 31.4218
L324.959 31.4218" style="fill:none;stroke:#000000;stroke-width:0.5;"/>
    <path clip-path="url(#p05703ff145)" d="
M290.153 117.424
L290.459 114.984
L290.725 110.871
L290.973 103.397
L291.945 66.804
L292.292 64.5516
L292.721 63.2074
L293.37 61.9556
L294.429 60.451
L296.459 58.014
L301.094 52.8692
L315.078 37.7757
L320.629 31.8142
L320.629 31.8142" style="fill:none;stroke:#000000;stroke-width:0.5;"/>
    <path clip-path="url(#p05703ff145)" d="
M285.734 118.246
L286.121 116.546
L286.422 114.138
L286.678 109.863
L286.908 101.761
L287.64 70.9738
L287.964 67.272
L288.37 65.0746
L288.898 63.4681
L289.614 62.0265
L290.678 60.4105
L292.434 58.1835
L295.706 54.442
L302.796 46.7346
L316.315 32.3067
L316.315 32.3067" style="fill:none;stroke:#000000;stroke-width:0.5;"/>
    <path clip-path="url(#p05703ff145)" d="
M281.344 118.32
L281.854 116.826
L282.209 115.086
L282.473 112.638
L282.685 108.601
L282.935 97.9791
L283.417 76.305
L283.776 70.3899
L284.184 67.2738
L284.683 65.1565
L285.307 63.4617
L286.154 61.8178
L287.382 59.954
L289.27 57.5306
L292.424 53.881
L298.361 47.3979
L311.4 33.5485
L312.017 32.8969
L312.017 32.8969" style="fill:none;stroke:#000000;stroke-width:0.5;"/>
    <path clip-path="url(#p05703ff145)" d="
M276.972 118.07
L277.644 116.577
L278.092 115.004
L278.381 113.208
L278.609 110.469
L278.812 105.143
L279.669 74.1107
L280.073 70.0338
L280.571 67.2366
L281.165 65.1486
L281.918 63.3044
L282.928 61.4437
L284.318 59.3707
L286.367 56.7399
L289.618 52.9619
L295.226 46.8266
L306.031 35.3809
L307.737 33.5908
L307.737 33.5908" style="fill:none;stroke:#000000;stroke-width:0.5;"/>
    <path clip-path="url(#p05703ff145)" d="
M272.616 117.66
L273.485 116.058
L273.998 114.682
L274.349 113.15
L274.635 110.783
L274.856 106.713
L275.105 96.1629
L275.487 81.6917
L275.878 75.0711
L276.338 71.0035
L276.897 68.0706
L277.554 65.8019
L278.373 63.7715
L279.416 61.7824
L280.81 59.6147
L282.77 56.9973
L285.658 53.537
L290.231 48.4364
L298.022 40.1162
L303.474 34.3988
L303.474 34.3988" style="fill:none;stroke:#000000;stroke-width:0.5;"/>
    <path clip-path="url(#p05703ff145)" d="
M268.275 117.162
L269.378 115.379
L270.022 113.933
L270.437 112.464
L270.752 110.438
L270.997 107.071
L271.228 99.7684
L271.721 83.0602
L272.129 76.8316
L272.613 72.6666
L273.199 69.5154
L273.886 67.0122
L274.737 64.7566
L275.782 62.6184
L277.147 60.3465
L278.953 57.786
L281.475 54.6163
L285.183 50.3395
L290.943 44.0643
L299.231 35.3349
L299.231 35.3349" style="fill:none;stroke:#000000;stroke-width:0.5;"/>
    <path clip-path="url(#p05703ff145)" d="
M263.947 116.613
L265.353 114.539
L266.131 113.005
L266.612 111.563
L266.959 109.764
L267.202 107.332
L267.43 102.595
L268.214 82.0372
L268.679 76.7883
L269.223 72.9936
L269.87 69.9551
L270.653 67.3381
L271.6 64.9531
L272.774 62.6149
L274.268 60.1562
L276.203 57.416
L278.85 54.0734
L282.585 49.74
L288.101 43.7066
L295.007 36.4164
L295.007 36.4164" style="fill:none;stroke:#000000;stroke-width:0.5;"/>
    <path clip-path="url(#p05703ff145)" d="
M259.633 116.031
L261.381 113.629
L262.294 112.018
L262.843 110.628
L263.223 109.082
L263.529 106.802
L263.786 102.906
L264.903 81.0501
L265.463 76.3743
L266.102 72.8335
L266.878 69.785
L267.789 67.1193
L268.865 64.6534
L270.199 62.156
L271.883 59.4901
L274.068 56.4675
L276.958 52.8668
L280.955 48.2619
L286.71 41.993
L290.805 37.6651
L290.805 37.6651" style="fill:none;stroke:#000000;stroke-width:0.5;"/>
    <path clip-path="url(#p05703ff145)" d="
M255.332 115.429
L257.493 112.614
L258.577 110.859
L259.226 109.391
L259.671 107.805
L260.009 105.676
L260.296 102.234
L261.673 81.3077
L262.294 76.9412
L263.026 73.3525
L263.864 70.3275
L264.87 67.5332
L266.074 64.8638
L267.535 62.1802
L269.344 59.3374
L271.653 56.1446
L274.662 52.3808
L278.711 47.6939
L284.362 41.5136
L286.624 39.1072
L286.624 39.1072" style="fill:none;stroke:#000000;stroke-width:0.5;"/>
    <path clip-path="url(#p05703ff145)" d="
M251.044 114.813
L253.658 111.555
L254.948 109.619
L255.698 108.106
L256.211 106.557
L256.584 104.703
L256.908 101.897
L257.346 95.6575
L258.019 86.8142
L258.648 81.4446
L259.364 77.2213
L260.19 73.671
L261.156 70.5203
L262.289 67.6022
L263.618 64.8032
L265.236 61.9313
L267.2 58.9092
L269.69 55.5021
L272.874 51.5385
L277.086 46.6681
L282.468 40.7754
L282.468 40.7754" style="fill:none;stroke:#000000;stroke-width:0.5;"/>
    <path clip-path="url(#p05703ff145)" d="
M246.769 114.189
L249.944 110.371
L251.441 108.258
L252.327 106.639
L252.908 105.122
L253.347 103.335
L253.737 100.717
L254.246 95.3591
L255.105 86.656
L255.831 81.6194
L256.642 77.5293
L257.563 74.0105
L258.623 70.8324
L259.849 67.8489
L261.303 64.8983
L263.044 61.8764
L265.16 58.6582
L267.796 55.0665
L271.121 50.9287
L275.433 45.9322
L278.337 42.7102
L278.337 42.7102" style="fill:none;stroke:#000000;stroke-width:0.5;"/>
    <path clip-path="url(#p05703ff145)" d="
M242.506 113.558
L246.352 109.071
L248.125 106.693
L249.147 104.971
L249.829 103.395
L250.335 101.66
L250.793 99.2415
L251.377 94.7
L252.491 86.0753
L253.348 81.305
L254.288 77.3298
L255.337 73.8443
L256.555 70.5712
L257.97 67.4164
L259.61 64.3061
L261.565 61.0787
L263.952 57.579
L266.881 53.6922
L270.544 49.2136
L274.235 44.9623
L274.235 44.9623" style="fill:none;stroke:#000000;stroke-width:0.5;"/>
    <path clip-path="url(#p05703ff145)" d="
M238.257 112.923
L242.883 107.666
L245.001 104.953
L246.194 103.089
L247.009 101.405
L247.615 99.6317
L248.172 97.2569
L248.891 93.0267
L250.243 85.1096
L251.233 80.6853
L252.334 76.7804
L253.574 73.2164
L254.981 69.8586
L256.614 66.5477
L258.53 63.1776
L260.786 59.6698
L263.495 55.8751
L266.824 51.6045
L270.165 47.5958
L270.165 47.5958" style="fill:none;stroke:#000000;stroke-width:0.5;"/>
    <path clip-path="url(#p05703ff145)" d="
M234.02 112.285
L239.574 106.121
L242.105 103.011
L243.534 100.929
L244.484 99.1775
L245.223 97.3526
L245.914 95.0114
L246.803 91.0739
L248.52 83.4659
L249.739 79.1627
L251.033 75.394
L252.494 71.8222
L254.149 68.3618
L256.088 64.834
L258.334 61.2157
L261.001 57.3466
L264.228 53.0702
L266.13 50.6914
L266.13 50.6914" style="fill:none;stroke:#000000;stroke-width:0.5;"/>
    <path clip-path="url(#p05703ff145)" d="
M229.795 111.646
L236.459 104.406
L239.538 100.762
L241.303 98.3468
L242.484 96.3617
L243.42 94.3389
L244.306 91.8487
L245.613 87.3581
L247.481 81.1311
L248.99 76.9118
L250.6 73.0721
L252.402 69.3568
L254.453 65.645
L256.839 61.7982
L259.61 57.7589
L262.137 54.3504
L262.137 54.3504" style="fill:none;stroke:#000000;stroke-width:0.5;"/>
    <path clip-path="url(#p05703ff145)" d="
M225.583 111.006
L233.678 102.379
L237.437 98.0753
L239.6 95.2841
L241.075 93.0326
L242.271 90.8009
L243.449 88.1054
L245.46 82.7906
L247.623 77.3495
L249.539 73.1427
L251.609 69.1374
L253.921 65.1533
L256.56 61.054
L258.193 58.6914
L258.193 58.6914" style="fill:none;stroke:#000000;stroke-width:0.5;"/>
    <path clip-path="url(#p05703ff145)" d="
M221.383 110.365
L231.265 100.021
L235.967 94.8043
L238.75 91.3999
L240.675 88.7064
L242.285 86.0746
L244 82.8183
L250.287 70.4334
L252.92 65.9856
L254.305 63.8057
L254.305 63.8057" style="fill:none;stroke:#000000;stroke-width:0.5;"/>
    <path clip-path="url(#p05703ff145)" d="
M217.279 109.738
L229.475 97.1805
L235.467 90.7182
L239.112 86.4784
L241.759 83.0721
L244.112 79.6784
L247.026 75.0395
L250.552 69.3128
L250.552 69.3128" style="fill:none;stroke:#000000;stroke-width:0.5;"/>
    <path clip-path="url(#p05703ff145)" d="
M304.698 66.68
L304.034 71.1522
L300.416 97.9325
L299.409 102.95
L298.435 106.689
L297.485 109.475
L296.553 111.567
L295.541 113.289
L294.54 114.573
L293.457 115.616
L292.291 116.444
L290.953 117.122
L289.444 117.641
L287.586 118.035
L285.294 118.277
L282.395 118.341
L278.631 118.19
L273.399 117.742
L265.677 116.837
L253.358 115.147
L230.723 111.787
L217.279 109.738
L217.279 109.738" style="fill:none;stroke:#000000;stroke-width:0.5;"/>
    <path clip-path="url(#p05703ff145)" d="
M306.343 61.5579
L304.107 61.4602
L301.406 61.5745
L298.8 61.9002
L296.57 62.3884
L294.619 63.0376
L292.949 63.8316
L291.557 64.7343
L290.351 65.7688
L289.237 67.0171
L288.216 68.5111
L287.287 70.2813
L286.449 72.3499
L285.61 75.0575
L284.862 78.2131
L284.112 82.3132
L283.267 88.2356
L281.325 102.743
L280.606 106.137
L279.896 108.434
L279.191 110.009
L278.401 111.236
L277.527 112.171
L276.568 112.874
L275.437 113.425
L274.048 113.847
L272.315 114.132
L270.066 114.269
L266.959 114.218
L262.57 113.903
L256.056 113.192
L245.575 111.803
L226.516 109.023
L219.08 107.905
L219.08 107.905" style="fill:none;stroke:#000000;stroke-width:0.5;"/>
    <path clip-path="url(#p05703ff145)" d="
M307.896 59.8312
L305.668 59.7285
L302.514 59.8221
L298.904 60.156
L295.487 60.6935
L292.449 61.395
L289.786 62.2374
L287.496 63.1876
L285.486 64.2492
L283.664 65.4533
L282.028 66.7897
L280.487 68.3371
L279.042 70.1224
L277.782 72.0237
L276.527 74.3357
L275.368 76.9575
L274.304 79.8985
L273.248 83.4667
L272.201 87.7787
L270.91 94.1687
L269.296 102.129
L268.533 104.822
L267.768 106.7
L267.002 107.969
L266.235 108.833
L265.297 109.537
L264.187 110.062
L262.821 110.436
L261.114 110.662
L258.813 110.735
L255.493 110.599
L250.568 110.155
L242.706 109.198
L228.944 107.271
L220.865 106.083
L220.865 106.083" style="fill:none;stroke:#000000;stroke-width:0.5;"/>
    <path clip-path="url(#p05703ff145)" d="
M309.434 58.1197
L307.123 58.0161
L303.796 58.1085
L299.74 58.443
L295.698 58.9911
L291.944 59.7202
L288.66 60.5762
L285.661 61.586
L283.035 62.6998
L280.689 63.9266
L278.531 65.3008
L276.561 66.8167
L274.778 68.4613
L273.091 70.3174
L271.502 72.4056
L270.011 74.7458
L268.616 77.3545
L267.32 80.2407
L266.035 83.6422
L264.765 87.6375
L263.346 92.8672
L261.122 101.135
L260.296 103.289
L259.547 104.666
L258.795 105.623
L257.956 106.343
L256.947 106.898
L255.767 107.285
L254.249 107.542
L252.141 107.653
L249.191 107.567
L244.734 107.194
L237.61 106.352
L224.955 104.605
L222.636 104.27
L222.636 104.27" style="fill:none;stroke:#000000;stroke-width:0.5;"/>
    <path clip-path="url(#p05703ff145)" d="
M310.96 56.4231
L308.657 56.3203
L305.25 56.4095
L300.843 56.7505
L296.269 57.3243
L291.988 58.0849
L288.179 58.984
L284.746 60.0194
L281.688 61.169
L278.912 62.446
L276.415 63.8321
L274.107 65.3634
L271.987 67.0338
L270.053 68.8309
L268.218 70.8366
L266.482 73.0685
L264.844 75.5434
L263.305 78.2743
L261.781 81.4558
L260.357 84.9414
L258.869 89.1772
L255.051 100.529
L254.233 101.992
L253.409 103.006
L252.58 103.688
L251.582 104.215
L250.415 104.577
L248.828 104.819
L246.655 104.9
L243.564 104.772
L238.812 104.334
L230.839 103.35
L224.393 102.464
L224.393 102.464" style="fill:none;stroke:#000000;stroke-width:0.5;"/>
    <path clip-path="url(#p05703ff145)" d="
M312.472 54.7411
L310.177 54.6397
L306.692 54.7295
L302.027 55.0794
L297.108 55.6687
L292.483 56.4432
L288.331 57.3568
L284.558 58.4091
L281.159 59.582
L278.043 60.8907
L275.208 62.3226
L272.652 63.8577
L270.284 65.5342
L268.104 67.3441
L266.023 69.3639
L264.129 71.5085
L262.333 73.8701
L260.637 76.4602
L258.957 79.4445
L257.377 82.7028
L255.735 86.6204
L253.794 91.8858
L251.87 96.9774
L250.904 98.9115
L250.092 100.077
L249.274 100.89
L248.369 101.484
L247.296 101.919
L245.972 102.21
L244.148 102.366
L241.577 102.341
L237.683 102.057
L231.404 101.352
L226.135 100.664
L226.135 100.664" style="fill:none;stroke:#000000;stroke-width:0.5;"/>
    <path clip-path="url(#p05703ff145)" d="
M313.971 53.0737
L311.685 52.9738
L308.121 53.0663
L303.291 53.4226
L298.119 54.0235
L293.243 54.8067
L288.75 55.7489
L284.727 56.8128
L281.079 57.9993
L277.714 59.3244
L274.631 60.7784
L271.827 62.3458
L269.212 64.0651
L266.786 65.9331
L264.548 67.9418
L262.496 70.0765
L260.543 72.4237
L258.691 74.9959
L256.939 77.8014
L255.205 81.0007
L253.492 84.6312
L251.481 89.4609
L249.093 95.1535
L248.133 96.8734
L247.246 98.0139
L246.352 98.789
L245.372 99.3319
L244.223 99.7065
L242.743 99.9454
L240.684 100.033
L237.718 99.9169
L233.03 99.4865
L227.863 98.8682
L227.863 98.8682" style="fill:none;stroke:#000000;stroke-width:0.5;"/>
    <path clip-path="url(#p05703ff145)" d="
M315.457 51.4206
L313.18 51.3223
L309.628 51.414
L304.725 51.7685
L299.302 52.3815
L294.175 53.179
L289.433 54.1377
L285.16 55.2231
L281.263 56.4376
L277.739 57.7627
L274.496 59.2147
L271.532 60.7801
L268.758 62.4963
L266.173 64.3615
L263.776 66.3702
L261.566 68.5112
L259.456 70.8671
L257.447 73.4523
L255.54 76.278
L253.734 79.3465
L251.868 82.9723
L249.788 87.541
L247.175 93.2605
L246.141 94.9527
L245.259 95.9842
L244.371 96.6906
L243.396 97.1877
L242.173 97.5477
L240.619 97.7585
L238.49 97.8116
L235.297 97.65
L230.23 97.1484
L229.577 97.0727
L229.577 97.0727" style="fill:none;stroke:#000000;stroke-width:0.5;"/>
    <path clip-path="url(#p05703ff145)" d="
M316.931 49.7817
L314.661 49.685
L311.123 49.7767
L306.057 50.1406
L300.473 50.7631
L295.098 51.5836
L290.197 52.5518
L285.677 53.6702
L281.622 54.8986
L277.939 56.2396
L274.537 57.7105
L271.415 59.2996
L268.569 60.9892
L265.911 62.8182
L263.441 64.7806
L261.072 66.9483
L258.889 69.2445
L256.806 71.7545
L254.825 74.488
L252.864 77.5843
L250.925 81.0782
L248.772 85.4534
L245.856 91.4159
L244.827 92.9899
L243.949 93.9603
L243.066 94.6311
L242.016 95.1362
L240.799 95.4659
L239.173 95.6603
L236.893 95.687
L233.473 95.4812
L231.277 95.2737
L231.277 95.2737" style="fill:none;stroke:#000000;stroke-width:0.5;"/>
    <path clip-path="url(#p05703ff145)" d="
M318.392 48.1567
L316.131 48.0618
L312.515 48.1584
L307.377 48.5289
L301.635 49.165
L296.102 49.9992
L291.043 50.982
L286.365 52.1165
L282.152 53.3644
L278.31 54.7296
L274.751 56.2302
L271.471 57.8566
L268.467 59.5939
L265.653 61.4818
L263.027 63.5174
L260.587 65.6934
L258.332 67.997
L256.179 70.5109
L254.127 73.2443
L252.095 76.33
L250.087 79.7972
L247.787 84.2501
L245.119 89.4037
L244.016 91.0312
L243.063 92.036
L242.104 92.712
L241.058 93.1697
L239.767 93.4804
L238.067 93.6448
L235.637 93.6356
L232.964 93.4657
L232.964 93.4657" style="fill:none;stroke:#000000;stroke-width:0.5;"/>
    <path clip-path="url(#p05703ff145)" d="
M319.84 46.5454
L317.588 46.4523
L313.984 46.5497
L308.775 46.9245
L302.964 47.5621
L297.274 48.4076
L292.057 49.4041
L287.31 50.5321
L282.938 51.7968
L278.938 53.1844
L275.307 54.6758
L271.955 56.2892
L268.878 58.0105
L265.991 59.8781
L263.291 61.8895
L260.777 64.0379
L258.365 66.3984
L256.138 68.8885
L254.012 71.5939
L251.907 74.6415
L249.826 78.0597
L247.533 82.2723
L244.56 87.7286
L243.461 89.2471
L242.512 90.1842
L241.556 90.8157
L240.516 91.2437
L239.23 91.5332
L237.458 91.6855
L234.958 91.6565
L234.636 91.6406
L234.636 91.6406" style="fill:none;stroke:#000000;stroke-width:0.5;"/>
    <path clip-path="url(#p05703ff145)" d="
M321.277 44.9478
L318.942 44.8561
L315.262 44.9641
L309.983 45.3513
L304.016 46.0107
L298.259 46.8668
L292.975 47.8711
L288.071 49.0272
L283.63 50.2994
L279.561 51.6931
L275.859 53.1896
L272.435 54.8075
L269.286 56.5334
L266.326 58.4052
L263.554 60.421
L260.968 62.5749
L258.566 64.8567
L256.265 67.3439
L254.066 70.0466
L251.889 73.0871
L249.735 76.4926
L247.293 80.8091
L244.408 85.8875
L243.313 87.3592
L242.368 88.2788
L241.417 88.9046
L240.301 89.356
L238.941 89.6446
L237.177 89.7791
L236.294 89.7868
L236.294 89.7868" style="fill:none;stroke:#000000;stroke-width:0.5;"/>
    <path clip-path="url(#p05703ff145)" d="
M322.701 43.3636
L320.375 43.2737
L316.708 43.3829
L311.358 43.7762
L305.323 44.441
L299.499 45.3003
L294.059 46.3239
L289.086 47.4827
L284.575 48.7564
L280.435 50.1505
L276.576 51.6841
L273.08 53.3078
L269.775 55.0895
L266.743 56.9762
L263.899 59.0093
L261.241 61.184
L258.767 63.4913
L256.394 66.0079
L254.124 68.7445
L251.956 71.7048
L249.731 75.1317
L247.22 79.4389
L244.499 84.0563
L243.408 85.4944
L242.467 86.4047
L241.52 87.0306
L240.409 87.4853
L239.055 87.7776
L237.938 87.8874
L237.938 87.8874" style="fill:none;stroke:#000000;stroke-width:0.5;"/>
    <path clip-path="url(#p05703ff145)" d="
M324.113 41.7927
L321.796 41.7046
L318.142 41.815
L312.81 42.2069
L306.708 42.8754
L300.728 43.7517
L295.22 44.7798
L290.179 45.9421
L285.512 47.2453
L281.301 48.6473
L277.372 50.1893
L273.805 51.8235
L270.512 53.5691
L267.408 55.4641
L264.491 57.5079
L261.76 59.6969
L259.213 62.0233
L256.768 64.5632
L254.425 67.328
L252.185 70.322
L249.968 73.6557
L247.309 78.0933
L244.752 82.2906
L243.586 83.7787
L242.57 84.7099
L241.547 85.3275
L240.44 85.731
L239.567 85.9184
L239.567 85.9184" style="fill:none;stroke:#000000;stroke-width:0.5;"/>
    <path clip-path="url(#p05703ff145)" d="
M325.514 40.2349
L323.205 40.1485
L319.564 40.2603
L314.162 40.6594
L307.993 41.336
L301.947 42.2199
L296.372 43.2552
L291.262 44.4248
L286.526 45.7358
L282.246 47.1469
L278.245 48.6994
L274.607 50.3468
L271.243 52.1088
L268.067 54.0237
L265.161 56.0306
L262.439 58.1722
L259.819 60.5173
L257.383 62.9932
L255.047 65.6783
L252.733 68.685
L250.443 72.0345
L247.791 76.3365
L245.085 80.6517
L243.923 82.0836
L242.909 82.9794
L241.89 83.5744
L241.181 83.8485
L241.181 83.8485" style="fill:none;stroke:#000000;stroke-width:0.5;"/>
    <path clip-path="url(#p05703ff145)" d="
M326.903 38.69
L324.602 38.6054
L320.974 38.7186
L315.59 39.1173
L309.355 39.7998
L303.243 40.6896
L297.6 41.731
L292.422 42.9072
L287.617 44.2257
L283.266 45.6462
L279.28 47.1749
L275.57 48.8315
L272.134 50.606
L268.969 52.484
L265.99 54.5054
L263.195 56.6665
L260.584 58.96
L258.074 61.4586
L255.665 64.1732
L253.358 67.1076
L250.996 70.4849
L248.273 74.7997
L245.651 78.8862
L244.493 80.3029
L243.483 81.2004
L242.78 81.645
L242.78 81.645" style="fill:none;stroke:#000000;stroke-width:0.5;"/>
    <path clip-path="url(#p05703ff145)" d="
M328.28 37.1579
L325.988 37.075
L322.284 37.1945
L316.832 37.6044
L310.531 38.2997
L304.354 39.2032
L298.645 40.2594
L293.4 41.4523
L288.613 42.7642
L284.194 44.2025
L280.138 45.7526
L276.358 47.4348
L272.851 49.2402
L269.616 51.1554
L266.566 53.2212
L263.701 55.4353
L261.019 57.7917
L258.52 60.2793
L256.121 62.9743
L253.744 65.9846
L251.391 69.3258
L248.369 74.0528
L246.216 77.2883
L245.061 78.6592
L244.364 79.2924
L244.364 79.2924" style="fill:none;stroke:#000000;stroke-width:0.5;"/>
    <path clip-path="url(#p05703ff145)" d="
M329.646 35.6384
L327.362 35.5572
L323.671 35.6783
L318.15 36.0964
L311.784 36.802
L305.542 37.717
L299.768 38.7861
L294.456 39.9939
L289.601 41.3235
L285.113 42.7828
L280.988 44.3582
L277.222 46.0307
L273.728 47.821
L270.421 49.767
L267.382 51.8116
L264.527 53.9975
L261.854 56.3179
L259.282 58.8448
L256.811 61.5883
L254.441 64.5514
L252.018 67.9457
L248.85 72.8167
L246.856 75.7253
L245.934 76.815
L245.934 76.815" style="fill:none;stroke:#000000;stroke-width:0.5;"/>
    <path clip-path="url(#p05703ff145)" d="
M331.001 34.1313
L328.725 34.0518
L325.047 34.1746
L319.545 34.5929
L313.2 35.2953
L306.979 36.2022
L301.137 37.2755
L295.757 38.4891
L290.834 39.8265
L286.36 41.267
L282.248 42.8177
L278.411 44.4987
L274.845 46.3016
L271.548 48.2138
L268.436 50.2755
L265.508 52.4848
L262.763 54.8367
L260.198 57.3209
L257.734 60.0119
L255.291 63.0138
L252.873 66.3405
L249.712 71.1122
L247.646 74.082
L247.493 74.2754
L247.493 74.2754" style="fill:none;stroke:#000000;stroke-width:0.5;"/>
    <path clip-path="url(#p05703ff145)" d="
M332.345 32.6366
L330.077 32.5587
L326.411 32.6831
L320.928 33.1019
L314.518 33.8127
L308.232 34.7297
L302.41 35.7977
L297.048 37.0013
L292.056 38.3487
L287.514 39.8025
L283.332 41.3707
L279.424 43.0738
L275.87 44.8602
L272.502 46.8013
L269.401 48.8418
L266.482 51.0239
L263.744 53.3417
L261.107 55.8657
L258.571 58.6064
L256.135 61.5671
L253.646 64.9513
L250.187 70.0984
L249.042 71.7423
L249.042 71.7423" style="fill:none;stroke:#000000;stroke-width:0.5;"/>
    <path clip-path="url(#p05703ff145)" d="
M333.651 31.1836
L331.391 31.1073
L327.738 31.2333
L322.186 31.6608
L315.712 32.3833
L309.361 33.3143
L303.474 34.3988
L298.046 35.6222
L293.072 36.9686
L288.461 38.4469
L284.211 40.0448
L280.317 41.7453
L276.693 43.5697
L273.337 45.5064
L270.165 47.5958
L267.256 49.7726
L264.448 52.153
L261.82 54.671
L259.292 57.4003
L256.787 60.4424
L254.228 63.9156
L250.552 69.3128
L250.552 69.3128" style="fill:none;stroke:#000000;stroke-width:0.5;"/>
   </g>
   <g id="text_45">
    <!-- B -->
    <defs>
     <path d="
M8.09375 69.125
L8.09375 0
L28.5 0
C38.7031 0 43.7031 0 51.4062 4.3125
C56 7.14062 60.5938 11.6562 61 18.4062
C61 19.4062 61 20.4062 60.7969 21.4062
C59.4062 28.8438 51.9062 33.4844 45.2031 35.4844
C43.5938 35.9844 41.9062 36.2969 40.2031 36.5938
C41.5938 37 43.0938 37.2969 44.5 37.7969
C50.5 39.9844 57.2031 44.1875 58 51.1094
C58.2969 54 57.5938 55.9062 56.7031 57.9062
C52.7969 65.3125 43.4062 69.125 33.5 69.125
C31.2969 69.125 29.0938 69.125 26.9062 69.125
z

M14.7969 39
L14.7969 64
L25.7969 64
C27.4062 64 29 64 30.5938 64
C34.7969 64 39 63.2969 42.9062 61.7031
C46.4062 60.0938 50.7031 57.5938 51.5 53.5
C52.5 48.2969 48.2031 44.1094 43.9062 42
C39.7969 39.9062 35.4062 39 30.7969 39
C28.9062 39 27.0938 39 25.2031 39
z

M14.7969 5.42188
L14.7969 33.7812
L26.2969 33.7812
C35 33.7812 39.4062 33.7812 46.2031 30.2344
C50.7969 27.7031 55.4062 23.0469 54.2031 17.2656
C53.2969 12.4219 48.7031 9.28125 44.4062 7.54688
C40.9062 6.125 37.2031 5.42188 33.5 5.42188
C31.5938 5.42188 29.7969 5.42188 27.9062 5.42188
z
" id="Computer_Modern_Bright-66"/>
    </defs>
    <g transform="translate(197.054641236 40.2607359594)scale(0.12 -0.12)">
     <use transform="scale(0.9962640099626402)" xlink:href="#Computer_Modern_Bright-66"/>
    </g>
   </g>
   <g id="text_46">
    <!-- ppGpp regulation -->
    <defs>
     <path d="
M6.40625 47
L6.40625 12.9688
C6.40625 10.0469 6.5 7.14062 7.70312 4.42188
C9.59375 0.515625 13.5938 -1 17.7031 -1
C23.2031 -1 28.7031 0.8125 32.7031 4.73438
C33.7969 5.82812 34.7969 6.9375 35.5 8.34375
L35.5938 8.34375
L35.5938 -0.390625
L41.9062 -0.390625
L41.9062 47
L35.5 47
L35.5 22.9062
C35.5 18.6875 36.0938 14.0625 33.9062 10.25
C32.2969 7.4375 29.5 5.23438 26.4062 4.23438
C24.2969 3.625 22.0938 3.625 19.9062 3.82812
C17.7969 4.03125 15.5 4.23438 14.0938 6.03125
C12.0938 8.45312 12.7969 14.1719 12.7969 17.6875
L12.7969 47
z
" id="Computer_Modern_Bright-117"/>
     <path d="
M62.0938 33.3125
L40 33.3125
L40 28
L55.7031 28
L55.7031 9.59375
C55.7031 9.09375 55.7969 8.39062 55.5 7.98438
C55.2031 7.39062 53.9062 7.1875 53.2969 6.98438
C48.7031 5.6875 41.9062 4.375 36.5 5.375
C29.2031 6.57812 23 11.4062 19.2031 17.7188
C11.5938 30.1406 13 47.5625 23.4062 57.9688
C26.5 61.0938 30.2969 63.5 35 64.5938
C41.5 66.2031 49.0938 64.5938 53.9062 62.2969
C56.0938 61.2812 58 59.875 60 58.5781
L61.2031 65.5938
C58.5 66.7969 55.9062 68 53 68.8906
C48.5938 70.0938 44.0938 70.5 39.5938 70.5
C27.7031 70.5 18.5 63.1094 13.5938 56.0312
C6.29688 45.0625 5.40625 30.3125 11.2969 18.5312
C14.5938 11.6562 20 6.57812 26.7969 3.07812
C35.2031 -1 45.0938 -1 53.9062 1.53125
C55.0938 1.82812 61.7031 3.92188 62 4.85938
C62.0938 5.17188 62.0938 5.59375 62.0938 5.90625
z
" id="Computer_Modern_Bright-71"/>
    </defs>
    <g transform="translate(237.343316893 14.1184983801)scale(0.1 -0.1)">
     <use transform="scale(0.9962640099626402)" xlink:href="#Computer_Modern_Bright-112"/>
     <use transform="translate(48.15249698396638 0.0)scale(0.9962640099626402)" xlink:href="#Computer_Modern_Bright-112"/>
     <use transform="translate(96.30499396793276 0.0)scale(0.9962640099626402)" xlink:href="#Computer_Modern_Bright-71"/>
     <use transform="translate(164.38275594936957 0.0)scale(0.9962640099626402)" xlink:href="#Computer_Modern_Bright-112"/>
     <use transform="translate(212.53525293333595 0.0)scale(0.9962640099626402)" xlink:href="#Computer_Modern_Bright-112"/>
     <use transform="translate(292.1529615504359 0.0)scale(0.9962640099626402)" xlink:href="#Computer_Modern_Bright-114"/>
     <use transform="translate(324.11632039033316 0.0)scale(0.9962640099626402)" xlink:href="#Computer_Modern_Bright-101"/>
     <use transform="translate(368.94798801369865 0.0)scale(0.9962640099626402)" xlink:href="#Computer_Modern_Bright-103"/>
     <use transform="translate(417.10048499766503 0.0)scale(0.9962640099626402)" xlink:href="#Computer_Modern_Bright-117"/>
     <use transform="translate(465.2529819816314 0.0)scale(0.9962640099626402)" xlink:href="#Computer_Modern_Bright-108"/>
     <use transform="translate(484.3479408273662 0.0)scale(0.9962640099626402)" xlink:href="#Computer_Modern_Bright-97"/>
     <use transform="translate(530.8400231310321 0.0)scale(0.9962640099626402)" xlink:href="#Computer_Modern_Bright-116"/>
     <use transform="translate(566.9544110707893 0.0)scale(0.9962640099626402)" xlink:href="#Computer_Modern_Bright-105"/>
     <use transform="translate(586.049369916524 0.0)scale(0.9962640099626402)" xlink:href="#Computer_Modern_Bright-111"/>
     <use transform="translate(636.6925877325265 0.0)scale(0.9962640099626402)" xlink:href="#Computer_Modern_Bright-110"/>
    </g>
   </g>
  </g>
 </g>
 <defs>
  <clipPath id="p05703ff145">
   <rect height="129.32015762" width="169.056" x="189.216" y="8.77288577051"/>
  </clipPath>
  <clipPath id="p21f5681124">
   <rect height="129.32015762" width="169.056" x="7.2" y="8.77288577051"/>
  </clipPath>
 </defs>
</svg>
