<?xml version="1.0" encoding="utf-8" standalone="no"?>
<!DOCTYPE svg PUBLIC "-//W3C//DTD SVG 1.1//EN"
  "http://www.w3.org/Graphics/SVG/1.1/DTD/svg11.dtd">
<!-- Created with matplotlib (http://matplotlib.org/) -->
<svg height="369pt" version="1.1" viewBox="0 0 441 369" width="441pt" xmlns="http://www.w3.org/2000/svg" xmlns:xlink="http://www.w3.org/1999/xlink">
 <defs>
  <style type="text/css">
*{stroke-linecap:butt;stroke-linejoin:round;}
  </style>
 </defs>
 <g id="figure_1">
  <g id="patch_1">
   <path d="
M0 369
L441 369
L441 0
L0 0
z
" style="fill:#ffffff;"/>
  </g>
  <g id="patch_2">
   <path d="
M13.23 355.716
L427.77 355.716
L427.77 13.284
L13.23 13.284
z
" style="fill:#ffffff;"/>
  </g>
  <g id="pane3d_1">
   <g id="patch_3">
    <path d="
M368.157 231.8
L161.746 199.901
L158.498 39.0742
L375.549 67.6764" style="fill:#ffffff;stroke:#ffffff;stroke-linejoin:miter;"/>
   </g>
  </g>
  <g id="pane3d_2">
   <g id="patch_4">
    <path d="
M76.381 292.275
L161.746 199.901
L158.498 39.0742
L68.1466 122.132" style="fill:#ffffff;stroke:#ffffff;stroke-linejoin:miter;"/>
   </g>
  </g>
  <g id="pane3d_3">
   <g id="patch_5">
    <path d="
M298.143 329.911
L368.157 231.8
L161.746 199.901
L76.381 292.275" style="fill:#ffffff;stroke:#ffffff;stroke-linejoin:miter;"/>
   </g>
  </g>
  <g id="axis3d_1">
   <g id="line2d_1">
    <path d="
M368.157 231.8
L298.143 329.911" style="fill:none;stroke:#000000;stroke-linecap:square;stroke-width:0.75;"/>
   </g>
   <g id="text_1">
    <!-- amino acids [$\mu$M] -->
    <defs>
     <path d="
M3.09375 9.64062
C2.90625 8.23438 2.59375 6.9375 2.40625 5.53125
C2.20312 4.42188 1.90625 3.92188 2.90625 3.42188
C7 1.01562 11.9062 -0.296875 17.7031 -0.796875
C24.2031 -1.40625 32.4062 0.109375 35.5938 6.53125
C36.5 8.34375 37 10.3438 37.0938 12.3594
C37.5 19.5781 31.7969 24.2031 26.9062 25.9062
C21.4062 28.0156 13.9062 27.3125 10.0938 31.5312
C8.09375 33.8438 8 37.2656 9.90625 39.6719
C13.9062 45.2969 26.7969 42.875 31.9062 40.375
C32.7031 39.9688 33.4062 39.4688 34.2969 39.2656
L35.2031 44.6875
C30.5 46.7969 26.4062 48 19.9062 48
C14.2969 48 9.20312 46.7031 6 43.4844
C2.79688 40.1719 1.70312 34.6406 3.59375 30.4375
C5.40625 26.4062 9.20312 23.7969 13.2969 22.5
C19.2031 20.3906 25.9062 21.3906 29.7969 16.5781
C32 13.7656 31.5938 9.54688 29.0938 7.03125
C24.2969 2.60938 14.0938 4.21875 8.5 6.625
C6.59375 7.4375 4.90625 8.64062 3.09375 9.64062" id="Computer_Modern_Bright-115"/>
     <path d="
M6.40625 70
L6.40625 63.6719
L12.7031 63.6719
L12.7031 70
z

M6.40625 47.3906
L6.40625 0
L12.7031 0
L12.7031 47.3906
z
" id="Computer_Modern_Bright-105"/>
     <path d="
M10.5938 76
L10.5938 -22
L26.2969 -22
L26.2969 -16.9688
L16.7031 -16.9688
L16.7031 70.9844
L26.2969 70.9844
L26.2969 76
z
" id="Computer_Modern_Bright-91"/>
     <path d="
M10.7031 42.0781
C1.79688 33.2344 0.796875 17.875 8.5 7.9375
C9.59375 6.42188 10.9062 5.125 12.4062 4.01562
C16.0938 1 21.5 -1.20312 27.7969 -0.5
C37.7969 0.703125 44.7031 8.84375 46.7969 17.375
C49.5938 29.3281 43.7031 42.6719 32.7031 46.8906
C24.0938 50.4062 15.5 46.8906 10.7031 42.0781
M35.7031 39.3594
C40.5 35.0312 41.4062 28.1094 41 21.9844
C40.7031 17.2656 39.4062 12.3438 36.0938 8.82812
C30.7031 3 20.7031 3 14.9062 8.625
C11.9062 11.8438 10.0938 16.4531 9.79688 21.9844
C9.29688 30.1094 11.2969 38.75 19.2969 41.9688
C25.2031 44.5781 32 42.6719 35.7031 39.3594" id="Computer_Modern_Bright-111"/>
     <path d="
M12.5938 37.3594
L12.5 37.3594
L12.5 47.3906
L6.40625 47.3906
L6.40625 0
L12.7969 0
L12.7969 22.0469
C12.7969 26.9531 12.5 31.875 14.7031 36.375
C16.5938 40.2812 19.9062 43.3906 25.7969 42.7812
C28.7969 42.7812 31.7969 41.9844 33.7031 39.4531
C35.5 37.1406 35.5938 34.1406 35.5938 31.3125
L35.5938 0
L42 0
L42 22.0469
C42 26.9531 41.7031 31.875 43.9062 36.375
C45.7969 40.2812 49.0938 43.3906 55 42.7812
C58 42.7812 61 41.9844 62.9062 39.4531
C64.7031 37.1406 64.7969 34.1406 64.7969 31.3125
L64.7969 0
L71.2031 0
L71.2031 26.5625
C71.2031 31.375 71.7969 36.7812 69.7031 41.1875
C67.5938 45.2969 64.2031 47.5 58.7031 47.5
C55.5 47.7969 52.2969 47.3125 49.4062 45.8438
C45.9062 43.9219 43.2969 40.75 41.7031 37.2656
C41 40.5781 40.2031 42.8281 38 45
C35.7031 47.0625 32.5938 48 29.5938 48
C22.2969 48.5938 17.7031 45.5625 14.5938 41
C13.7969 39.875 13 38.6719 12.5938 37.3594" id="Computer_Modern_Bright-109"/>
     <path d="
M35.5938 69.6875
L35.5938 41.375
C33.7031 43.4844 31.7969 45.4844 29.2031 46.6875
C20.2969 50.4062 11.7031 45.5938 7.29688 37.6562
C2.20312 28.2188 2.79688 15.7656 8.90625 6.92188
C13.2031 0.796875 20.2969 -2.20312 27.7969 0.5
C30.7031 1.60938 34.2031 4.51562 35.4062 7.125
L35.5 7.125
L35.5 0
L41.9062 0
L41.9062 69.6875
z

M35.2031 37.4531
C35.7031 36.5469 35.5 35.3438 35.5 34.3438
L35.5 13.6562
C35.5 11.3438 35.4062 11.1406 34.0938 9.34375
C32.2969 6.625 29.5 4.71875 26.2031 4.42188
C21.4062 4.01562 16.5 6.32812 13.7031 10.25
C12.0938 12.5469 11.2031 15.3594 10.7031 18.1719
C10.5 19.2812 10.5 20.2812 10.4062 21.3906
C9.79688 28.0156 11.2031 35.8438 17 40.0625
C18 40.7656 19.0938 41.2656 20.2031 41.7656
C26 43.9844 32.4062 43.375 35.2031 37.4531" id="Computer_Modern_Bright-100"/>
     <path d="
M42.4062 11.25
C40.5 9.84375 38.7969 8.32812 36.7031 7.125
C32 4.625 24.7969 3.42188 19.4062 5.92188
C11.5938 9.9375 9.5 19.6875 10.5938 27.7188
C10.7969 29.3281 11.0938 30.9219 11.5938 32.4375
C13.7969 38.9688 19.2969 44.0781 28.2969 43.0781
C33.0938 42.6719 35.5 41.875 39.2969 39.7656
C40 39.3594 40.5938 38.8594 41.4062 38.6562
C41.5 39.8594 41.7969 41.1719 42 42.375
C42.2969 43.9844 42.2969 44.1875 40.7969 44.8906
C39.7031 45.3906 38.5938 45.9844 37.4062 46.3906
C32.7969 48.4062 25.2031 49 20 47.5
C12.9062 45.4844 7.59375 39.3594 5.29688 32.5312
C4.20312 29.4219 3.90625 26.1094 3.90625 22.7969
C4 12.25 11.2031 1.90625 21.7031 -0.203125
C27.5 -1.40625 34.2031 0.296875 38.2031 2.40625
C39.2031 2.90625 42.2031 4.71875 42.7031 5.625
C43 6.125 42.4062 11.25 42.4062 11.25" id="Computer_Modern_Bright-99"/>
     <path d="
M13.4062 2.51562
C18.2031 -2 26.2031 -2 31.7969 0.96875
C33.2031 1.75 34.5 2.65625 35.7031 3.73438
C36.5 4.53125 37.2031 5.32812 38.0938 6.01562
C38.9062 0.203125 46.5 -2.90625 51.4062 0
C55.2031 2.3125 57.2031 6.71875 58.5938 10.8125
C59.0938 12.3125 59.7031 13.9062 59.7969 15.5
L55.2031 15.5
C54.7031 15.5 53.9062 15.7031 53.5 15.2969
C53.2969 15.0938 53.2969 14.7031 53.2031 14.4062
C52.5 11.3906 51.7969 7.59375 50.2969 5.375
C49.4062 3.875 47.7031 3.17188 45.9062 4.78125
C43.2031 6.98438 44.2969 11 44.9062 13.9062
L49.7969 36.9375
L50.7969 41.7812
C51 42.6719 51.2969 43.6875 51.2969 44.5781
C51.2969 46.0938 50.2969 47 48.7969 47
C47.2969 47 45.9062 46.0938 45.2031 44.7969
C44.7031 43.7812 42.0938 30.5312 41.5 28.0156
C39.7969 19.5781 36.9062 8.9375 29.7031 4.92188
C26.9062 3.51562 23.4062 3.51562 20.5938 4.90625
C17.2031 6.71875 16.2969 10.4219 16.2969 13.9375
C16.2969 16.8281 17.0938 19.7344 17.7031 22.5469
C18.5938 27.25 22.4062 44.5938 22.4062 45.1875
C22.4062 46.5 21.7031 47.5 20.4062 47.6875
C18.7969 48 17.0938 47.0938 16.2969 45.6875
C15.7969 44.7969 14.5938 38.4844 14.2031 36.4688
L5.79688 -3.29688
C5 -6.8125 4.20312 -10.4219 3.5 -13.9219
C3.20312 -15.3281 2.59375 -17.0312 3.90625 -18.125
C5.90625 -19.7344 8.70312 -18.0312 9.40625 -16.0312
C9.70312 -15.2188 12.5938 -1.59375 13.4062 2.51562" id="Computer_Modern_Bright_Math_Slanted-22"/>
     <path d="
M7.90625 39.0156
C9.59375 39.8594 11 41.0938 12.7031 41.9219
C15.4062 43.1562 18.2031 44 21.2031 44
C22.5938 44.0938 24.2031 44.2969 25.5938 44
C28.0938 43.5938 30.2969 42.0781 31.7969 39.9531
C33.2969 37.5156 33.9062 35.3906 33.9062 31.4688
L33.9062 27.0156
C29.0938 27.0156 24.2969 26.6094 19.7031 25.3906
C13.9062 24.0781 7.59375 21.125 5.5 15.8438
C3.40625 10.7812 5.59375 4.07812 10.0938 1.03125
C12.2969 -0.5 14.9062 -0.5 17.5 -0.296875
C21.7031 0 25.9062 1.01562 29.5 3.25
C31.2031 4.25 32.9062 5.57812 33.9062 7.29688
L34 7.29688
L34 0.203125
L40.2969 0.203125
L40.2969 26.8906
C40.2969 29.8125 40.5938 32.9375 40 35.8906
C39.4062 39.9219 36.9062 43.2656 34 45.5938
C30.5938 48.2188 26.7031 49.1094 21.5 48.7188
C16.7031 48.7188 13 47.5 9.40625 45.75
C8.90625 45.5469 7.90625 45.2344 7.59375 44.625
C7.29688 44.2031 7.5 43.5 7.5 42.9844
C7.70312 41.6562 7.79688 40.3438 7.90625 39.0156
M33.9062 24
L33.9062 16.375
C33.9062 14.0625 34 11.9531 32.7031 9.95312
C31.5938 8.34375 30.0938 7.23438 28.5 6.4375
C22.7969 3.51562 14.0938 4.42188 11.5938 9.25
C9.59375 12.75 11.7031 16.875 14.5938 19.1875
C18.9062 22.5 27.2969 24 33.9062 24" id="Computer_Modern_Bright-97"/>
     <path d="
M12.5938 37.2812
L12.5 37.2812
L12.5 47.3906
L6.40625 47.3906
L6.40625 0
L12.7969 0
L12.7969 21.9375
C12.7969 26.8438 12.5 31.875 14.7031 36.4688
C15.7969 38.7812 17.5 40.7812 19.7969 41.9844
C21.7031 42.8906 23.7031 42.8906 25.7969 42.6875
C28.7969 42.6875 31.7031 41.8906 33.5938 39.375
C35.4062 37.0625 35.5 34.0625 35.5 31.25
L35.5 0
L41.9062 0
L41.9062 26.8594
C41.9062 31.875 42.4062 37.375 40 41.8906
C38.0938 45.5 34.4062 47.2031 30.5 47.7031
C28.5 48 26.4062 48 24.4062 47.6094
C19.2031 46.5 14.4062 42.2969 12.5938 37.2812" id="Computer_Modern_Bright-110"/>
     <path d="
M8.40625 69.5938
L8.40625 0
L14.5938 0
L14.5938 63.2656
L14.7031 63.2656
C15.0938 61.5625 16.5 58.1406 16.9062 57.0312
L21.2969 45.9844
C25.5938 35.4531 38.5 4.10938 39.0938 2.51562
C39.4062 1.40625 39.9062 1.20312 41.2031 1.20312
L43.9062 1.20312
C44.2969 1.20312 44.7969 1.10938 45.2969 1.20312
C45.7969 1.3125 45.9062 1.8125 46.0938 2.20312
C46.4062 3.10938 46.7969 3.92188 47.2031 4.8125
C51.7969 16.0625 70 60.5469 70.7031 63.2656
L70.7969 63.2656
L70.7969 0
L77 0
L77 69.5938
C74 69.5938 70.4062 70.0938 67.7969 69.5938
L67.0938 68.0938
C58.9062 47.9844 50.5 28.1406 42.7031 7.625
C41 12.1719 39.2031 16.5781 37.4062 21.0156
C30.7031 37.0938 24.5 53.7031 17.5 69.5938
C15 70.2031 11.2969 69.5938 8.40625 69.5938" id="Computer_Modern_Bright-77"/>
     <path d="
M1.5 76
L1.5 70.9844
L11.0938 70.9844
L11.0938 -16.9688
L1.5 -16.9688
L1.5 -22
L17.2031 -22
L17.2031 76
z
" id="Computer_Modern_Bright-93"/>
    </defs>
    <g transform="translate(333.920258231 371.980784415)rotate(-54.48742790514021)scale(0.2 -0.2)">
     <use transform="scale(0.9962640099626402)" xlink:href="#Computer_Modern_Bright-97"/>
     <use transform="translate(46.492082303665946 0.0)scale(0.9962640099626402)" xlink:href="#Computer_Modern_Bright-109"/>
     <use transform="translate(123.70220863655823 0.0)scale(0.9962640099626402)" xlink:href="#Computer_Modern_Bright-105"/>
     <use transform="translate(142.797167482293 0.0)scale(0.9962640099626402)" xlink:href="#Computer_Modern_Bright-110"/>
     <use transform="translate(190.94966446625935 0.0)scale(0.9962640099626402)" xlink:href="#Computer_Modern_Bright-111"/>
     <use transform="translate(273.05809391539543 0.0)scale(0.9962640099626402)" xlink:href="#Computer_Modern_Bright-97"/>
     <use transform="translate(319.55017621906137 0.0)scale(0.9962640099626402)" xlink:href="#Computer_Modern_Bright-99"/>
     <use transform="translate(364.38184384242686 0.0)scale(0.9962640099626402)" xlink:href="#Computer_Modern_Bright-105"/>
     <use transform="translate(383.4768026881616 0.0)scale(0.9962640099626402)" xlink:href="#Computer_Modern_Bright-100"/>
     <use transform="translate(431.629299672128 0.0)scale(0.9962640099626402)" xlink:href="#Computer_Modern_Bright-115"/>
     <use transform="translate(501.5335406045688 0.0)scale(0.9962640099626402)" xlink:href="#Computer_Modern_Bright-91"/>
     <use transform="translate(529.2074277124844 0.0)scale(0.9962640099626402)" xlink:href="#Computer_Modern_Bright_Math_Slanted-22"/>
     <use transform="translate(591.8328728206725 0.0)scale(0.9962640099626402)" xlink:href="#Computer_Modern_Bright-77"/>
     <use transform="translate(676.9301703086084 0.0)scale(0.9962640099626402)" xlink:href="#Computer_Modern_Bright-93"/>
    </g>
   </g>
   <g id="Line3DCollection_1">
    <path d="
M299.663 327.781
L78.23 290.274
L70.1119 120.326" style="fill:none;stroke:#e6e6e6;"/>
    <path d="
M313.991 307.703
L95.6671 271.405
L88.627 103.305" style="fill:none;stroke:#e6e6e6;"/>
    <path d="
M327.854 288.277
L112.555 253.131
L106.528 86.8491" style="fill:none;stroke:#e6e6e6;"/>
    <path d="
M341.274 269.471
L128.919 235.423
L123.845 70.9301" style="fill:none;stroke:#e6e6e6;"/>
    <path d="
M354.272 251.258
L144.783 218.257
L140.605 55.5223" style="fill:none;stroke:#e6e6e6;"/>
    <path d="
M366.867 233.608
L160.17 201.606
L156.836 40.6014" style="fill:none;stroke:#e6e6e6;"/>
   </g>
   <g id="xtick_1">
    <g id="line2d_2">
     <path d="
M297.836 327.471
L303.32 328.4" style="fill:none;stroke:#000000;stroke-linecap:square;"/>
    </g>
    <g id="text_2">
     <!-- $0$ -->
     <defs>
      <path d="
M14.7969 63.8594
C11.9062 61.8594 9.90625 59.1406 8.40625 56.0312
C4.79688 49 4.40625 40.7656 4.40625 31.8281
C4.40625 20.5781 6.40625 10.25 12 4.3125
C17.2969 -1.20312 25.7031 -2.60938 32.7969 0.296875
C37.2031 2.01562 40.4062 5.71875 42.4062 9.73438
C46 16.875 46.4062 25.4062 46.4062 34.2344
C46.4062 37.0469 46.2969 39.8594 46 42.6719
C45.2969 49.4062 43 56.8281 39.2969 60.9531
C33.2031 67.6875 22.2969 69.1875 14.7969 63.8594
M34.9062 58.1406
C39.5938 53.125 40 43.4844 40 34.3438
L40 28.9219
C40 24.2969 39.2031 18.2812 38.2031 14.8594
C36.7969 10.1406 34.5 6.73438 29.9062 4.625
C24.2969 2.60938 18.5 4.51562 15.2969 8.9375
C11 14.6562 10.7969 24.7969 10.7969 33.7344
C10.7969 42.1719 10.9062 51.5156 15 57.0312
C19.5 63.0625 29.2031 64.0625 34.9062 58.1406" id="Computer_Modern_Bright-48"/>
     </defs>
     <g transform="translate(307.15668199 352.966885704)scale(0.2 -0.2)">
      <use transform="scale(0.9962640099626402)" xlink:href="#Computer_Modern_Bright-48"/>
     </g>
    </g>
   </g>
   <g id="xtick_2">
    <g id="line2d_3">
     <path d="
M312.19 307.403
L317.595 308.302" style="fill:none;stroke:#000000;stroke-linecap:square;"/>
    </g>
    <g id="text_3">
     <!-- $2000$ -->
     <defs>
      <path d="
M7.29688 46.1094
C8.70312 51.7344 11.0938 58.1562 16.7969 60.6719
C19.2031 61.6719 21.7969 61.875 24.4062 61.6719
C29.2969 61.2656 34.0938 59.2656 37.0938 55.25
C39.2969 52.2344 40.0938 48.5156 39.7031 44.9062
C38.5 34.4531 28.2969 26.9219 21.7031 21.2812
C17.9062 18.0781 7.09375 7.82812 7.09375 7.82812
L5.40625 6.21875
C4.5 5.32812 4.40625 5.32812 4.40625 3.51562
L4.40625 0
L46.4062 0
L46.4062 5.625
L10.2031 5.625
C13.4062 8.73438 26.7031 20.5156 28.5 21.9219
C34.2969 26.6562 40.7969 31.375 44.2969 38.2188
C48.2031 46.0625 46.5 55.9375 39.9062 61.7656
C35.9062 65.2969 30.4062 67 25.0938 67
C20.2031 67 15.2031 66.0156 11.2969 62.9375
C8.29688 60.4531 5.79688 56.7812 4.40625 53.0156
C4.09375 52.4375 3.59375 51.4219 3.70312 50.7344
C3.79688 50.1406 4.40625 49.6406 4.70312 49.2344
C5.5 48.2188 6.29688 47.0156 7.29688 46.1094" id="Computer_Modern_Bright-50"/>
     </defs>
     <g transform="translate(306.067580358 332.726016392)scale(0.2 -0.2)">
      <use transform="scale(0.9962640099626402)" xlink:href="#Computer_Modern_Bright-50"/>
      <use transform="translate(50.6432178160025 0.0)scale(0.9962640099626402)" xlink:href="#Computer_Modern_Bright-48"/>
      <use transform="translate(101.286435632005 0.0)scale(0.9962640099626402)" xlink:href="#Computer_Modern_Bright-48"/>
      <use transform="translate(151.92965344800749 0.0)scale(0.9962640099626402)" xlink:href="#Computer_Modern_Bright-48"/>
     </g>
    </g>
   </g>
   <g id="xtick_3">
    <g id="line2d_4">
     <path d="
M326.079 287.987
L331.406 288.857" style="fill:none;stroke:#000000;stroke-linecap:square;"/>
    </g>
    <g id="text_4">
     <!-- $4000$ -->
     <defs>
      <path d="
M2.09375 18
L31 18
L31 0
L37.2969 0
L37.2969 18
L48.7031 18
L48.7031 23.3281
L37.2969 23.3281
L37.2969 66.4688
L31.9062 66.4688
C30.0938 66.4688 29.5938 66.5781 28.7969 65.0625
C24.7969 58.5156 3.70312 25.7656 3 24.8594
C2.20312 23.4375 2.09375 23.5469 2.09375 21.4375
z

M31.2969 61.0312
L31.2969 23.3281
L8.59375 23.3281
C9.29688 24.7344 10.2969 26.0469 11.2031 27.4531
C16.2031 35.2188 28.0938 53.6719 30.5938 59.4375
C30.9062 59.9375 31 60.5312 31.2969 61.0312" id="Computer_Modern_Bright-52"/>
     </defs>
     <g transform="translate(319.714013143 313.141619648)scale(0.2 -0.2)">
      <use transform="scale(0.9962640099626402)" xlink:href="#Computer_Modern_Bright-52"/>
      <use transform="translate(50.6432178160025 0.0)scale(0.9962640099626402)" xlink:href="#Computer_Modern_Bright-48"/>
      <use transform="translate(101.286435632005 0.0)scale(0.9962640099626402)" xlink:href="#Computer_Modern_Bright-48"/>
      <use transform="translate(151.92965344800749 0.0)scale(0.9962640099626402)" xlink:href="#Computer_Modern_Bright-48"/>
     </g>
    </g>
   </g>
   <g id="xtick_4">
    <g id="line2d_5">
     <path d="
M339.524 269.191
L344.776 270.033" style="fill:none;stroke:#000000;stroke-linecap:square;"/>
    </g>
    <g id="text_5">
     <!-- $6000$ -->
     <defs>
      <path d="
M11.2969 32.5
L11.2031 32.5
C11.2031 41.6562 12.7969 52.3438 20.5938 58.1875
C24.9062 61.3125 30.7031 62.9062 38.2031 61.1094
C39.7969 60.7031 41.2969 60.0938 42.7969 59.7031
L42.7969 63.2031
C42.7969 63.5938 42.9062 64.2969 42.5938 64.7031
C41.9062 65.5938 36.2969 66.5 36.0938 66.5
C27.4062 67.5 21.7031 65.5938 16.4062 61.0781
C10 55.5625 6.29688 47.4531 5.09375 39.2188
C4 32.6094 4.90625 21.9688 6.20312 16.75
C8.29688 9.03125 12.2969 2.21875 19.7031 -0.390625
C24.0938 -2 29.5 -2 33.7031 0.015625
C37.0938 1.64062 39.9062 4.46875 42.0938 7.5
C45.5938 12.3438 46.5 18.2188 46.0938 24.1719
C45.9062 27.1094 45.5 30.0469 44.2969 32.7656
C42.4062 37.125 39.2031 41.6719 35.0938 43.6875
C33.2031 44.5 31.2031 44.5 29.2031 44.5
C23.9062 44.5 18.9062 42.1562 15.2031 38.2969
C13.5938 36.6562 12 34.625 11.2969 32.5
M24.4062 39.4375
C28.2031 39.7344 32.2031 39.1406 35.0938 36.4219
C38.9062 32.8125 39.5938 27.6875 39.5938 22.75
C39.5938 19.4062 39.7031 15.9688 38.7031 12.8281
C38.0938 11.2031 37.2969 9.79688 36.4062 8.48438
C34.2031 5.54688 31.4062 4.125 26.7969 3.51562
C22.2969 3.51562 17.7969 5.29688 15.2031 9.10938
C13.5938 11.2969 12.7969 14 12.2969 16.5938
C11.7031 19.2812 11.2969 22.0781 11.5 24.7812
C12 31.9062 17 38.4375 24.4062 39.4375" id="Computer_Modern_Bright-54"/>
     </defs>
     <g transform="translate(332.92491368 294.182268032)scale(0.2 -0.2)">
      <use transform="scale(0.9962640099626402)" xlink:href="#Computer_Modern_Bright-54"/>
      <use transform="translate(50.6432178160025 0.0)scale(0.9962640099626402)" xlink:href="#Computer_Modern_Bright-48"/>
      <use transform="translate(101.286435632005 0.0)scale(0.9962640099626402)" xlink:href="#Computer_Modern_Bright-48"/>
      <use transform="translate(151.92965344800749 0.0)scale(0.9962640099626402)" xlink:href="#Computer_Modern_Bright-48"/>
     </g>
    </g>
   </g>
   <g id="xtick_5">
    <g id="line2d_6">
     <path d="
M352.546 250.986
L357.725 251.802" style="fill:none;stroke:#000000;stroke-linecap:square;"/>
    </g>
    <g id="text_6">
     <!-- $8000$ -->
     <defs>
      <path d="
M18.7031 36.0156
L18.7031 35.9062
C12.5 34.0938 7.29688 30.6875 4.79688 24.8438
C2.20312 18.7188 4 11.2812 8.40625 6.45312
C13.0938 1.42188 19.5 -1 26.2969 -1
C36.2969 -1 45.9062 6.40625 47.0938 16.7344
C47.2969 18.2656 47.2031 19.8906 47 21.4062
C45.2031 29.2188 39.5 33.875 32.0938 35.9062
C32.9062 36.2188 33.7969 36.4219 34.5938 36.7188
C38.7969 38.4375 42.2969 40.9375 44.5 44.9531
C47.7969 51.3906 44.5938 58.9219 39.2031 63.0312
C33.7969 67.1562 26.5 68.25 19.9062 66.8438
C12 65.1406 4.5 58.4219 5 49.7812
C5.20312 46.7656 6.5 44.25 8 42.4531
C10.2969 39.6406 14.7969 36.625 18.7031 36.0156
M23.7969 62.5
C28.2031 62.5 33.7031 62 36.9062 58.5781
C40.7031 54.4688 40.9062 47.0312 37.0938 42.8125
C34.7031 40.2031 31.2031 38.8906 27.7031 38.5938
C22.7969 38.1875 17.2031 39 13.7031 42.8125
C9.79688 47.125 10.0938 54.9688 14.2969 58.9844
C16.9062 61.3906 20.4062 62.1875 23.7969 62.5
M23.7031 33.5
C28.4062 33.5 33.5 32.3906 36.9062 28.9375
C38.2031 27.5312 39.2031 25.8125 39.7969 24.0156
C41.5 18.75 40.7031 12.0938 36.7969 8.04688
C34.0938 5.32812 30.4062 4.3125 26.7031 4.01562
C22.2031 4.01562 17 5.10938 13.7969 8.5625
C9.40625 13.4062 8.5 23.4062 13.7031 29.0625
C16.2969 31.7812 20 33.2031 23.7031 33.5" id="Computer_Modern_Bright-56"/>
     </defs>
     <g transform="translate(345.720804793 275.818508637)scale(0.2 -0.2)">
      <use transform="scale(0.9962640099626402)" xlink:href="#Computer_Modern_Bright-56"/>
      <use transform="translate(50.6432178160025 0.0)scale(0.9962640099626402)" xlink:href="#Computer_Modern_Bright-48"/>
      <use transform="translate(101.286435632005 0.0)scale(0.9962640099626402)" xlink:href="#Computer_Modern_Bright-48"/>
      <use transform="translate(151.92965344800749 0.0)scale(0.9962640099626402)" xlink:href="#Computer_Modern_Bright-48"/>
     </g>
    </g>
   </g>
   <g id="xtick_6">
    <g id="line2d_7">
     <path d="
M365.165 233.344
L370.273 234.135" style="fill:none;stroke:#000000;stroke-linecap:square;"/>
    </g>
    <g id="text_7">
     <!-- $10000$ -->
     <defs>
      <path d="
M9.70312 60.0156
L9.70312 55
C15.2031 55 19 56 23.4062 57.9062
L23.4062 5.01562
L10.2969 5.01562
L10.2969 0
L43 0
L43 5.01562
L29.9062 5.01562
L29.9062 67
C27.5 67 27.9062 66.3594 26 64.875
C21.9062 61.7188 16.2031 60.0156 9.70312 60.0156" id="Computer_Modern_Bright-49"/>
     </defs>
     <g transform="translate(353.05661805 258.022710416)scale(0.2 -0.2)">
      <use transform="scale(0.9962640099626402)" xlink:href="#Computer_Modern_Bright-49"/>
      <use transform="translate(50.6432178160025 0.0)scale(0.9962640099626402)" xlink:href="#Computer_Modern_Bright-48"/>
      <use transform="translate(101.286435632005 0.0)scale(0.9962640099626402)" xlink:href="#Computer_Modern_Bright-48"/>
      <use transform="translate(151.92965344800749 0.0)scale(0.9962640099626402)" xlink:href="#Computer_Modern_Bright-48"/>
      <use transform="translate(202.57287126401 0.0)scale(0.9962640099626402)" xlink:href="#Computer_Modern_Bright-48"/>
     </g>
    </g>
   </g>
  </g>
  <g id="axis3d_2">
   <g id="line2d_8">
    <path d="
M76.381 292.275
L298.143 329.911" style="fill:none;stroke:#000000;stroke-linecap:square;stroke-width:0.75;"/>
   </g>
   <g id="text_8">
    <!-- r-prot/total prot -->
    <defs>
     <path d="
M0.40625 26.0156
L0.40625 21
L28.2969 21
L28.2969 26.0156
z
" id="Computer_Modern_Bright-45"/>
     <path d="
M6.40625 69.6875
L6.40625 0
L12.7031 0
L12.7031 69.6875
z
" id="Computer_Modern_Bright-108"/>
     <path d="
M10.7969 60.5
L10.7969 47.0156
L1.09375 47.0156
L1.09375 42
L10.7031 42
L10.7031 15.0156
C10.7031 10.5781 10.4062 5.23438 13.2969 1.51562
C15 -0.703125 17.2969 -1.29688 20.7969 -1
C23.7031 -1 26.5938 -0.390625 29.2969 0.640625
C30.2031 1.03125 33.5 2.45312 33.9062 3.17188
C34.0938 3.59375 32.7969 8.07812 32.7969 8.07812
L30.4062 6.26562
C27.2969 4.35938 21.0938 2.34375 18.5 5.96875
C16.2031 9.07812 16.7969 13.7344 16.7969 17.3594
L16.7969 42
L32.2969 42
L32.2969 47.0156
L16.7969 47.0156
L16.7969 60.5
z
" id="Computer_Modern_Bright-116"/>
     <path d="
M12.7031 40.5312
L12.7031 47.1562
L6.40625 47.1562
L6.40625 -17
L12.7969 -17
L12.7969 6.09375
C14.2031 4.07812 15.7969 2.28125 17.9062 1.07812
C25 -3.25 34 0.171875 38.9062 6.59375
C45.4062 14.9688 46.0938 27.5 41.5938 36.9844
C39 42.4375 34.0938 47.5 27.7969 48
C22.2969 48 18.0938 45.8125 15.0938 43.125
C14.2031 42.3281 13.5 41.4375 12.7031 40.5312
M21.9062 42.875
C26 43.1719 30 41.2656 32.7969 38.2656
C34.5 36.3438 35.7969 34.1406 36.5938 31.7344
C40.0938 22.2969 36.9062 9.23438 26.7969 5.32812
C21 3.10938 15.2969 5.125 13.0938 10.5469
C12.5938 11.5469 12.7969 12.8594 12.7969 13.9531
L12.7969 34.6406
C12.7969 36.9531 13 37.1562 14.5 38.8594
C16.2969 41.0625 19 42.5781 21.9062 42.875" id="Computer_Modern_Bright-112"/>
     <path d="
M12.5 34.75
L12.4062 34.75
L12.4062 47.3906
L6.40625 47.3906
L6.40625 0
L12.7031 0
L12.7031 22.8906
C12.7031 24.4062 12.7031 25.9062 12.9062 27.4062
C14.2969 35.9531 21.7031 42.2812 31.4062 42.2812
L31.4062 48
C25 48 19.0938 44.8906 15.2969 39.7656
C14.2031 38.2656 13 36.5469 12.5 34.75" id="Computer_Modern_Bright-114"/>
     <path d="
M43.2969 75.5156
C42.2031 75.2031 41.9062 74.2969 41.5 73.2969
C41.2031 72.3906 12.2969 -1.10938 12.2969 -1.10938
L5.90625 -17.2812
C5.40625 -18.5781 4.40625 -20.3906 5.70312 -21.5
C6.09375 -21.8906 6.70312 -22 7.29688 -22
C8.29688 -21.7969 8.70312 -20.9844 9.09375 -20.1875
C9.5 -19.0781 39.5 57.125 39.5 57.125
L45.4062 72.0938
C45.5938 72.7031 45.9062 73.2969 45.7969 73.9062
C45.5938 75 44.4062 75.9062 43.2969 75.5156" id="Computer_Modern_Bright-47"/>
    </defs>
    <g transform="translate(105.272321466 349.849517649)rotate(-350.3678057430076)scale(0.2 -0.2)">
     <use transform="scale(0.9962640099626402)" xlink:href="#Computer_Modern_Bright-114"/>
     <use transform="translate(31.963358839897264 0.0)scale(0.9962640099626402)" xlink:href="#Computer_Modern_Bright-45"/>
     <use transform="translate(65.17203249046545 0.0)scale(0.9962640099626402)" xlink:href="#Computer_Modern_Bright-112"/>
     <use transform="translate(110.41879998346047 0.0)scale(0.9962640099626402)" xlink:href="#Computer_Modern_Bright-114"/>
     <use transform="translate(142.38215882335774 0.0)scale(0.9962640099626402)" xlink:href="#Computer_Modern_Bright-111"/>
     <use transform="translate(193.02537663936022 0.0)scale(0.9962640099626402)" xlink:href="#Computer_Modern_Bright-116"/>
     <use transform="translate(229.13976457911738 0.0)scale(0.9962640099626402)" xlink:href="#Computer_Modern_Bright-47"/>
     <use transform="translate(279.7829823951199 0.0)scale(0.9962640099626402)" xlink:href="#Computer_Modern_Bright-116"/>
     <use transform="translate(315.89737033487705 0.0)scale(0.9962640099626402)" xlink:href="#Computer_Modern_Bright-111"/>
     <use transform="translate(366.54058815087956 0.0)scale(0.9962640099626402)" xlink:href="#Computer_Modern_Bright-116"/>
     <use transform="translate(402.6549760906367 0.0)scale(0.9962640099626402)" xlink:href="#Computer_Modern_Bright-97"/>
     <use transform="translate(449.14705839430263 0.0)scale(0.9962640099626402)" xlink:href="#Computer_Modern_Bright-108"/>
     <use transform="translate(499.70722887317095 0.0)scale(0.9962640099626402)" xlink:href="#Computer_Modern_Bright-112"/>
     <use transform="translate(544.9539963661659 0.0)scale(0.9962640099626402)" xlink:href="#Computer_Modern_Bright-114"/>
     <use transform="translate(576.9173552060632 0.0)scale(0.9962640099626402)" xlink:href="#Computer_Modern_Bright-111"/>
     <use transform="translate(627.5605730220658 0.0)scale(0.9962640099626402)" xlink:href="#Computer_Modern_Bright-116"/>
    </g>
   </g>
   <g id="Line3DCollection_2">
    <path d="
M371.077 67.0871
L363.91 231.144
L293.569 329.135" style="fill:none;stroke:#e6e6e6;"/>
    <path d="
M328.423 61.4664
L323.394 224.883
L249.957 321.733" style="fill:none;stroke:#e6e6e6;"/>
    <path d="
M286.269 55.9115
L283.328 218.69
L206.871 314.421" style="fill:none;stroke:#e6e6e6;"/>
    <path d="
M244.604 50.4211
L243.705 212.567
L164.303 307.196" style="fill:none;stroke:#e6e6e6;"/>
    <path d="
M203.421 44.9941
L204.518 206.511
L122.243 300.058" style="fill:none;stroke:#e6e6e6;"/>
    <path d="
M162.711 39.6295
L165.759 200.521
L80.6819 293.004" style="fill:none;stroke:#e6e6e6;"/>
   </g>
   <g id="xtick_7">
    <g id="line2d_9">
     <path d="
M294.181 328.283
L292.343 330.842" style="fill:none;stroke:#000000;stroke-linecap:square;"/>
    </g>
    <g id="text_9">
     <!-- $0.0$ -->
     <defs>
      <path d="
M10.7031 7.8125
L10.7031 0
L18.5 0
L18.5 7.8125
z
" id="Computer_Modern_Bright_Math_Slanted-58"/>
     </defs>
     <g transform="translate(276.039292385 358.170125743)scale(0.2 -0.2)">
      <use transform="scale(0.9962640099626402)" xlink:href="#Computer_Modern_Bright-48"/>
      <use transform="translate(50.6432178160025 0.0)scale(0.9962640099626402)" xlink:href="#Computer_Modern_Bright_Math_Slanted-58"/>
      <use transform="translate(79.70066474353986 0.0)scale(0.9962640099626402)" xlink:href="#Computer_Modern_Bright-48"/>
     </g>
    </g>
   </g>
   <g id="xtick_8">
    <g id="line2d_10">
     <path d="
M250.595 320.891
L248.678 323.42" style="fill:none;stroke:#000000;stroke-linecap:square;"/>
    </g>
    <g id="text_10">
     <!-- $0.2$ -->
     <g transform="translate(232.372162945 350.66195833)scale(0.2 -0.2)">
      <use transform="scale(0.9962640099626402)" xlink:href="#Computer_Modern_Bright-48"/>
      <use transform="translate(50.6432178160025 0.0)scale(0.9962640099626402)" xlink:href="#Computer_Modern_Bright_Math_Slanted-58"/>
      <use transform="translate(79.70066474353986 0.0)scale(0.9962640099626402)" xlink:href="#Computer_Modern_Bright-50"/>
     </g>
    </g>
   </g>
   <g id="xtick_9">
    <g id="line2d_11">
     <path d="
M207.535 313.589
L205.54 316.087" style="fill:none;stroke:#000000;stroke-linecap:square;"/>
    </g>
    <g id="text_11">
     <!-- $0.4$ -->
     <g transform="translate(189.233569583 343.244667909)scale(0.2 -0.2)">
      <use transform="scale(0.9962640099626402)" xlink:href="#Computer_Modern_Bright-48"/>
      <use transform="translate(50.6432178160025 0.0)scale(0.9962640099626402)" xlink:href="#Computer_Modern_Bright_Math_Slanted-58"/>
      <use transform="translate(79.70066474353986 0.0)scale(0.9962640099626402)" xlink:href="#Computer_Modern_Bright-52"/>
     </g>
    </g>
   </g>
   <g id="xtick_10">
    <g id="line2d_12">
     <path d="
M164.992 306.375
L162.921 308.843" style="fill:none;stroke:#000000;stroke-linecap:square;"/>
    </g>
    <g id="text_12">
     <!-- $0.6$ -->
     <g transform="translate(146.613974119 335.916614475)scale(0.2 -0.2)">
      <use transform="scale(0.9962640099626402)" xlink:href="#Computer_Modern_Bright-48"/>
      <use transform="translate(50.6432178160025 0.0)scale(0.9962640099626402)" xlink:href="#Computer_Modern_Bright_Math_Slanted-58"/>
      <use transform="translate(79.70066474353986 0.0)scale(0.9962640099626402)" xlink:href="#Computer_Modern_Bright-54"/>
     </g>
    </g>
   </g>
   <g id="xtick_11">
    <g id="line2d_13">
     <path d="
M122.957 299.246
L120.812 301.685" style="fill:none;stroke:#000000;stroke-linecap:square;"/>
    </g>
    <g id="text_13">
     <!-- $0.8$ -->
     <g transform="translate(104.504066506 328.676197252)scale(0.2 -0.2)">
      <use transform="scale(0.9962640099626402)" xlink:href="#Computer_Modern_Bright-48"/>
      <use transform="translate(50.6432178160025 0.0)scale(0.9962640099626402)" xlink:href="#Computer_Modern_Bright_Math_Slanted-58"/>
      <use transform="translate(79.70066474353986 0.0)scale(0.9962640099626402)" xlink:href="#Computer_Modern_Bright-56"/>
     </g>
    </g>
   </g>
   <g id="xtick_12">
    <g id="line2d_14">
     <path d="
M81.4198 292.202
L79.2031 294.612" style="fill:none;stroke:#000000;stroke-linecap:square;"/>
    </g>
    <g id="text_14">
     <!-- $1.0$ -->
     <g transform="translate(62.8947580543 321.52185352)scale(0.2 -0.2)">
      <use transform="scale(0.9962640099626402)" xlink:href="#Computer_Modern_Bright-49"/>
      <use transform="translate(50.6432178160025 0.0)scale(0.9962640099626402)" xlink:href="#Computer_Modern_Bright_Math_Slanted-58"/>
      <use transform="translate(79.70066474353986 0.0)scale(0.9962640099626402)" xlink:href="#Computer_Modern_Bright-48"/>
     </g>
    </g>
   </g>
  </g>
  <g id="axis3d_3">
   <g id="line2d_15">
    <path d="
M76.381 292.275
L68.1466 122.132" style="fill:none;stroke:#000000;stroke-linecap:square;stroke-width:0.75;"/>
   </g>
   <g id="text_15">
    <!-- ppGpp [$\mu$M] -->
    <defs>
     <path d="
M62.0938 33.3125
L40 33.3125
L40 28
L55.7031 28
L55.7031 9.51562
C55.7031 9.01562 55.7969 8.3125 55.5 7.90625
C55.2031 7.3125 53.9062 7.10938 53.2969 6.90625
C48.7031 5.60938 41.9062 4.29688 36.5 5.29688
C29.2031 6.5 23 11.3281 19.2031 17.6562
C11.5938 30.1094 13 47.5469 23.4062 57.9688
C26.5 61.0938 30.2969 63.5 35 64.5938
C41.5 66.2031 49.0938 64.5938 53.9062 62.2969
C56.0938 61.2812 58 59.875 60 58.5781
L61.2031 65.5938
C58.5 66.7969 55.9062 68 53 68.8906
C48.5938 70.0938 44.0938 70.5 39.5938 70.5
C27.7031 70.5 18.5 63.1094 13.5938 56.0312
C6.29688 45.0625 5.40625 30.3125 11.2969 18.5312
C14.5938 11.6562 20 6.57812 26.7969 3.07812
C35.2031 -1 45.0938 -1 53.9062 1.4375
C55.0938 1.73438 61.7031 3.75 62 4.65625
C62.0938 4.95312 62.0938 5.35938 62.0938 5.65625
z
" id="Computer_Modern_Bright-71"/>
    </defs>
    <g transform="translate(29.1960305886 268.331115826)rotate(-90.0)scale(0.2 -0.2)">
     <use transform="scale(0.9962640099626402)" xlink:href="#Computer_Modern_Bright-112"/>
     <use transform="translate(48.15249698396638 0.0)scale(0.9962640099626402)" xlink:href="#Computer_Modern_Bright-112"/>
     <use transform="translate(96.30499396793276 0.0)scale(0.9962640099626402)" xlink:href="#Computer_Modern_Bright-71"/>
     <use transform="translate(164.38275594936957 0.0)scale(0.9962640099626402)" xlink:href="#Computer_Modern_Bright-112"/>
     <use transform="translate(212.53525293333595 0.0)scale(0.9962640099626402)" xlink:href="#Computer_Modern_Bright-112"/>
     <use transform="translate(292.1529615504359 0.0)scale(0.9962640099626402)" xlink:href="#Computer_Modern_Bright-91"/>
     <use transform="translate(319.82684865835154 0.0)scale(0.9962640099626402)" xlink:href="#Computer_Modern_Bright_Math_Slanted-22"/>
     <use transform="translate(382.4522937665396 0.0)scale(0.9962640099626402)" xlink:href="#Computer_Modern_Bright-77"/>
     <use transform="translate(467.54959125447544 0.0)scale(0.9962640099626402)" xlink:href="#Computer_Modern_Bright-93"/>
    </g>
   </g>
   <g id="Line3DCollection_3">
    <path d="
M76.2247 289.046
L161.684 196.836
L368.297 228.677" style="fill:none;stroke:#e6e6e6;"/>
    <path d="
M74.7078 257.703
L161.084 167.11
L369.662 198.377" style="fill:none;stroke:#e6e6e6;"/>
    <path d="
M73.1599 225.719
L160.472 136.824
L371.053 167.489" style="fill:none;stroke:#e6e6e6;"/>
    <path d="
M71.58 193.074
L159.849 105.964
L372.472 135.997" style="fill:none;stroke:#e6e6e6;"/>
    <path d="
M69.9671 159.748
L159.214 74.5113
L373.918 103.882" style="fill:none;stroke:#e6e6e6;"/>
    <path d="
M68.3201 125.718
L158.566 42.4497
L375.393 71.1261" style="fill:none;stroke:#e6e6e6;"/>
   </g>
   <g id="xtick_13">
    <g id="line2d_16">
     <path d="
M76.966 288.246
L74.7392 290.649" style="fill:none;stroke:#000000;stroke-linecap:square;"/>
    </g>
    <g id="text_16">
     <!-- $0$ -->
     <g transform="translate(53.8684169255 306.456755874)scale(0.2 -0.2)">
      <use transform="scale(0.9962640099626402)" xlink:href="#Computer_Modern_Bright-48"/>
     </g>
    </g>
   </g>
   <g id="xtick_14">
    <g id="line2d_17">
     <path d="
M75.4576 256.916
L73.2051 259.279" style="fill:none;stroke:#000000;stroke-linecap:square;"/>
    </g>
    <g id="text_17">
     <!-- $50$ -->
     <defs>
      <path d="
M8.40625 66.3281
L8.40625 30.4531
L12.2031 30.4531
C12.7031 30.4531 13.4062 30.3594 13.7969 30.5625
C14.2969 30.8594 14.5938 31.5625 14.9062 31.9688
C15.5938 32.8594 16.4062 33.5625 17.2031 34.2656
C20.7969 37.2812 27.7031 38.4844 32.2969 36.1719
C38.5938 33.1719 39.7969 25.2188 39.2969 19
C39 15.0625 37.7969 11.4531 35.5 9.14062
C30.2031 3.5 21.2969 3.5 14.7969 6.79688
C11.5938 8.40625 8.90625 10.9219 6.90625 13.9219
L6.79688 13.9219
C6.5 13.4219 4.20312 9.92188 4.20312 9.3125
C4.20312 8.90625 4.5 8.60938 4.70312 8.3125
C7.70312 4.79688 11.5938 2.07812 16.0938 0.578125
C25 -2.23438 35 -0.03125 41.2969 7.20312
C48.7969 15.9219 47.7969 30.1562 39.0938 37.7656
C36.5 40.1875 32.9062 41.8906 28.5938 42.2812
C22.7969 43.0938 17.5938 40.2812 14.5 37.6719
L14.5 61
L42.9062 61
L42.9062 66.3281
z
" id="Computer_Modern_Bright-53"/>
     </defs>
     <g transform="translate(47.106984905 275.053908225)scale(0.2 -0.2)">
      <use transform="scale(0.9962640099626402)" xlink:href="#Computer_Modern_Bright-53"/>
      <use transform="translate(50.6432178160025 0.0)scale(0.9962640099626402)" xlink:href="#Computer_Modern_Bright-48"/>
     </g>
    </g>
   </g>
   <g id="xtick_15">
    <g id="line2d_18">
     <path d="
M73.9184 224.946
L71.6397 227.266" style="fill:none;stroke:#000000;stroke-linecap:square;"/>
    </g>
    <g id="text_18">
     <!-- $100$ -->
     <g transform="translate(40.3107411651 243.006914371)scale(0.2 -0.2)">
      <use transform="scale(0.9962640099626402)" xlink:href="#Computer_Modern_Bright-49"/>
      <use transform="translate(50.6432178160025 0.0)scale(0.9962640099626402)" xlink:href="#Computer_Modern_Bright-48"/>
      <use transform="translate(101.286435632005 0.0)scale(0.9962640099626402)" xlink:href="#Computer_Modern_Bright-48"/>
     </g>
    </g>
   </g>
   <g id="xtick_16">
    <g id="line2d_19">
     <path d="
M72.3474 192.316
L70.0418 194.592" style="fill:none;stroke:#000000;stroke-linecap:square;"/>
    </g>
    <g id="text_19">
     <!-- $150$ -->
     <g transform="translate(38.5429252828 210.295749505)scale(0.2 -0.2)">
      <use transform="scale(0.9962640099626402)" xlink:href="#Computer_Modern_Bright-49"/>
      <use transform="translate(50.6432178160025 0.0)scale(0.9962640099626402)" xlink:href="#Computer_Modern_Bright-53"/>
      <use transform="translate(101.286435632005 0.0)scale(0.9962640099626402)" xlink:href="#Computer_Modern_Bright-48"/>
     </g>
    </g>
   </g>
   <g id="xtick_17">
    <g id="line2d_20">
     <path d="
M70.7437 159.006
L68.4106 161.234" style="fill:none;stroke:#000000;stroke-linecap:square;"/>
    </g>
    <g id="text_20">
     <!-- $200$ -->
     <g transform="translate(36.7380879452 176.899550105)scale(0.2 -0.2)">
      <use transform="scale(0.9962640099626402)" xlink:href="#Computer_Modern_Bright-50"/>
      <use transform="translate(50.6432178160025 0.0)scale(0.9962640099626402)" xlink:href="#Computer_Modern_Bright-48"/>
      <use transform="translate(101.286435632005 0.0)scale(0.9962640099626402)" xlink:href="#Computer_Modern_Bright-48"/>
     </g>
    </g>
   </g>
   <g id="xtick_18">
    <g id="line2d_21">
     <path d="
M69.1061 124.993
L66.7448 127.172" style="fill:none;stroke:#000000;stroke-linecap:square;"/>
    </g>
    <g id="text_21">
     <!-- $250$ -->
     <g transform="translate(34.8950538957 142.796569557)scale(0.2 -0.2)">
      <use transform="scale(0.9962640099626402)" xlink:href="#Computer_Modern_Bright-50"/>
      <use transform="translate(50.6432178160025 0.0)scale(0.9962640099626402)" xlink:href="#Computer_Modern_Bright-53"/>
      <use transform="translate(101.286435632005 0.0)scale(0.9962640099626402)" xlink:href="#Computer_Modern_Bright-48"/>
     </g>
    </g>
   </g>
  </g>
  <g id="axes_1">
   <g id="Line3DCollection_4">
    <path clip-path="url(#p70c85f4835)" d="
M292.986 322.978
L293.052 323.218
L293.052 323.218
L293.052 323.218
L310.902 298.488
L360.709 229.481
L360.709 229.481" style="fill:none;stroke:#000000;"/>
    <path clip-path="url(#p70c85f4835)" d="
M282.342 310.22
L282.737 320.298
L282.881 320.3
L283.472 319.58
L289.138 311.867
L350.612 227.873
L350.612 227.873" style="fill:none;stroke:#000000;"/>
    <path clip-path="url(#p70c85f4835)" d="
M271.794 287.89
L272.359 309.549
L272.619 316.679
L272.833 317.048
L273.129 316.858
L273.949 315.89
L277.591 311.058
L313.676 262.449
L340.543 226.238
L340.543 226.238" style="fill:none;stroke:#000000;"/>
    <path clip-path="url(#p70c85f4835)" d="
M261.15 264.19
L261.727 280.071
L262.243 300.364
L262.556 311.83
L262.762 313.312
L262.981 313.564
L263.28 313.459
L263.88 312.882
L265.457 310.945
L271.272 303.308
L311.806 249.452
L330.503 224.593
L330.503 224.593" style="fill:none;stroke:#000000;"/>
    <path clip-path="url(#p70c85f4835)" d="
M250.361 243.575
L251.039 255.87
L251.678 271.925
L252.265 293.083
L252.674 307.2
L252.883 309.169
L253.103 309.774
L253.328 309.916
L253.629 309.835
L254.159 309.413
L255.294 308.157
L258.162 304.564
L268.063 291.678
L320.49 222.938
L320.49 222.938" style="fill:none;stroke:#000000;"/>
    <path clip-path="url(#p70c85f4835)" d="
M239.458 227.055
L240.209 235.984
L240.941 247.526
L241.578 261.071
L242.186 278.754
L242.978 303.15
L243.271 305.317
L243.572 305.962
L243.876 306.092
L244.257 305.967
L244.868 305.495
L246.088 304.203
L248.749 300.981
L255.897 291.878
L283.623 256.064
L310.505 221.272
L310.505 221.272" style="fill:none;stroke:#000000;"/>
    <path clip-path="url(#p70c85f4835)" d="
M228.482 214.144
L229.281 220.462
L230.073 228.482
L230.855 238.867
L231.548 251.068
L232.226 267.043
L233.48 299.279
L233.784 301.103
L234.091 301.81
L234.399 302.044
L234.783 302.03
L235.322 301.739
L236.245 300.927
L237.934 299.08
L241.369 294.929
L249.961 284.121
L279.027 247.078
L300.547 219.594
L300.547 219.594" style="fill:none;stroke:#000000;"/>
    <path clip-path="url(#p70c85f4835)" d="
M217.47 204.023
L218.383 208.947
L219.21 214.59
L220.036 221.734
L220.86 230.944
L221.6 241.696
L222.336 255.692
L223.15 275.806
L223.792 290.841
L224.186 295.216
L224.499 296.728
L224.89 297.536
L225.279 297.795
L225.668 297.786
L226.212 297.538
L227.065 296.876
L228.535 295.401
L231.152 292.407
L236.572 285.812
L250.035 268.998
L290.616 217.898
L290.616 217.898" style="fill:none;stroke:#000000;"/>
    <path clip-path="url(#p70c85f4835)" d="
M206.447 195.963
L207.382 199.389
L208.317 203.686
L209.255 209.132
L210.109 215.425
L210.966 223.463
L211.828 233.921
L212.61 246.198
L213.487 263.871
L214.526 285.375
L214.937 289.739
L215.34 291.815
L215.737 292.772
L216.132 293.181
L216.525 293.296
L217.075 293.183
L217.779 292.782
L218.872 291.873
L220.66 290.052
L223.752 286.54
L229.798 279.28
L243.511 262.397
L280.712 216.182
L280.712 216.182" style="fill:none;stroke:#000000;"/>
    <path clip-path="url(#p70c85f4835)" d="
M195.428 189.405
L196.465 192.008
L197.418 194.993
L198.372 198.713
L199.331 203.386
L200.206 208.723
L201.088 215.446
L201.979 224.042
L202.883 235.203
L203.802 249.752
L205.717 282.332
L206.136 285.373
L206.545 287.003
L206.948 287.86
L207.348 288.284
L207.826 288.46
L208.38 288.395
L209.09 288.064
L210.113 287.318
L211.679 285.866
L214.172 283.213
L218.502 278.237
L226.739 268.381
L245.121 245.975
L270.835 214.438
L270.835 214.438" style="fill:none;stroke:#000000;"/>
    <path clip-path="url(#p70c85f4835)" d="
M184.424 183.947
L185.474 185.708
L186.526 187.92
L187.58 190.699
L188.55 193.875
L189.525 197.824
L190.506 202.775
L191.497 209.055
L192.409 216.309
L193.335 225.54
L194.282 237.365
L195.346 253.726
L196.585 272.606
L197.117 277.656
L197.626 280.482
L198.122 281.996
L198.611 282.783
L199.095 283.151
L199.576 283.261
L200.214 283.159
L201.009 282.786
L202.116 282.002
L203.769 280.523
L206.275 277.948
L210.315 273.441
L217.454 265.102
L231.486 248.315
L260.984 212.659
L260.984 212.659" style="fill:none;stroke:#000000;"/>
    <path clip-path="url(#p70c85f4835)" d="
M173.441 179.301
L174.59 180.558
L175.741 182.174
L176.805 184.058
L177.872 186.407
L178.944 189.338
L179.931 192.67
L180.925 196.789
L181.929 201.923
L182.945 208.384
L183.884 215.774
L184.841 225.037
L185.92 237.862
L188.45 269.669
L188.979 273.084
L189.491 275.153
L189.991 276.38
L190.485 277.083
L190.974 277.452
L191.54 277.606
L192.183 277.544
L192.983 277.236
L194.098 276.542
L195.604 275.321
L197.81 273.218
L201.174 269.666
L206.52 263.665
L215.825 252.844
L233.754 231.6
L251.159 210.831
L251.159 210.831" style="fill:none;stroke:#000000;"/>
    <path clip-path="url(#p70c85f4835)" d="
M162.484 175.263
L163.732 176.094
L164.892 177.12
L166.053 178.44
L167.217 180.118
L168.294 182.053
L169.375 184.444
L170.461 187.399
L171.555 191.064
L172.567 195.215
L173.589 200.331
L174.627 206.685
L175.683 214.626
L176.764 224.544
L177.97 237.784
L179.86 258.912
L180.599 264.452
L181.216 267.461
L181.814 269.304
L182.4 270.4
L182.979 271.02
L183.552 271.324
L184.202 271.412
L184.929 271.288
L185.893 270.879
L187.171 270.062
L188.84 268.715
L191.209 266.496
L194.659 262.937
L199.938 257.144
L208.58 247.297
L223.864 229.503
L241.359 208.938
L241.359 208.938" style="fill:none;stroke:#000000;"/>
    <path clip-path="url(#p70c85f4835)" d="
M151.555 171.687
L152.992 172.192
L154.34 172.902
L155.6 173.81
L156.86 175.003
L158.033 176.416
L159.208 178.184
L160.388 180.384
L161.483 182.884
L162.584 185.939
L163.693 189.683
L164.814 194.291
L165.95 199.991
L167.008 206.424
L168.185 215.06
L169.387 225.586
L172.564 254.595
L173.292 258.575
L173.994 261.151
L174.593 262.596
L175.182 263.525
L175.847 264.153
L176.505 264.46
L177.24 264.54
L178.052 264.401
L179.1 263.977
L180.384 263.208
L182.138 261.873
L184.514 259.757
L187.817 256.492
L192.646 251.378
L200.024 243.208
L211.996 229.585
L231.584 206.953
L231.584 206.953" style="fill:none;stroke:#000000;"/>
    <path clip-path="url(#p70c85f4835)" d="
M140.655 168.468
L142.375 168.666
L143.913 169.063
L145.361 169.662
L146.719 170.459
L148.078 171.528
L149.348 172.816
L150.622 174.441
L151.808 176.313
L153 178.605
L154.198 181.409
L155.404 184.84
L156.528 188.69
L157.663 193.348
L158.814 198.991
L159.982 205.816
L161.271 214.715
L162.882 227.545
L164.765 242.274
L165.706 247.862
L166.519 251.347
L167.22 253.455
L167.907 254.88
L168.583 255.811
L169.251 256.385
L169.995 256.725
L170.815 256.827
L171.711 256.703
L172.764 256.33
L174.131 255.59
L175.89 254.357
L178.194 252.443
L181.268 249.573
L185.488 245.312
L191.59 238.809
L200.785 228.659
L215.455 212.099
L221.832 204.834
L221.832 204.834" style="fill:none;stroke:#000000;"/>
    <path clip-path="url(#p70c85f4835)" d="
M129.787 165.528
L131.793 165.391
L133.614 165.48
L135.342 165.789
L136.888 166.284
L138.343 166.972
L139.8 167.913
L141.167 169.067
L142.537 170.533
L143.818 172.236
L145.105 174.322
L146.397 176.869
L147.604 179.729
L148.82 183.162
L150.046 187.282
L151.285 192.223
L152.54 198.124
L153.91 205.672
L155.596 216.372
L158.338 233.963
L159.364 238.973
L160.266 242.279
L161.056 244.39
L161.832 245.866
L162.595 246.861
L163.35 247.497
L164.097 247.862
L164.921 248.029
L165.902 247.981
L167.039 247.676
L168.41 247.052
L170.094 246.018
L172.164 244.475
L174.853 242.184
L178.46 238.796
L183.352 233.874
L190.173 226.675
L200.186 215.76
L212.103 202.513
L212.103 202.513" style="fill:none;stroke:#000000;"/>
    <path clip-path="url(#p70c85f4835)" d="
M118.951 162.807
L121.429 162.292
L123.626 162.056
L125.638 162.059
L127.464 162.275
L129.198 162.701
L130.84 163.337
L132.391 164.181
L133.853 165.228
L135.317 166.561
L136.691 168.115
L138.07 170.014
L139.454 172.321
L140.844 175.11
L142.149 178.226
L143.462 181.922
L144.787 186.292
L146.219 191.819
L147.762 198.741
L149.61 208.147
L152.587 223.425
L153.789 228.334
L154.778 231.494
L155.658 233.643
L156.522 235.216
L157.374 236.327
L158.215 237.077
L159.048 237.543
L159.956 237.802
L160.94 237.849
L162.08 237.67
L163.373 237.233
L164.98 236.437
L166.895 235.224
L169.272 233.443
L172.26 230.915
L176.158 227.311
L181.326 222.211
L188.328 214.969
L198.195 204.423
L202.393 199.865
L202.393 199.865" style="fill:none;stroke:#000000;"/>
    <path clip-path="url(#p70c85f4835)" d="
M108.147 160.264
L111.103 159.319
L113.773 158.691
L116.252 158.337
L118.451 158.242
L120.463 158.367
L122.382 158.706
L124.207 159.261
L125.942 160.031
L127.585 161.014
L129.138 162.205
L130.693 163.689
L132.159 165.397
L133.628 167.452
L135.103 169.907
L136.582 172.824
L138.07 176.267
L139.565 180.301
L141.163 185.29
L142.865 191.358
L145.139 200.391
L147.946 211.451
L149.311 215.964
L150.47 219.076
L151.519 221.297
L152.552 222.962
L153.486 224.076
L154.41 224.864
L155.408 225.422
L156.397 225.726
L157.461 225.827
L158.68 225.71
L160.052 225.345
L161.655 224.676
L163.566 223.624
L165.859 222.092
L168.683 219.923
L172.185 216.938
L176.654 212.818
L182.442 207.161
L190.098 199.35
L192.696 196.643
L192.696 196.643" style="fill:none;stroke:#000000;"/>
    <path clip-path="url(#p70c85f4835)" d="
M97.3748 157.864
L101.001 156.387
L104.24 155.297
L107.189 154.53
L109.944 154.043
L112.416 153.828
L114.7 153.846
L116.797 154.075
L118.8 154.513
L120.71 155.159
L122.528 156.011
L124.254 157.063
L125.981 158.384
L127.618 159.916
L129.256 161.758
L130.897 163.947
L132.54 166.524
L134.187 169.529
L135.93 173.2
L137.769 177.629
L139.795 183.11
L143.639 194.369
L145.707 199.972
L147.207 203.421
L148.51 205.878
L149.709 207.68
L150.809 208.963
L151.897 209.915
L152.975 210.582
L154.126 211.032
L155.35 211.258
L156.646 211.26
L158.093 211.027
L159.69 210.536
L161.514 209.738
L163.641 208.56
L166.221 206.862
L169.246 204.596
L172.937 201.546
L177.505 197.473
L183 192.283
L183 192.283" style="fill:none;stroke:#000000;"/>
    <path clip-path="url(#p70c85f4835)" d="
M86.6357 155.582
L91.1265 153.437
L95.2156 151.73
L98.9113 150.425
L102.221 149.485
L105.332 148.83
L108.158 148.46
L110.793 148.336
L113.238 148.441
L115.497 148.752
L117.661 149.268
L119.732 149.987
L121.709 150.903
L123.683 152.068
L125.566 153.437
L127.448 155.081
L129.328 157.024
L131.208 159.287
L133.176 162.015
L135.231 165.257
L137.551 169.355
L140.746 175.522
L144.513 182.706
L146.408 185.85
L148.024 188.122
L149.454 189.772
L150.869 191.065
L152.189 191.976
L153.497 192.619
L154.876 193.043
L156.244 193.235
L157.763 193.217
L159.351 192.976
L161.164 192.468
L163.199 191.655
L165.531 190.469
L168.231 188.83
L171.367 186.652
L173.268 185.22
L173.268 185.22" style="fill:none;stroke:#000000;"/>
    <path clip-path="url(#p70c85f4835)" d="
M76.1431 153.44
L81.6952 150.48
L86.732 148.037
L91.3585 146.034
L95.5844 144.441
L99.5089 143.196
L103.138 142.278
L106.477 141.659
L109.62 141.303
L112.57 141.195
L115.331 141.316
L117.903 141.645
L120.379 142.178
L122.758 142.911
L125.13 143.874
L127.495 145.083
L129.852 146.549
L132.202 148.278
L134.63 150.345
L137.307 152.93
L140.482 156.327
L148.166 164.698
L150.4 166.705
L152.285 168.113
L154.071 169.178
L155.763 169.934
L157.441 170.445
L159.107 170.728
L160.839 170.802
L162.716 170.651
L163.572 170.511
L163.572 170.511" style="fill:none;stroke:#000000;"/>
    <path clip-path="url(#p70c85f4835)" d="
M292.986 322.978
L291.695 322.228
L290.408 321.243
L288.912 319.807
L287.422 318.079
L285.724 315.771
L283.82 312.789
L281.709 309.06
L279.179 304.111
L276.017 297.389
L271.159 286.44
L263.718 269.692
L259.433 260.628
L255.773 253.378
L252.313 246.983
L248.841 241.019
L245.357 235.48
L241.864 230.353
L238.363 225.615
L234.854 221.239
L231.34 217.199
L227.602 213.242
L223.86 209.599
L219.894 206.05
L215.706 202.611
L211.518 199.454
L207.108 196.399
L202.479 193.453
L197.41 190.494
L192.125 187.667
L186.403 184.862
L180.247 182.098
L173.66 179.387
L166.425 176.657
L158.546 173.929
L150.027 171.217
L140.655 168.468
L130.221 165.641
L118.518 162.702
L105.343 159.627
L90.2834 156.346
L76.1431 153.44
L76.1431 153.44" style="fill:none;stroke:#000000;"/>
    <path clip-path="url(#p70c85f4835)" d="
M296.638 318.252
L278.509 315.062
L264.974 312.487
L257.692 310.898
L253.202 309.709
L250.213 308.701
L248.081 307.757
L246.59 306.89
L245.313 305.918
L244.251 304.86
L243.19 303.476
L242.13 301.658
L241.073 299.333
L239.805 295.897
L238.114 290.542
L230.019 263.86
L227.223 255.806
L224.416 248.43
L221.6 241.696
L218.776 235.553
L215.945 229.947
L213.11 224.825
L210.271 220.138
L207.21 215.526
L204.147 211.314
L201.082 207.459
L197.797 203.678
L194.292 199.996
L190.787 196.633
L187.064 193.367
L183.123 190.207
L178.966 187.164
L174.593 184.239
L170.004 181.433
L164.984 178.629
L159.752 175.957
L154.091 173.312
L147.786 170.619
L141.058 167.992
L133.692 165.358
L125.694 162.734
L116.851 160.065
L106.957 157.314
L95.8061 154.45
L83.1973 151.448
L80.8516 150.912
L80.8516 150.912" style="fill:none;stroke:#000000;"/>
    <path clip-path="url(#p70c85f4835)" d="
M300.266 313.225
L279.845 309.661
L258.687 305.772
L245.712 303.178
L237.44 301.316
L231.723 299.821
L227.493 298.499
L224.322 297.286
L221.787 296.081
L219.885 294.955
L218.194 293.708
L216.713 292.335
L215.442 290.86
L214.17 289.008
L213.107 287.092
L212.041 284.765
L210.758 281.378
L209.254 276.645
L207.094 268.891
L202.305 251.394
L199.902 243.486
L197.496 236.313
L195.087 229.842
L192.678 224.008
L190.269 218.741
L187.861 213.972
L185.234 209.265
L182.608 205.008
L179.764 200.838
L176.923 197.063
L173.865 193.379
L170.809 190.038
L167.538 186.784
L164.053 183.633
L160.353 180.596
L156.44 177.678
L152.315 174.88
L147.978 172.202
L143.214 169.522
L138.025 166.868
L132.413 164.256
L126.38 161.698
L119.714 159.121
L112.419 156.546
L104.498 153.986
L95.5299 151.327
L85.5233 148.6
L85.5233 148.6" style="fill:none;stroke:#000000;"/>
    <path clip-path="url(#p70c85f4835)" d="
M303.865 308.239
L282.45 304.524
L256.92 299.896
L240.209 296.658
L229.039 294.279
L221.26 292.412
L215.381 290.78
L210.976 289.334
L207.62 288.017
L204.894 286.728
L202.585 285.403
L200.695 284.082
L199.012 282.652
L197.536 281.127
L196.057 279.251
L194.784 277.275
L193.506 274.866
L192.221 271.936
L190.927 268.427
L189.407 263.617
L187.437 256.575
L181.694 235.531
L179.262 227.676
L177.054 221.253
L174.849 215.475
L172.648 210.276
L170.231 205.145
L167.818 200.548
L165.41 196.412
L162.787 192.35
L160.168 188.691
L157.335 185.115
L154.29 181.649
L151.25 178.522
L147.997 175.492
L144.533 172.569
L140.859 169.759
L136.974 167.066
L132.665 164.358
L128.149 161.784
L123.212 159.231
L117.855 156.715
L112.081 154.249
L105.679 151.76
L98.6534 149.269
L90.7952 146.726
L90.159 146.529
L90.159 146.529" style="fill:none;stroke:#000000;"/>
    <path clip-path="url(#p70c85f4835)" d="
M307.433 303.295
L285.671 299.538
L257.069 294.402
L237.704 290.713
L224.5 287.984
L215.095 285.825
L208.21 284.033
L202.792 282.403
L198.625 280.931
L195.292 279.539
L192.374 278.079
L190.079 276.7
L187.99 275.189
L186.105 273.535
L184.425 271.738
L182.949 269.828
L181.467 267.5
L180.189 265.087
L178.903 262.21
L177.607 258.812
L176.081 254.175
L174.1 247.322
L166.755 220.956
L164.533 214.135
L162.317 208.02
L160.109 202.554
L157.907 197.664
L155.493 192.861
L153.085 188.578
L150.684 184.737
L148.071 180.976
L145.464 177.597
L142.646 174.302
L139.617 171.112
L136.38 168.043
L132.933 165.102
L129.279 162.293
L125.417 159.613
L121.349 157.059
L116.862 154.509
L111.957 151.988
L106.637 149.512
L100.904 147.093
L94.7598 144.732
L94.7598 144.732" style="fill:none;stroke:#000000;"/>
    <path clip-path="url(#p70c85f4835)" d="
M310.973 298.391
L288.865 294.593
L258.057 289.099
L236.894 285.115
L222.297 282.155
L211.694 279.793
L203.811 277.822
L197.595 276.047
L192.833 274.47
L188.899 272.944
L185.585 271.418
L182.89 269.94
L180.606 268.449
L178.525 266.825
L176.647 265.062
L174.972 263.169
L173.5 261.182
L172.02 258.798
L170.53 255.916
L169.027 252.437
L167.509 248.291
L165.756 242.747
L163.539 234.905
L158.172 215.585
L155.718 207.756
L153.497 201.403
L151.285 195.741
L149.082 190.698
L146.887 186.196
L144.483 181.782
L142.086 177.849
L139.48 174.02
L136.881 170.6
L134.074 167.282
L131.274 164.303
L128.266 161.414
L125.05 158.629
L121.628 155.953
L118 153.389
L113.953 150.808
L109.703 148.359
L105.039 145.927
L99.9608 143.531
L99.3269 143.248
L99.3269 143.248" style="fill:none;stroke:#000000;"/>
    <path clip-path="url(#p70c85f4835)" d="
M314.483 293.527
L292.244 289.725
L259.873 283.988
L237.132 279.746
L221.357 276.591
L209.773 274.059
L201.106 271.948
L194.305 270.069
L188.951 268.364
L184.627 266.76
L181.126 265.235
L178.24 263.757
L175.763 262.263
L173.489 260.638
L171.415 258.869
L169.543 256.952
L167.871 254.904
L166.401 252.767
L164.922 250.224
L163.431 247.183
L161.926 243.558
L160.406 239.298
L158.649 233.683
L156.204 225.033
L151.502 208.259
L149.046 200.413
L146.825 194.047
L144.615 188.384
L142.416 183.353
L140.226 178.875
L137.828 174.497
L135.44 170.608
L133.06 167.132
L130.472 163.738
L127.677 160.455
L124.891 157.516
L121.897 154.674
L118.699 151.938
L115.295 149.316
L111.687 146.808
L107.664 144.286
L103.861 142.124
L103.861 142.124" style="fill:none;stroke:#000000;"/>
    <path clip-path="url(#p70c85f4835)" d="
M317.965 288.703
L295.595 284.896
L261.882 278.953
L237.99 274.529
L221.252 271.216
L208.898 268.553
L199.657 266.343
L192.48 264.408
L186.744 262.639
L182.033 260.954
L178.141 259.323
L174.86 257.701
L172.191 256.143
L169.723 254.437
L167.66 252.745
L165.798 250.94
L164.137 249.041
L162.467 246.782
L160.997 244.432
L159.516 241.649
L158.023 238.351
L156.514 234.469
L154.77 229.291
L152.784 222.644
L144.743 194.804
L142.523 188.323
L140.315 182.556
L138.12 177.443
L135.936 172.904
L133.761 168.859
L131.38 164.898
L129.008 161.371
L126.429 157.939
L123.859 154.872
L121.084 151.895
L118.104 149.025
L114.92 146.274
L111.533 143.644
L108.365 141.417
L108.365 141.417" style="fill:none;stroke:#000000;"/>
    <path clip-path="url(#p70c85f4835)" d="
M321.418 283.919
L298.919 280.106
L264.289 274.033
L239.458 269.466
L221.968 266.036
L209.054 263.286
L199.242 260.977
L191.691 258.981
L185.574 257.138
L180.683 255.439
L176.607 253.791
L173.139 252.148
L170.28 250.555
L167.825 248.949
L165.569 247.211
L163.512 245.334
L161.653 243.321
L159.993 241.197
L158.323 238.668
L156.852 236.041
L155.368 232.946
L153.87 229.312
L152.138 224.448
L150.165 218.123
L147.278 207.954
L143.482 194.669
L141.035 186.916
L138.824 180.625
L136.625 175.04
L134.44 170.093
L132.266 165.705
L129.886 161.43
L127.518 157.646
L125.159 154.276
L122.595 150.995
L119.827 147.831
L117.068 145.006
L114.105 142.279
L112.838 141.197
L112.838 141.197" style="fill:none;stroke:#000000;"/>
    <path clip-path="url(#p70c85f4835)" d="
M324.844 279.173
L302.216 275.355
L266.883 269.189
L241.324 264.517
L223.291 261.008
L209.82 258.171
L199.643 255.808
L191.72 253.75
L185.429 251.896
L180.358 250.183
L176.098 248.519
L172.445 246.854
L169.397 245.224
L166.751 243.565
L164.507 241.915
L162.462 240.155
L160.614 238.292
L158.759 236.084
L157.1 233.75
L155.43 230.972
L153.958 228.094
L152.472 224.724
L150.97 220.807
L149.234 215.646
L147.037 208.323
L139.704 183.143
L137.495 176.643
L135.3 170.861
L133.119 165.742
L130.95 161.21
L128.792 157.185
L126.43 153.257
L124.078 149.77
L121.522 146.389
L118.976 143.378
L117.283 141.545
L117.283 141.545" style="fill:none;stroke:#000000;"/>
    <path clip-path="url(#p70c85f4835)" d="
M328.241 274.465
L305.694 270.678
L269.662 264.42
L243.584 259.681
L224.806 256.053
L210.985 253.166
L200.446 250.746
L192.355 248.673
L185.889 246.802
L180.438 244.996
L175.995 243.294
L172.359 241.676
L169.123 239.996
L166.288 238.264
L163.852 236.512
L161.613 234.611
L159.569 232.557
L157.722 230.358
L156.071 228.045
L154.408 225.305
L152.943 222.481
L151.464 219.187
L149.756 214.776
L148.027 209.658
L145.839 202.41
L138.534 177.429
L136.334 170.964
L134.148 165.212
L131.975 160.124
L129.816 155.622
L127.667 151.628
L125.316 147.733
L122.974 144.281
L121.701 142.558
L121.701 142.558" style="fill:none;stroke:#000000;"/>
    <path clip-path="url(#p70c85f4835)" d="
M331.612 269.795
L308.937 266.003
L272.418 259.689
L245.825 254.881
L226.714 251.212
L212.544 248.275
L201.846 245.844
L193.386 243.703
L186.546 241.748
L181.118 239.976
L176.495 238.236
L172.674 236.567
L169.453 234.929
L166.631 233.255
L164.207 231.575
L161.98 229.77
L159.948 227.839
L158.112 225.792
L156.472 223.658
L154.823 221.151
L153.162 218.184
L151.696 215.133
L150.003 211.045
L148.291 206.268
L146.341 200.114
L143.488 190.247
L139.515 176.549
L137.097 169.011
L134.913 162.898
L132.743 157.48
L130.586 152.691
L128.441 148.453
L126.094 144.336
L126.094 144.336" style="fill:none;stroke:#000000;"/>
    <path clip-path="url(#p70c85f4835)" d="
M334.956 265.163
L312.361 261.4
L275.356 255.031
L248.251 250.156
L228.809 246.444
L214.29 243.455
L203.234 240.961
L194.608 238.795
L187.797 236.869
L182.192 235.065
L177.589 233.364
L173.584 231.652
L170.178 229.953
L167.368 228.321
L164.755 226.547
L162.538 224.787
L160.516 222.915
L158.69 220.942
L156.855 218.62
L155.215 216.184
L153.563 213.314
L151.897 209.915
L150.214 205.9
L148.511 201.213
L146.572 195.169
L143.955 186.203
L139.343 170.361
L136.938 162.958
L134.766 156.966
L132.607 151.66
L130.462 146.972
L130.462 146.972" style="fill:none;stroke:#000000;"/>
    <path clip-path="url(#p70c85f4835)" d="
M338.273 260.567
L315.758 256.834
L278.474 250.446
L251.061 245.541
L231.288 241.789
L216.624 238.794
L205.41 236.29
L196.619 234.112
L189.436 232.11
L183.655 230.276
L178.871 228.533
L174.884 226.855
L171.492 225.202
L168.496 223.502
L165.895 221.779
L163.488 219.913
L161.476 218.089
L159.457 215.947
L157.631 213.668
L155.999 211.286
L154.356 208.49
L152.7 205.19
L151.027 201.298
L149.336 196.755
L147.411 190.874
L144.81 182.07
L139.787 164.845
L137.395 157.524
L135.234 151.604
L134.803 150.503
L134.803 150.503" style="fill:none;stroke:#000000;"/>
    <path clip-path="url(#p70c85f4835)" d="
M341.563 256.008
L318.922 252.269
L281.161 245.827
L253.446 240.887
L233.346 237.089
L218.539 234.077
L207.17 231.549
L198.214 229.341
L191.061 227.358
L185.104 225.48
L180.341 223.757
L176.171 222.015
L172.595 220.275
L169.612 218.583
L167.022 216.872
L164.625 215.024
L162.422 213.029
L160.411 210.887
L158.593 208.613
L156.969 206.244
L155.334 203.468
L153.686 200.2
L152.022 196.356
L150.34 191.873
L148.426 186.073
L146.058 178.122
L140.411 158.84
L139.112 154.826
L139.112 154.826" style="fill:none;stroke:#000000;"/>
    <path clip-path="url(#p70c85f4835)" d="
M344.828 251.485
L322.266 247.775
L284.231 241.314
L256.213 236.343
L235.986 232.541
L220.836 229.476
L209.312 226.929
L200.193 224.694
L192.869 222.676
L186.937 220.819
L181.995 219.045
L177.843 217.324
L174.281 215.611
L171.311 213.951
L168.533 212.142
L166.148 210.324
L163.954 208.368
L161.954 206.276
L160.145 204.065
L158.529 201.769
L156.904 199.089
L155.267 195.943
L153.615 192.247
L151.946 187.933
L150.046 182.326
L147.696 174.562
L143.378 159.584
L143.378 159.584" style="fill:none;stroke:#000000;"/>
    <path clip-path="url(#p70c85f4835)" d="
M348.067 246.997
L325.583 243.316
L287.478 236.871
L259.158 231.87
L238.605 228.026
L223.312 224.949
L211.634 222.382
L202.352 220.121
L195.057 218.126
L188.95 216.23
L184.028 214.48
L179.893 212.788
L176.347 211.111
L173.191 209.378
L170.426 207.606
L168.051 205.832
L165.868 203.932
L163.877 201.911
L162.079 199.783
L160.271 197.285
L158.655 194.676
L157.027 191.622
L155.386 188.039
L153.729 183.858
L151.843 178.408
L149.723 171.532
L147.583 164.124
L147.583 164.124" style="fill:none;stroke:#000000;"/>
    <path clip-path="url(#p70c85f4835)" d="
M351.28 242.545
L328.672 238.858
L290.298 232.394
L261.88 227.396
L241.203 223.544
L225.769 220.452
L213.937 217.864
L204.69 215.623
L197.226 213.594
L191.144 211.717
L186.044 209.915
L181.73 208.154
L178.197 206.484
L175.055 204.761
L172.301 203.003
L169.936 201.247
L167.763 199.371
L165.781 197.38
L163.991 195.29
L162.193 192.843
L160.585 190.295
L158.967 187.319
L157.336 183.832
L155.69 179.765
L154.027 175.081
L151.925 168.422
L151.713 167.716
L151.713 167.716" style="fill:none;stroke:#000000;"/>
    <path clip-path="url(#p70c85f4835)" d="
M354.469 238.127
L331.939 234.469
L293.496 228.02
L264.779 222.991
L243.978 219.134
L228.403 216.029
L216.418 213.42
L207.009 211.15
L199.574 209.138
L193.514 207.282
L188.435 205.504
L184.137 203.772
L180.424 202.04
L177.294 200.344
L174.552 198.619
L172.001 196.748
L169.837 194.896
L167.864 192.935
L165.884 190.634
L164.094 188.193
L162.494 185.656
L160.884 182.695
L159.261 179.233
L157.624 175.199
L155.971 170.557
L155.763 169.934
L155.763 169.934" style="fill:none;stroke:#000000;"/>
    <path clip-path="url(#p70c85f4835)" d="
M357.633 233.744
L335.18 230.113
L296.47 223.646
L267.655 218.621
L246.731 214.757
L231.212 211.677
L219.27 209.094
L209.7 206.803
L202.097 204.76
L195.866 202.862
L190.806 201.101
L186.525 199.389
L182.826 197.681
L179.514 195.902
L176.783 194.195
L174.243 192.346
L172.089 190.522
L170.125 188.595
L168.154 186.339
L166.373 183.953
L164.782 181.478
L163.181 178.597
L161.569 175.232
L159.942 171.312
L159.738 170.78
L159.738 170.78" style="fill:none;stroke:#000000;"/>
    <path clip-path="url(#p70c85f4835)" d="
M360.709 229.481
L338.131 225.844
L299.354 219.391
L270.44 214.368
L249.393 210.496
L233.732 207.399
L221.638 204.79
L212.103 202.513
L204.528 200.485
L198.319 198.603
L193.084 196.788
L188.819 195.087
L185.134 193.392
L181.835 191.629
L178.92 189.811
L176.39 187.965
L174.049 185.965
L172.093 184.016
L170.13 181.734
L168.356 179.321
L166.771 176.818
L165.177 173.907
L163.572 170.511
L163.572 170.511" style="fill:none;stroke:#000000;"/>
   </g>
  </g>
 </g>
 <defs>
  <clipPath id="p70c85f4835">
   <rect height="342.432" width="414.54" x="13.23" y="13.284"/>
  </clipPath>
 </defs>
</svg>
