<?xml version="1.0" encoding="UTF-8" standalone="no"?>
<!-- Created with Inkscape (http://www.inkscape.org/) -->

<svg
   xmlns:dc="http://purl.org/dc/elements/1.1/"
   xmlns:cc="http://creativecommons.org/ns#"
   xmlns:rdf="http://www.w3.org/1999/02/22-rdf-syntax-ns#"
   xmlns:svg="http://www.w3.org/2000/svg"
   xmlns="http://www.w3.org/2000/svg"
   xmlns:sodipodi="http://sodipodi.sourceforge.net/DTD/sodipodi-0.dtd"
   xmlns:inkscape="http://www.inkscape.org/namespaces/inkscape"
   id="svg2"
   version="1.1"
   inkscape:version="0.91 r13725"
   xml:space="preserve"
   width="0.98163176cm"
   height="0.53861904cm"
   viewBox="0 0 34.782227 19.084927"
   sodipodi:docname="gfpmut2_primer_template.svg"><metadata
     id="metadata8"><rdf:RDF><cc:Work
         rdf:about=""><dc:format>image/svg+xml</dc:format><dc:type
           rdf:resource="http://purl.org/dc/dcmitype/StillImage" /><dc:title></dc:title></cc:Work></rdf:RDF></metadata><defs
     id="defs6"><clipPath
       clipPathUnits="userSpaceOnUse"
       id="clipPath54"><path
         d="m 0,0 1400,0 0,1400 L 0,1400 0,0 Z"
         id="path56"
         inkscape:connector-curvature="0" /></clipPath><pattern
       patternTransform="matrix(0.0072,0,0,-0.0072,565.91998,91.8)"
       patternUnits="userSpaceOnUse"
       x="0"
       y="0"
       width="1400"
       height="1400"
       id="pattern58"><g
         id="g60"><g
           clip-path="url(#clipPath54)"
           id="g62"><g
             id="g64"><path
               d="m 0,0 1400,0 0,1400 L 0,1400 0,0 Z"
               style="fill:#75c6a9;fill-opacity:1;fill-rule:nonzero;stroke:none"
               id="path66" /><path
               d="M 523.199,-308.898 169.602,44.602 1626.801,1501.801 1980.398,1148.199 523.199,-308.898 Z"
               style="fill:#000000;fill-opacity:0.15;fill-rule:nonzero;stroke:none"
               id="path68" /><path
               d="m -183.898,398.199 -353.5,353.602 1457.097,1457.097 353.602,-353.5 L -183.898,398.199 Z"
               style="fill:#000000;fill-opacity:0.15;fill-rule:nonzero;stroke:none"
               id="path70" /></g></g></g></pattern><clipPath
       clipPathUnits="userSpaceOnUse"
       id="clipPath88"><path
         d="m 0,0 1400,0 0,1400 L 0,1400 0,0 Z"
         id="path90"
         inkscape:connector-curvature="0" /></clipPath><pattern
       patternTransform="matrix(0.0072,0,0,-0.0072,565.91998,74.88)"
       patternUnits="userSpaceOnUse"
       x="0"
       y="0"
       width="1400"
       height="1400"
       id="pattern92"><g
         id="g94"><g
           clip-path="url(#clipPath88)"
           id="g96"><g
             id="g98"><path
               d="m 0,0 1400,0 0,1400 L 0,1400 0,0 Z"
               style="fill:#f58a5e;fill-opacity:1;fill-rule:nonzero;stroke:none"
               id="path100" /><path
               d="M 523.199,-308.898 169.602,44.602 1626.801,1501.801 1980.398,1148.199 523.199,-308.898 Z"
               style="fill:#000000;fill-opacity:0.15;fill-rule:nonzero;stroke:none"
               id="path102" /><path
               d="m -183.898,398.199 -353.5,353.602 1457.097,1457.097 353.602,-353.5 L -183.898,398.199 Z"
               style="fill:#000000;fill-opacity:0.15;fill-rule:nonzero;stroke:none"
               id="path104" /></g></g></g></pattern><clipPath
       clipPathUnits="userSpaceOnUse"
       id="clipPath280"><path
         d="m 0,0 1400,0 0,1400 L 0,1400 0,0 Z"
         id="path282"
         inkscape:connector-curvature="0" /></clipPath><pattern
       patternTransform="matrix(0.0072,0,0,-0.0072,36,216.35999)"
       patternUnits="userSpaceOnUse"
       x="0"
       y="0"
       width="1400"
       height="1400"
       id="pattern284"><g
         id="g286"><g
           clip-path="url(#clipPath280)"
           id="g288"><g
             id="g290"><path
               d="m 0,0 1400,0 0,1400 L 0,1400 0,0 Z"
               style="fill:#75c6a9;fill-opacity:1;fill-rule:nonzero;stroke:none"
               id="path292" /><path
               d="M 523.199,-308.898 169.602,44.602 1626.801,1501.801 1980.398,1148.199 523.199,-308.898 Z"
               style="fill:#000000;fill-opacity:0.15;fill-rule:nonzero;stroke:none"
               id="path294" /><path
               d="m -183.898,398.199 -353.5,353.602 1457.097,1457.097 353.602,-353.5 L -183.898,398.199 Z"
               style="fill:#000000;fill-opacity:0.15;fill-rule:nonzero;stroke:none"
               id="path296" /></g></g></g></pattern><clipPath
       clipPathUnits="userSpaceOnUse"
       id="clipPath322"><path
         d="m 0,0 1400,0 0,1400 L 0,1400 0,0 Z"
         id="path324"
         inkscape:connector-curvature="0" /></clipPath><pattern
       patternTransform="matrix(0.0072,0,0,-0.0072,36,199.43999)"
       patternUnits="userSpaceOnUse"
       x="0"
       y="0"
       width="1400"
       height="1400"
       id="pattern326"><g
         id="g328"><g
           clip-path="url(#clipPath322)"
           id="g330"><g
             id="g332"><path
               d="m 0,0 1400,0 0,1400 L 0,1400 0,0 Z"
               style="fill:#f58a5e;fill-opacity:1;fill-rule:nonzero;stroke:none"
               id="path334" /><path
               d="M 523.199,-308.898 169.602,44.602 1626.801,1501.801 1980.398,1148.199 523.199,-308.898 Z"
               style="fill:#000000;fill-opacity:0.15;fill-rule:nonzero;stroke:none"
               id="path336" /><path
               d="m -183.898,398.199 -353.5,353.602 1457.097,1457.097 353.602,-353.5 L -183.898,398.199 Z"
               style="fill:#000000;fill-opacity:0.15;fill-rule:nonzero;stroke:none"
               id="path338" /></g></g></g></pattern></defs><sodipodi:namedview
     pagecolor="#ffffff"
     bordercolor="#666666"
     borderopacity="1"
     objecttolerance="10"
     gridtolerance="10"
     guidetolerance="10"
     inkscape:pageopacity="0"
     inkscape:pageshadow="2"
     inkscape:window-width="1920"
     inkscape:window-height="981"
     id="namedview4"
     showgrid="false"
     fit-margin-top="0"
     fit-margin-left="0"
     fit-margin-right="0"
     fit-margin-bottom="0"
     units="cm"
     inkscape:zoom="2.6970053"
     inkscape:cx="50.116259"
     inkscape:cy="-25.367669"
     inkscape:window-x="0"
     inkscape:window-y="41"
     inkscape:window-maximized="1"
     inkscape:current-layer="g10" /><g
     id="g10"
     inkscape:groupmode="layer"
     inkscape:label="gfp-mut2-cassette-after-rpsB-gene-sequence"
     transform="matrix(1.25,0,0,-1.25,-1421.7308,725.89383)"><g
       id="g278"
       transform="translate(599.0339,-5.8728814)"><path
         inkscape:connector-curvature="0"
         id="path298"
         style="fill:url(#pattern284);fill-opacity:1;fill-rule:nonzero;stroke:none"
         d="m 538.98832,571.68 2.879,2.34 -2.879,2.339 2.879,1.621 -2.879,3.059 12.89068,0 0,4.68 14.043,-14.039 -26.93368,0"
         sodipodi:nodetypes="ccccccccc" /></g><g
       transform="matrix(1,0,0,-1,599.0339,786.12712)"
       id="g300"><path
         inkscape:connector-curvature="0"
         id="path302"
         style="fill:none;stroke:#518a76;stroke-width:0.72000003;stroke-linecap:butt;stroke-linejoin:miter;stroke-miterlimit:4;stroke-dasharray:none;stroke-opacity:0.7"
         d="m 538.98832,220.32 2.879,-2.34 -2.879,-2.339 2.879,-1.621 -2.879,-3.059"
         sodipodi:nodetypes="ccccc" /></g><g
       transform="matrix(1,0,0,-1,599.0339,786.12712)"
       id="g304"><path
         inkscape:connector-curvature="0"
         id="path306"
         style="fill:none;stroke:#518a76;stroke-width:0.72000003;stroke-linecap:butt;stroke-linejoin:miter;stroke-miterlimit:4;stroke-dasharray:none;stroke-opacity:0.7"
         d="m 565.922,220.32 -14.043,-14.039 0,4.68" /></g><g
       transform="matrix(1,0,0,-1,599.0339,786.12712)"
       id="g308"><path
         inkscape:connector-curvature="0"
         id="path310"
         style="fill:none;stroke:#518a76;stroke-width:0.72000003;stroke-linecap:butt;stroke-linejoin:miter;stroke-miterlimit:4;stroke-dasharray:none;stroke-opacity:0.7"
         d="m 538.98832,210.961 12.89068,0 m -12.89068,9.359 26.93368,0"
         sodipodi:nodetypes="cccc" /></g><g
       transform="matrix(1,0,0,-1,599.0339,786.12712)"
       id="g312"><path
         inkscape:connector-curvature="0"
         id="path314"
         style="fill:none;stroke:#518a76;stroke-width:0.72000003;stroke-linecap:butt;stroke-linejoin:miter;stroke-miterlimit:4;stroke-dasharray:none;stroke-opacity:0.7"
         d="m 543.30832,213.84 2.16,1.801 -2.16,2.519 m 2.16,-4.32 2.161,1.801 -2.161,2.519"
         sodipodi:nodetypes="cccccc" /></g></g></svg>