<?xml version="1.0" encoding="utf-8" standalone="no"?>
<!DOCTYPE svg PUBLIC "-//W3C//DTD SVG 1.1//EN"
  "http://www.w3.org/Graphics/SVG/1.1/DTD/svg11.dtd">
<!-- Created with matplotlib (http://matplotlib.org/) -->
<svg height="267pt" version="1.1" viewBox="0 0 325 267" width="325pt" xmlns="http://www.w3.org/2000/svg" xmlns:xlink="http://www.w3.org/1999/xlink">
 <defs>
  <style type="text/css">
*{stroke-linecap:butt;stroke-linejoin:round;stroke-miterlimit:100000;}
  </style>
 </defs>
 <g id="figure_1">
  <g id="patch_1">
   <path d="M 0 267.549211 
L 325.607299 267.549211 
L 325.607299 0 
L 0 0 
z
" style="fill:#ffffff;"/>
  </g>
  <g id="axes_1">
   <g id="patch_2">
    <path d="M 39.407299 230.4 
L 318.407299 230.4 
L 318.407299 7.2 
L 39.407299 7.2 
z
" style="fill:#ffffff;"/>
   </g>
   <g id="PathCollection_1">
    <defs>
     <path d="M -2.236068 0 
L 2.236068 0 
M 0 2.236068 
L 0 -2.236068 
" id="m014a2aa3cc" style="stroke:#ff0000;"/>
    </defs>
    <g clip-path="url(#p2d2354f707)">
     <use style="fill:#ff0000;stroke:#ff0000;" x="155.732157523" xlink:href="#m014a2aa3cc" y="193.978377327"/>
     <use style="fill:#ff0000;stroke:#ff0000;" x="253.764595859" xlink:href="#m014a2aa3cc" y="101.200495647"/>
     <use style="fill:#ff0000;stroke:#ff0000;" x="188.779511425" xlink:href="#m014a2aa3cc" y="142.059044086"/>
     <use style="fill:#ff0000;stroke:#ff0000;" x="146.279629651" xlink:href="#m014a2aa3cc" y="141.400553868"/>
     <use style="fill:#ff0000;stroke:#ff0000;" x="293.045888716" xlink:href="#m014a2aa3cc" y="25.8099373736"/>
     <use style="fill:#ff0000;stroke:#ff0000;" x="262.565519441" xlink:href="#m014a2aa3cc" y="119.017606014"/>
     <use style="fill:#ff0000;stroke:#ff0000;" x="116.254290599" xlink:href="#m014a2aa3cc" y="190.443481589"/>
     <use style="fill:#ff0000;stroke:#ff0000;" x="249.859241486" xlink:href="#m014a2aa3cc" y="102.72686034"/>
     <use style="fill:#ff0000;stroke:#ff0000;" x="77.3133635439" xlink:href="#m014a2aa3cc" y="206.075166311"/>
     <use style="fill:#ff0000;stroke:#ff0000;" x="250.268419277" xlink:href="#m014a2aa3cc" y="37.0811284077"/>
     <use style="fill:#ff0000;stroke:#ff0000;" x="219.434488253" xlink:href="#m014a2aa3cc" y="136.745471475"/>
     <use style="fill:#ff0000;stroke:#ff0000;" x="203.801953369" xlink:href="#m014a2aa3cc" y="167.895200701"/>
     <use style="fill:#ff0000;stroke:#ff0000;" x="113.370550681" xlink:href="#m014a2aa3cc" y="183.064051815"/>
     <use style="fill:#ff0000;stroke:#ff0000;" x="133.740189043" xlink:href="#m014a2aa3cc" y="68.6354096346"/>
     <use style="fill:#ff0000;stroke:#ff0000;" x="249.143585399" xlink:href="#m014a2aa3cc" y="135.915830253"/>
     <use style="fill:#ff0000;stroke:#ff0000;" x="244.217726541" xlink:href="#m014a2aa3cc" y="129.182163187"/>
     <use style="fill:#ff0000;stroke:#ff0000;" x="132.406590609" xlink:href="#m014a2aa3cc" y="165.514214527"/>
     <use style="fill:#ff0000;stroke:#ff0000;" x="61.1439267483" xlink:href="#m014a2aa3cc" y="196.126381524"/>
     <use style="fill:#ff0000;stroke:#ff0000;" x="161.027800984" xlink:href="#m014a2aa3cc" y="206.670244244"/>
     <use style="fill:#ff0000;stroke:#ff0000;" x="156.361599181" xlink:href="#m014a2aa3cc" y="171.672264559"/>
     <use style="fill:#ff0000;stroke:#ff0000;" x="169.658153935" xlink:href="#m014a2aa3cc" y="111.484586893"/>
     <use style="fill:#ff0000;stroke:#ff0000;" x="152.941044849" xlink:href="#m014a2aa3cc" y="149.768720848"/>
     <use style="fill:#ff0000;stroke:#ff0000;" x="95.8099806329" xlink:href="#m014a2aa3cc" y="194.743264109"/>
     <use style="fill:#ff0000;stroke:#ff0000;" x="123.831973613" xlink:href="#m014a2aa3cc" y="210.990248222"/>
     <use style="fill:#ff0000;stroke:#ff0000;" x="169.199321335" xlink:href="#m014a2aa3cc" y="218.327388323"/>
     <use style="fill:#ff0000;stroke:#ff0000;" x="126.728229136" xlink:href="#m014a2aa3cc" y="185.436288445"/>
     <use style="fill:#ff0000;stroke:#ff0000;" x="62.5214562799" xlink:href="#m014a2aa3cc" y="154.571645369"/>
     <use style="fill:#ff0000;stroke:#ff0000;" x="106.619781058" xlink:href="#m014a2aa3cc" y="165.889191669"/>
     <use style="fill:#ff0000;stroke:#ff0000;" x="155.503131834" xlink:href="#m014a2aa3cc" y="166.069375782"/>
     <use style="fill:#ff0000;stroke:#ff0000;" x="130.538222545" xlink:href="#m014a2aa3cc" y="112.626560036"/>
     <use style="fill:#ff0000;stroke:#ff0000;" x="191.6638833" xlink:href="#m014a2aa3cc" y="67.2072442665"/>
     <use style="fill:#ff0000;stroke:#ff0000;" x="124.844050599" xlink:href="#m014a2aa3cc" y="214.921845833"/>
     <use style="fill:#ff0000;stroke:#ff0000;" x="154.58364182" xlink:href="#m014a2aa3cc" y="100.491690592"/>
     <use style="fill:#ff0000;stroke:#ff0000;" x="221.327194839" xlink:href="#m014a2aa3cc" y="129.101988517"/>
     <use style="fill:#ff0000;stroke:#ff0000;" x="169.748438215" xlink:href="#m014a2aa3cc" y="123.767534624"/>
     <use style="fill:#ff0000;stroke:#ff0000;" x="180.025872094" xlink:href="#m014a2aa3cc" y="69.6243216829"/>
     <use style="fill:#ff0000;stroke:#ff0000;" x="149.976988102" xlink:href="#m014a2aa3cc" y="156.080098681"/>
     <use style="fill:#ff0000;stroke:#ff0000;" x="162.637306162" xlink:href="#m014a2aa3cc" y="122.162732029"/>
     <use style="fill:#ff0000;stroke:#ff0000;" x="155.673318768" xlink:href="#m014a2aa3cc" y="172.909407971"/>
     <use style="fill:#ff0000;stroke:#ff0000;" x="186.54037684" xlink:href="#m014a2aa3cc" y="176.121327185"/>
     <use style="fill:#ff0000;stroke:#ff0000;" x="116.16907112" xlink:href="#m014a2aa3cc" y="203.646055187"/>
     <use style="fill:#ff0000;stroke:#ff0000;" x="201.882914043" xlink:href="#m014a2aa3cc" y="201.45917131"/>
     <use style="fill:#ff0000;stroke:#ff0000;" x="221.49095102" xlink:href="#m014a2aa3cc" y="115.496930998"/>
     <use style="fill:#ff0000;stroke:#ff0000;" x="172.684423973" xlink:href="#m014a2aa3cc" y="200.41076041"/>
     <use style="fill:#ff0000;stroke:#ff0000;" x="204.944960621" xlink:href="#m014a2aa3cc" y="188.636293314"/>
    </g>
   </g>
   <g id="patch_3">
    <path d="M 39.407299 230.4 
L 39.407299 7.2 
" style="fill:none;stroke:#000000;stroke-linecap:square;stroke-linejoin:miter;"/>
   </g>
   <g id="patch_4">
    <path d="M 39.407299 230.4 
L 318.407299 230.4 
" style="fill:none;stroke:#000000;stroke-linecap:square;stroke-linejoin:miter;"/>
   </g>
   <g id="patch_5">
    <path d="M 318.407299 230.4 
L 318.407299 7.2 
" style="fill:none;stroke:#000000;stroke-linecap:square;stroke-linejoin:miter;"/>
   </g>
   <g id="patch_6">
    <path d="M 39.407299 7.2 
L 318.407299 7.2 
" style="fill:none;stroke:#000000;stroke-linecap:square;stroke-linejoin:miter;"/>
   </g>
   <g id="matplotlib.axis_1">
    <g id="xtick_1">
     <g id="line2d_1">
      <defs>
       <path d="M 0 0 
L 0 -4 
" id="m5f49e46809" style="stroke:#000000;stroke-width:0.5;"/>
      </defs>
      <g>
       <use style="stroke:#000000;stroke-width:0.5;" x="58.6486787198" xlink:href="#m5f49e46809" y="230.4"/>
      </g>
     </g>
     <g id="line2d_2">
      <defs>
       <path d="M 0 0 
L 0 4 
" id="mb80cd978fd" style="stroke:#000000;stroke-width:0.5;"/>
      </defs>
      <g>
       <use style="stroke:#000000;stroke-width:0.5;" x="58.6486787198" xlink:href="#mb80cd978fd" y="7.2"/>
      </g>
     </g>
     <g id="text_1">
      <!-- $400$ -->
      <defs>
       <path d="M 14.796875 63.859375 
C 11.90625 61.859375 9.90625 59.140625 8.40625 56.03125 
C 4.796875 49 4.40625 40.765625 4.40625 31.828125 
C 4.40625 20.578125 6.40625 10.25 12 4.3125 
C 17.296875 -1.203125 25.703125 -2.609375 32.796875 0.296875 
C 37.203125 2.015625 40.40625 5.71875 42.40625 9.734375 
C 46 16.875 46.40625 25.40625 46.40625 34.234375 
C 46.40625 37.046875 46.296875 39.859375 46 42.671875 
C 45.296875 49.40625 43 56.828125 39.296875 60.953125 
C 33.203125 67.6875 22.296875 69.1875 14.796875 63.859375 
M 34.90625 58.140625 
C 39.59375 53.125 40 43.484375 40 34.34375 
L 40 28.921875 
C 40 24.296875 39.203125 18.28125 38.203125 14.859375 
C 36.796875 10.140625 34.5 6.734375 29.90625 4.625 
C 24.296875 2.609375 18.5 4.515625 15.296875 8.9375 
C 11 14.65625 10.796875 24.796875 10.796875 33.734375 
C 10.796875 42.171875 10.90625 51.515625 15 57.03125 
C 19.5 63.0625 29.203125 64.0625 34.90625 58.140625 
" id="Computer_Modern_Bright-48"/>
       <path d="M 2.09375 18 
L 31 18 
L 31 0 
L 37.296875 0 
L 37.296875 18 
L 48.703125 18 
L 48.703125 23.328125 
L 37.296875 23.328125 
L 37.296875 66.46875 
L 31.90625 66.46875 
C 30.09375 66.46875 29.59375 66.578125 28.796875 65.0625 
C 24.796875 58.515625 3.703125 25.765625 3 24.859375 
C 2.203125 23.4375 2.09375 23.546875 2.09375 21.4375 
z
M 31.296875 60.875 
L 31.296875 23.328125 
L 8.59375 23.328125 
C 9.296875 24.734375 10.296875 26.03125 11.203125 27.4375 
C 16.203125 35.171875 28.09375 53.546875 30.59375 59.28125 
C 30.90625 59.78125 31 60.375 31.296875 60.875 
" id="Computer_Modern_Bright-52"/>
      </defs>
      <g transform="translate(49.2340704758 242.702195016)scale(0.12 -0.12)">
       <use transform="scale(0.9962640099626402)" xlink:href="#Computer_Modern_Bright-52"/>
       <use transform="translate(50.6432178160025 0.0)scale(0.9962640099626402)" xlink:href="#Computer_Modern_Bright-48"/>
       <use transform="translate(101.286435632005 0.0)scale(0.9962640099626402)" xlink:href="#Computer_Modern_Bright-48"/>
      </g>
     </g>
    </g>
    <g id="xtick_2">
     <g id="line2d_3">
      <g>
       <use style="stroke:#000000;stroke-width:0.5;" x="106.752126996" xlink:href="#m5f49e46809" y="230.4"/>
      </g>
     </g>
     <g id="line2d_4">
      <g>
       <use style="stroke:#000000;stroke-width:0.5;" x="106.752126996" xlink:href="#mb80cd978fd" y="7.2"/>
      </g>
     </g>
     <g id="text_2">
      <!-- $450$ -->
      <defs>
       <path d="M 8.40625 66.328125 
L 8.40625 30.453125 
L 12.203125 30.453125 
C 12.703125 30.453125 13.40625 30.359375 13.796875 30.5625 
C 14.296875 30.859375 14.59375 31.5625 14.90625 31.96875 
C 15.59375 32.859375 16.40625 33.5625 17.203125 34.265625 
C 20.796875 37.28125 27.703125 38.484375 32.296875 36.171875 
C 38.59375 33.171875 39.796875 25.21875 39.296875 19 
C 39 15.0625 37.796875 11.453125 35.5 9.140625 
C 30.203125 3.5 21.296875 3.5 14.796875 6.796875 
C 11.59375 8.40625 8.90625 10.921875 6.90625 13.921875 
L 6.796875 13.921875 
C 6.5 13.421875 4.203125 9.90625 4.203125 9.296875 
C 4.203125 8.890625 4.5 8.59375 4.703125 8.296875 
C 7.703125 4.78125 11.59375 2.0625 16.09375 0.5625 
C 25 -2.25 35 -0.046875 41.296875 7.1875 
C 48.796875 15.921875 47.796875 30.15625 39.09375 37.765625 
C 36.5 40.1875 32.90625 41.890625 28.59375 42.28125 
C 22.796875 43.09375 17.59375 40.28125 14.5 37.671875 
L 14.5 61 
L 42.90625 61 
L 42.90625 66.328125 
z
" id="Computer_Modern_Bright-53"/>
      </defs>
      <g transform="translate(97.3375187517 242.702195016)scale(0.12 -0.12)">
       <use transform="scale(0.9962640099626402)" xlink:href="#Computer_Modern_Bright-52"/>
       <use transform="translate(50.6432178160025 0.0)scale(0.9962640099626402)" xlink:href="#Computer_Modern_Bright-53"/>
       <use transform="translate(101.286435632005 0.0)scale(0.9962640099626402)" xlink:href="#Computer_Modern_Bright-48"/>
      </g>
     </g>
    </g>
    <g id="xtick_3">
     <g id="line2d_5">
      <g>
       <use style="stroke:#000000;stroke-width:0.5;" x="154.855575272" xlink:href="#m5f49e46809" y="230.4"/>
      </g>
     </g>
     <g id="line2d_6">
      <g>
       <use style="stroke:#000000;stroke-width:0.5;" x="154.855575272" xlink:href="#mb80cd978fd" y="7.2"/>
      </g>
     </g>
     <g id="text_3">
      <!-- $500$ -->
      <g transform="translate(145.440967028 242.702195016)scale(0.12 -0.12)">
       <use transform="scale(0.9962640099626402)" xlink:href="#Computer_Modern_Bright-53"/>
       <use transform="translate(50.6432178160025 0.0)scale(0.9962640099626402)" xlink:href="#Computer_Modern_Bright-48"/>
       <use transform="translate(101.286435632005 0.0)scale(0.9962640099626402)" xlink:href="#Computer_Modern_Bright-48"/>
      </g>
     </g>
    </g>
    <g id="xtick_4">
     <g id="line2d_7">
      <g>
       <use style="stroke:#000000;stroke-width:0.5;" x="202.959023547" xlink:href="#m5f49e46809" y="230.4"/>
      </g>
     </g>
     <g id="line2d_8">
      <g>
       <use style="stroke:#000000;stroke-width:0.5;" x="202.959023547" xlink:href="#mb80cd978fd" y="7.2"/>
      </g>
     </g>
     <g id="text_4">
      <!-- $550$ -->
      <g transform="translate(193.544415303 242.702195016)scale(0.12 -0.12)">
       <use transform="scale(0.9962640099626402)" xlink:href="#Computer_Modern_Bright-53"/>
       <use transform="translate(50.6432178160025 0.0)scale(0.9962640099626402)" xlink:href="#Computer_Modern_Bright-53"/>
       <use transform="translate(101.286435632005 0.0)scale(0.9962640099626402)" xlink:href="#Computer_Modern_Bright-48"/>
      </g>
     </g>
    </g>
    <g id="xtick_5">
     <g id="line2d_9">
      <g>
       <use style="stroke:#000000;stroke-width:0.5;" x="251.062471823" xlink:href="#m5f49e46809" y="230.4"/>
      </g>
     </g>
     <g id="line2d_10">
      <g>
       <use style="stroke:#000000;stroke-width:0.5;" x="251.062471823" xlink:href="#mb80cd978fd" y="7.2"/>
      </g>
     </g>
     <g id="text_5">
      <!-- $600$ -->
      <defs>
       <path d="M 11.296875 32.625 
L 11.203125 32.625 
C 11.203125 41.765625 12.796875 52.421875 20.59375 58.25 
C 24.90625 61.375 30.703125 62.96875 38.203125 61.171875 
C 39.796875 60.765625 41.296875 60.15625 42.796875 59.765625 
L 42.796875 63.28125 
C 42.796875 63.671875 42.90625 64.375 42.59375 64.78125 
C 41.90625 65.6875 36.296875 66.59375 36.09375 66.59375 
C 27.40625 67.59375 21.703125 65.6875 16.40625 61.171875 
C 10 55.640625 6.296875 47.515625 5.09375 39.28125 
C 4 32.65625 4.90625 22 6.203125 16.78125 
C 8.296875 9.046875 12.296875 2.21875 19.703125 -0.390625 
C 24.09375 -2 29.5 -2 33.703125 0.015625 
C 37.09375 1.640625 39.90625 4.46875 42.09375 7.5 
C 45.59375 12.34375 46.5 18.21875 46.09375 24.171875 
C 45.90625 27.109375 45.5 30.046875 44.296875 32.765625 
C 42.40625 37.125 39.203125 41.671875 35.09375 43.6875 
C 33.203125 44.5 31.203125 44.5 29.203125 44.5 
C 23.90625 44.5 18.90625 42.1875 15.203125 38.359375 
C 13.59375 36.75 12 34.71875 11.296875 32.625 
M 24.40625 39.515625 
C 28.203125 39.8125 32.203125 39.21875 35.09375 36.5 
C 38.90625 32.890625 39.59375 27.765625 39.59375 22.8125 
C 39.59375 19.46875 39.703125 16.015625 38.703125 12.859375 
C 38.09375 11.234375 37.296875 9.828125 36.40625 8.5 
C 34.203125 5.5625 31.40625 4.125 26.796875 3.515625 
C 22.296875 3.515625 17.796875 5.3125 15.203125 9.125 
C 13.59375 11.328125 12.796875 14.046875 12.296875 16.640625 
C 11.703125 19.34375 11.296875 22.140625 11.5 24.859375 
C 12 31.984375 17 38.515625 24.40625 39.515625 
" id="Computer_Modern_Bright-54"/>
      </defs>
      <g transform="translate(241.647863579 242.702195016)scale(0.12 -0.12)">
       <use transform="scale(0.9962640099626402)" xlink:href="#Computer_Modern_Bright-54"/>
       <use transform="translate(50.6432178160025 0.0)scale(0.9962640099626402)" xlink:href="#Computer_Modern_Bright-48"/>
       <use transform="translate(101.286435632005 0.0)scale(0.9962640099626402)" xlink:href="#Computer_Modern_Bright-48"/>
      </g>
     </g>
    </g>
    <g id="xtick_6">
     <g id="line2d_11">
      <g>
       <use style="stroke:#000000;stroke-width:0.5;" x="299.165920099" xlink:href="#m5f49e46809" y="230.4"/>
      </g>
     </g>
     <g id="line2d_12">
      <g>
       <use style="stroke:#000000;stroke-width:0.5;" x="299.165920099" xlink:href="#mb80cd978fd" y="7.2"/>
      </g>
     </g>
     <g id="text_6">
      <!-- $650$ -->
      <g transform="translate(289.751311855 242.702195016)scale(0.12 -0.12)">
       <use transform="scale(0.9962640099626402)" xlink:href="#Computer_Modern_Bright-54"/>
       <use transform="translate(50.6432178160025 0.0)scale(0.9962640099626402)" xlink:href="#Computer_Modern_Bright-53"/>
       <use transform="translate(101.286435632005 0.0)scale(0.9962640099626402)" xlink:href="#Computer_Modern_Bright-48"/>
      </g>
     </g>
    </g>
    <g id="text_7">
     <!-- Mean of RFU/pixel/cell in the ROI -->
     <defs>
      <path d="M -0.203125 47.390625 
L 10.09375 34.46875 
L 18.203125 24.546875 
L 18.203125 24.453125 
L 15.703125 21.328125 
L -0.796875 0 
C 1.5 0 3.90625 0 6.09375 0 
L 7.40625 1.625 
L 20.90625 20.828125 
L 21 20.828125 
C 26 13.921875 31 6.90625 36.296875 0.296875 
C 38.40625 0 40.90625 0 43.296875 0 
L 31.09375 15.296875 
C 28.703125 18.40625 26.203125 21.4375 23.703125 24.453125 
L 23.703125 24.546875 
L 27.09375 28.75 
L 41.5 47.390625 
C 39.203125 47.390625 36.90625 47.390625 34.703125 47.390625 
L 33.40625 45.890625 
L 21 29.171875 
C 16.203125 35.046875 11.703125 41.3125 6.796875 47.09375 
C 4.703125 47.390625 2.203125 47.390625 -0.203125 47.390625 
" id="Computer_Modern_Bright-120"/>
      <path d="M 10.59375 47.015625 
L 2 47.015625 
L 2 42 
L 10.59375 42 
L 10.59375 -0.5 
L 16.90625 -0.5 
L 16.90625 42 
L 29.296875 42 
L 29.296875 47.015625 
L 16.796875 47.015625 
L 16.796875 55.78125 
C 16.796875 57.1875 16.5 58.921875 17.09375 60.328125 
C 19.203125 64.75 26.296875 65.5625 32.09375 64.5625 
C 33.296875 64.359375 34.40625 63.953125 35.59375 63.75 
L 35.59375 69.390625 
C 28.796875 70.5 21.296875 70.5 15.703125 65.921875 
C 14.796875 65.125 14 64.34375 13.296875 63.328125 
C 11.203125 60.75 10.59375 57.875 10.59375 53.390625 
z
" id="Computer_Modern_Bright-102"/>
      <path d="M 10.703125 42.078125 
C 1.796875 33.234375 0.796875 17.875 8.5 7.9375 
C 9.59375 6.421875 10.90625 5.125 12.40625 4.015625 
C 16.09375 1 21.5 -1.203125 27.796875 -0.5 
C 37.796875 0.703125 44.703125 8.84375 46.796875 17.375 
C 49.59375 29.328125 43.703125 42.671875 32.703125 46.890625 
C 24.09375 50.40625 15.5 46.890625 10.703125 42.078125 
M 35.703125 39.359375 
C 40.5 35.03125 41.40625 28.109375 41 21.984375 
C 40.703125 17.265625 39.40625 12.34375 36.09375 8.828125 
C 30.703125 3 20.703125 3 14.90625 8.625 
C 11.90625 11.84375 10.09375 16.453125 9.796875 21.984375 
C 9.296875 30.109375 11.296875 38.75 19.296875 41.96875 
C 25.203125 44.578125 32 42.671875 35.703125 39.359375 
" id="Computer_Modern_Bright-111"/>
      <path d="M 8.40625 69.59375 
L 8.40625 0 
L 14.59375 0 
L 14.59375 63.265625 
L 14.703125 63.265625 
C 15.09375 61.5625 16.5 58.140625 16.90625 57.03125 
L 21.296875 45.984375 
C 25.59375 35.453125 38.5 4.109375 39.09375 2.515625 
C 39.40625 1.40625 39.90625 1.203125 41.203125 1.203125 
L 43.90625 1.203125 
C 44.296875 1.203125 44.796875 1.109375 45.296875 1.203125 
C 45.796875 1.3125 45.90625 1.8125 46.09375 2.203125 
C 46.40625 3.109375 46.796875 3.921875 47.203125 4.8125 
C 51.796875 16.0625 70 60.546875 70.703125 63.265625 
L 70.796875 63.265625 
L 70.796875 0 
L 77 0 
L 77 69.59375 
C 74 69.59375 70.40625 70.09375 67.796875 69.59375 
L 67.09375 68.09375 
C 58.90625 47.984375 50.5 28.140625 42.703125 7.625 
C 41 12.171875 39.203125 16.578125 37.40625 21.015625 
C 30.703125 37.09375 24.5 53.703125 17.5 69.59375 
C 15 70.203125 11.296875 69.59375 8.40625 69.59375 
" id="Computer_Modern_Bright-77"/>
      <path d="M 8 69.5 
L 8 32.75 
C 8 25.71875 7.203125 18.390625 10.703125 11.96875 
C 12.90625 7.84375 16.09375 4.4375 20.09375 2.125 
C 29.90625 -3.609375 43.5 -2.203125 51.296875 6.4375 
C 54.796875 10.359375 57.296875 15.171875 57.796875 21.796875 
C 57.90625 23.40625 57.796875 24.921875 57.796875 26.515625 
L 57.796875 69.5 
L 51.40625 69.5 
L 51.40625 25.90625 
C 51.40625 24.59375 51.5 23.1875 51.40625 21.890625 
C 51.203125 18.890625 50.59375 15.921875 49.40625 13.25 
C 43.90625 1 25 1 18 11.890625 
C 14.203125 17.78125 15 25.0625 15 31.65625 
L 15 69.5 
z
" id="Computer_Modern_Bright-85"/>
      <path d="M 41.796875 10.9375 
C 39.5 9.234375 38.796875 8.328125 35.90625 6.8125 
C 29.796875 3.5 22.59375 3.5 17.40625 7.171875 
C 12.40625 10.765625 9.5 16.640625 9.5 25 
L 42.5 25 
C 42.5 32.421875 40.796875 38.859375 36.59375 43.375 
C 32 47.890625 24.796875 49.296875 18.703125 47.390625 
C 16.40625 46.6875 14.296875 45.484375 12.40625 43.96875 
C 6.09375 38.859375 3.40625 30.71875 3.5 22.78125 
C 3.703125 12.34375 10.796875 1.90625 21.296875 -0.3125 
C 26.796875 -1.421875 32.59375 -0.203125 37.5 2.296875 
C 38.40625 2.796875 41.703125 4.609375 42.09375 5.515625 
C 42.40625 6.015625 41.796875 10.9375 41.796875 10.9375 
M 37.203125 28.90625 
L 10 28.90625 
C 11.203125 36.234375 17.203125 43.96875 25.296875 43.0625 
C 31.90625 42.46875 35.40625 37.75 36.703125 31.828125 
C 36.90625 30.8125 37 29.921875 37.203125 28.90625 
" id="Computer_Modern_Bright-101"/>
      <path d="M 42.40625 11.25 
C 40.5 9.84375 38.796875 8.328125 36.703125 7.125 
C 32 4.625 24.796875 3.421875 19.40625 5.921875 
C 11.59375 9.9375 9.5 19.6875 10.59375 27.71875 
C 10.796875 29.328125 11.09375 30.921875 11.59375 32.4375 
C 13.796875 38.96875 19.296875 44.078125 28.296875 43.078125 
C 33.09375 42.671875 35.5 41.875 39.296875 39.765625 
C 40 39.359375 40.59375 38.859375 41.40625 38.65625 
C 41.5 39.859375 41.796875 41.171875 42 42.375 
C 42.296875 43.984375 42.296875 44.1875 40.796875 44.890625 
C 39.703125 45.390625 38.59375 45.984375 37.40625 46.390625 
C 32.796875 48.40625 25.203125 49 20 47.5 
C 12.90625 45.484375 7.59375 39.359375 5.296875 32.53125 
C 4.203125 29.421875 3.90625 26.109375 3.90625 22.796875 
C 4 12.25 11.203125 1.90625 21.703125 -0.203125 
C 27.5 -1.40625 34.203125 0.296875 38.203125 2.40625 
C 39.203125 2.90625 42.203125 4.71875 42.703125 5.625 
C 43 6.125 42.40625 11.25 42.40625 11.25 
" id="Computer_Modern_Bright-99"/>
      <path d="M 8 69.328125 
L 8 -0.5 
L 14.90625 -0.5 
L 14.90625 32 
L 32 32 
C 32.5 32 33.09375 32.109375 33.5 31.8125 
C 34.203125 31.296875 34.59375 30.28125 35.09375 29.578125 
L 49.59375 7.484375 
L 53.296875 1.828125 
C 53.796875 1.125 54.296875 -0.09375 55 -0.40625 
C 55.59375 -0.703125 56.59375 -0.5 57.203125 -0.5 
L 61.90625 -0.5 
L 39.796875 32.703125 
C 45 33.71875 50.203125 35.921875 54 39.734375 
C 57.09375 42.828125 59.203125 46.75 59 51.171875 
C 58.703125 54.703125 57.296875 57.734375 55.5 59.9375 
C 51.09375 65.1875 43.59375 68.71875 35.59375 69.328125 
C 32.5 69.328125 29.5 69.328125 26.40625 69.328125 
z
M 14.90625 37.03125 
L 14.90625 64 
L 29.09375 64 
C 37.90625 64 46.203125 63 50.40625 56.96875 
C 53.203125 52.828125 53 47.203125 49.796875 43.28125 
C 48.703125 41.875 47.296875 40.765625 45.796875 39.953125 
C 40.703125 37.03125 34.796875 37.03125 29.09375 37.03125 
z
" id="Computer_Modern_Bright-82"/>
      <path d="M 12.59375 37.28125 
L 12.5 37.28125 
L 12.5 47.390625 
L 6.40625 47.390625 
L 6.40625 0 
L 12.796875 0 
L 12.796875 21.9375 
C 12.796875 26.84375 12.5 31.875 14.703125 36.46875 
C 15.796875 38.78125 17.5 40.78125 19.796875 41.984375 
C 21.703125 42.890625 23.703125 42.890625 25.796875 42.6875 
C 28.796875 42.6875 31.703125 41.890625 33.59375 39.375 
C 35.40625 37.0625 35.5 34.0625 35.5 31.25 
L 35.5 0 
L 41.90625 0 
L 41.90625 26.859375 
C 41.90625 31.875 42.40625 37.375 40 41.890625 
C 38.09375 45.5 34.40625 47.203125 30.5 47.703125 
C 28.5 48 26.40625 48 24.40625 47.609375 
C 19.203125 46.5 14.40625 42.296875 12.59375 37.28125 
" id="Computer_Modern_Bright-110"/>
      <path d="M 43.296875 75.21875 
C 42.203125 74.90625 41.90625 74 41.5 73 
C 41.203125 72.09375 12.296875 -1.40625 12.296875 -1.40625 
L 5.90625 -17.578125 
C 5.40625 -18.875 4.40625 -20.6875 5.703125 -21.796875 
C 6.09375 -22.1875 6.703125 -22.296875 7.296875 -22.296875 
C 8.296875 -22.09375 8.703125 -21.28125 9.09375 -20.484375 
C 9.5 -19.375 39.5 56.828125 39.5 56.828125 
L 45.40625 71.796875 
C 45.59375 72.40625 45.90625 73 45.796875 73.609375 
C 45.59375 74.703125 44.40625 75.609375 43.296875 75.21875 
" id="Computer_Modern_Bright-47"/>
      <path d="M 6.40625 70 
L 6.40625 63.671875 
L 12.703125 63.671875 
L 12.703125 70 
z
M 6.40625 47.390625 
L 6.40625 0 
L 12.703125 0 
L 12.703125 47.390625 
z
" id="Computer_Modern_Bright-105"/>
      <path d="M 14.40625 60.046875 
C 2.5 46.59375 1.796875 24.90625 13.203125 10.953125 
C 17.203125 6.03125 22.5 2.109375 29.09375 0.09375 
C 39.5 -3.21875 49.703125 0.09375 56.296875 4.921875 
C 67.59375 13.15625 72.40625 27.71875 70.296875 41.265625 
C 68.09375 55.125 57.796875 67.484375 43.796875 70.296875 
C 31 72.90625 20.296875 66.875 14.40625 60.046875 
M 54.90625 58.9375 
C 61.703125 52.3125 64.203125 42.875 63.703125 33.53125 
C 63 20.1875 56.203125 9.34375 45.90625 5.515625 
C 36.296875 1.609375 26 5.625 20.09375 12.25 
C 15.5 17.375 12.59375 25 12.09375 33.53125 
C 11.5 43.875 14.703125 54.734375 23.40625 61.046875 
C 25 62.15625 26.796875 63.15625 28.59375 63.96875 
C 38.40625 67.875 49.203125 64.671875 54.90625 58.9375 
" id="Computer_Modern_Bright-79"/>
      <path d="M 10.796875 60.5 
L 10.796875 47.015625 
L 1.09375 47.015625 
L 1.09375 42 
L 10.703125 42 
L 10.703125 15.015625 
C 10.703125 10.578125 10.40625 5.234375 13.296875 1.515625 
C 15 -0.703125 17.296875 -1.296875 20.796875 -1 
C 23.703125 -1 26.59375 -0.390625 29.296875 0.65625 
C 30.203125 1.0625 33.5 2.515625 33.90625 3.234375 
C 34.09375 3.640625 32.796875 8.09375 32.796875 8.09375 
L 30.40625 6.265625 
C 27.296875 4.34375 21.09375 2.328125 18.5 5.96875 
C 16.203125 9.09375 16.796875 13.75 16.796875 17.375 
L 16.796875 42 
L 32.296875 42 
L 32.296875 47.015625 
L 16.796875 47.015625 
L 16.796875 60.5 
z
" id="Computer_Modern_Bright-116"/>
      <path d="M 12.703125 40.53125 
L 12.703125 47.15625 
L 6.40625 47.15625 
L 6.40625 -17 
L 12.796875 -17 
L 12.796875 6.09375 
C 14.203125 4.078125 15.796875 2.28125 17.90625 1.078125 
C 25 -3.25 34 0.171875 38.90625 6.59375 
C 45.40625 14.96875 46.09375 27.5 41.59375 36.984375 
C 39 42.4375 34.09375 47.5 27.796875 48 
C 22.296875 48 18.09375 45.8125 15.09375 43.125 
C 14.203125 42.328125 13.5 41.4375 12.703125 40.53125 
M 21.90625 42.875 
C 26 43.171875 30 41.265625 32.796875 38.265625 
C 34.5 36.34375 35.796875 34.140625 36.59375 31.734375 
C 40.09375 22.296875 36.90625 9.234375 26.796875 5.328125 
C 21 3.109375 15.296875 5.125 13.09375 10.546875 
C 12.59375 11.546875 12.796875 12.859375 12.796875 13.953125 
L 12.796875 34.640625 
C 12.796875 36.953125 13 37.15625 14.5 38.859375 
C 16.296875 41.0625 19 42.578125 21.90625 42.875 
" id="Computer_Modern_Bright-112"/>
      <path d="M 7.90625 39.015625 
C 9.59375 39.859375 11 41.09375 12.703125 41.921875 
C 15.40625 43.15625 18.203125 44 21.203125 44 
C 22.59375 44.09375 24.203125 44.296875 25.59375 44 
C 28.09375 43.59375 30.296875 42.078125 31.796875 39.953125 
C 33.296875 37.515625 33.90625 35.390625 33.90625 31.46875 
L 33.90625 27.015625 
C 29.09375 27.015625 24.296875 26.609375 19.703125 25.390625 
C 13.90625 24.078125 7.59375 21.125 5.5 15.84375 
C 3.40625 10.78125 5.59375 4.078125 10.09375 1.03125 
C 12.296875 -0.5 14.90625 -0.5 17.5 -0.296875 
C 21.703125 0 25.90625 1.015625 29.5 3.25 
C 31.203125 4.25 32.90625 5.578125 33.90625 7.296875 
L 34 7.296875 
L 34 0.203125 
L 40.296875 0.203125 
L 40.296875 26.890625 
C 40.296875 29.8125 40.59375 32.953125 40 35.890625 
C 39.40625 39.921875 36.90625 43.265625 34 45.59375 
C 30.59375 48.21875 26.703125 49.109375 21.5 48.71875 
C 16.703125 48.71875 13 47.5 9.40625 45.765625 
C 8.90625 45.5625 7.90625 45.234375 7.59375 44.640625 
C 7.296875 44.21875 7.5 43.515625 7.5 43 
C 7.703125 41.671875 7.796875 40.34375 7.90625 39.015625 
M 33.90625 24 
L 33.90625 16.375 
C 33.90625 14.0625 34 11.953125 32.703125 9.953125 
C 31.59375 8.34375 30.09375 7.234375 28.5 6.4375 
C 22.796875 3.515625 14.09375 4.421875 11.59375 9.25 
C 9.59375 12.75 11.703125 16.875 14.59375 19.1875 
C 18.90625 22.5 27.296875 24 33.90625 24 
" id="Computer_Modern_Bright-97"/>
      <path d="M 6.40625 69.6875 
L 6.40625 0 
L 12.703125 0 
L 12.703125 69.6875 
z
" id="Computer_Modern_Bright-108"/>
      <path d="M 6.40625 69.6875 
L 6.40625 0 
L 12.796875 0 
L 12.796875 21.984375 
C 12.796875 26.90625 12.5 31.9375 14.703125 36.546875 
C 15.796875 38.859375 17.5 40.875 19.796875 42.078125 
C 21.703125 42.984375 23.703125 42.984375 25.796875 42.78125 
C 28.796875 42.78125 31.703125 41.984375 33.59375 39.453125 
C 35.40625 37.140625 35.5 34.140625 35.5 31.3125 
L 35.5 0 
L 41.90625 0 
L 41.90625 27.21875 
C 41.90625 32.234375 42.40625 37.75 39.90625 42.28125 
C 37.90625 45.6875 34.40625 47.296875 30.703125 47.796875 
C 28.703125 48 26.703125 48 24.703125 47.703125 
C 21.09375 47.015625 18 45.03125 15.59375 42.34375 
C 14.5 41.046875 13.203125 39.46875 12.796875 37.765625 
L 12.703125 37.765625 
L 12.703125 69.6875 
z
" id="Computer_Modern_Bright-104"/>
      <path d="M 8 69.6875 
L 8 0 
L 15 0 
L 15 69.6875 
z
" id="Computer_Modern_Bright-73"/>
      <path d="M 8 69.328125 
L 8 0 
L 15 0 
L 15 32 
L 48.09375 32 
L 48.09375 37.3125 
L 15 37.3125 
L 15 64 
L 52.40625 64 
L 52.40625 69.328125 
z
" id="Computer_Modern_Bright-70"/>
     </defs>
     <g transform="translate(96.8533151439 257.913901118)scale(0.11 -0.11)">
      <use transform="scale(0.9962640099626402)" xlink:href="#Computer_Modern_Bright-77"/>
      <use transform="translate(85.09729748793588 0.0)scale(0.9962640099626402)" xlink:href="#Computer_Modern_Bright-101"/>
      <use transform="translate(129.92896511130138 0.0)scale(0.9962640099626402)" xlink:href="#Computer_Modern_Bright-97"/>
      <use transform="translate(176.42104741496732 0.0)scale(0.9962640099626402)" xlink:href="#Computer_Modern_Bright-110"/>
      <use transform="translate(256.0387560320673 0.0)scale(0.9962640099626402)" xlink:href="#Computer_Modern_Bright-111"/>
      <use transform="translate(306.6819738480698 0.0)scale(0.9962640099626402)" xlink:href="#Computer_Modern_Bright-102"/>
      <use transform="translate(368.4501296408002 0.0)scale(0.9962640099626402)" xlink:href="#Computer_Modern_Bright-82"/>
      <use transform="translate(432.1692517804328 0.0)scale(0.9962640099626402)" xlink:href="#Computer_Modern_Bright-70"/>
      <use transform="translate(488.0013091774985 0.0)scale(0.9962640099626402)" xlink:href="#Computer_Modern_Bright-85"/>
      <use transform="translate(553.5884415375934 0.0)scale(0.9962640099626402)" xlink:href="#Computer_Modern_Bright-47"/>
      <use transform="translate(604.231659353596 0.0)scale(0.9962640099626402)" xlink:href="#Computer_Modern_Bright-112"/>
      <use transform="translate(652.3841563375623 0.0)scale(0.9962640099626402)" xlink:href="#Computer_Modern_Bright-105"/>
      <use transform="translate(671.479115183297 0.0)scale(0.9962640099626402)" xlink:href="#Computer_Modern_Bright-120"/>
      <use transform="translate(713.8201531853207 0.0)scale(0.9962640099626402)" xlink:href="#Computer_Modern_Bright-101"/>
      <use transform="translate(758.6518208086862 0.0)scale(0.9962640099626402)" xlink:href="#Computer_Modern_Bright-108"/>
      <use transform="translate(777.746779654421 0.0)scale(0.9962640099626402)" xlink:href="#Computer_Modern_Bright-47"/>
      <use transform="translate(828.3899974704235 0.0)scale(0.9962640099626402)" xlink:href="#Computer_Modern_Bright-99"/>
      <use transform="translate(873.221665093789 0.0)scale(0.9962640099626402)" xlink:href="#Computer_Modern_Bright-101"/>
      <use transform="translate(918.0533327171545 0.0)scale(0.9962640099626402)" xlink:href="#Computer_Modern_Bright-108"/>
      <use transform="translate(937.1482915628893 0.0)scale(0.9962640099626402)" xlink:href="#Computer_Modern_Bright-108"/>
      <use transform="translate(987.7084620417576 0.0)scale(0.9962640099626402)" xlink:href="#Computer_Modern_Bright-105"/>
      <use transform="translate(1006.8034208874923 0.0)scale(0.9962640099626402)" xlink:href="#Computer_Modern_Bright-110"/>
      <use transform="translate(1086.4211295045923 0.0)scale(0.9962640099626402)" xlink:href="#Computer_Modern_Bright-116"/>
      <use transform="translate(1122.5355174443494 0.0)scale(0.9962640099626402)" xlink:href="#Computer_Modern_Bright-104"/>
      <use transform="translate(1170.688014428316 0.0)scale(0.9962640099626402)" xlink:href="#Computer_Modern_Bright-101"/>
      <use transform="translate(1246.9848936848148 0.0)scale(0.9962640099626402)" xlink:href="#Computer_Modern_Bright-82"/>
      <use transform="translate(1310.7040158244474 0.0)scale(0.9962640099626402)" xlink:href="#Computer_Modern_Bright-79"/>
      <use transform="translate(1386.2537274770393 0.0)scale(0.9962640099626402)" xlink:href="#Computer_Modern_Bright-73"/>
     </g>
    </g>
   </g>
   <g id="matplotlib.axis_2">
    <g id="ytick_1">
     <g id="line2d_13">
      <defs>
       <path d="M 0 0 
L 4 0 
" id="m45f6e73155" style="stroke:#000000;stroke-width:0.5;"/>
      </defs>
      <g>
       <use style="stroke:#000000;stroke-width:0.5;" x="39.4072994094" xlink:href="#m45f6e73155" y="214.068292683"/>
      </g>
     </g>
     <g id="line2d_14">
      <defs>
       <path d="M 0 0 
L -4 0 
" id="m2aa036e28e" style="stroke:#000000;stroke-width:0.5;"/>
      </defs>
      <g>
       <use style="stroke:#000000;stroke-width:0.5;" x="318.407299409" xlink:href="#m2aa036e28e" y="214.068292683"/>
      </g>
     </g>
     <g id="text_8">
      <!-- $15$ -->
      <defs>
       <path d="M 9.703125 60.015625 
L 9.703125 55 
C 15.203125 55 19 56 23.40625 57.90625 
L 23.40625 5.015625 
L 10.296875 5.015625 
L 10.296875 0 
L 43 0 
L 43 5.015625 
L 29.90625 5.015625 
L 29.90625 67 
C 27.5 67 27.90625 66.359375 26 64.875 
C 21.90625 61.71875 16.203125 60.015625 9.703125 60.015625 
" id="Computer_Modern_Bright-49"/>
      </defs>
      <g transform="translate(22.8544884175 217.223126181)scale(0.12 -0.12)">
       <use transform="scale(0.9962640099626402)" xlink:href="#Computer_Modern_Bright-49"/>
       <use transform="translate(50.6432178160025 0.0)scale(0.9962640099626402)" xlink:href="#Computer_Modern_Bright-53"/>
      </g>
     </g>
    </g>
    <g id="ytick_2">
     <g id="line2d_15">
      <g>
       <use style="stroke:#000000;stroke-width:0.5;" x="39.4072994094" xlink:href="#m45f6e73155" y="186.848780488"/>
      </g>
     </g>
     <g id="line2d_16">
      <g>
       <use style="stroke:#000000;stroke-width:0.5;" x="318.407299409" xlink:href="#m2aa036e28e" y="186.848780488"/>
      </g>
     </g>
     <g id="text_9">
      <!-- $20$ -->
      <defs>
       <path d="M 7.296875 45.96875 
C 8.703125 51.59375 11.09375 57.984375 16.796875 60.5 
C 19.203125 61.5 21.796875 61.703125 24.40625 61.5 
C 29.296875 61.09375 34.09375 59.09375 37.09375 55.09375 
C 39.296875 52.078125 40.09375 48.375 39.703125 44.78125 
C 38.5 34.34375 28.296875 26.84375 21.703125 21.234375 
C 17.90625 18.03125 7.09375 7.8125 7.09375 7.8125 
L 5.40625 6.203125 
C 4.5 5.3125 4.40625 5.3125 4.40625 3.5 
L 4.40625 0 
L 46.40625 0 
L 46.40625 5.625 
L 10.203125 5.625 
C 13.40625 8.734375 26.703125 20.515625 28.5 21.921875 
C 34.296875 26.65625 40.796875 31.375 44.296875 38.21875 
C 48.203125 46.0625 46.5 55.9375 39.90625 61.765625 
C 35.90625 65.296875 30.40625 67 25.09375 67 
C 20.203125 67 15.203125 66 11.296875 62.90625 
C 8.296875 60.390625 5.796875 56.6875 4.40625 52.875 
C 4.09375 52.28125 3.59375 51.28125 3.703125 50.578125 
C 3.796875 49.984375 4.40625 49.484375 4.703125 49.078125 
C 5.5 48.078125 6.296875 46.875 7.296875 45.96875 
" id="Computer_Modern_Bright-50"/>
      </defs>
      <g transform="translate(22.8544884175 190.003613986)scale(0.12 -0.12)">
       <use transform="scale(0.9962640099626402)" xlink:href="#Computer_Modern_Bright-50"/>
       <use transform="translate(50.6432178160025 0.0)scale(0.9962640099626402)" xlink:href="#Computer_Modern_Bright-48"/>
      </g>
     </g>
    </g>
    <g id="ytick_3">
     <g id="line2d_17">
      <g>
       <use style="stroke:#000000;stroke-width:0.5;" x="39.4072994094" xlink:href="#m45f6e73155" y="159.629268293"/>
      </g>
     </g>
     <g id="line2d_18">
      <g>
       <use style="stroke:#000000;stroke-width:0.5;" x="318.407299409" xlink:href="#m2aa036e28e" y="159.629268293"/>
      </g>
     </g>
     <g id="text_10">
      <!-- $25$ -->
      <g transform="translate(22.8544884175 162.784101791)scale(0.12 -0.12)">
       <use transform="scale(0.9962640099626402)" xlink:href="#Computer_Modern_Bright-50"/>
       <use transform="translate(50.6432178160025 0.0)scale(0.9962640099626402)" xlink:href="#Computer_Modern_Bright-53"/>
      </g>
     </g>
    </g>
    <g id="ytick_4">
     <g id="line2d_19">
      <g>
       <use style="stroke:#000000;stroke-width:0.5;" x="39.4072994094" xlink:href="#m45f6e73155" y="132.409756098"/>
      </g>
     </g>
     <g id="line2d_20">
      <g>
       <use style="stroke:#000000;stroke-width:0.5;" x="318.407299409" xlink:href="#m2aa036e28e" y="132.409756098"/>
      </g>
     </g>
     <g id="text_11">
      <!-- $30$ -->
      <defs>
       <path d="M 8.09375 50.71875 
C 8.90625 51.921875 9.5 53.234375 10.40625 54.4375 
C 12.5 57.25 15.40625 59.453125 18.703125 60.765625 
C 23.90625 62.875 31.5 62.875 35.59375 58.21875 
C 39.203125 54.078125 37.703125 47.609375 34.40625 43.78125 
C 31.40625 40.25 27.5 38.53125 21.703125 38.53125 
C 20 38.53125 18.40625 38.03125 16.703125 38.03125 
L 16.703125 33 
L 23.59375 33 
C 29.40625 33 33.203125 32.109375 36.40625 28.6875 
C 41.90625 22.859375 41.40625 12.515625 35.296875 7.203125 
C 32.203125 4.59375 27.90625 3.78125 23.90625 4.078125 
C 16.09375 4.6875 9.203125 8.8125 4.59375 15.234375 
C 4.09375 14.234375 4.09375 12.828125 3.90625 11.71875 
C 3.59375 10.109375 3.59375 10.109375 4.59375 8.8125 
C 7.5 4.890625 13.203125 1.28125 17.703125 -0.03125 
C 25.703125 -2.4375 35 -1.34375 41.203125 4.78125 
C 42.40625 6 43.5 7.296875 44.40625 8.703125 
C 48.09375 14.53125 48.203125 22.15625 44.09375 27.78125 
C 42.40625 30.09375 40.203125 31.90625 37.703125 33.3125 
C 36 34.3125 34 35.3125 32 35.515625 
C 37.796875 38.234375 43.203125 42.828125 44.203125 50.359375 
C 45.09375 57.375 41 61.6875 36.796875 64.1875 
C 30.296875 68 21.796875 68 15.09375 64.671875 
C 12 63.171875 9.203125 60.96875 7.09375 58.25 
C 6.703125 57.75 5.203125 56.046875 5.203125 55.234375 
C 5.203125 54.734375 5.59375 54.234375 5.90625 53.828125 
z
" id="Computer_Modern_Bright-51"/>
      </defs>
      <g transform="translate(22.8544884175 135.564589595)scale(0.12 -0.12)">
       <use transform="scale(0.9962640099626402)" xlink:href="#Computer_Modern_Bright-51"/>
       <use transform="translate(50.6432178160025 0.0)scale(0.9962640099626402)" xlink:href="#Computer_Modern_Bright-48"/>
      </g>
     </g>
    </g>
    <g id="ytick_5">
     <g id="line2d_21">
      <g>
       <use style="stroke:#000000;stroke-width:0.5;" x="39.4072994094" xlink:href="#m45f6e73155" y="105.190243902"/>
      </g>
     </g>
     <g id="line2d_22">
      <g>
       <use style="stroke:#000000;stroke-width:0.5;" x="318.407299409" xlink:href="#m2aa036e28e" y="105.190243902"/>
      </g>
     </g>
     <g id="text_12">
      <!-- $35$ -->
      <g transform="translate(22.8544884175 108.3450774)scale(0.12 -0.12)">
       <use transform="scale(0.9962640099626402)" xlink:href="#Computer_Modern_Bright-51"/>
       <use transform="translate(50.6432178160025 0.0)scale(0.9962640099626402)" xlink:href="#Computer_Modern_Bright-53"/>
      </g>
     </g>
    </g>
    <g id="ytick_6">
     <g id="line2d_23">
      <g>
       <use style="stroke:#000000;stroke-width:0.5;" x="39.4072994094" xlink:href="#m45f6e73155" y="77.9707317073"/>
      </g>
     </g>
     <g id="line2d_24">
      <g>
       <use style="stroke:#000000;stroke-width:0.5;" x="318.407299409" xlink:href="#m2aa036e28e" y="77.9707317073"/>
      </g>
     </g>
     <g id="text_13">
      <!-- $40$ -->
      <g transform="translate(22.8544884175 81.1255652052)scale(0.12 -0.12)">
       <use transform="scale(0.9962640099626402)" xlink:href="#Computer_Modern_Bright-52"/>
       <use transform="translate(50.6432178160025 0.0)scale(0.9962640099626402)" xlink:href="#Computer_Modern_Bright-48"/>
      </g>
     </g>
    </g>
    <g id="ytick_7">
     <g id="line2d_25">
      <g>
       <use style="stroke:#000000;stroke-width:0.5;" x="39.4072994094" xlink:href="#m45f6e73155" y="50.7512195122"/>
      </g>
     </g>
     <g id="line2d_26">
      <g>
       <use style="stroke:#000000;stroke-width:0.5;" x="318.407299409" xlink:href="#m2aa036e28e" y="50.7512195122"/>
      </g>
     </g>
     <g id="text_14">
      <!-- $45$ -->
      <g transform="translate(22.8544884175 53.9060530101)scale(0.12 -0.12)">
       <use transform="scale(0.9962640099626402)" xlink:href="#Computer_Modern_Bright-52"/>
       <use transform="translate(50.6432178160025 0.0)scale(0.9962640099626402)" xlink:href="#Computer_Modern_Bright-53"/>
      </g>
     </g>
    </g>
    <g id="ytick_8">
     <g id="line2d_27">
      <g>
       <use style="stroke:#000000;stroke-width:0.5;" x="39.4072994094" xlink:href="#m45f6e73155" y="23.5317073171"/>
      </g>
     </g>
     <g id="line2d_28">
      <g>
       <use style="stroke:#000000;stroke-width:0.5;" x="318.407299409" xlink:href="#m2aa036e28e" y="23.5317073171"/>
      </g>
     </g>
     <g id="text_15">
      <!-- $50$ -->
      <g transform="translate(22.8544884175 26.686540815)scale(0.12 -0.12)">
       <use transform="scale(0.9962640099626402)" xlink:href="#Computer_Modern_Bright-53"/>
       <use transform="translate(50.6432178160025 0.0)scale(0.9962640099626402)" xlink:href="#Computer_Modern_Bright-48"/>
      </g>
     </g>
    </g>
    <g id="text_16">
     <!-- Std of RFU/pixel/cell in the ROI -->
     <defs>
      <path d="M 5.09375 13.015625 
C 4.90625 11.390625 4.5 9.671875 4.296875 8.046875 
C 4.09375 6.53125 3.59375 6.109375 4.90625 5.3125 
C 8.296875 3.390625 11.203125 2.0625 15.40625 0.75 
C 24.796875 -2 35.59375 -2 43.796875 4.140625 
C 45.09375 5.140625 46.296875 6.234375 47.40625 7.53125 
C 49.90625 10.890625 52.203125 14.96875 51.59375 20.53125 
C 50.90625 27.671875 46.09375 33.625 39.59375 36.609375 
C 30.703125 40.578125 16.203125 40.578125 12.203125 49.375 
C 9.09375 56.1875 14.59375 62.171875 20.796875 64.375 
C 26.90625 66.6875 34.90625 65.78125 40.09375 63.375 
C 42.5 62.265625 44.5 60.65625 46.703125 59.25 
C 46.90625 60.96875 47.296875 62.578125 47.59375 64.28125 
C 47.796875 65.375 48.09375 66.390625 46.90625 66.78125 
L 45 67.796875 
C 42.296875 69 39.5 69.90625 36.59375 70.5 
C 27.59375 72.203125 17.203125 71.203125 10.40625 64.484375 
C 7 61.0625 4.09375 56.4375 5.296875 49.515625 
C 6.703125 42.390625 12.296875 37.875 18.09375 35.65625 
C 21.5 34.359375 25.296875 33.65625 28.90625 32.75 
C 31 32.34375 33.203125 31.84375 35.296875 31.140625 
C 40.703125 29.125 45.40625 25.109375 45.40625 17.6875 
C 44.796875 11.296875 39.203125 6.625 33.296875 5.203125 
C 25.703125 3.265625 16.703125 6.015625 11.5 8.75 
C 9.203125 9.96875 7.203125 11.59375 5.09375 13.015625 
" id="Computer_Modern_Bright-83"/>
      <path d="M 35.59375 69.6875 
L 35.59375 41.375 
C 33.703125 43.484375 31.796875 45.484375 29.203125 46.6875 
C 20.296875 50.40625 11.703125 45.59375 7.296875 37.65625 
C 2.203125 28.21875 2.796875 15.765625 8.90625 6.921875 
C 13.203125 0.796875 20.296875 -2.203125 27.796875 0.5 
C 30.703125 1.609375 34.203125 4.515625 35.40625 7.125 
L 35.5 7.125 
L 35.5 0 
L 41.90625 0 
L 41.90625 69.6875 
z
M 35.203125 37.453125 
C 35.703125 36.546875 35.5 35.34375 35.5 34.34375 
L 35.5 13.65625 
C 35.5 11.34375 35.40625 11.140625 34.09375 9.34375 
C 32.296875 6.625 29.5 4.71875 26.203125 4.421875 
C 21.40625 4.015625 16.5 6.328125 13.703125 10.25 
C 12.09375 12.546875 11.203125 15.359375 10.703125 18.171875 
C 10.5 19.28125 10.5 20.28125 10.40625 21.390625 
C 9.796875 28.015625 11.203125 35.84375 17 40.0625 
C 18 40.765625 19.09375 41.265625 20.203125 41.765625 
C 26 43.984375 32.40625 43.375 35.203125 37.453125 
" id="Computer_Modern_Bright-100"/>
     </defs>
     <g transform="translate(15.4191780822 196.036683847)rotate(-90.0)scale(0.11 -0.11)">
      <use transform="scale(0.9962640099626402)" xlink:href="#Computer_Modern_Bright-83"/>
      <use transform="translate(56.4547528068571 0.0)scale(0.9962640099626402)" xlink:href="#Computer_Modern_Bright-116"/>
      <use transform="translate(92.56914074661427 0.0)scale(0.9962640099626402)" xlink:href="#Computer_Modern_Bright-100"/>
      <use transform="translate(172.1868493637142 0.0)scale(0.9962640099626402)" xlink:href="#Computer_Modern_Bright-111"/>
      <use transform="translate(222.8300671797167 0.0)scale(0.9962640099626402)" xlink:href="#Computer_Modern_Bright-102"/>
      <use transform="translate(284.5982229724471 0.0)scale(0.9962640099626402)" xlink:href="#Computer_Modern_Bright-82"/>
      <use transform="translate(348.31734511207975 0.0)scale(0.9962640099626402)" xlink:href="#Computer_Modern_Bright-70"/>
      <use transform="translate(404.14940250914543 0.0)scale(0.9962640099626402)" xlink:href="#Computer_Modern_Bright-85"/>
      <use transform="translate(469.7365348692404 0.0)scale(0.9962640099626402)" xlink:href="#Computer_Modern_Bright-47"/>
      <use transform="translate(520.3797526852429 0.0)scale(0.9962640099626402)" xlink:href="#Computer_Modern_Bright-112"/>
      <use transform="translate(568.5322496692092 0.0)scale(0.9962640099626402)" xlink:href="#Computer_Modern_Bright-105"/>
      <use transform="translate(587.6272085149441 0.0)scale(0.9962640099626402)" xlink:href="#Computer_Modern_Bright-120"/>
      <use transform="translate(629.9682465169677 0.0)scale(0.9962640099626402)" xlink:href="#Computer_Modern_Bright-101"/>
      <use transform="translate(674.7999141403332 0.0)scale(0.9962640099626402)" xlink:href="#Computer_Modern_Bright-108"/>
      <use transform="translate(693.894872986068 0.0)scale(0.9962640099626402)" xlink:href="#Computer_Modern_Bright-47"/>
      <use transform="translate(744.5380908020704 0.0)scale(0.9962640099626402)" xlink:href="#Computer_Modern_Bright-99"/>
      <use transform="translate(789.369758425436 0.0)scale(0.9962640099626402)" xlink:href="#Computer_Modern_Bright-101"/>
      <use transform="translate(834.2014260488014 0.0)scale(0.9962640099626402)" xlink:href="#Computer_Modern_Bright-108"/>
      <use transform="translate(853.2963848945362 0.0)scale(0.9962640099626402)" xlink:href="#Computer_Modern_Bright-108"/>
      <use transform="translate(903.8565553734045 0.0)scale(0.9962640099626402)" xlink:href="#Computer_Modern_Bright-105"/>
      <use transform="translate(922.9515142191392 0.0)scale(0.9962640099626402)" xlink:href="#Computer_Modern_Bright-110"/>
      <use transform="translate(1002.5692228362392 0.0)scale(0.9962640099626402)" xlink:href="#Computer_Modern_Bright-116"/>
      <use transform="translate(1038.6836107759964 0.0)scale(0.9962640099626402)" xlink:href="#Computer_Modern_Bright-104"/>
      <use transform="translate(1086.8361077599627 0.0)scale(0.9962640099626402)" xlink:href="#Computer_Modern_Bright-101"/>
      <use transform="translate(1163.1329870164618 0.0)scale(0.9962640099626402)" xlink:href="#Computer_Modern_Bright-82"/>
      <use transform="translate(1226.8521091560945 0.0)scale(0.9962640099626402)" xlink:href="#Computer_Modern_Bright-79"/>
      <use transform="translate(1302.4018208086864 0.0)scale(0.9962640099626402)" xlink:href="#Computer_Modern_Bright-73"/>
     </g>
    </g>
   </g>
   <g id="text_17">
    <!-- X1Y1,W11 -->
    <defs>
     <path d="M 9.90625 7.828125 
L 9.90625 0 
L 12.296875 0 
L 9.796875 -11 
L 13.796875 -11 
C 15.09375 -7.34375 16.40625 -3.765625 17.59375 -0.09375 
C 17.703125 2.40625 17.703125 5.125 17.703125 7.828125 
z
" id="Computer_Modern_Bright-44"/>
     <path d="M -0.5 69.5 
L 20 39.859375 
C 22.796875 35.859375 25.59375 31.84375 28.296875 27.734375 
C 28.59375 18.734375 28.296875 9.203125 28.40625 0 
L 35.296875 0 
C 35.40625 9.203125 35.09375 18.734375 35.40625 27.734375 
L 36.296875 29.25 
L 64.203125 69.5 
C 61.703125 69.5 59.09375 69.5 56.796875 69.1875 
C 54.09375 66.1875 52.09375 62.515625 49.703125 59.3125 
C 44 50.921875 38 42.734375 32.40625 34.25 
L 32.203125 34.25 
C 26.703125 42.640625 20.796875 50.71875 15.09375 59.015625 
C 12.59375 62.40625 10.5 66.09375 7.796875 69.1875 
C 5.296875 69.5 2.296875 69.5 -0.5 69.5 
" id="Computer_Modern_Bright-89"/>
     <path d="M 0.703125 70 
L 21.296875 0 
L 28.296875 0 
C 33.296875 18.65625 43.5 50.140625 46.296875 63.578125 
L 46.40625 63.578125 
C 46.5 61.765625 47.09375 60.0625 47.5 58.375 
C 50 48.53125 59.09375 17.640625 59.09375 17.640625 
L 63.796875 1.90625 
C 63.90625 1.40625 64 0.703125 64.40625 0.3125 
C 64.703125 -0.203125 65.796875 0 66.296875 0 
L 71.59375 0 
L 92.203125 70 
C 90.203125 70 88 70 86.296875 69.6875 
L 85.796875 68.59375 
L 81.90625 55.484375 
C 77.40625 39.265625 72.203125 23.640625 68.203125 6.8125 
L 68.09375 6.8125 
C 67.90625 8.828125 67.203125 10.828125 66.703125 12.84375 
L 64 22.671875 
C 63 26.0625 50.5 69.296875 50.09375 69.703125 
C 49.796875 70.203125 48.796875 70 48.296875 70 
L 43.09375 70 
C 41.59375 64.484375 39.90625 59.171875 38.296875 53.75 
C 34 38.109375 29 23.0625 25.296875 6.8125 
L 24.40625 11.015625 
C 20.5 25.828125 7.796875 68.59375 7.796875 68.59375 
C 7.5 70 7.09375 70 5.40625 70 
z
" id="Computer_Modern_Bright-87"/>
     <path d="M 2.203125 69.6875 
C 8.203125 61.578125 14.5 53.765625 20.59375 45.75 
C 22.703125 42.75 25.296875 40.140625 27.296875 36.953125 
L 26.796875 35.9375 
L 3.296875 3.734375 
L 0.703125 0 
C 3.40625 0 6.203125 0 8.59375 0.296875 
L 9.296875 1.09375 
L 26 24.71875 
L 31 31.9375 
L 31.203125 31.9375 
L 33.5 28.734375 
C 40.59375 19.28125 47.296875 9.53125 54.59375 0.296875 
C 57.203125 0 60.09375 0 63 0 
L 42.203125 27.078125 
C 39.796875 30.40625 37 33.3125 34.90625 36.953125 
L 35.40625 37.84375 
L 52.703125 61.484375 
C 54.703125 64.1875 56.703125 66.890625 58.59375 69.6875 
C 56 69.6875 53.296875 69.6875 50.796875 69.6875 
L 50.203125 68.984375 
L 31.203125 42.46875 
L 31 42.46875 
L 28.90625 45.375 
L 16.203125 62.25 
C 14.203125 64.65625 12.59375 67.46875 10.5 69.6875 
C 7.796875 69.6875 5 69.6875 2.203125 69.6875 
" id="Computer_Modern_Bright-88"/>
    </defs>
    <g transform="translate(140.838639928 190.81607945)scale(0.07 -0.07)">
     <use transform="scale(0.9962640099626402)" xlink:href="#Computer_Modern_Bright-88"/>
     <use transform="translate(63.51161781016501 0.0)scale(0.9962640099626402)" xlink:href="#Computer_Modern_Bright-49"/>
     <use transform="translate(114.15483562616751 0.0)scale(0.9962640099626402)" xlink:href="#Computer_Modern_Bright-89"/>
     <use transform="translate(177.66645343633252 0.0)scale(0.9962640099626402)" xlink:href="#Computer_Modern_Bright-49"/>
     <use transform="translate(228.30967125233502 0.0)scale(0.9962640099626402)" xlink:href="#Computer_Modern_Bright-44"/>
     <use transform="translate(255.70679471026622 0.0)scale(0.9962640099626402)" xlink:href="#Computer_Modern_Bright-87"/>
     <use transform="translate(348.27595065866285 0.0)scale(0.9962640099626402)" xlink:href="#Computer_Modern_Bright-49"/>
     <use transform="translate(398.91916847466536 0.0)scale(0.9962640099626402)" xlink:href="#Computer_Modern_Bright-49"/>
    </g>
   </g>
   <g id="text_18">
    <!-- X1Y1,W12 -->
    <g transform="translate(238.871078264 98.0381977704)scale(0.07 -0.07)">
     <use transform="scale(0.9962640099626402)" xlink:href="#Computer_Modern_Bright-88"/>
     <use transform="translate(63.51161781016501 0.0)scale(0.9962640099626402)" xlink:href="#Computer_Modern_Bright-49"/>
     <use transform="translate(114.15483562616751 0.0)scale(0.9962640099626402)" xlink:href="#Computer_Modern_Bright-89"/>
     <use transform="translate(177.66645343633252 0.0)scale(0.9962640099626402)" xlink:href="#Computer_Modern_Bright-49"/>
     <use transform="translate(228.30967125233502 0.0)scale(0.9962640099626402)" xlink:href="#Computer_Modern_Bright-44"/>
     <use transform="translate(255.70679471026622 0.0)scale(0.9962640099626402)" xlink:href="#Computer_Modern_Bright-87"/>
     <use transform="translate(348.27595065866285 0.0)scale(0.9962640099626402)" xlink:href="#Computer_Modern_Bright-49"/>
     <use transform="translate(398.91916847466536 0.0)scale(0.9962640099626402)" xlink:href="#Computer_Modern_Bright-50"/>
    </g>
   </g>
   <g id="text_19">
    <!-- X1Y1,W4 -->
    <g transform="translate(177.765199859 138.896746209)scale(0.07 -0.07)">
     <use transform="scale(0.9962640099626402)" xlink:href="#Computer_Modern_Bright-88"/>
     <use transform="translate(63.51161781016501 0.0)scale(0.9962640099626402)" xlink:href="#Computer_Modern_Bright-49"/>
     <use transform="translate(114.15483562616751 0.0)scale(0.9962640099626402)" xlink:href="#Computer_Modern_Bright-89"/>
     <use transform="translate(177.66645343633252 0.0)scale(0.9962640099626402)" xlink:href="#Computer_Modern_Bright-49"/>
     <use transform="translate(228.30967125233502 0.0)scale(0.9962640099626402)" xlink:href="#Computer_Modern_Bright-44"/>
     <use transform="translate(255.70679471026622 0.0)scale(0.9962640099626402)" xlink:href="#Computer_Modern_Bright-87"/>
     <use transform="translate(348.27595065866285 0.0)scale(0.9962640099626402)" xlink:href="#Computer_Modern_Bright-52"/>
    </g>
   </g>
   <g id="text_20">
    <!-- X1Y1,W6 -->
    <g transform="translate(135.265318085 138.238255991)scale(0.07 -0.07)">
     <use transform="scale(0.9962640099626402)" xlink:href="#Computer_Modern_Bright-88"/>
     <use transform="translate(63.51161781016501 0.0)scale(0.9962640099626402)" xlink:href="#Computer_Modern_Bright-49"/>
     <use transform="translate(114.15483562616751 0.0)scale(0.9962640099626402)" xlink:href="#Computer_Modern_Bright-89"/>
     <use transform="translate(177.66645343633252 0.0)scale(0.9962640099626402)" xlink:href="#Computer_Modern_Bright-49"/>
     <use transform="translate(228.30967125233502 0.0)scale(0.9962640099626402)" xlink:href="#Computer_Modern_Bright-44"/>
     <use transform="translate(255.70679471026622 0.0)scale(0.9962640099626402)" xlink:href="#Computer_Modern_Bright-87"/>
     <use transform="translate(348.27595065866285 0.0)scale(0.9962640099626402)" xlink:href="#Computer_Modern_Bright-54"/>
    </g>
   </g>
   <g id="text_21">
    <!-- X1Y1,W8 -->
    <defs>
     <path d="M 18.703125 36 
L 18.703125 35.90625 
C 12.5 34.09375 7.296875 30.6875 4.796875 24.84375 
C 2.203125 18.71875 4 11.28125 8.40625 6.453125 
C 13.09375 1.421875 19.5 -1 26.296875 -1 
C 36.296875 -1 45.90625 6.40625 47.09375 16.734375 
C 47.296875 18.265625 47.203125 19.890625 47 21.40625 
C 45.203125 29.21875 39.5 33.875 32.09375 35.90625 
C 32.90625 36.203125 33.796875 36.40625 34.59375 36.703125 
C 38.796875 38.421875 42.296875 40.921875 44.5 44.9375 
C 47.796875 51.375 44.59375 58.90625 39.203125 63.015625 
C 33.796875 67.140625 26.5 68.234375 19.90625 66.828125 
C 12 65.125 4.5 58.40625 5 49.765625 
C 5.203125 46.75 6.5 44.234375 8 42.4375 
C 10.296875 39.625 14.796875 36.609375 18.703125 36 
M 23.796875 62.5 
C 28.203125 62.5 33.703125 62 36.90625 58.578125 
C 40.703125 54.46875 40.90625 47.03125 37.09375 42.8125 
C 34.703125 40.203125 31.203125 38.890625 27.703125 38.59375 
C 22.796875 38.1875 17.203125 39 13.703125 42.8125 
C 9.796875 47.125 10.09375 54.96875 14.296875 58.984375 
C 16.90625 61.390625 20.40625 62.1875 23.796875 62.5 
M 23.703125 33.5 
C 28.40625 33.5 33.5 32.390625 36.90625 28.9375 
C 38.203125 27.53125 39.203125 25.8125 39.796875 24.015625 
C 41.5 18.75 40.703125 12.09375 36.796875 8.046875 
C 34.09375 5.328125 30.40625 4.3125 26.703125 4.015625 
C 22.203125 4.015625 17 5.109375 13.796875 8.5625 
C 9.40625 13.390625 8.5 23.40625 13.703125 29.0625 
C 16.296875 31.78125 20 33.203125 23.703125 33.5 
" id="Computer_Modern_Bright-56"/>
    </defs>
    <g transform="translate(282.03157715 22.6476394965)scale(0.07 -0.07)">
     <use transform="scale(0.9962640099626402)" xlink:href="#Computer_Modern_Bright-88"/>
     <use transform="translate(63.51161781016501 0.0)scale(0.9962640099626402)" xlink:href="#Computer_Modern_Bright-49"/>
     <use transform="translate(114.15483562616751 0.0)scale(0.9962640099626402)" xlink:href="#Computer_Modern_Bright-89"/>
     <use transform="translate(177.66645343633252 0.0)scale(0.9962640099626402)" xlink:href="#Computer_Modern_Bright-49"/>
     <use transform="translate(228.30967125233502 0.0)scale(0.9962640099626402)" xlink:href="#Computer_Modern_Bright-44"/>
     <use transform="translate(255.70679471026622 0.0)scale(0.9962640099626402)" xlink:href="#Computer_Modern_Bright-87"/>
     <use transform="translate(348.27595065866285 0.0)scale(0.9962640099626402)" xlink:href="#Computer_Modern_Bright-56"/>
    </g>
   </g>
   <g id="text_22">
    <!-- X1Y1,W9 -->
    <defs>
     <path d="M 39.5 32.953125 
C 39.5 32.953125 39.59375 32.953125 39.59375 32.953125 
C 39.59375 31.75 39.5 30.4375 39.5 29.234375 
C 39.296875 21.296875 37.203125 11.90625 30.40625 6.9375 
C 28.40625 5.328125 25.296875 4 22.296875 4 
C 16.90625 3.203125 12.5 5.78125 9.40625 7.84375 
L 6.796875 3.203125 
C 11.09375 -0.125 17.59375 -2.625 25.203125 -0.921875 
C 32 0.578125 37.5 5.8125 40.90625 11.734375 
C 46.09375 20.859375 47.40625 31.796875 45.40625 44.53125 
C 44.09375 53.578125 40.203125 62.296875 32.09375 65.609375 
C 27.703125 67.421875 22.09375 67.421875 17.796875 65.515625 
C 13.59375 63.484375 10 59.96875 7.59375 56.03125 
C 5.40625 52.3125 4.59375 48.09375 4.59375 43.859375 
C 4.59375 40.234375 5 36.71875 6.203125 33.28125 
C 8.09375 28.546875 11.90625 23.109375 16.40625 21.609375 
C 18.09375 21 19.796875 21 21.59375 21 
C 26.90625 21 32 23.40625 35.703125 27.21875 
C 36.90625 28.4375 39 31.25 39.5 32.953125 
M 24.40625 62 
C 28.90625 62 33.296875 60.1875 35.90625 56.28125 
C 37.09375 54.375 37.796875 52.140625 38.296875 49.9375 
C 39.796875 44.109375 40 37.6875 36.703125 32.453125 
C 34.59375 29.125 30.796875 26.015625 26.203125 26.015625 
C 22.90625 26.015625 19.296875 26.421875 16.59375 28.515625 
C 12.59375 31.609375 11.203125 36.109375 11.203125 42.703125 
C 11.203125 48.59375 11.40625 53.203125 14.59375 57 
C 16.796875 60 19.59375 61.390625 24.40625 62 
" id="Computer_Modern_Bright-57"/>
    </defs>
    <g transform="translate(251.551207875 115.855308137)scale(0.07 -0.07)">
     <use transform="scale(0.9962640099626402)" xlink:href="#Computer_Modern_Bright-88"/>
     <use transform="translate(63.51161781016501 0.0)scale(0.9962640099626402)" xlink:href="#Computer_Modern_Bright-49"/>
     <use transform="translate(114.15483562616751 0.0)scale(0.9962640099626402)" xlink:href="#Computer_Modern_Bright-89"/>
     <use transform="translate(177.66645343633252 0.0)scale(0.9962640099626402)" xlink:href="#Computer_Modern_Bright-49"/>
     <use transform="translate(228.30967125233502 0.0)scale(0.9962640099626402)" xlink:href="#Computer_Modern_Bright-44"/>
     <use transform="translate(255.70679471026622 0.0)scale(0.9962640099626402)" xlink:href="#Computer_Modern_Bright-87"/>
     <use transform="translate(348.27595065866285 0.0)scale(0.9962640099626402)" xlink:href="#Computer_Modern_Bright-57"/>
    </g>
   </g>
   <g id="text_23">
    <!-- X1Y2,W11 -->
    <g transform="translate(101.360773004 187.281183712)scale(0.07 -0.07)">
     <use transform="scale(0.9962640099626402)" xlink:href="#Computer_Modern_Bright-88"/>
     <use transform="translate(63.51161781016501 0.0)scale(0.9962640099626402)" xlink:href="#Computer_Modern_Bright-49"/>
     <use transform="translate(114.15483562616751 0.0)scale(0.9962640099626402)" xlink:href="#Computer_Modern_Bright-89"/>
     <use transform="translate(177.66645343633252 0.0)scale(0.9962640099626402)" xlink:href="#Computer_Modern_Bright-50"/>
     <use transform="translate(228.30967125233502 0.0)scale(0.9962640099626402)" xlink:href="#Computer_Modern_Bright-44"/>
     <use transform="translate(255.70679471026622 0.0)scale(0.9962640099626402)" xlink:href="#Computer_Modern_Bright-87"/>
     <use transform="translate(348.27595065866285 0.0)scale(0.9962640099626402)" xlink:href="#Computer_Modern_Bright-49"/>
     <use transform="translate(398.91916847466536 0.0)scale(0.9962640099626402)" xlink:href="#Computer_Modern_Bright-49"/>
    </g>
   </g>
   <g id="text_24">
    <!-- X1Y2,W13 -->
    <g transform="translate(234.965723891 99.5645624626)scale(0.07 -0.07)">
     <use transform="scale(0.9962640099626402)" xlink:href="#Computer_Modern_Bright-88"/>
     <use transform="translate(63.51161781016501 0.0)scale(0.9962640099626402)" xlink:href="#Computer_Modern_Bright-49"/>
     <use transform="translate(114.15483562616751 0.0)scale(0.9962640099626402)" xlink:href="#Computer_Modern_Bright-89"/>
     <use transform="translate(177.66645343633252 0.0)scale(0.9962640099626402)" xlink:href="#Computer_Modern_Bright-50"/>
     <use transform="translate(228.30967125233502 0.0)scale(0.9962640099626402)" xlink:href="#Computer_Modern_Bright-44"/>
     <use transform="translate(255.70679471026622 0.0)scale(0.9962640099626402)" xlink:href="#Computer_Modern_Bright-87"/>
     <use transform="translate(348.27595065866285 0.0)scale(0.9962640099626402)" xlink:href="#Computer_Modern_Bright-49"/>
     <use transform="translate(398.91916847466536 0.0)scale(0.9962640099626402)" xlink:href="#Computer_Modern_Bright-51"/>
    </g>
   </g>
   <g id="text_25">
    <!-- X1Y2,W3 -->
    <g transform="translate(66.2990519779 202.912868434)scale(0.07 -0.07)">
     <use transform="scale(0.9962640099626402)" xlink:href="#Computer_Modern_Bright-88"/>
     <use transform="translate(63.51161781016501 0.0)scale(0.9962640099626402)" xlink:href="#Computer_Modern_Bright-49"/>
     <use transform="translate(114.15483562616751 0.0)scale(0.9962640099626402)" xlink:href="#Computer_Modern_Bright-89"/>
     <use transform="translate(177.66645343633252 0.0)scale(0.9962640099626402)" xlink:href="#Computer_Modern_Bright-50"/>
     <use transform="translate(228.30967125233502 0.0)scale(0.9962640099626402)" xlink:href="#Computer_Modern_Bright-44"/>
     <use transform="translate(255.70679471026622 0.0)scale(0.9962640099626402)" xlink:href="#Computer_Modern_Bright-87"/>
     <use transform="translate(348.27595065866285 0.0)scale(0.9962640099626402)" xlink:href="#Computer_Modern_Bright-51"/>
    </g>
   </g>
   <g id="text_26">
    <!-- X1Y2,W6 -->
    <g transform="translate(239.254107711 33.9188305306)scale(0.07 -0.07)">
     <use transform="scale(0.9962640099626402)" xlink:href="#Computer_Modern_Bright-88"/>
     <use transform="translate(63.51161781016501 0.0)scale(0.9962640099626402)" xlink:href="#Computer_Modern_Bright-49"/>
     <use transform="translate(114.15483562616751 0.0)scale(0.9962640099626402)" xlink:href="#Computer_Modern_Bright-89"/>
     <use transform="translate(177.66645343633252 0.0)scale(0.9962640099626402)" xlink:href="#Computer_Modern_Bright-50"/>
     <use transform="translate(228.30967125233502 0.0)scale(0.9962640099626402)" xlink:href="#Computer_Modern_Bright-44"/>
     <use transform="translate(255.70679471026622 0.0)scale(0.9962640099626402)" xlink:href="#Computer_Modern_Bright-87"/>
     <use transform="translate(348.27595065866285 0.0)scale(0.9962640099626402)" xlink:href="#Computer_Modern_Bright-54"/>
    </g>
   </g>
   <g id="text_27">
    <!-- X1Y2,W7 -->
    <defs>
     <path d="M 3.59375 65.625 
L 3.59375 60 
L 42.796875 60 
L 39.09375 56.375 
C 35.796875 52.859375 32.796875 49.125 30.09375 45.109375 
C 21.09375 31.515625 16.203125 15.3125 16.203125 -1 
L 22.90625 -1 
C 22.90625 13.703125 26.59375 28.390625 33.59375 41.375 
C 37 47.921875 40.59375 52.640625 45.296875 58.171875 
C 45.90625 58.78125 46.796875 59.484375 47.09375 60.28125 
C 47.296875 60.78125 47.203125 61.484375 47.203125 62.109375 
L 47.203125 65.625 
z
" id="Computer_Modern_Bright-55"/>
    </defs>
    <g transform="translate(208.420176687 133.583173598)scale(0.07 -0.07)">
     <use transform="scale(0.9962640099626402)" xlink:href="#Computer_Modern_Bright-88"/>
     <use transform="translate(63.51161781016501 0.0)scale(0.9962640099626402)" xlink:href="#Computer_Modern_Bright-49"/>
     <use transform="translate(114.15483562616751 0.0)scale(0.9962640099626402)" xlink:href="#Computer_Modern_Bright-89"/>
     <use transform="translate(177.66645343633252 0.0)scale(0.9962640099626402)" xlink:href="#Computer_Modern_Bright-50"/>
     <use transform="translate(228.30967125233502 0.0)scale(0.9962640099626402)" xlink:href="#Computer_Modern_Bright-44"/>
     <use transform="translate(255.70679471026622 0.0)scale(0.9962640099626402)" xlink:href="#Computer_Modern_Bright-87"/>
     <use transform="translate(348.27595065866285 0.0)scale(0.9962640099626402)" xlink:href="#Computer_Modern_Bright-55"/>
    </g>
   </g>
   <g id="text_28">
    <!-- X1Y2,W8 -->
    <g transform="translate(192.787641803 164.732902824)scale(0.07 -0.07)">
     <use transform="scale(0.9962640099626402)" xlink:href="#Computer_Modern_Bright-88"/>
     <use transform="translate(63.51161781016501 0.0)scale(0.9962640099626402)" xlink:href="#Computer_Modern_Bright-49"/>
     <use transform="translate(114.15483562616751 0.0)scale(0.9962640099626402)" xlink:href="#Computer_Modern_Bright-89"/>
     <use transform="translate(177.66645343633252 0.0)scale(0.9962640099626402)" xlink:href="#Computer_Modern_Bright-50"/>
     <use transform="translate(228.30967125233502 0.0)scale(0.9962640099626402)" xlink:href="#Computer_Modern_Bright-44"/>
     <use transform="translate(255.70679471026622 0.0)scale(0.9962640099626402)" xlink:href="#Computer_Modern_Bright-87"/>
     <use transform="translate(348.27595065866285 0.0)scale(0.9962640099626402)" xlink:href="#Computer_Modern_Bright-56"/>
    </g>
   </g>
   <g id="text_29">
    <!-- X2Y1,W0 -->
    <g transform="translate(102.356239115 179.901753938)scale(0.07 -0.07)">
     <use transform="scale(0.9962640099626402)" xlink:href="#Computer_Modern_Bright-88"/>
     <use transform="translate(63.51161781016501 0.0)scale(0.9962640099626402)" xlink:href="#Computer_Modern_Bright-50"/>
     <use transform="translate(114.15483562616751 0.0)scale(0.9962640099626402)" xlink:href="#Computer_Modern_Bright-89"/>
     <use transform="translate(177.66645343633252 0.0)scale(0.9962640099626402)" xlink:href="#Computer_Modern_Bright-49"/>
     <use transform="translate(228.30967125233502 0.0)scale(0.9962640099626402)" xlink:href="#Computer_Modern_Bright-44"/>
     <use transform="translate(255.70679471026622 0.0)scale(0.9962640099626402)" xlink:href="#Computer_Modern_Bright-87"/>
     <use transform="translate(348.27595065866285 0.0)scale(0.9962640099626402)" xlink:href="#Computer_Modern_Bright-48"/>
    </g>
   </g>
   <g id="text_30">
    <!-- X2Y1,W1 -->
    <g transform="translate(122.725877477 65.4731117575)scale(0.07 -0.07)">
     <use transform="scale(0.9962640099626402)" xlink:href="#Computer_Modern_Bright-88"/>
     <use transform="translate(63.51161781016501 0.0)scale(0.9962640099626402)" xlink:href="#Computer_Modern_Bright-50"/>
     <use transform="translate(114.15483562616751 0.0)scale(0.9962640099626402)" xlink:href="#Computer_Modern_Bright-89"/>
     <use transform="translate(177.66645343633252 0.0)scale(0.9962640099626402)" xlink:href="#Computer_Modern_Bright-49"/>
     <use transform="translate(228.30967125233502 0.0)scale(0.9962640099626402)" xlink:href="#Computer_Modern_Bright-44"/>
     <use transform="translate(255.70679471026622 0.0)scale(0.9962640099626402)" xlink:href="#Computer_Modern_Bright-87"/>
     <use transform="translate(348.27595065866285 0.0)scale(0.9962640099626402)" xlink:href="#Computer_Modern_Bright-49"/>
    </g>
   </g>
   <g id="text_31">
    <!-- X2Y1,W11 -->
    <g transform="translate(234.250067804 132.753532376)scale(0.07 -0.07)">
     <use transform="scale(0.9962640099626402)" xlink:href="#Computer_Modern_Bright-88"/>
     <use transform="translate(63.51161781016501 0.0)scale(0.9962640099626402)" xlink:href="#Computer_Modern_Bright-50"/>
     <use transform="translate(114.15483562616751 0.0)scale(0.9962640099626402)" xlink:href="#Computer_Modern_Bright-89"/>
     <use transform="translate(177.66645343633252 0.0)scale(0.9962640099626402)" xlink:href="#Computer_Modern_Bright-49"/>
     <use transform="translate(228.30967125233502 0.0)scale(0.9962640099626402)" xlink:href="#Computer_Modern_Bright-44"/>
     <use transform="translate(255.70679471026622 0.0)scale(0.9962640099626402)" xlink:href="#Computer_Modern_Bright-87"/>
     <use transform="translate(348.27595065866285 0.0)scale(0.9962640099626402)" xlink:href="#Computer_Modern_Bright-49"/>
     <use transform="translate(398.91916847466536 0.0)scale(0.9962640099626402)" xlink:href="#Computer_Modern_Bright-49"/>
    </g>
   </g>
   <g id="text_32">
    <!-- X2Y1,W12 -->
    <g transform="translate(229.324208946 126.01986531)scale(0.07 -0.07)">
     <use transform="scale(0.9962640099626402)" xlink:href="#Computer_Modern_Bright-88"/>
     <use transform="translate(63.51161781016501 0.0)scale(0.9962640099626402)" xlink:href="#Computer_Modern_Bright-50"/>
     <use transform="translate(114.15483562616751 0.0)scale(0.9962640099626402)" xlink:href="#Computer_Modern_Bright-89"/>
     <use transform="translate(177.66645343633252 0.0)scale(0.9962640099626402)" xlink:href="#Computer_Modern_Bright-49"/>
     <use transform="translate(228.30967125233502 0.0)scale(0.9962640099626402)" xlink:href="#Computer_Modern_Bright-44"/>
     <use transform="translate(255.70679471026622 0.0)scale(0.9962640099626402)" xlink:href="#Computer_Modern_Bright-87"/>
     <use transform="translate(348.27595065866285 0.0)scale(0.9962640099626402)" xlink:href="#Computer_Modern_Bright-49"/>
     <use transform="translate(398.91916847466536 0.0)scale(0.9962640099626402)" xlink:href="#Computer_Modern_Bright-50"/>
    </g>
   </g>
   <g id="text_33">
    <!-- X2Y1,W2 -->
    <g transform="translate(121.392279043 162.35191665)scale(0.07 -0.07)">
     <use transform="scale(0.9962640099626402)" xlink:href="#Computer_Modern_Bright-88"/>
     <use transform="translate(63.51161781016501 0.0)scale(0.9962640099626402)" xlink:href="#Computer_Modern_Bright-50"/>
     <use transform="translate(114.15483562616751 0.0)scale(0.9962640099626402)" xlink:href="#Computer_Modern_Bright-89"/>
     <use transform="translate(177.66645343633252 0.0)scale(0.9962640099626402)" xlink:href="#Computer_Modern_Bright-49"/>
     <use transform="translate(228.30967125233502 0.0)scale(0.9962640099626402)" xlink:href="#Computer_Modern_Bright-44"/>
     <use transform="translate(255.70679471026622 0.0)scale(0.9962640099626402)" xlink:href="#Computer_Modern_Bright-87"/>
     <use transform="translate(348.27595065866285 0.0)scale(0.9962640099626402)" xlink:href="#Computer_Modern_Bright-50"/>
    </g>
   </g>
   <g id="text_34">
    <!-- X2Y1,W3 -->
    <g transform="translate(50.1296151823 192.964083647)scale(0.07 -0.07)">
     <use transform="scale(0.9962640099626402)" xlink:href="#Computer_Modern_Bright-88"/>
     <use transform="translate(63.51161781016501 0.0)scale(0.9962640099626402)" xlink:href="#Computer_Modern_Bright-50"/>
     <use transform="translate(114.15483562616751 0.0)scale(0.9962640099626402)" xlink:href="#Computer_Modern_Bright-89"/>
     <use transform="translate(177.66645343633252 0.0)scale(0.9962640099626402)" xlink:href="#Computer_Modern_Bright-49"/>
     <use transform="translate(228.30967125233502 0.0)scale(0.9962640099626402)" xlink:href="#Computer_Modern_Bright-44"/>
     <use transform="translate(255.70679471026622 0.0)scale(0.9962640099626402)" xlink:href="#Computer_Modern_Bright-87"/>
     <use transform="translate(348.27595065866285 0.0)scale(0.9962640099626402)" xlink:href="#Computer_Modern_Bright-51"/>
    </g>
   </g>
   <g id="text_35">
    <!-- X2Y1,W5 -->
    <g transform="translate(150.013489418 203.507946367)scale(0.07 -0.07)">
     <use transform="scale(0.9962640099626402)" xlink:href="#Computer_Modern_Bright-88"/>
     <use transform="translate(63.51161781016501 0.0)scale(0.9962640099626402)" xlink:href="#Computer_Modern_Bright-50"/>
     <use transform="translate(114.15483562616751 0.0)scale(0.9962640099626402)" xlink:href="#Computer_Modern_Bright-89"/>
     <use transform="translate(177.66645343633252 0.0)scale(0.9962640099626402)" xlink:href="#Computer_Modern_Bright-49"/>
     <use transform="translate(228.30967125233502 0.0)scale(0.9962640099626402)" xlink:href="#Computer_Modern_Bright-44"/>
     <use transform="translate(255.70679471026622 0.0)scale(0.9962640099626402)" xlink:href="#Computer_Modern_Bright-87"/>
     <use transform="translate(348.27595065866285 0.0)scale(0.9962640099626402)" xlink:href="#Computer_Modern_Bright-53"/>
    </g>
   </g>
   <g id="text_36">
    <!-- X2Y1,W6 -->
    <g transform="translate(145.347287615 168.509966682)scale(0.07 -0.07)">
     <use transform="scale(0.9962640099626402)" xlink:href="#Computer_Modern_Bright-88"/>
     <use transform="translate(63.51161781016501 0.0)scale(0.9962640099626402)" xlink:href="#Computer_Modern_Bright-50"/>
     <use transform="translate(114.15483562616751 0.0)scale(0.9962640099626402)" xlink:href="#Computer_Modern_Bright-89"/>
     <use transform="translate(177.66645343633252 0.0)scale(0.9962640099626402)" xlink:href="#Computer_Modern_Bright-49"/>
     <use transform="translate(228.30967125233502 0.0)scale(0.9962640099626402)" xlink:href="#Computer_Modern_Bright-44"/>
     <use transform="translate(255.70679471026622 0.0)scale(0.9962640099626402)" xlink:href="#Computer_Modern_Bright-87"/>
     <use transform="translate(348.27595065866285 0.0)scale(0.9962640099626402)" xlink:href="#Computer_Modern_Bright-54"/>
    </g>
   </g>
   <g id="text_37">
    <!-- X2Y1,W7 -->
    <g transform="translate(158.643842369 108.322289016)scale(0.07 -0.07)">
     <use transform="scale(0.9962640099626402)" xlink:href="#Computer_Modern_Bright-88"/>
     <use transform="translate(63.51161781016501 0.0)scale(0.9962640099626402)" xlink:href="#Computer_Modern_Bright-50"/>
     <use transform="translate(114.15483562616751 0.0)scale(0.9962640099626402)" xlink:href="#Computer_Modern_Bright-89"/>
     <use transform="translate(177.66645343633252 0.0)scale(0.9962640099626402)" xlink:href="#Computer_Modern_Bright-49"/>
     <use transform="translate(228.30967125233502 0.0)scale(0.9962640099626402)" xlink:href="#Computer_Modern_Bright-44"/>
     <use transform="translate(255.70679471026622 0.0)scale(0.9962640099626402)" xlink:href="#Computer_Modern_Bright-87"/>
     <use transform="translate(348.27595065866285 0.0)scale(0.9962640099626402)" xlink:href="#Computer_Modern_Bright-55"/>
    </g>
   </g>
   <g id="text_38">
    <!-- X2Y1,W8 -->
    <g transform="translate(141.926733283 146.606422971)scale(0.07 -0.07)">
     <use transform="scale(0.9962640099626402)" xlink:href="#Computer_Modern_Bright-88"/>
     <use transform="translate(63.51161781016501 0.0)scale(0.9962640099626402)" xlink:href="#Computer_Modern_Bright-50"/>
     <use transform="translate(114.15483562616751 0.0)scale(0.9962640099626402)" xlink:href="#Computer_Modern_Bright-89"/>
     <use transform="translate(177.66645343633252 0.0)scale(0.9962640099626402)" xlink:href="#Computer_Modern_Bright-49"/>
     <use transform="translate(228.30967125233502 0.0)scale(0.9962640099626402)" xlink:href="#Computer_Modern_Bright-44"/>
     <use transform="translate(255.70679471026622 0.0)scale(0.9962640099626402)" xlink:href="#Computer_Modern_Bright-87"/>
     <use transform="translate(348.27595065866285 0.0)scale(0.9962640099626402)" xlink:href="#Computer_Modern_Bright-56"/>
    </g>
   </g>
   <g id="text_39">
    <!-- X2Y2,W0 -->
    <g transform="translate(84.7956690669 191.580966232)scale(0.07 -0.07)">
     <use transform="scale(0.9962640099626402)" xlink:href="#Computer_Modern_Bright-88"/>
     <use transform="translate(63.51161781016501 0.0)scale(0.9962640099626402)" xlink:href="#Computer_Modern_Bright-50"/>
     <use transform="translate(114.15483562616751 0.0)scale(0.9962640099626402)" xlink:href="#Computer_Modern_Bright-89"/>
     <use transform="translate(177.66645343633252 0.0)scale(0.9962640099626402)" xlink:href="#Computer_Modern_Bright-50"/>
     <use transform="translate(228.30967125233502 0.0)scale(0.9962640099626402)" xlink:href="#Computer_Modern_Bright-44"/>
     <use transform="translate(255.70679471026622 0.0)scale(0.9962640099626402)" xlink:href="#Computer_Modern_Bright-87"/>
     <use transform="translate(348.27595065866285 0.0)scale(0.9962640099626402)" xlink:href="#Computer_Modern_Bright-48"/>
    </g>
   </g>
   <g id="text_40">
    <!-- X2Y2,W10 -->
    <g transform="translate(108.938456018 207.827950345)scale(0.07 -0.07)">
     <use transform="scale(0.9962640099626402)" xlink:href="#Computer_Modern_Bright-88"/>
     <use transform="translate(63.51161781016501 0.0)scale(0.9962640099626402)" xlink:href="#Computer_Modern_Bright-50"/>
     <use transform="translate(114.15483562616751 0.0)scale(0.9962640099626402)" xlink:href="#Computer_Modern_Bright-89"/>
     <use transform="translate(177.66645343633252 0.0)scale(0.9962640099626402)" xlink:href="#Computer_Modern_Bright-50"/>
     <use transform="translate(228.30967125233502 0.0)scale(0.9962640099626402)" xlink:href="#Computer_Modern_Bright-44"/>
     <use transform="translate(255.70679471026622 0.0)scale(0.9962640099626402)" xlink:href="#Computer_Modern_Bright-87"/>
     <use transform="translate(348.27595065866285 0.0)scale(0.9962640099626402)" xlink:href="#Computer_Modern_Bright-49"/>
     <use transform="translate(398.91916847466536 0.0)scale(0.9962640099626402)" xlink:href="#Computer_Modern_Bright-48"/>
    </g>
   </g>
   <g id="text_41">
    <!-- X2Y2,W13 -->
    <g transform="translate(154.30580374 215.165090446)scale(0.07 -0.07)">
     <use transform="scale(0.9962640099626402)" xlink:href="#Computer_Modern_Bright-88"/>
     <use transform="translate(63.51161781016501 0.0)scale(0.9962640099626402)" xlink:href="#Computer_Modern_Bright-50"/>
     <use transform="translate(114.15483562616751 0.0)scale(0.9962640099626402)" xlink:href="#Computer_Modern_Bright-89"/>
     <use transform="translate(177.66645343633252 0.0)scale(0.9962640099626402)" xlink:href="#Computer_Modern_Bright-50"/>
     <use transform="translate(228.30967125233502 0.0)scale(0.9962640099626402)" xlink:href="#Computer_Modern_Bright-44"/>
     <use transform="translate(255.70679471026622 0.0)scale(0.9962640099626402)" xlink:href="#Computer_Modern_Bright-87"/>
     <use transform="translate(348.27595065866285 0.0)scale(0.9962640099626402)" xlink:href="#Computer_Modern_Bright-49"/>
     <use transform="translate(398.91916847466536 0.0)scale(0.9962640099626402)" xlink:href="#Computer_Modern_Bright-51"/>
    </g>
   </g>
   <g id="text_42">
    <!-- X2Y2,W2 -->
    <g transform="translate(115.71391757 182.273990568)scale(0.07 -0.07)">
     <use transform="scale(0.9962640099626402)" xlink:href="#Computer_Modern_Bright-88"/>
     <use transform="translate(63.51161781016501 0.0)scale(0.9962640099626402)" xlink:href="#Computer_Modern_Bright-50"/>
     <use transform="translate(114.15483562616751 0.0)scale(0.9962640099626402)" xlink:href="#Computer_Modern_Bright-89"/>
     <use transform="translate(177.66645343633252 0.0)scale(0.9962640099626402)" xlink:href="#Computer_Modern_Bright-50"/>
     <use transform="translate(228.30967125233502 0.0)scale(0.9962640099626402)" xlink:href="#Computer_Modern_Bright-44"/>
     <use transform="translate(255.70679471026622 0.0)scale(0.9962640099626402)" xlink:href="#Computer_Modern_Bright-87"/>
     <use transform="translate(348.27595065866285 0.0)scale(0.9962640099626402)" xlink:href="#Computer_Modern_Bright-50"/>
    </g>
   </g>
   <g id="text_43">
    <!-- X2Y2,W3 -->
    <g transform="translate(51.5071447139 151.409347492)scale(0.07 -0.07)">
     <use transform="scale(0.9962640099626402)" xlink:href="#Computer_Modern_Bright-88"/>
     <use transform="translate(63.51161781016501 0.0)scale(0.9962640099626402)" xlink:href="#Computer_Modern_Bright-50"/>
     <use transform="translate(114.15483562616751 0.0)scale(0.9962640099626402)" xlink:href="#Computer_Modern_Bright-89"/>
     <use transform="translate(177.66645343633252 0.0)scale(0.9962640099626402)" xlink:href="#Computer_Modern_Bright-50"/>
     <use transform="translate(228.30967125233502 0.0)scale(0.9962640099626402)" xlink:href="#Computer_Modern_Bright-44"/>
     <use transform="translate(255.70679471026622 0.0)scale(0.9962640099626402)" xlink:href="#Computer_Modern_Bright-87"/>
     <use transform="translate(348.27595065866285 0.0)scale(0.9962640099626402)" xlink:href="#Computer_Modern_Bright-51"/>
    </g>
   </g>
   <g id="text_44">
    <!-- X2Y2,W4 -->
    <g transform="translate(95.6054694924 162.726893792)scale(0.07 -0.07)">
     <use transform="scale(0.9962640099626402)" xlink:href="#Computer_Modern_Bright-88"/>
     <use transform="translate(63.51161781016501 0.0)scale(0.9962640099626402)" xlink:href="#Computer_Modern_Bright-50"/>
     <use transform="translate(114.15483562616751 0.0)scale(0.9962640099626402)" xlink:href="#Computer_Modern_Bright-89"/>
     <use transform="translate(177.66645343633252 0.0)scale(0.9962640099626402)" xlink:href="#Computer_Modern_Bright-50"/>
     <use transform="translate(228.30967125233502 0.0)scale(0.9962640099626402)" xlink:href="#Computer_Modern_Bright-44"/>
     <use transform="translate(255.70679471026622 0.0)scale(0.9962640099626402)" xlink:href="#Computer_Modern_Bright-87"/>
     <use transform="translate(348.27595065866285 0.0)scale(0.9962640099626402)" xlink:href="#Computer_Modern_Bright-52"/>
    </g>
   </g>
   <g id="text_45">
    <!-- X2Y2,W5 -->
    <g transform="translate(144.488820268 162.907077905)scale(0.07 -0.07)">
     <use transform="scale(0.9962640099626402)" xlink:href="#Computer_Modern_Bright-88"/>
     <use transform="translate(63.51161781016501 0.0)scale(0.9962640099626402)" xlink:href="#Computer_Modern_Bright-50"/>
     <use transform="translate(114.15483562616751 0.0)scale(0.9962640099626402)" xlink:href="#Computer_Modern_Bright-89"/>
     <use transform="translate(177.66645343633252 0.0)scale(0.9962640099626402)" xlink:href="#Computer_Modern_Bright-50"/>
     <use transform="translate(228.30967125233502 0.0)scale(0.9962640099626402)" xlink:href="#Computer_Modern_Bright-44"/>
     <use transform="translate(255.70679471026622 0.0)scale(0.9962640099626402)" xlink:href="#Computer_Modern_Bright-87"/>
     <use transform="translate(348.27595065866285 0.0)scale(0.9962640099626402)" xlink:href="#Computer_Modern_Bright-53"/>
    </g>
   </g>
   <g id="text_46">
    <!-- X2Y2,W6 -->
    <g transform="translate(119.523910979 109.464262159)scale(0.07 -0.07)">
     <use transform="scale(0.9962640099626402)" xlink:href="#Computer_Modern_Bright-88"/>
     <use transform="translate(63.51161781016501 0.0)scale(0.9962640099626402)" xlink:href="#Computer_Modern_Bright-50"/>
     <use transform="translate(114.15483562616751 0.0)scale(0.9962640099626402)" xlink:href="#Computer_Modern_Bright-89"/>
     <use transform="translate(177.66645343633252 0.0)scale(0.9962640099626402)" xlink:href="#Computer_Modern_Bright-50"/>
     <use transform="translate(228.30967125233502 0.0)scale(0.9962640099626402)" xlink:href="#Computer_Modern_Bright-44"/>
     <use transform="translate(255.70679471026622 0.0)scale(0.9962640099626402)" xlink:href="#Computer_Modern_Bright-87"/>
     <use transform="translate(348.27595065866285 0.0)scale(0.9962640099626402)" xlink:href="#Computer_Modern_Bright-54"/>
    </g>
   </g>
   <g id="text_47">
    <!-- X3Y1,W1 -->
    <g transform="translate(180.649571734 64.0449463894)scale(0.07 -0.07)">
     <use transform="scale(0.9962640099626402)" xlink:href="#Computer_Modern_Bright-88"/>
     <use transform="translate(63.51161781016501 0.0)scale(0.9962640099626402)" xlink:href="#Computer_Modern_Bright-51"/>
     <use transform="translate(114.15483562616751 0.0)scale(0.9962640099626402)" xlink:href="#Computer_Modern_Bright-89"/>
     <use transform="translate(177.66645343633252 0.0)scale(0.9962640099626402)" xlink:href="#Computer_Modern_Bright-49"/>
     <use transform="translate(228.30967125233502 0.0)scale(0.9962640099626402)" xlink:href="#Computer_Modern_Bright-44"/>
     <use transform="translate(255.70679471026622 0.0)scale(0.9962640099626402)" xlink:href="#Computer_Modern_Bright-87"/>
     <use transform="translate(348.27595065866285 0.0)scale(0.9962640099626402)" xlink:href="#Computer_Modern_Bright-49"/>
    </g>
   </g>
   <g id="text_48">
    <!-- X3Y1,W11 -->
    <g transform="translate(109.950533004 211.759547956)scale(0.07 -0.07)">
     <use transform="scale(0.9962640099626402)" xlink:href="#Computer_Modern_Bright-88"/>
     <use transform="translate(63.51161781016501 0.0)scale(0.9962640099626402)" xlink:href="#Computer_Modern_Bright-51"/>
     <use transform="translate(114.15483562616751 0.0)scale(0.9962640099626402)" xlink:href="#Computer_Modern_Bright-89"/>
     <use transform="translate(177.66645343633252 0.0)scale(0.9962640099626402)" xlink:href="#Computer_Modern_Bright-49"/>
     <use transform="translate(228.30967125233502 0.0)scale(0.9962640099626402)" xlink:href="#Computer_Modern_Bright-44"/>
     <use transform="translate(255.70679471026622 0.0)scale(0.9962640099626402)" xlink:href="#Computer_Modern_Bright-87"/>
     <use transform="translate(348.27595065866285 0.0)scale(0.9962640099626402)" xlink:href="#Computer_Modern_Bright-49"/>
     <use transform="translate(398.91916847466536 0.0)scale(0.9962640099626402)" xlink:href="#Computer_Modern_Bright-49"/>
    </g>
   </g>
   <g id="text_49">
    <!-- X3Y1,W13 -->
    <g transform="translate(139.690124225 97.3293927152)scale(0.07 -0.07)">
     <use transform="scale(0.9962640099626402)" xlink:href="#Computer_Modern_Bright-88"/>
     <use transform="translate(63.51161781016501 0.0)scale(0.9962640099626402)" xlink:href="#Computer_Modern_Bright-51"/>
     <use transform="translate(114.15483562616751 0.0)scale(0.9962640099626402)" xlink:href="#Computer_Modern_Bright-89"/>
     <use transform="translate(177.66645343633252 0.0)scale(0.9962640099626402)" xlink:href="#Computer_Modern_Bright-49"/>
     <use transform="translate(228.30967125233502 0.0)scale(0.9962640099626402)" xlink:href="#Computer_Modern_Bright-44"/>
     <use transform="translate(255.70679471026622 0.0)scale(0.9962640099626402)" xlink:href="#Computer_Modern_Bright-87"/>
     <use transform="translate(348.27595065866285 0.0)scale(0.9962640099626402)" xlink:href="#Computer_Modern_Bright-49"/>
     <use transform="translate(398.91916847466536 0.0)scale(0.9962640099626402)" xlink:href="#Computer_Modern_Bright-51"/>
    </g>
   </g>
   <g id="text_50">
    <!-- X3Y1,W2 -->
    <g transform="translate(210.312883273 125.939690639)scale(0.07 -0.07)">
     <use transform="scale(0.9962640099626402)" xlink:href="#Computer_Modern_Bright-88"/>
     <use transform="translate(63.51161781016501 0.0)scale(0.9962640099626402)" xlink:href="#Computer_Modern_Bright-51"/>
     <use transform="translate(114.15483562616751 0.0)scale(0.9962640099626402)" xlink:href="#Computer_Modern_Bright-89"/>
     <use transform="translate(177.66645343633252 0.0)scale(0.9962640099626402)" xlink:href="#Computer_Modern_Bright-49"/>
     <use transform="translate(228.30967125233502 0.0)scale(0.9962640099626402)" xlink:href="#Computer_Modern_Bright-44"/>
     <use transform="translate(255.70679471026622 0.0)scale(0.9962640099626402)" xlink:href="#Computer_Modern_Bright-87"/>
     <use transform="translate(348.27595065866285 0.0)scale(0.9962640099626402)" xlink:href="#Computer_Modern_Bright-50"/>
    </g>
   </g>
   <g id="text_51">
    <!-- X3Y1,W3 -->
    <g transform="translate(158.734126649 120.605236747)scale(0.07 -0.07)">
     <use transform="scale(0.9962640099626402)" xlink:href="#Computer_Modern_Bright-88"/>
     <use transform="translate(63.51161781016501 0.0)scale(0.9962640099626402)" xlink:href="#Computer_Modern_Bright-51"/>
     <use transform="translate(114.15483562616751 0.0)scale(0.9962640099626402)" xlink:href="#Computer_Modern_Bright-89"/>
     <use transform="translate(177.66645343633252 0.0)scale(0.9962640099626402)" xlink:href="#Computer_Modern_Bright-49"/>
     <use transform="translate(228.30967125233502 0.0)scale(0.9962640099626402)" xlink:href="#Computer_Modern_Bright-44"/>
     <use transform="translate(255.70679471026622 0.0)scale(0.9962640099626402)" xlink:href="#Computer_Modern_Bright-87"/>
     <use transform="translate(348.27595065866285 0.0)scale(0.9962640099626402)" xlink:href="#Computer_Modern_Bright-51"/>
    </g>
   </g>
   <g id="text_52">
    <!-- X3Y1,W5 -->
    <g transform="translate(169.011560528 66.4620238058)scale(0.07 -0.07)">
     <use transform="scale(0.9962640099626402)" xlink:href="#Computer_Modern_Bright-88"/>
     <use transform="translate(63.51161781016501 0.0)scale(0.9962640099626402)" xlink:href="#Computer_Modern_Bright-51"/>
     <use transform="translate(114.15483562616751 0.0)scale(0.9962640099626402)" xlink:href="#Computer_Modern_Bright-89"/>
     <use transform="translate(177.66645343633252 0.0)scale(0.9962640099626402)" xlink:href="#Computer_Modern_Bright-49"/>
     <use transform="translate(228.30967125233502 0.0)scale(0.9962640099626402)" xlink:href="#Computer_Modern_Bright-44"/>
     <use transform="translate(255.70679471026622 0.0)scale(0.9962640099626402)" xlink:href="#Computer_Modern_Bright-87"/>
     <use transform="translate(348.27595065866285 0.0)scale(0.9962640099626402)" xlink:href="#Computer_Modern_Bright-53"/>
    </g>
   </g>
   <g id="text_53">
    <!-- X3Y1,W7 -->
    <g transform="translate(138.962676536 152.917800804)scale(0.07 -0.07)">
     <use transform="scale(0.9962640099626402)" xlink:href="#Computer_Modern_Bright-88"/>
     <use transform="translate(63.51161781016501 0.0)scale(0.9962640099626402)" xlink:href="#Computer_Modern_Bright-51"/>
     <use transform="translate(114.15483562616751 0.0)scale(0.9962640099626402)" xlink:href="#Computer_Modern_Bright-89"/>
     <use transform="translate(177.66645343633252 0.0)scale(0.9962640099626402)" xlink:href="#Computer_Modern_Bright-49"/>
     <use transform="translate(228.30967125233502 0.0)scale(0.9962640099626402)" xlink:href="#Computer_Modern_Bright-44"/>
     <use transform="translate(255.70679471026622 0.0)scale(0.9962640099626402)" xlink:href="#Computer_Modern_Bright-87"/>
     <use transform="translate(348.27595065866285 0.0)scale(0.9962640099626402)" xlink:href="#Computer_Modern_Bright-55"/>
    </g>
   </g>
   <g id="text_54">
    <!-- X3Y1,W8 -->
    <g transform="translate(151.622994596 119.000434152)scale(0.07 -0.07)">
     <use transform="scale(0.9962640099626402)" xlink:href="#Computer_Modern_Bright-88"/>
     <use transform="translate(63.51161781016501 0.0)scale(0.9962640099626402)" xlink:href="#Computer_Modern_Bright-51"/>
     <use transform="translate(114.15483562616751 0.0)scale(0.9962640099626402)" xlink:href="#Computer_Modern_Bright-89"/>
     <use transform="translate(177.66645343633252 0.0)scale(0.9962640099626402)" xlink:href="#Computer_Modern_Bright-49"/>
     <use transform="translate(228.30967125233502 0.0)scale(0.9962640099626402)" xlink:href="#Computer_Modern_Bright-44"/>
     <use transform="translate(255.70679471026622 0.0)scale(0.9962640099626402)" xlink:href="#Computer_Modern_Bright-87"/>
     <use transform="translate(348.27595065866285 0.0)scale(0.9962640099626402)" xlink:href="#Computer_Modern_Bright-56"/>
    </g>
   </g>
   <g id="text_55">
    <!-- X3Y1,W9 -->
    <g transform="translate(144.659007202 169.747110094)scale(0.07 -0.07)">
     <use transform="scale(0.9962640099626402)" xlink:href="#Computer_Modern_Bright-88"/>
     <use transform="translate(63.51161781016501 0.0)scale(0.9962640099626402)" xlink:href="#Computer_Modern_Bright-51"/>
     <use transform="translate(114.15483562616751 0.0)scale(0.9962640099626402)" xlink:href="#Computer_Modern_Bright-89"/>
     <use transform="translate(177.66645343633252 0.0)scale(0.9962640099626402)" xlink:href="#Computer_Modern_Bright-49"/>
     <use transform="translate(228.30967125233502 0.0)scale(0.9962640099626402)" xlink:href="#Computer_Modern_Bright-44"/>
     <use transform="translate(255.70679471026622 0.0)scale(0.9962640099626402)" xlink:href="#Computer_Modern_Bright-87"/>
     <use transform="translate(348.27595065866285 0.0)scale(0.9962640099626402)" xlink:href="#Computer_Modern_Bright-57"/>
    </g>
   </g>
   <g id="text_56">
    <!-- X3Y2,W1 -->
    <g transform="translate(175.526065274 172.959029308)scale(0.07 -0.07)">
     <use transform="scale(0.9962640099626402)" xlink:href="#Computer_Modern_Bright-88"/>
     <use transform="translate(63.51161781016501 0.0)scale(0.9962640099626402)" xlink:href="#Computer_Modern_Bright-51"/>
     <use transform="translate(114.15483562616751 0.0)scale(0.9962640099626402)" xlink:href="#Computer_Modern_Bright-89"/>
     <use transform="translate(177.66645343633252 0.0)scale(0.9962640099626402)" xlink:href="#Computer_Modern_Bright-50"/>
     <use transform="translate(228.30967125233502 0.0)scale(0.9962640099626402)" xlink:href="#Computer_Modern_Bright-44"/>
     <use transform="translate(255.70679471026622 0.0)scale(0.9962640099626402)" xlink:href="#Computer_Modern_Bright-87"/>
     <use transform="translate(348.27595065866285 0.0)scale(0.9962640099626402)" xlink:href="#Computer_Modern_Bright-49"/>
    </g>
   </g>
   <g id="text_57">
    <!-- X3Y2,W12 -->
    <g transform="translate(101.275553525 200.48375731)scale(0.07 -0.07)">
     <use transform="scale(0.9962640099626402)" xlink:href="#Computer_Modern_Bright-88"/>
     <use transform="translate(63.51161781016501 0.0)scale(0.9962640099626402)" xlink:href="#Computer_Modern_Bright-51"/>
     <use transform="translate(114.15483562616751 0.0)scale(0.9962640099626402)" xlink:href="#Computer_Modern_Bright-89"/>
     <use transform="translate(177.66645343633252 0.0)scale(0.9962640099626402)" xlink:href="#Computer_Modern_Bright-50"/>
     <use transform="translate(228.30967125233502 0.0)scale(0.9962640099626402)" xlink:href="#Computer_Modern_Bright-44"/>
     <use transform="translate(255.70679471026622 0.0)scale(0.9962640099626402)" xlink:href="#Computer_Modern_Bright-87"/>
     <use transform="translate(348.27595065866285 0.0)scale(0.9962640099626402)" xlink:href="#Computer_Modern_Bright-49"/>
     <use transform="translate(398.91916847466536 0.0)scale(0.9962640099626402)" xlink:href="#Computer_Modern_Bright-50"/>
    </g>
   </g>
   <g id="text_58">
    <!-- X3Y2,W2 -->
    <g transform="translate(190.868602477 198.296873433)scale(0.07 -0.07)">
     <use transform="scale(0.9962640099626402)" xlink:href="#Computer_Modern_Bright-88"/>
     <use transform="translate(63.51161781016501 0.0)scale(0.9962640099626402)" xlink:href="#Computer_Modern_Bright-51"/>
     <use transform="translate(114.15483562616751 0.0)scale(0.9962640099626402)" xlink:href="#Computer_Modern_Bright-89"/>
     <use transform="translate(177.66645343633252 0.0)scale(0.9962640099626402)" xlink:href="#Computer_Modern_Bright-50"/>
     <use transform="translate(228.30967125233502 0.0)scale(0.9962640099626402)" xlink:href="#Computer_Modern_Bright-44"/>
     <use transform="translate(255.70679471026622 0.0)scale(0.9962640099626402)" xlink:href="#Computer_Modern_Bright-87"/>
     <use transform="translate(348.27595065866285 0.0)scale(0.9962640099626402)" xlink:href="#Computer_Modern_Bright-50"/>
    </g>
   </g>
   <g id="text_59">
    <!-- X3Y2,W4 -->
    <g transform="translate(210.476639454 112.334633121)scale(0.07 -0.07)">
     <use transform="scale(0.9962640099626402)" xlink:href="#Computer_Modern_Bright-88"/>
     <use transform="translate(63.51161781016501 0.0)scale(0.9962640099626402)" xlink:href="#Computer_Modern_Bright-51"/>
     <use transform="translate(114.15483562616751 0.0)scale(0.9962640099626402)" xlink:href="#Computer_Modern_Bright-89"/>
     <use transform="translate(177.66645343633252 0.0)scale(0.9962640099626402)" xlink:href="#Computer_Modern_Bright-50"/>
     <use transform="translate(228.30967125233502 0.0)scale(0.9962640099626402)" xlink:href="#Computer_Modern_Bright-44"/>
     <use transform="translate(255.70679471026622 0.0)scale(0.9962640099626402)" xlink:href="#Computer_Modern_Bright-87"/>
     <use transform="translate(348.27595065866285 0.0)scale(0.9962640099626402)" xlink:href="#Computer_Modern_Bright-52"/>
    </g>
   </g>
   <g id="text_60">
    <!-- X3Y2,W5 -->
    <g transform="translate(161.670112407 197.248462533)scale(0.07 -0.07)">
     <use transform="scale(0.9962640099626402)" xlink:href="#Computer_Modern_Bright-88"/>
     <use transform="translate(63.51161781016501 0.0)scale(0.9962640099626402)" xlink:href="#Computer_Modern_Bright-51"/>
     <use transform="translate(114.15483562616751 0.0)scale(0.9962640099626402)" xlink:href="#Computer_Modern_Bright-89"/>
     <use transform="translate(177.66645343633252 0.0)scale(0.9962640099626402)" xlink:href="#Computer_Modern_Bright-50"/>
     <use transform="translate(228.30967125233502 0.0)scale(0.9962640099626402)" xlink:href="#Computer_Modern_Bright-44"/>
     <use transform="translate(255.70679471026622 0.0)scale(0.9962640099626402)" xlink:href="#Computer_Modern_Bright-87"/>
     <use transform="translate(348.27595065866285 0.0)scale(0.9962640099626402)" xlink:href="#Computer_Modern_Bright-53"/>
    </g>
   </g>
   <g id="text_61">
    <!-- X3Y2,W7 -->
    <g transform="translate(193.930649055 185.473995437)scale(0.07 -0.07)">
     <use transform="scale(0.9962640099626402)" xlink:href="#Computer_Modern_Bright-88"/>
     <use transform="translate(63.51161781016501 0.0)scale(0.9962640099626402)" xlink:href="#Computer_Modern_Bright-51"/>
     <use transform="translate(114.15483562616751 0.0)scale(0.9962640099626402)" xlink:href="#Computer_Modern_Bright-89"/>
     <use transform="translate(177.66645343633252 0.0)scale(0.9962640099626402)" xlink:href="#Computer_Modern_Bright-50"/>
     <use transform="translate(228.30967125233502 0.0)scale(0.9962640099626402)" xlink:href="#Computer_Modern_Bright-44"/>
     <use transform="translate(255.70679471026622 0.0)scale(0.9962640099626402)" xlink:href="#Computer_Modern_Bright-87"/>
     <use transform="translate(348.27595065866285 0.0)scale(0.9962640099626402)" xlink:href="#Computer_Modern_Bright-55"/>
    </g>
   </g>
  </g>
 </g>
 <defs>
  <clipPath id="p2d2354f707">
   <rect height="223.2" width="279.0" x="39.4072994094" y="7.2"/>
  </clipPath>
 </defs>
</svg>
