<?xml version="1.0" encoding="utf-8" standalone="no"?>
<!DOCTYPE svg PUBLIC "-//W3C//DTD SVG 1.1//EN"
  "http://www.w3.org/Graphics/SVG/1.1/DTD/svg11.dtd">
<!-- Created with matplotlib (http://matplotlib.org/) -->
<svg height="369pt" version="1.1" viewBox="0 0 873 369" width="873pt" xmlns="http://www.w3.org/2000/svg" xmlns:xlink="http://www.w3.org/1999/xlink">
 <defs>
  <style type="text/css">
*{stroke-linecap:butt;stroke-linejoin:round;}
  </style>
 </defs>
 <g id="figure_1">
  <g id="patch_1">
   <path d="
M0 369
L873 369
L873 0
L0 0
z
" style="fill:#ffffff;"/>
  </g>
  <g id="axes_1">
   <g id="patch_2">
    <path d="
M87.6762 293.731
L416.782 293.731
L416.782 22.0774
L87.6762 22.0774
z
" style="fill:#ffffff;"/>
   </g>
   <g id="line2d_1">
    <path clip-path="url(#pc4d4daf6df)" d="
M87.6762 291.037
L92.4158 283.606
L97.2542 276.432
L102.191 269.507
L107.26 262.778
L112.46 256.245
L117.792 249.904
L123.256 243.753
L128.852 237.79
L134.611 231.977
L140.503 226.346
L146.559 220.865
L152.813 215.505
L159.231 210.297
L165.847 205.214
L172.693 200.235
L179.736 195.388
L187.043 190.63
L194.581 185.988
L202.381 181.446
L210.478 176.991
L218.871 172.628
L227.56 168.362
L236.579 164.184
L245.959 160.083
L255.702 156.068
L265.872 152.118
L276.47 148.242
L287.497 144.448
L299.016 140.72
L311.063 137.057
L323.636 133.468
L336.802 129.942
L350.592 126.48
L365.042 123.084
L380.215 119.747
L396.145 116.474
L412.898 113.259
L416.782 112.545
L416.782 112.545" style="fill:none;stroke:#ff0000;stroke-linecap:square;stroke-width:2;"/>
   </g>
   <g id="line2d_2">
    <path clip-path="url(#pc4d4daf6df)" d="
M87.6762 289.612
L89.7827 285.628
L92.7449 280.517
L96.2996 274.831
L100.282 268.88
L104.561 262.886
L109.103 256.906
L113.876 250.992
L118.846 245.189
L123.98 239.536
L129.312 233.995
L134.842 228.569
L140.569 223.263
L146.493 218.078
L152.615 213.015
L158.968 208.053
L165.518 203.218
L172.331 198.467
L179.374 193.827
L186.681 189.281
L194.251 184.833
L202.118 180.469
L210.281 176.196
L218.772 172.003
L227.626 167.879
L236.842 163.834
L246.453 159.86
L256.459 155.965
L266.892 152.143
L277.787 148.389
L289.175 144.702
L301.09 141.078
L313.564 137.518
L326.664 134.013
L340.389 130.572
L354.805 127.189
L369.946 123.866
L385.843 120.606
L402.596 117.4
L416.782 114.852
L416.782 114.852" style="fill:none;stroke:#000000;stroke-dasharray:6.000000,6.000000;stroke-dashoffset:0.0;stroke-width:5;"/>
   </g>
   <g id="patch_3">
    <path d="
M87.6762 22.0774
L416.782 22.0774" style="fill:none;stroke:#000000;stroke-linecap:square;stroke-linejoin:miter;"/>
   </g>
   <g id="patch_4">
    <path d="
M87.6762 293.731
L87.6762 22.0774" style="fill:none;stroke:#000000;stroke-linecap:square;stroke-linejoin:miter;"/>
   </g>
   <g id="patch_5">
    <path d="
M416.782 293.731
L416.782 22.0774" style="fill:none;stroke:#000000;stroke-linecap:square;stroke-linejoin:miter;"/>
   </g>
   <g id="patch_6">
    <path d="
M87.6762 293.731
L416.782 293.731" style="fill:none;stroke:#000000;stroke-linecap:square;stroke-linejoin:miter;"/>
   </g>
   <g id="matplotlib.axis_1">
    <g id="xtick_1">
     <g id="line2d_3">
      <defs>
       <path d="
M0 0
L0 -4" id="mc7db9fdffb" style="stroke:#000000;stroke-width:0.5;"/>
      </defs>
      <g>
       <use style="stroke:#000000;stroke-width:0.5;" x="168.712389227" xlink:href="#mc7db9fdffb" y="293.730575606"/>
      </g>
     </g>
     <g id="line2d_4">
      <defs>
       <path d="
M0 0
L0 4" id="m5a7d422ac3" style="stroke:#000000;stroke-width:0.5;"/>
      </defs>
      <g>
       <use style="stroke:#000000;stroke-width:0.5;" x="168.712389227" xlink:href="#m5a7d422ac3" y="22.0773936778"/>
      </g>
     </g>
     <g id="text_1">
      <!-- $0.5$ -->
      <defs>
       <path d="
M8.40625 66.3281
L8.40625 30.4531
L12.2031 30.4531
C12.7031 30.4531 13.4062 30.3594 13.7969 30.5625
C14.2969 30.8594 14.5938 31.5625 14.9062 31.9688
C15.5938 32.8594 16.4062 33.5625 17.2031 34.2656
C20.7969 37.2812 27.7031 38.4844 32.2969 36.1719
C38.5938 33.1719 39.7969 25.2188 39.2969 19
C39 15.0625 37.7969 11.4531 35.5 9.14062
C30.2031 3.5 21.2969 3.5 14.7969 6.79688
C11.5938 8.40625 8.90625 10.9219 6.90625 13.9219
L6.79688 13.9219
C6.5 13.4219 4.20312 9.92188 4.20312 9.3125
C4.20312 8.90625 4.5 8.60938 4.70312 8.3125
C7.70312 4.79688 11.5938 2.07812 16.0938 0.578125
C25 -2.23438 35 -0.03125 41.2969 7.20312
C48.7969 15.9219 47.7969 30.1562 39.0938 37.7656
C36.5 40.1875 32.9062 41.8906 28.5938 42.2812
C22.7969 43.0938 17.5938 40.2812 14.5 37.6719
L14.5 61
L42.9062 61
L42.9062 66.3281
z
" id="Computer_Modern_Bright-53"/>
       <path d="
M14.7969 63.8594
C11.9062 61.8594 9.90625 59.1406 8.40625 56.0312
C4.79688 49 4.40625 40.7656 4.40625 31.8281
C4.40625 20.5781 6.40625 10.25 12 4.3125
C17.2969 -1.20312 25.7031 -2.60938 32.7969 0.296875
C37.2031 2.01562 40.4062 5.71875 42.4062 9.73438
C46 16.875 46.4062 25.4062 46.4062 34.2344
C46.4062 37.0469 46.2969 39.8594 46 42.6719
C45.2969 49.4062 43 56.8281 39.2969 60.9531
C33.2031 67.6875 22.2969 69.1875 14.7969 63.8594
M34.9062 58.1406
C39.5938 53.125 40 43.4844 40 34.3438
L40 28.9219
C40 24.2969 39.2031 18.2812 38.2031 14.8594
C36.7969 10.1406 34.5 6.73438 29.9062 4.625
C24.2969 2.60938 18.5 4.51562 15.2969 8.9375
C11 14.6562 10.7969 24.7969 10.7969 33.7344
C10.7969 42.1719 10.9062 51.5156 15 57.0312
C19.5 63.0625 29.2031 64.0625 34.9062 58.1406" id="Computer_Modern_Bright-48"/>
       <path d="
M10.7031 7.8125
L10.7031 0
L18.5 0
L18.5 7.8125
z
" id="Computer_Modern_Bright_Math_Slanted-58"/>
      </defs>
      <g transform="translate(155.678000971 311.567541962)scale(0.2 -0.2)">
       <use transform="scale(0.9962640099626402)" xlink:href="#Computer_Modern_Bright-48"/>
       <use transform="translate(50.6432178160025 0.0)scale(0.9962640099626402)" xlink:href="#Computer_Modern_Bright_Math_Slanted-58"/>
       <use transform="translate(79.70066474353986 0.0)scale(0.9962640099626402)" xlink:href="#Computer_Modern_Bright-53"/>
      </g>
     </g>
    </g>
    <g id="xtick_2">
     <g id="line2d_5">
      <g>
       <use style="stroke:#000000;stroke-width:0.5;" x="251.402371774" xlink:href="#mc7db9fdffb" y="293.730575606"/>
      </g>
     </g>
     <g id="line2d_6">
      <g>
       <use style="stroke:#000000;stroke-width:0.5;" x="251.402371774" xlink:href="#m5a7d422ac3" y="22.0773936778"/>
      </g>
     </g>
     <g id="text_2">
      <!-- $1.0$ -->
      <defs>
       <path d="
M9.70312 60.0156
L9.70312 55
C15.2031 55 19 56 23.4062 57.9062
L23.4062 5.01562
L10.2969 5.01562
L10.2969 0
L43 0
L43 5.01562
L29.9062 5.01562
L29.9062 67
C27.5 67 27.9062 66.3594 26 64.875
C21.9062 61.7188 16.2031 60.0156 9.70312 60.0156" id="Computer_Modern_Bright-49"/>
      </defs>
      <g transform="translate(238.367983518 311.567541962)scale(0.2 -0.2)">
       <use transform="scale(0.9962640099626402)" xlink:href="#Computer_Modern_Bright-49"/>
       <use transform="translate(50.6432178160025 0.0)scale(0.9962640099626402)" xlink:href="#Computer_Modern_Bright_Math_Slanted-58"/>
       <use transform="translate(79.70066474353986 0.0)scale(0.9962640099626402)" xlink:href="#Computer_Modern_Bright-48"/>
      </g>
     </g>
    </g>
    <g id="xtick_3">
     <g id="line2d_7">
      <g>
       <use style="stroke:#000000;stroke-width:0.5;" x="334.09235432" xlink:href="#mc7db9fdffb" y="293.730575606"/>
      </g>
     </g>
     <g id="line2d_8">
      <g>
       <use style="stroke:#000000;stroke-width:0.5;" x="334.09235432" xlink:href="#m5a7d422ac3" y="22.0773936778"/>
      </g>
     </g>
     <g id="text_3">
      <!-- $1.5$ -->
      <g transform="translate(321.057966064 311.567541962)scale(0.2 -0.2)">
       <use transform="scale(0.9962640099626402)" xlink:href="#Computer_Modern_Bright-49"/>
       <use transform="translate(50.6432178160025 0.0)scale(0.9962640099626402)" xlink:href="#Computer_Modern_Bright_Math_Slanted-58"/>
       <use transform="translate(79.70066474353986 0.0)scale(0.9962640099626402)" xlink:href="#Computer_Modern_Bright-53"/>
      </g>
     </g>
    </g>
    <g id="xtick_4">
     <g id="line2d_9">
      <g>
       <use style="stroke:#000000;stroke-width:0.5;" x="416.782336866" xlink:href="#mc7db9fdffb" y="293.730575606"/>
      </g>
     </g>
     <g id="line2d_10">
      <g>
       <use style="stroke:#000000;stroke-width:0.5;" x="416.782336866" xlink:href="#m5a7d422ac3" y="22.0773936778"/>
      </g>
     </g>
     <g id="text_4">
      <!-- $2.0$ -->
      <defs>
       <path d="
M7.29688 46.1094
C8.70312 51.7344 11.0938 58.1562 16.7969 60.6719
C19.2031 61.6719 21.7969 61.875 24.4062 61.6719
C29.2969 61.2656 34.0938 59.2656 37.0938 55.25
C39.2969 52.2344 40.0938 48.5156 39.7031 44.9062
C38.5 34.4531 28.2969 26.9219 21.7031 21.2812
C17.9062 18.0781 7.09375 7.82812 7.09375 7.82812
L5.40625 6.21875
C4.5 5.32812 4.40625 5.32812 4.40625 3.51562
L4.40625 0
L46.4062 0
L46.4062 5.625
L10.2031 5.625
C13.4062 8.73438 26.7031 20.5156 28.5 21.9219
C34.2969 26.6562 40.7969 31.375 44.2969 38.2188
C48.2031 46.0625 46.5 55.9375 39.9062 61.7656
C35.9062 65.2969 30.4062 67 25.0938 67
C20.2031 67 15.2031 66.0156 11.2969 62.9375
C8.29688 60.4531 5.79688 56.7812 4.40625 53.0156
C4.09375 52.4375 3.59375 51.4219 3.70312 50.7344
C3.79688 50.1406 4.40625 49.6406 4.70312 49.2344
C5.5 48.2188 6.29688 47.0156 7.29688 46.1094" id="Computer_Modern_Bright-50"/>
      </defs>
      <g transform="translate(403.74794861 311.567541962)scale(0.2 -0.2)">
       <use transform="scale(0.9962640099626402)" xlink:href="#Computer_Modern_Bright-50"/>
       <use transform="translate(50.6432178160025 0.0)scale(0.9962640099626402)" xlink:href="#Computer_Modern_Bright_Math_Slanted-58"/>
       <use transform="translate(79.70066474353986 0.0)scale(0.9962640099626402)" xlink:href="#Computer_Modern_Bright-48"/>
      </g>
     </g>
    </g>
    <g id="text_5">
     <!-- $E_M$ -->
     <defs>
      <path d="
M24.5 69.4219
L9.79688 0
C25.7031 0 42.5 0 57.7969 0
C58.5 1.67188 58.7969 3.73438 59.2031 5.70312
L18 5.70312
C18.5 8.125 23.2031 30.6562 23.5 31.7656
C23.5938 32.2812 23.5938 33.2812 24.2031 33.5781
C24.7031 33.8906 25.7969 33.6875 26.4062 33.6875
L58.5938 33.6875
C59.0938 33.6875 60.2031 33.4844 60.7031 33.8906
C61 34.0781 61.7031 37.6875 61.9062 39
L25 39
L30.4062 64
C43.5 64 57.5 64 70 64
C70.7031 65.5625 70.9062 67.5312 71.2969 69.4219
z
" id="Computer_Modern_Bright_Math_Slanted-69"/>
      <path d="
M24.9062 69.5
L10.2031 0
C12.2969 0 14.5 0 16.2969 0.296875
L16.7031 1.39062
L29.7969 63
L29.9062 63
C33 41.8281 37.5938 22.0781 41.4062 1.5
C43.5 1.5 45.5938 1.5 47.4062 1.79688
L48.2969 3
L81.5938 56.9844
L85.0938 63
L85.2031 63
L71.7969 0
C73.9062 0 76.0938 0 77.9062 0.296875
L78.2969 1.39062
C79.2969 6.39062 80.4062 11.2969 81.5 16.2969
L92.7031 69.5
L86 69.5
C85.2969 69.5 84.0938 69.7031 83.5 69.2969
C83 68.9062 82.5938 68.0938 82.2969 67.5
L80 63.8906
C73.5938 53.4531 46.9062 10.5156 45.7969 8
L45.7031 8
L44.7031 14.3281
L34.0938 69.5
z
" id="Computer_Modern_Bright_Math_Slanted-77"/>
     </defs>
     <g transform="translate(226.137540396 347.562349642)scale(0.4 -0.4)">
      <use transform="translate(0.0 14.943914544092467)scale(0.9962640099626402)" xlink:href="#Computer_Modern_Bright_Math_Slanted-69"/>
      <use transform="translate(68.16582590675593 0.0)scale(0.6973817666173724)" xlink:href="#Computer_Modern_Bright_Math_Slanted-77"/>
     </g>
    </g>
   </g>
   <g id="matplotlib.axis_2">
    <g id="ytick_1">
     <g id="line2d_11">
      <defs>
       <path d="
M0 0
L4 0" id="md7965d1ba0" style="stroke:#000000;stroke-width:0.5;"/>
      </defs>
      <g>
       <use style="stroke:#000000;stroke-width:0.5;" x="87.6762063316" xlink:href="#md7965d1ba0" y="293.730575606"/>
      </g>
     </g>
     <g id="line2d_12">
      <defs>
       <path d="
M0 0
L-4 0" id="md9a1c1a7cd" style="stroke:#000000;stroke-width:0.5;"/>
      </defs>
      <g>
       <use style="stroke:#000000;stroke-width:0.5;" x="416.782336866" xlink:href="#md9a1c1a7cd" y="293.730575606"/>
      </g>
     </g>
     <g id="text_6">
      <!-- $0.0$ -->
      <g transform="translate(57.6074298197 298.988621301)scale(0.2 -0.2)">
       <use transform="scale(0.9962640099626402)" xlink:href="#Computer_Modern_Bright-48"/>
       <use transform="translate(50.6432178160025 0.0)scale(0.9962640099626402)" xlink:href="#Computer_Modern_Bright_Math_Slanted-58"/>
       <use transform="translate(79.70066474353986 0.0)scale(0.9962640099626402)" xlink:href="#Computer_Modern_Bright-48"/>
      </g>
     </g>
    </g>
    <g id="ytick_2">
     <g id="line2d_13">
      <g>
       <use style="stroke:#000000;stroke-width:0.5;" x="87.6762063316" xlink:href="#md7965d1ba0" y="239.39993922"/>
      </g>
     </g>
     <g id="line2d_14">
      <g>
       <use style="stroke:#000000;stroke-width:0.5;" x="416.782336866" xlink:href="#md9a1c1a7cd" y="239.39993922"/>
      </g>
     </g>
     <g id="text_7">
      <!-- $0.2$ -->
      <g transform="translate(57.6074298197 244.657984916)scale(0.2 -0.2)">
       <use transform="scale(0.9962640099626402)" xlink:href="#Computer_Modern_Bright-48"/>
       <use transform="translate(50.6432178160025 0.0)scale(0.9962640099626402)" xlink:href="#Computer_Modern_Bright_Math_Slanted-58"/>
       <use transform="translate(79.70066474353986 0.0)scale(0.9962640099626402)" xlink:href="#Computer_Modern_Bright-50"/>
      </g>
     </g>
    </g>
    <g id="ytick_3">
     <g id="line2d_15">
      <g>
       <use style="stroke:#000000;stroke-width:0.5;" x="87.6762063316" xlink:href="#md7965d1ba0" y="185.069302835"/>
      </g>
     </g>
     <g id="line2d_16">
      <g>
       <use style="stroke:#000000;stroke-width:0.5;" x="416.782336866" xlink:href="#md9a1c1a7cd" y="185.069302835"/>
      </g>
     </g>
     <g id="text_8">
      <!-- $0.4$ -->
      <defs>
       <path d="
M2.09375 18
L31 18
L31 0
L37.2969 0
L37.2969 18
L48.7031 18
L48.7031 23.3281
L37.2969 23.3281
L37.2969 66.4688
L31.9062 66.4688
C30.0938 66.4688 29.5938 66.5781 28.7969 65.0625
C24.7969 58.5156 3.70312 25.7656 3 24.8594
C2.20312 23.4375 2.09375 23.5469 2.09375 21.4375
z

M31.2969 61.0312
L31.2969 23.3281
L8.59375 23.3281
C9.29688 24.7344 10.2969 26.0469 11.2031 27.4531
C16.2031 35.2188 28.0938 53.6719 30.5938 59.4375
C30.9062 59.9375 31 60.5312 31.2969 61.0312" id="Computer_Modern_Bright-52"/>
      </defs>
      <g transform="translate(57.6074298197 190.32734853)scale(0.2 -0.2)">
       <use transform="scale(0.9962640099626402)" xlink:href="#Computer_Modern_Bright-48"/>
       <use transform="translate(50.6432178160025 0.0)scale(0.9962640099626402)" xlink:href="#Computer_Modern_Bright_Math_Slanted-58"/>
       <use transform="translate(79.70066474353986 0.0)scale(0.9962640099626402)" xlink:href="#Computer_Modern_Bright-52"/>
      </g>
     </g>
    </g>
    <g id="ytick_4">
     <g id="line2d_17">
      <g>
       <use style="stroke:#000000;stroke-width:0.5;" x="87.6762063316" xlink:href="#md7965d1ba0" y="130.738666449"/>
      </g>
     </g>
     <g id="line2d_18">
      <g>
       <use style="stroke:#000000;stroke-width:0.5;" x="416.782336866" xlink:href="#md9a1c1a7cd" y="130.738666449"/>
      </g>
     </g>
     <g id="text_9">
      <!-- $0.6$ -->
      <defs>
       <path d="
M11.2969 32.5
L11.2031 32.5
C11.2031 41.6562 12.7969 52.3438 20.5938 58.1875
C24.9062 61.3125 30.7031 62.9062 38.2031 61.1094
C39.7969 60.7031 41.2969 60.0938 42.7969 59.7031
L42.7969 63.2031
C42.7969 63.5938 42.9062 64.2969 42.5938 64.7031
C41.9062 65.5938 36.2969 66.5 36.0938 66.5
C27.4062 67.5 21.7031 65.5938 16.4062 61.0781
C10 55.5625 6.29688 47.4531 5.09375 39.2188
C4 32.6094 4.90625 21.9688 6.20312 16.75
C8.29688 9.03125 12.2969 2.21875 19.7031 -0.390625
C24.0938 -2 29.5 -2 33.7031 0.015625
C37.0938 1.64062 39.9062 4.46875 42.0938 7.5
C45.5938 12.3438 46.5 18.2188 46.0938 24.1719
C45.9062 27.1094 45.5 30.0469 44.2969 32.7656
C42.4062 37.125 39.2031 41.6719 35.0938 43.6875
C33.2031 44.5 31.2031 44.5 29.2031 44.5
C23.9062 44.5 18.9062 42.1562 15.2031 38.2969
C13.5938 36.6562 12 34.625 11.2969 32.5
M24.4062 39.4375
C28.2031 39.7344 32.2031 39.1406 35.0938 36.4219
C38.9062 32.8125 39.5938 27.6875 39.5938 22.75
C39.5938 19.4062 39.7031 15.9688 38.7031 12.8281
C38.0938 11.2031 37.2969 9.79688 36.4062 8.48438
C34.2031 5.54688 31.4062 4.125 26.7969 3.51562
C22.2969 3.51562 17.7969 5.29688 15.2031 9.10938
C13.5938 11.2969 12.7969 14 12.2969 16.5938
C11.7031 19.2812 11.2969 22.0781 11.5 24.7812
C12 31.9062 17 38.4375 24.4062 39.4375" id="Computer_Modern_Bright-54"/>
      </defs>
      <g transform="translate(57.6074298197 135.996712144)scale(0.2 -0.2)">
       <use transform="scale(0.9962640099626402)" xlink:href="#Computer_Modern_Bright-48"/>
       <use transform="translate(50.6432178160025 0.0)scale(0.9962640099626402)" xlink:href="#Computer_Modern_Bright_Math_Slanted-58"/>
       <use transform="translate(79.70066474353986 0.0)scale(0.9962640099626402)" xlink:href="#Computer_Modern_Bright-54"/>
      </g>
     </g>
    </g>
    <g id="ytick_5">
     <g id="line2d_19">
      <g>
       <use style="stroke:#000000;stroke-width:0.5;" x="87.6762063316" xlink:href="#md7965d1ba0" y="76.4080300634"/>
      </g>
     </g>
     <g id="line2d_20">
      <g>
       <use style="stroke:#000000;stroke-width:0.5;" x="416.782336866" xlink:href="#md9a1c1a7cd" y="76.4080300634"/>
      </g>
     </g>
     <g id="text_10">
      <!-- $0.8$ -->
      <defs>
       <path d="
M18.7031 36.0156
L18.7031 35.9062
C12.5 34.0938 7.29688 30.6875 4.79688 24.8438
C2.20312 18.7188 4 11.2812 8.40625 6.45312
C13.0938 1.42188 19.5 -1 26.2969 -1
C36.2969 -1 45.9062 6.40625 47.0938 16.7344
C47.2969 18.2656 47.2031 19.8906 47 21.4062
C45.2031 29.2188 39.5 33.875 32.0938 35.9062
C32.9062 36.2188 33.7969 36.4219 34.5938 36.7188
C38.7969 38.4375 42.2969 40.9375 44.5 44.9531
C47.7969 51.3906 44.5938 58.9219 39.2031 63.0312
C33.7969 67.1562 26.5 68.25 19.9062 66.8438
C12 65.1406 4.5 58.4219 5 49.7812
C5.20312 46.7656 6.5 44.25 8 42.4531
C10.2969 39.6406 14.7969 36.625 18.7031 36.0156
M23.7969 62.5
C28.2031 62.5 33.7031 62 36.9062 58.5781
C40.7031 54.4688 40.9062 47.0312 37.0938 42.8125
C34.7031 40.2031 31.2031 38.8906 27.7031 38.5938
C22.7969 38.1875 17.2031 39 13.7031 42.8125
C9.79688 47.125 10.0938 54.9688 14.2969 58.9844
C16.9062 61.3906 20.4062 62.1875 23.7969 62.5
M23.7031 33.5
C28.4062 33.5 33.5 32.3906 36.9062 28.9375
C38.2031 27.5312 39.2031 25.8125 39.7969 24.0156
C41.5 18.75 40.7031 12.0938 36.7969 8.04688
C34.0938 5.32812 30.4062 4.3125 26.7031 4.01562
C22.2031 4.01562 17 5.10938 13.7969 8.5625
C9.40625 13.4062 8.5 23.4062 13.7031 29.0625
C16.2969 31.7812 20 33.2031 23.7031 33.5" id="Computer_Modern_Bright-56"/>
      </defs>
      <g transform="translate(57.6074298197 81.6660757588)scale(0.2 -0.2)">
       <use transform="scale(0.9962640099626402)" xlink:href="#Computer_Modern_Bright-48"/>
       <use transform="translate(50.6432178160025 0.0)scale(0.9962640099626402)" xlink:href="#Computer_Modern_Bright_Math_Slanted-58"/>
       <use transform="translate(79.70066474353986 0.0)scale(0.9962640099626402)" xlink:href="#Computer_Modern_Bright-56"/>
      </g>
     </g>
    </g>
    <g id="ytick_6">
     <g id="line2d_21">
      <g>
       <use style="stroke:#000000;stroke-width:0.5;" x="87.6762063316" xlink:href="#md7965d1ba0" y="22.0773936778"/>
      </g>
     </g>
     <g id="line2d_22">
      <g>
       <use style="stroke:#000000;stroke-width:0.5;" x="416.782336866" xlink:href="#md9a1c1a7cd" y="22.0773936778"/>
      </g>
     </g>
     <g id="text_11">
      <!-- $1.0$ -->
      <g transform="translate(57.6074298197 27.3354393732)scale(0.2 -0.2)">
       <use transform="scale(0.9962640099626402)" xlink:href="#Computer_Modern_Bright-49"/>
       <use transform="translate(50.6432178160025 0.0)scale(0.9962640099626402)" xlink:href="#Computer_Modern_Bright_Math_Slanted-58"/>
       <use transform="translate(79.70066474353986 0.0)scale(0.9962640099626402)" xlink:href="#Computer_Modern_Bright-48"/>
      </g>
     </g>
    </g>
    <g id="text_12">
     <!-- $f(E_M)$ -->
     <defs>
      <path d="
M12.7969 47.0156
L11.7969 42
L20.4062 42
C17.2969 28 14.4062 13.6094 11.4062 -0.5
C13.5 -0.5 15.7969 -0.5 17.5938 -0.203125
L17.9062 0.5
C20.0938 11.25 22.5 21.7031 24.7031 32.4531
C25.5 35.4688 25.7969 38.9844 26.7969 41.7969
L27.7969 42
L39.0938 42
L40.0938 47.0156
L27.5938 47.0156
C28.5 49.9219 28.9062 53.0156 29.5 55.9219
C29.7969 57.3281 30 58.8281 30.5938 60.0312
C33 64.2344 39.7031 65.75 45.7969 64.75
C47.2031 64.4375 48.5938 63.9375 50 63.6406
L51.0938 69.25
C47.5 69.9531 43.5938 70.3594 39.9062 69.8594
C33.2031 68.9531 26.4062 64.3438 24 58.0312
C23.0938 55.625 21.7031 48.5156 21.7031 48.5156
C21.7031 48.1094 21.5938 47.4062 21.2031 47.2031
C20.7031 46.8125 19.5 47.0156 18.9062 47.0156
z
" id="Computer_Modern_Bright_Math_Slanted-102"/>
      <path d="
M5 75.6094
C5.79688 74.7031 6.79688 73.9062 7.70312 73.0938
C8.5 72.3906 9.20312 71.5938 9.90625 70.7812
C18.5938 60.75 23.5938 47.0938 24.2969 30.3281
C24.7969 17.875 22.9062 4.92188 17.2031 -6.32812
C15.2969 -10.25 12.7969 -13.9688 9.90625 -17.1719
C9.20312 -17.9844 8.5 -18.7812 7.70312 -19.4844
C6.79688 -20.2812 5.79688 -21.0938 5 -22
L8.29688 -22
C8.79688 -22 9.5 -22.0938 10 -21.8906
C11.2031 -21.2969 14.2031 -18.2812 14.5938 -17.875
C24.2031 -8.23438 29.9062 6.32812 30.7031 23.2969
C31.2031 35.4375 29.2031 47.7969 23.7969 58.6406
C21.4062 63.4531 18.2031 67.875 14.4062 71.6875
C13.4062 72.7031 11.2031 74.9062 10 75.5156
C9.5 75.7031 8.79688 75.6094 8.29688 75.6094
z
" id="Computer_Modern_Bright-41"/>
      <path d="
M34.2031 -22
C33.4062 -21.0938 32.4062 -20.2812 31.5 -19.4844
C30.7031 -18.7812 30 -17.9844 29.2969 -17.1719
C19.2969 -6.125 14.0938 11.5469 14.9062 30.3281
C15.2969 40.5625 17.2969 51 22.0938 60.25
C24.2969 64.3594 28.0938 70.1875 31.5 73.0938
C32.4062 73.9062 33.4062 74.7031 34.2031 75.6094
L30.9062 75.6094
C30.4062 75.6094 29.7031 75.7031 29.2031 75.5156
C28 74.9062 25 71.8906 24.5938 71.4844
C15 61.8594 9.29688 47.2969 8.5 30.3281
C8 18.1719 10 5.8125 15.4062 -5.03125
C17.7969 -9.84375 21 -14.2656 24.7969 -18.0781
C25.7969 -19.0781 28 -21.2969 29.2031 -21.8906
C29.7031 -22.0938 30.4062 -22 30.9062 -22
z
" id="Computer_Modern_Bright-40"/>
     </defs>
     <g transform="translate(45.965664686 211.591412585)rotate(-90.0)scale(0.4 -0.4)">
      <use transform="translate(0.0 14.943914544092468)scale(0.9962640099626402)" xlink:href="#Computer_Modern_Bright_Math_Slanted-102"/>
      <use transform="translate(53.93315715481009 14.943914544092468)scale(0.9962640099626402)" xlink:href="#Computer_Modern_Bright-40"/>
      <use transform="translate(92.95336579623289 14.943914544092468)scale(0.9962640099626402)" xlink:href="#Computer_Modern_Bright_Math_Slanted-69"/>
      <use transform="translate(161.11919170298881 0.0)scale(0.6973817666173724)" xlink:href="#Computer_Modern_Bright_Math_Slanted-77"/>
      <use transform="translate(228.66978627510122 14.943914544092468)scale(0.9962640099626402)" xlink:href="#Computer_Modern_Bright-41"/>
     </g>
    </g>
   </g>
   <g id="text_13">
    <!-- $\frac{E_M}{1.00 + E_M}$ -->
    <defs>
     <path d="
M36.0938 28.0156
L8.29688 28.0156
C7.70312 28.0156 6.90625 28.125 6.29688 27.9219
C5.40625 27.7188 4.79688 26.9062 4.79688 26.0156
C4.79688 25.1094 5.40625 24.2969 6.29688 24.1094
C6.90625 23.9062 7.70312 24 8.29688 24
L36.0938 24
L36.0938 -3.54688
C36.0938 -4.125 36 -4.92188 36.2031 -5.51562
C36.4062 -6.40625 37.2031 -7 38.0938 -7
C39 -7 39.7969 -6.42188 40 -5.51562
C40.2031 -4.92188 40.0938 -4.125 40.0938 -3.54688
L40.0938 24
L67.7969 24
C68.4062 24 69.2031 23.9062 69.7969 24.0938
C70.7031 24.2812 71.2969 25.0938 71.2969 26
C71.2969 26.9062 70.7031 27.7188 69.7969 27.9219
C69.2031 28.125 68.4062 28.0156 67.7969 28.0156
L40.0938 28.0156
L40.0938 56.3125
C40.0938 56.9219 40.2031 57.7344 40 58.3438
C39.7969 59.2656 39 59.875 38.0938 59.875
C37.2031 59.875 36.4062 59.25 36.2031 58.3438
C36 57.625 36.0938 56.9062 36.0938 56.2031
z
" id="Computer_Modern_Bright-43"/>
    </defs>
    <g style="fill:#ff0000;" transform="translate(251.402371774 239.39993922)scale(0.4 -0.4)">
     <use transform="translate(89.88421714469179 86.38248657378581)scale(0.6973817666173724)" xlink:href="#Computer_Modern_Bright_Math_Slanted-69"/>
     <use transform="translate(137.6000885351806 75.81087827385586)scale(0.4981320049813201)" xlink:href="#Computer_Modern_Bright_Math_Slanted-77"/>
     <use transform="translate(0.0 10.57160829992995)scale(0.6973817666173724)" xlink:href="#Computer_Modern_Bright-49"/>
     <use transform="translate(35.45008525159558 10.57160829992995)scale(0.6973817666173724)" xlink:href="#Computer_Modern_Bright_Math_Slanted-58"/>
     <use transform="translate(55.790206890177465 10.57160829992995)scale(0.6973817666173724)" xlink:href="#Computer_Modern_Bright-48"/>
     <use transform="translate(91.24029214177305 10.57160829992995)scale(0.6973817666173724)" xlink:href="#Computer_Modern_Bright-48"/>
     <use transform="translate(126.69037739336864 10.57160829992995)scale(0.6973817666173724)" xlink:href="#Computer_Modern_Bright-43"/>
     <use transform="translate(179.7684190876012 10.57160829992995)scale(0.6973817666173724)" xlink:href="#Computer_Modern_Bright_Math_Slanted-69"/>
     <use transform="translate(227.48429047809 0.0)scale(0.4981320049813201)" xlink:href="#Computer_Modern_Bright_Math_Slanted-77"/>
     <path d="
M0 67.841
L275.877 67.841
L275.877 71.8259
L0 71.8259
L0 67.841
z
"/>
    </g>
   </g>
   <g id="text_14">
    <!-- A -->
    <defs>
     <path d="
M2.09375 0.09375
L6.59375 0.09375
L8.40625 0.296875
C11.4062 6.79688 13.5 14.2031 16.2031 21
C26.0938 21 36.9062 21 46.2969 21
L47.0938 19.7031
C48.7969 14.5469 50.7969 9.59375 52.5938 4.54688
C53.0938 3.01562 53.5938 1.51562 54.4062 0.296875
C56.5938 0 59.2031 0 61.5938 0
C59.9062 4.90625 36.7031 67.2031 36 68.8906
C35.9062 69.2969 35.7031 69.8906 35.2031 70
C34.5938 70.0938 34 70 33.4062 70
L30.0938 70
C28.5938 70 28 70.1875 27.5938 68.6094
C27.2031 67.5938 2.09375 0.09375 2.09375 0.09375
M31.4062 63
C35.5938 50.6094 40.0938 38.4062 44.5 26.2188
L18.2031 26.2188
L26.9062 50
z
" id="Computer_Modern_Bright-65"/>
    </defs>
    <g transform="translate(87.6762063316 13.92779822)scale(0.4 -0.4)">
     <use transform="scale(0.9962640099626402)" xlink:href="#Computer_Modern_Bright-65"/>
    </g>
   </g>
  </g>
  <g id="axes_2">
   <g id="patch_7">
    <path d="
M517.629 293.731
L846.735 293.731
L846.735 22.0774
L517.629 22.0774
z
" style="fill:#ffffff;"/>
   </g>
   <g id="line2d_23">
    <path clip-path="url(#pe6b2154f8c)" d="
M517.629 285.352
L518.965 281.845
L520.569 276.96
L522.307 270.934
L524.446 262.644
L526.986 251.85
L530.595 235.42
L539.818 192.984
L543.293 178.221
L546.502 165.536
L549.576 154.291
L552.517 144.378
L555.324 135.666
L558.131 127.655
L560.938 120.303
L563.745 113.565
L566.552 107.392
L569.359 101.739
L572.3 96.326
L575.241 91.3851
L578.182 86.8716
L581.256 82.5651
L584.33 78.638
L587.539 74.9028
L590.747 71.4994
L594.088 68.2697
L597.564 65.2152
L601.173 62.3354
L604.916 59.6278
L608.926 57.005
L613.07 54.5608
L617.481 52.2196
L622.159 49.9927
L627.105 47.8878
L632.318 45.9091
L637.932 44.0153
L643.948 42.2201
L650.497 40.4993
L657.582 38.87
L665.335 37.3184
L673.89 35.8392
L683.247 34.4516
L693.673 33.1359
L705.302 31.8987
L718.269 30.7468
L732.972 29.6677
L749.815 28.6603
L769.197 27.7291
L791.787 26.872
L818.522 26.0866
L846.86 25.4468
L846.86 25.4468" style="fill:none;stroke:#ff0000;stroke-linecap:square;stroke-width:2;"/>
   </g>
   <g id="line2d_24">
    <path clip-path="url(#pe6b2154f8c)" d="
M517.629 282.555
L519.099 278.119
L520.837 272.153
L522.842 264.457
L525.382 253.759
L528.857 238.057
L538.348 194.708
L541.823 180.111
L545.031 167.584
L548.106 156.491
L551.046 146.718
L553.853 138.131
L556.661 130.235
L559.468 122.986
L562.275 116.339
L565.082 110.246
L567.889 104.662
L570.83 99.3079
L573.77 94.4157
L576.711 89.9408
L579.786 85.6649
L582.86 81.7594
L586.068 78.0383
L589.41 74.5065
L592.885 71.1659
L596.494 68.0156
L600.237 65.0527
L604.114 62.2725
L608.124 59.669
L612.401 57.1606
L616.946 54.7617
L621.625 52.5422
L626.704 50.382
L632.051 48.3513
L637.799 46.4076
L643.948 44.5634
L650.631 42.7937
L657.849 41.1147
L665.736 39.5117
L674.425 37.9786
L683.915 36.534
L694.475 35.1573
L706.104 33.8686
L719.204 32.6448
L733.908 31.4984
L750.617 30.4223
L769.865 29.4114
L792.055 28.4743
L818.121 27.6028
L846.86 26.8497
L846.86 26.8497" style="fill:none;stroke:#000000;stroke-dasharray:6.000000,6.000000;stroke-dashoffset:0.0;stroke-width:5;"/>
   </g>
   <g id="patch_8">
    <path d="
M517.629 22.0774
L846.735 22.0774" style="fill:none;stroke:#000000;stroke-linecap:square;stroke-linejoin:miter;"/>
   </g>
   <g id="patch_9">
    <path d="
M517.629 293.731
L517.629 22.0774" style="fill:none;stroke:#000000;stroke-linecap:square;stroke-linejoin:miter;"/>
   </g>
   <g id="patch_10">
    <path d="
M846.735 293.731
L846.735 22.0774" style="fill:none;stroke:#000000;stroke-linecap:square;stroke-linejoin:miter;"/>
   </g>
   <g id="patch_11">
    <path d="
M517.629 293.731
L846.735 293.731" style="fill:none;stroke:#000000;stroke-linecap:square;stroke-linejoin:miter;"/>
   </g>
   <g id="matplotlib.axis_3">
    <g id="xtick_5">
     <g id="line2d_25">
      <g>
       <use style="stroke:#000000;stroke-width:0.5;" x="578.076771124" xlink:href="#mc7db9fdffb" y="293.730575606"/>
      </g>
     </g>
     <g id="line2d_26">
      <g>
       <use style="stroke:#000000;stroke-width:0.5;" x="578.076771124" xlink:href="#m5a7d422ac3" y="22.0773936778"/>
      </g>
     </g>
     <g id="text_15">
      <!-- $0.1$ -->
      <g transform="translate(565.042382868 311.567541962)scale(0.2 -0.2)">
       <use transform="scale(0.9962640099626402)" xlink:href="#Computer_Modern_Bright-48"/>
       <use transform="translate(50.6432178160025 0.0)scale(0.9962640099626402)" xlink:href="#Computer_Modern_Bright_Math_Slanted-58"/>
       <use transform="translate(79.70066474353986 0.0)scale(0.9962640099626402)" xlink:href="#Computer_Modern_Bright-49"/>
      </g>
     </g>
    </g>
    <g id="xtick_6">
     <g id="line2d_27">
      <g>
       <use style="stroke:#000000;stroke-width:0.5;" x="645.241287559" xlink:href="#mc7db9fdffb" y="293.730575606"/>
      </g>
     </g>
     <g id="line2d_28">
      <g>
       <use style="stroke:#000000;stroke-width:0.5;" x="645.241287559" xlink:href="#m5a7d422ac3" y="22.0773936778"/>
      </g>
     </g>
     <g id="text_16">
      <!-- $0.2$ -->
      <g transform="translate(632.206899303 311.567541962)scale(0.2 -0.2)">
       <use transform="scale(0.9962640099626402)" xlink:href="#Computer_Modern_Bright-48"/>
       <use transform="translate(50.6432178160025 0.0)scale(0.9962640099626402)" xlink:href="#Computer_Modern_Bright_Math_Slanted-58"/>
       <use transform="translate(79.70066474353986 0.0)scale(0.9962640099626402)" xlink:href="#Computer_Modern_Bright-50"/>
      </g>
     </g>
    </g>
    <g id="xtick_7">
     <g id="line2d_29">
      <g>
       <use style="stroke:#000000;stroke-width:0.5;" x="712.405803995" xlink:href="#mc7db9fdffb" y="293.730575606"/>
      </g>
     </g>
     <g id="line2d_30">
      <g>
       <use style="stroke:#000000;stroke-width:0.5;" x="712.405803995" xlink:href="#m5a7d422ac3" y="22.0773936778"/>
      </g>
     </g>
     <g id="text_17">
      <!-- $0.3$ -->
      <defs>
       <path d="
M8.09375 50.6094
C8.90625 51.8281 9.5 53.1406 10.4062 54.3594
C12.5 57.2031 15.4062 59.4219 18.7031 60.75
C23.9062 62.875 31.5 62.875 35.5938 58.2188
C39.2031 54.0781 37.7031 47.6094 34.4062 43.7812
C31.4062 40.25 27.5 38.5312 21.7031 38.5312
C20 38.5312 18.4062 38.0312 16.7031 38.0312
L16.7031 33
L23.5938 33
C29.4062 33 33.2031 32.1094 36.4062 28.6875
C41.9062 22.8594 41.4062 12.5156 35.2969 7.20312
C32.2031 4.59375 27.9062 3.78125 23.9062 4.07812
C16.0938 4.6875 9.20312 8.8125 4.59375 15.2344
C4.09375 14.2344 4.09375 12.8281 3.90625 11.7188
C3.59375 10.1094 3.59375 10.1094 4.59375 8.8125
C7.5 4.89062 13.2031 1.28125 17.7031 -0.03125
C25.7031 -2.4375 35 -1.34375 41.2031 4.78125
C42.4062 6 43.5 7.29688 44.4062 8.70312
C48.0938 14.5312 48.2031 22.1562 44.0938 27.7812
C42.4062 30.0938 40.2031 31.9062 37.7031 33.3125
C36 34.3125 34 35.3125 32 35.5156
C37.7969 38.2344 43.2031 42.8281 44.2031 50.3594
C45.0938 57.375 41 61.6875 36.7969 64.1875
C30.2969 68 21.7969 68 15.0938 64.6562
C12 63.1562 9.20312 60.9375 7.09375 58.1875
C6.70312 57.6875 5.20312 55.9688 5.20312 55.1562
C5.20312 54.6562 5.59375 54.1562 5.90625 53.7344
z
" id="Computer_Modern_Bright-51"/>
      </defs>
      <g transform="translate(699.371415739 311.567541962)scale(0.2 -0.2)">
       <use transform="scale(0.9962640099626402)" xlink:href="#Computer_Modern_Bright-48"/>
       <use transform="translate(50.6432178160025 0.0)scale(0.9962640099626402)" xlink:href="#Computer_Modern_Bright_Math_Slanted-58"/>
       <use transform="translate(79.70066474353986 0.0)scale(0.9962640099626402)" xlink:href="#Computer_Modern_Bright-51"/>
      </g>
     </g>
    </g>
    <g id="xtick_8">
     <g id="line2d_31">
      <g>
       <use style="stroke:#000000;stroke-width:0.5;" x="779.570320431" xlink:href="#mc7db9fdffb" y="293.730575606"/>
      </g>
     </g>
     <g id="line2d_32">
      <g>
       <use style="stroke:#000000;stroke-width:0.5;" x="779.570320431" xlink:href="#m5a7d422ac3" y="22.0773936778"/>
      </g>
     </g>
     <g id="text_18">
      <!-- $0.4$ -->
      <g transform="translate(766.535932175 311.567541962)scale(0.2 -0.2)">
       <use transform="scale(0.9962640099626402)" xlink:href="#Computer_Modern_Bright-48"/>
       <use transform="translate(50.6432178160025 0.0)scale(0.9962640099626402)" xlink:href="#Computer_Modern_Bright_Math_Slanted-58"/>
       <use transform="translate(79.70066474353986 0.0)scale(0.9962640099626402)" xlink:href="#Computer_Modern_Bright-52"/>
      </g>
     </g>
    </g>
    <g id="xtick_9">
     <g id="line2d_33">
      <g>
       <use style="stroke:#000000;stroke-width:0.5;" x="846.734836866" xlink:href="#mc7db9fdffb" y="293.730575606"/>
      </g>
     </g>
     <g id="line2d_34">
      <g>
       <use style="stroke:#000000;stroke-width:0.5;" x="846.734836866" xlink:href="#m5a7d422ac3" y="22.0773936778"/>
      </g>
     </g>
     <g id="text_19">
      <!-- $0.5$ -->
      <g transform="translate(833.70044861 311.567541962)scale(0.2 -0.2)">
       <use transform="scale(0.9962640099626402)" xlink:href="#Computer_Modern_Bright-48"/>
       <use transform="translate(50.6432178160025 0.0)scale(0.9962640099626402)" xlink:href="#Computer_Modern_Bright_Math_Slanted-58"/>
       <use transform="translate(79.70066474353986 0.0)scale(0.9962640099626402)" xlink:href="#Computer_Modern_Bright-53"/>
      </g>
     </g>
    </g>
    <g id="text_20">
     <!-- $\hat{p}$ -->
     <defs>
      <path d="
M23 40.2188
L24.4062 47
L18.0938 47
L4.59375 -17
L11 -17
L15.9062 6.59375
C17 4.6875 18 2.98438 19.7031 1.57812
C25 -2.73438 32.5938 -0.921875 37.7969 2.375
C47.5938 8.57812 53.2031 20.5469 52.7031 31.9219
C52.4062 38.125 49.5938 45.4219 43.0938 47.4219
C35 49.625 26.5938 43.8125 23 40.2188
M36.9062 42.375
C43.5 40.875 46.7031 33.4531 46.0938 27.25
C45.9062 25.1406 45.5938 23.1406 45 21.1406
C43.2031 15.2188 39.2969 9.71875 34 6.5
C31.5938 5 28.7969 4 25.9062 4
C21.5938 4 19 5.8125 17.5938 8.90625
C17.4062 9.60938 17 10.4219 17 11.1094
C17 12.2188 17.5 13.5156 17.7031 14.625
C18.7969 20.1406 21.2031 31.1562 21.2031 31.1562
L21.7969 34.0625
C22.2031 36.4688 23 37.0625 24.7031 38.5625
C27.9062 41.1719 31.7969 43.2812 36.9062 42.375" id="Computer_Modern_Bright_Math_Slanted-112"/>
      <path d="
M7.20312 55
C8.90625 55 10.5938 55 12.0938 55
C16.7031 58.7812 20.7031 63.0781 25.4062 66.75
L27 65.5312
C30.9062 61.9531 34.7031 58.375 38.7031 55
C40.2031 55 41.9062 55 43.5938 55
C39.7969 58.8438 35.7969 62.3906 32 66.1562
C30.5938 67.4531 29.2969 68.9844 27.5938 70
C25.9062 70 24.2031 70 22.7969 69.7969
C17.4062 65.1406 12.4062 59.8594 7.20312 55" id="Computer_Modern_Bright-94"/>
     </defs>
     <g transform="translate(669.902379865 347.562395247)scale(0.4 -0.4)">
      <use transform="translate(10.753740854607722 9.12106942720925e-05)scale(0.9962640099626402)" xlink:href="#Computer_Modern_Bright-94"/>
      <use transform="scale(0.9962640099626402)" xlink:href="#Computer_Modern_Bright_Math_Slanted-112"/>
     </g>
    </g>
   </g>
   <g id="matplotlib.axis_4">
    <g id="ytick_7">
     <g id="line2d_35">
      <g>
       <use style="stroke:#000000;stroke-width:0.5;" x="517.628706332" xlink:href="#md7965d1ba0" y="293.730575606"/>
      </g>
     </g>
     <g id="line2d_36">
      <g>
       <use style="stroke:#000000;stroke-width:0.5;" x="846.734836866" xlink:href="#md9a1c1a7cd" y="293.730575606"/>
      </g>
     </g>
     <g id="text_21">
      <!-- $0.0$ -->
      <g transform="translate(487.55992982 298.988621301)scale(0.2 -0.2)">
       <use transform="scale(0.9962640099626402)" xlink:href="#Computer_Modern_Bright-48"/>
       <use transform="translate(50.6432178160025 0.0)scale(0.9962640099626402)" xlink:href="#Computer_Modern_Bright_Math_Slanted-58"/>
       <use transform="translate(79.70066474353986 0.0)scale(0.9962640099626402)" xlink:href="#Computer_Modern_Bright-48"/>
      </g>
     </g>
    </g>
    <g id="ytick_8">
     <g id="line2d_37">
      <g>
       <use style="stroke:#000000;stroke-width:0.5;" x="517.628706332" xlink:href="#md7965d1ba0" y="239.39993922"/>
      </g>
     </g>
     <g id="line2d_38">
      <g>
       <use style="stroke:#000000;stroke-width:0.5;" x="846.734836866" xlink:href="#md9a1c1a7cd" y="239.39993922"/>
      </g>
     </g>
     <g id="text_22">
      <!-- $0.2$ -->
      <g transform="translate(487.55992982 244.657984916)scale(0.2 -0.2)">
       <use transform="scale(0.9962640099626402)" xlink:href="#Computer_Modern_Bright-48"/>
       <use transform="translate(50.6432178160025 0.0)scale(0.9962640099626402)" xlink:href="#Computer_Modern_Bright_Math_Slanted-58"/>
       <use transform="translate(79.70066474353986 0.0)scale(0.9962640099626402)" xlink:href="#Computer_Modern_Bright-50"/>
      </g>
     </g>
    </g>
    <g id="ytick_9">
     <g id="line2d_39">
      <g>
       <use style="stroke:#000000;stroke-width:0.5;" x="517.628706332" xlink:href="#md7965d1ba0" y="185.069302835"/>
      </g>
     </g>
     <g id="line2d_40">
      <g>
       <use style="stroke:#000000;stroke-width:0.5;" x="846.734836866" xlink:href="#md9a1c1a7cd" y="185.069302835"/>
      </g>
     </g>
     <g id="text_23">
      <!-- $0.4$ -->
      <g transform="translate(487.55992982 190.32734853)scale(0.2 -0.2)">
       <use transform="scale(0.9962640099626402)" xlink:href="#Computer_Modern_Bright-48"/>
       <use transform="translate(50.6432178160025 0.0)scale(0.9962640099626402)" xlink:href="#Computer_Modern_Bright_Math_Slanted-58"/>
       <use transform="translate(79.70066474353986 0.0)scale(0.9962640099626402)" xlink:href="#Computer_Modern_Bright-52"/>
      </g>
     </g>
    </g>
    <g id="ytick_10">
     <g id="line2d_41">
      <g>
       <use style="stroke:#000000;stroke-width:0.5;" x="517.628706332" xlink:href="#md7965d1ba0" y="130.738666449"/>
      </g>
     </g>
     <g id="line2d_42">
      <g>
       <use style="stroke:#000000;stroke-width:0.5;" x="846.734836866" xlink:href="#md9a1c1a7cd" y="130.738666449"/>
      </g>
     </g>
     <g id="text_24">
      <!-- $0.6$ -->
      <g transform="translate(487.55992982 135.996712144)scale(0.2 -0.2)">
       <use transform="scale(0.9962640099626402)" xlink:href="#Computer_Modern_Bright-48"/>
       <use transform="translate(50.6432178160025 0.0)scale(0.9962640099626402)" xlink:href="#Computer_Modern_Bright_Math_Slanted-58"/>
       <use transform="translate(79.70066474353986 0.0)scale(0.9962640099626402)" xlink:href="#Computer_Modern_Bright-54"/>
      </g>
     </g>
    </g>
    <g id="ytick_11">
     <g id="line2d_43">
      <g>
       <use style="stroke:#000000;stroke-width:0.5;" x="517.628706332" xlink:href="#md7965d1ba0" y="76.4080300634"/>
      </g>
     </g>
     <g id="line2d_44">
      <g>
       <use style="stroke:#000000;stroke-width:0.5;" x="846.734836866" xlink:href="#md9a1c1a7cd" y="76.4080300634"/>
      </g>
     </g>
     <g id="text_25">
      <!-- $0.8$ -->
      <g transform="translate(487.55992982 81.6660757588)scale(0.2 -0.2)">
       <use transform="scale(0.9962640099626402)" xlink:href="#Computer_Modern_Bright-48"/>
       <use transform="translate(50.6432178160025 0.0)scale(0.9962640099626402)" xlink:href="#Computer_Modern_Bright_Math_Slanted-58"/>
       <use transform="translate(79.70066474353986 0.0)scale(0.9962640099626402)" xlink:href="#Computer_Modern_Bright-56"/>
      </g>
     </g>
    </g>
    <g id="ytick_12">
     <g id="line2d_45">
      <g>
       <use style="stroke:#000000;stroke-width:0.5;" x="517.628706332" xlink:href="#md7965d1ba0" y="22.0773936778"/>
      </g>
     </g>
     <g id="line2d_46">
      <g>
       <use style="stroke:#000000;stroke-width:0.5;" x="846.734836866" xlink:href="#md9a1c1a7cd" y="22.0773936778"/>
      </g>
     </g>
     <g id="text_26">
      <!-- $1.0$ -->
      <g transform="translate(487.55992982 27.3354393732)scale(0.2 -0.2)">
       <use transform="scale(0.9962640099626402)" xlink:href="#Computer_Modern_Bright-49"/>
       <use transform="translate(50.6432178160025 0.0)scale(0.9962640099626402)" xlink:href="#Computer_Modern_Bright_Math_Slanted-58"/>
       <use transform="translate(79.70066474353986 0.0)scale(0.9962640099626402)" xlink:href="#Computer_Modern_Bright-48"/>
      </g>
     </g>
    </g>
    <g id="text_27">
     <!-- $g(\hat{p})$ -->
     <defs>
      <path d="
M39.5938 13
L39.7031 13
C39.5 10.7969 38.7969 8.60938 38.4062 6.51562
C37.7969 3.53125 37.2969 0.453125 36.2031 -2.34375
C34.4062 -7.01562 30.4062 -11.6094 25.2031 -12.7031
C23.7031 -13 22.2031 -13 20.7031 -13
C15.7031 -13 12.2031 -12.0312 8.5 -9.89062
C7.5 -9.35938 6.5 -8.60938 5.5 -8.07812
L4.29688 -13.6094
C5.70312 -14.3125 7.09375 -15.1094 8.5 -15.7031
C12.7969 -17.6094 19.7031 -18.8125 25.5 -17.8125
C32.2031 -16.5156 38 -11.7031 41.2031 -5.79688
C42.7969 -2.89062 43.4062 0.125 44.0938 3.32812
C44.7969 6.53125 52.7031 43.6875 53.7031 48.5
C51.5938 48.5 49.5 48.5 47.5938 48.5
L47.2031 47.8125
L45.5938 39.875
C44.5 42.4844 43.9062 44.1875 41.7031 46.1875
C36.9062 50.2969 29.5938 48.5938 24.5938 45.6875
L21.9062 43.8906
C16 39.2812 11.7969 32.6406 10 25.4375
C7.20312 13.6875 11.5938 4.07812 21.7031 2.26562
C27.5938 1.57812 32.9062 4.46875 36.7031 8.89062
C37.7969 10.0938 38.9062 11.4844 39.5938 13
M40.2969 42.5781
C43.0938 40.9844 44.2031 37.375 44.2031 33.5625
C44.0938 32.9688 43.2969 28.9531 43 27.6562
C41.7969 22.2344 40.2031 16.625 36.7031 12.2188
C34.5938 9.625 31.7031 7.51562 28.2969 7.21875
C25.7969 7.01562 23.2969 7.8125 21.7031 8.71875
C16.7969 11.4219 15.0938 17.4375 15.9062 22.75
C16.7969 29.6562 20.9062 36.2656 26.5938 40.1719
C29.9062 42.4844 35.9062 45.1875 40.2969 42.5781
M39.7031 13.0938
C39.7031 13 39.7969 13 39.7969 13.0938
C39.7969 13 39.7031 12.8906 39.7031 13.0938" id="Computer_Modern_Bright_Math_Slanted-103"/>
     </defs>
     <g transform="translate(473.704253109 195.725912787)rotate(-90.0)scale(0.4 -0.4)">
      <use transform="scale(0.9962640099626402)" xlink:href="#Computer_Modern_Bright_Math_Slanted-103"/>
      <use transform="translate(56.353478532651 0.0)scale(0.9962640099626402)" xlink:href="#Computer_Modern_Bright-40"/>
      <use transform="translate(106.12742802868152 9.12106942720925e-05)scale(0.9962640099626402)" xlink:href="#Computer_Modern_Bright-94"/>
      <use transform="translate(95.3736871740738 0.0)scale(0.9962640099626402)" xlink:href="#Computer_Modern_Bright_Math_Slanted-112"/>
      <use transform="translate(150.08946248929797 0.0)scale(0.9962640099626402)" xlink:href="#Computer_Modern_Bright-41"/>
     </g>
    </g>
   </g>
   <g id="text_28">
    <!-- $\frac{\hat{p}^2}{0.06^2 + \hat{p}^2}$ -->
    <g style="fill:#ff0000;" transform="translate(645.241287559 239.39993922)scale(0.4 -0.4)">
     <use transform="translate(110.32167579584372 76.86238556098226)scale(0.6973817666173724)" xlink:href="#Computer_Modern_Bright-94"/>
     <use transform="translate(102.79408760118308 76.86230955207037)scale(0.6973817666173724)" xlink:href="#Computer_Modern_Bright_Math_Slanted-112"/>
     <use transform="translate(141.09494790045144 102.1697351971124)scale(0.4981320049813201)" xlink:href="#Computer_Modern_Bright-50"/>
     <use transform="scale(0.6973817666173724)" xlink:href="#Computer_Modern_Bright-48"/>
     <use transform="translate(35.45008525159558 0.0)scale(0.6973817666173724)" xlink:href="#Computer_Modern_Bright_Math_Slanted-58"/>
     <use transform="translate(55.790206890177465 0.0)scale(0.6973817666173724)" xlink:href="#Computer_Modern_Bright-48"/>
     <use transform="translate(91.24029214177305 0.0)scale(0.6973817666173724)" xlink:href="#Computer_Modern_Bright-54"/>
     <use transform="translate(126.69037739336864 20.146572545337797)scale(0.4981320049813201)" xlink:href="#Computer_Modern_Bright-50"/>
     <use transform="translate(152.5101183063512 0.0)scale(0.6973817666173724)" xlink:href="#Computer_Modern_Bright-43"/>
     <use transform="translate(213.1157481952444 7.600891189341041e-05)scale(0.6973817666173724)" xlink:href="#Computer_Modern_Bright-94"/>
     <use transform="translate(205.58816000058377 0.0)scale(0.6973817666173724)" xlink:href="#Computer_Modern_Bright_Math_Slanted-112"/>
     <use transform="translate(243.88902029985215 20.146572545337797)scale(0.4981320049813201)" xlink:href="#Computer_Modern_Bright-50"/>
     <path d="
M0 57.2694
L269.709 57.2694
L269.709 61.2543
L0 61.2543
L0 57.2694
z
"/>
    </g>
   </g>
   <g id="text_29">
    <!-- B -->
    <defs>
     <path d="
M8.09375 69.125
L8.09375 0
L28.5 0
C38.7031 0 43.7031 0 51.4062 4.3125
C56 7.14062 60.5938 11.6562 61 18.4062
C61 19.4062 61 20.4062 60.7969 21.4062
C59.4062 28.8438 51.9062 33.4844 45.2031 35.4844
C43.5938 35.9844 41.9062 36.2969 40.2031 36.5938
C41.5938 37 43.0938 37.2969 44.5 37.7969
C50.5 39.9844 57.2031 44.1875 58 51.1094
C58.2969 54 57.5938 55.9062 56.7031 57.9062
C52.7969 65.3125 43.4062 69.125 33.5 69.125
C31.2969 69.125 29.0938 69.125 26.9062 69.125
z

M14.7969 39
L14.7969 64
L25.7969 64
C27.4062 64 29 64 30.5938 64
C34.7969 64 39 63.2969 42.9062 61.7031
C46.4062 60.0938 50.7031 57.5938 51.5 53.5
C52.5 48.2969 48.2031 44.1094 43.9062 42
C39.7969 39.9062 35.4062 39 30.7969 39
C28.9062 39 27.0938 39 25.2031 39
z

M14.7969 5.42188
L14.7969 33.7812
L26.2969 33.7812
C35 33.7812 39.4062 33.7812 46.2031 30.2344
C50.7969 27.7031 55.4062 23.0469 54.2031 17.2656
C53.2969 12.4219 48.7031 9.28125 44.4062 7.54688
C40.9062 6.125 37.2031 5.42188 33.5 5.42188
C31.5938 5.42188 29.7969 5.42188 27.9062 5.42188
z
" id="Computer_Modern_Bright-66"/>
    </defs>
    <g transform="translate(517.628706332 13.92779822)scale(0.4 -0.4)">
     <use transform="scale(0.9962640099626402)" xlink:href="#Computer_Modern_Bright-66"/>
    </g>
   </g>
  </g>
 </g>
 <defs>
  <clipPath id="pe6b2154f8c">
   <rect height="271.653181928" width="329.106130535" x="517.628706332" y="22.0773936778"/>
  </clipPath>
  <clipPath id="pc4d4daf6df">
   <rect height="271.653181928" width="329.106130535" x="87.6762063316" y="22.0773936778"/>
  </clipPath>
 </defs>
</svg>
